<svg width="80" height="78" viewBox="0 0 80 78" fill="none" xmlns="http://www.w3.org/2000/svg">
<mask id="mask0_5572_29742" style="mask-type:alpha" maskUnits="userSpaceOnUse" x="0" y="0" width="80" height="77">
<path d="M79.8322 28.0128C79.8731 28.039 79.8696 28.0998 79.8262 28.1214C79.4863 28.2906 79.1503 28.4685 78.8024 28.6228C76.1312 29.8089 73.5751 31.1901 71.4032 33.1746C70.6607 33.8529 69.9893 34.6229 69.3607 35.4111C68.7643 36.1579 68.5651 37.0726 68.5742 38.0222C68.5758 38.1687 68.5971 38.3152 68.6214 38.476C68.6461 38.6394 68.7863 38.7626 68.9516 38.7626H71.8397C72.0207 38.7626 72.1684 38.9098 72.158 39.0905C72.0912 40.246 71.6817 41.2425 70.9789 42.0779C70.0268 43.2084 69.6388 44.5521 69.1899 45.901C68.5354 47.8674 68.4914 49.8946 68.6466 51.9063C68.8083 54.0032 68.0322 55.6751 66.78 57.2346C65.7969 58.4594 64.8448 59.7101 63.8669 60.9401C62.8643 62.2011 62.4905 63.6249 62.5979 65.2257C62.7363 67.2774 63.2175 69.2555 63.6664 71.253C64.0324 72.8835 64.1527 74.5683 64.3739 76.2298C64.3803 76.2767 64.381 76.3242 64.3783 76.3784C64.3671 76.608 64.1139 76.7546 63.9006 76.6692C63.5786 76.5404 63.2853 76.4256 63.0364 76.2479C61.7881 75.3577 61.0197 74.0889 60.391 72.7258C60.0879 72.068 59.7939 71.4056 59.4994 70.7516C59.464 70.673 59.3985 70.6116 59.3183 70.5798C58.4741 70.2455 58.2245 70.0321 57.9837 69.4616C57.9317 69.3383 57.8145 69.2532 57.6807 69.2519C56.3646 69.2383 55.0555 69.3704 53.7951 69.8072C51.5365 70.5889 49.2741 71.3628 47.0479 72.2271C44.5668 73.191 41.9991 73.3861 39.4145 73.0747C36.9399 72.7762 34.4938 72.2388 32.0334 71.8214C31.2081 71.6819 30.3724 71.5992 29.5433 71.4739C29.3376 71.4429 29.1332 71.3628 28.9443 71.271C27.4541 70.5449 25.9821 69.7801 24.4776 69.0849C22.8464 68.3317 21.5865 68.8692 20.9824 70.541C20.734 71.2284 20.5866 71.9506 20.346 72.6406C19.9786 73.6936 19.5944 74.744 19.1714 75.775C18.88 76.4862 18.3334 76.8604 17.5305 76.9815C17.3326 77.0114 17.1692 76.8399 17.1856 76.6404C17.2397 75.9803 17.2761 75.3422 17.3837 74.7169C17.6139 73.3822 18.002 72.0695 18.143 70.7271C18.2827 69.386 18.2142 68.0216 18.1986 66.6689C18.1961 66.4725 18.0149 66.2451 17.861 66.0875C16.7576 64.966 15.6542 63.8445 14.5236 62.7515C13.327 61.5938 12.1641 60.3974 11.3647 58.9349C10.6377 57.6054 9.50196 57.4154 8.24331 57.6609C6.21758 58.0563 4.21643 58.5705 2.20493 59.0382C1.70222 59.1553 1.20289 59.2859 0.702735 59.4111C0.640674 59.4266 0.576074 59.3976 0.546286 59.341C0.518606 59.2884 0.527472 59.224 0.568249 59.1807C0.808274 58.9261 1.03245 58.6863 1.30201 58.462C2.82455 57.1958 4.382 55.9697 5.88643 54.6828C6.78417 53.9141 7.62111 53.0717 8.45158 52.2293C8.61845 52.06 8.72323 51.7357 8.70641 51.4928C8.28988 45.4746 9.68953 39.8272 12.1913 34.4072C13.2429 32.128 14.3349 29.8672 15.4375 27.5404C15.4943 27.4206 15.6186 27.3508 15.7505 27.3385C16.6531 27.2542 16.7998 26.3175 17.1677 25.6318C17.4085 25.1827 17.5879 24.7009 17.7849 24.1967C17.8685 23.9828 18.1409 23.9243 18.3074 24.0824C18.4268 24.1958 18.5432 24.3064 18.6657 24.423C18.794 24.545 18.9961 24.5433 19.1269 24.424C19.4383 24.1397 19.7564 23.8741 19.9851 23.5465C20.9216 22.208 21.8426 20.8565 22.6951 19.465C23.0883 18.8229 23.5256 18.4198 24.2784 18.2092C26.787 17.5074 29.2718 16.7244 31.7463 15.9758C31.8245 15.9522 31.9022 15.9067 31.9373 15.833C31.9416 15.8239 31.9445 15.815 31.9454 15.806C32.1291 14.3254 32.2494 14.2013 33.7474 13.9558C35.3423 13.6948 36.3474 12.8421 36.6165 11.2297C36.8843 9.62112 36.9632 7.98025 37.1197 6.35231C37.2503 4.98148 37.3474 3.60677 37.5091 2.23982C37.6053 1.42441 37.8245 1.02002 38.3455 0.685656C38.5002 0.586369 38.7027 0.656544 38.7866 0.820078C39.0654 1.36303 39.372 1.89639 39.5568 2.4685C40.0781 4.08482 40.492 5.73473 40.9991 7.35621C41.4351 8.749 41.8943 10.1379 42.4221 11.4984C43.1283 13.3215 44.5733 14.0941 46.4696 14.1264C47.2031 14.1393 47.9365 14.1651 48.6687 14.1328C49.5651 14.0941 50.3982 14.2905 51.1161 14.8047C53.0578 16.1975 55.0175 17.5683 56.8855 19.0554C58.2856 20.1709 59.5654 21.438 60.958 22.704C61.0414 22.7797 61.1577 22.8044 61.2688 22.7859C61.9418 22.6738 62.54 23.0162 63.143 23.4285C63.2759 23.5193 63.3208 23.6944 63.2503 23.8391C63.064 24.2212 62.8792 24.5999 62.6858 24.9973C62.6017 25.1702 62.6846 25.3774 62.8597 25.4568C64.2471 26.0863 65.2267 27.187 66.3143 28.1486C66.7011 28.4897 67.1163 28.8011 67.5264 29.1151C68.2986 29.7068 69.1537 29.8296 70.0928 29.5931C71.909 29.1358 73.7239 28.6719 75.553 28.2753C76.9716 27.9674 78.3147 27.7972 79.8072 28.0036C79.8161 28.0048 79.8247 28.008 79.8322 28.0128ZM41.4551 67.4693C41.4555 67.4689 41.4561 67.4686 41.4567 67.4686C42.9427 67.4686 44.4287 67.4854 45.9147 67.4583C46.3118 67.4505 46.749 67.3924 47.097 67.2167C48.9598 66.2774 50.8341 65.3562 52.6361 64.3096C54.4949 63.2308 54.6515 62.6946 54.1004 60.5925C53.6037 58.6997 52.6865 56.9878 51.7164 55.3133C50.569 53.3314 49.6738 51.3016 49.6169 48.9553C49.5871 47.724 49.2327 46.5431 48.6467 45.4384C48.128 44.4604 47.3247 43.9978 46.242 43.9836C43.2473 43.9449 40.3148 44.3027 37.4625 45.2679C30.0891 47.7654 25.5979 53.8301 25.4737 61.4026C25.4439 63.2295 26.2356 64.4699 27.8332 65.1934C28.9469 65.6986 30.1073 66.1185 31.2766 66.4777C34.5944 67.497 38.0194 67.5914 41.4536 67.47C41.4541 67.4699 41.4547 67.4697 41.4551 67.4693ZM15.1444 47.9646C15.1445 47.9644 15.1446 47.9643 15.1448 47.9643C15.4461 47.9398 15.6581 47.9385 15.8637 47.9049C18.4819 47.4772 20.9216 46.5199 23.2785 45.3493C24.0249 44.9785 24.7234 44.4978 25.4012 44.0082C25.66 43.8208 25.8786 43.4939 25.9769 43.1864C27.9522 37.0481 29.908 30.9032 31.8652 24.7597C31.8855 24.6957 31.9014 24.6305 31.9159 24.563C31.9535 24.3875 31.8394 24.2106 31.6609 24.1917C30.9509 24.1168 30.3334 24.3511 29.7425 24.7003C27.4541 26.053 25.3249 27.6241 23.3884 29.442C20.5503 32.1048 18.1508 35.0855 16.7278 38.7639C15.595 41.6921 15.181 44.7365 15.1433 47.9643C15.1432 47.965 15.1441 47.9652 15.1444 47.9646ZM63.0863 37.8912C63.0865 37.8914 63.0863 37.8918 63.0861 37.8918C62.8781 37.8917 62.6856 37.8634 62.5034 37.8969C61.5734 38.0623 60.6355 38.2006 59.7197 38.4292C57.7509 38.9215 55.8571 39.6231 54.0914 40.6399C53.1031 41.2097 52.9258 41.5843 53.1238 42.6968C53.1949 43.0986 53.2673 43.5043 53.3954 43.8906C54.1884 46.2976 54.9218 48.7279 55.8234 51.0936C56.6099 53.1569 57.5775 55.1531 58.4998 57.1622C58.6166 57.4155 58.8107 57.6332 59.0265 57.8769C59.1806 58.0509 59.4669 58.0259 59.5785 57.822C60.585 55.9825 61.3396 54.2121 61.8153 52.3236C62.9872 47.6736 63.1748 42.9332 63.1334 38.1708C63.1334 38.091 63.1077 38.0098 63.0857 37.8915C63.0857 37.8912 63.0861 37.891 63.0863 37.8912ZM32.4564 40.8455C32.4564 40.8461 32.4569 40.8467 32.4575 40.8468C32.5928 40.8648 32.6947 40.8905 32.7966 40.8905C34.8896 40.8918 36.9683 40.7471 39.0044 40.2187C40.3886 39.8595 41.7015 39.3388 42.8929 38.5326C43.8217 37.9034 44.2499 37.0403 44.0856 35.9343C43.9782 35.2147 43.8527 34.4834 43.6186 33.7986C42.4673 30.4433 40.646 27.4161 38.879 24.3643C38.6086 23.8966 38.1403 23.9108 37.8506 24.3643C37.7018 24.5982 37.5802 24.8566 37.4884 25.1189C37.0537 26.3553 36.61 27.5892 36.2116 28.8373C34.9801 32.7056 33.7681 36.5816 32.5508 40.4538C32.5133 40.5714 32.4926 40.6954 32.4564 40.8452C32.4564 40.8453 32.4564 40.8454 32.4564 40.8455ZM45.4387 23.2438C45.4387 23.2435 45.4382 23.2433 45.438 23.2436L45.2852 23.4034C45.2626 23.4271 45.2548 23.4613 45.2649 23.4924C46.1606 26.251 47.0175 29.0233 47.9715 31.7624C48.3285 32.7883 48.8783 33.7547 49.4073 34.7108C49.8898 35.5842 50.6569 35.9046 51.6853 35.8116C54.2262 35.5833 56.3047 34.2578 58.4517 33.1876C58.5496 33.1388 58.6182 33.045 58.6278 32.9361C58.7089 32.0244 58.45 31.2751 57.9255 30.6138C57.5646 30.1603 57.2011 29.6952 56.7703 29.3128C53.9245 26.7817 50.6996 24.8734 47.1151 23.5878C46.5836 23.3966 45.999 23.3553 45.439 23.2442C45.4388 23.2442 45.4387 23.244 45.4387 23.2438ZM19.7722 59.7695C19.8528 59.7341 19.9094 59.6611 19.9335 59.5764C20.4979 57.597 21.0631 55.6404 21.6059 53.6763C21.6757 53.4246 21.696 53.1595 21.721 52.8664C21.7384 52.6624 21.5712 52.4861 21.3672 52.502C19.6785 52.6335 18.1426 52.956 16.8598 54.0549C16.3708 54.4735 15.9646 55.0226 16.0849 55.6803C16.3786 57.2927 17.0681 58.701 18.5065 59.6287C18.8955 59.8794 19.3054 59.9749 19.7722 59.7695Z" fill="white"/>
</mask>
<g mask="url(#mask0_5572_29742)">
<path d="M30.169 62.8514C30.097 63.848 29.8328 64.8807 29.9889 65.8293C30.3851 68.2309 28.596 68.0388 27.2631 68.1709C25.8101 68.315 24.5973 69.7679 22.9883 68.9394C23.0603 68.8433 23.1204 68.7593 23.1924 68.6632C25.0777 67.3663 26.0983 65.0128 28.596 64.3764C29.0763 64.2683 29.0523 62.8274 30.169 62.8514Z" fill="#FEDAA5"/>
<path d="M-0.246384 39.4112C-0.246384 25.9488 -0.246384 12.4864 -0.257812 -0.976024C-0.257812 -1.36458 -0.177815 -1.44458 0.210743 -1.44458C27.1699 -1.43315 54.1404 -1.43315 81.0995 -1.44458C81.4881 -1.44458 81.5681 -1.36458 81.5681 -0.976024C81.5566 25.9831 81.5566 52.9536 81.5681 79.9127C81.5681 80.3013 81.4881 80.3813 81.0995 80.3813C54.1404 80.3699 27.1699 80.3699 0.210743 80.3813C-0.177815 80.3813 -0.257812 80.3013 -0.257812 79.9127C-0.246384 66.4046 -0.246384 52.9079 -0.246384 39.4112ZM0.496448 43.1254C0.496448 54.8393 0.48502 66.5532 0.48502 78.2556C0.713584 78.7013 -0.120674 79.6499 0.976432 79.6499C24.9299 79.6727 48.8834 79.6727 72.8369 79.6613C73.0426 79.6613 73.4426 79.3756 73.4198 79.307C72.9969 77.4442 74.1626 77.5699 75.3854 77.6271C76.7111 77.6957 78.0482 77.6157 79.3853 77.6499C79.8653 77.6614 79.9795 77.5242 79.9795 77.0443C79.9567 71.6273 79.9681 66.2217 79.9681 60.8048C79.9567 40.5083 79.9567 20.2118 79.9453 -0.0846249C79.8538 -0.164622 79.7738 -0.301761 79.6824 -0.301761C77.2253 -0.301761 74.7797 -0.301761 72.3226 -0.267476C72.1969 -0.267476 71.9569 0.121083 71.9569 0.315362C71.9341 7.20656 71.957 14.0863 72.0484 20.9661C72.0713 22.6118 71.1684 23.2632 69.877 23.6517C69.4428 23.766 69.0542 23.8232 68.6199 23.9374C66.9628 23.9374 65.2486 23.4232 64.5515 25.8917C64.1058 27.4345 62.6658 28.6916 61.6716 30.0744C61.203 30.4172 60.7802 30.8515 60.2659 31.0915C57.9003 32.2343 55.6603 30.4515 53.1347 30.8058C50.3462 31.1943 48.5143 31.9599 48.4229 34.897C48.4229 35.0341 49.8419 37.8525 47.2148 36.2368C47.1005 36.1682 46.9406 36.2342 46.7921 36.2342C44.8836 34.9656 42.5979 36.2685 40.6437 35.3085C40.5637 35.1599 40.4837 35.0114 40.3923 34.8628C40.4037 34.0971 40.4723 33.3314 40.4037 32.5772C40.3008 31.5143 40.4494 30.9086 41.7751 31.1372C42.5636 31.2743 43.8436 31.5372 44.1293 30.6686C45.1693 27.5259 46.7349 24.6574 48.0834 21.6747C48.8606 19.949 47.0663 18.2919 46.8492 16.532C46.6321 14.8406 45.2378 13.4006 45.775 11.595C46.5292 9.10364 48.3234 7.22942 49.7748 5.14949C49.9234 5.00092 50.072 4.85235 50.2319 4.69236C51.4776 2.84099 52.929 1.24105 55.1689 0.57821C55.5118 0.395359 56.266 0.726776 56.1518 0.00680017C56.0603 -0.610322 55.4089 -0.290333 55.0432 -0.290333C37.5352 -0.278904 20.0272 -0.24462 2.50781 -0.347474C0.462164 -0.358902 0.142174 0.349646 0.473592 2.00673C0.473592 15.252 0.473592 28.5087 0.473592 41.754C0.48502 42.2111 0.496448 42.6682 0.496448 43.1254ZM61.0773 9.67505C61.0544 9.67505 61.0316 9.67505 60.9973 9.67505C60.9973 6.66944 60.9973 3.66382 60.9973 0.658208C60.9973 0.32679 61.1459 -0.096053 60.5173 -0.0846249C59.8888 -0.0731966 60.0716 0.372503 60.0716 0.681064C60.0259 6.54373 59.9916 12.4064 59.9459 18.2691C59.9459 18.9205 60.2202 19.3433 60.8145 19.5719C60.8602 19.5947 61.0659 19.4004 61.0659 19.3204C61.0773 16.0977 61.0773 12.8864 61.0773 9.67505Z" fill="#FCE8EC"/>
<path d="M79.9256 -0.0617676C79.937 20.2347 79.937 40.5312 79.9484 60.8276C79.9484 66.2446 79.9484 71.6501 79.9599 77.0671C79.9599 77.5357 79.8456 77.6842 79.3656 77.6728C78.0285 77.6385 76.7028 77.7071 75.3657 77.6499C74.1315 77.5928 72.9658 77.4671 73.4001 79.3299C73.4229 79.4099 73.0229 79.6842 72.8172 79.6842C48.8637 79.6956 24.9102 79.6956 0.956758 79.6727C-0.140349 79.6727 0.682481 78.7242 0.465345 78.2785C0.591056 78.1528 0.716766 78.0271 0.831048 77.9014C2.07672 76.5186 3.32239 75.1357 4.55664 73.7529C8.97935 73.6844 13.4135 73.6615 17.8362 73.4558C18.3505 73.4329 18.4647 75.09 19.0933 73.6958C19.3104 73.2158 19.7104 72.8272 20.019 72.393C19.9504 72.713 19.7218 73.1244 19.8361 73.3415C20.179 73.9701 20.4418 73.2615 20.6132 73.1358C21.7218 72.2444 22.6703 73.2501 23.596 73.4787C24.2017 73.6272 24.6017 74.6786 25.0588 75.3414C25.4588 75.9243 25.8016 76.5528 26.1674 77.1585C26.1902 76.6557 26.2359 76.1528 26.2473 75.6614C26.2588 75.2043 26.2016 74.7472 26.2588 74.2901C26.4416 72.8501 26.1331 71.5016 27.973 70.4159C29.4472 69.5474 31.6529 68.4045 31.2529 65.7646C31.0815 64.6447 31.2529 63.479 31.2758 62.3247C32.4186 61.5019 33.5728 60.6677 34.7156 59.8448C36.327 58.462 38.1898 57.5706 40.2012 56.9535C40.2583 56.9535 40.3155 56.9535 40.3726 56.9535C40.464 56.9192 40.5669 56.8735 40.6583 56.8392C42.9211 57.0678 42.6582 55.205 43.0582 53.9136C45.9724 52.8051 49.2866 54.9421 52.0865 52.7708C52.8636 52.1651 53.9036 51.8451 54.5321 51.148C55.5835 49.9823 56.6806 49.1023 58.292 48.828C59.1834 48.6795 60.6234 49.2623 60.8748 48.1195C61.1376 46.931 60.6691 45.5939 60.5205 44.3139C61.0691 43.6282 61.6062 42.9539 62.1547 42.2683C62.6119 40.8512 63.5375 41.9368 64.2232 41.914C66.5203 41.8111 66.886 39.7083 67.9603 38.3827C69.9373 35.937 71.1259 33.0229 72.0973 30.0972C73.0229 27.343 72.1544 24.4289 72.1544 21.5718C72.1658 14.5663 72.1544 7.57227 72.1658 0.566783C72.1658 0.383932 72.2572 0.189653 72.303 0.0068014C72.4401 0.0753706 72.5772 0.132512 72.7029 0.201081C72.6115 0.235366 72.5087 0.26965 72.4172 0.303934C72.4515 0.338219 72.4744 0.372503 72.5087 0.418216C72.5658 0.349647 72.6344 0.281079 72.6915 0.201081C75.1257 0.0867993 77.5257 0.00680158 79.9256 -0.0617676Z" fill="#F18928" stroke="#F18928" stroke-width="0.163692"/>
<path d="M0.453125 41.7542C0.453125 28.5089 0.453125 15.2522 0.453125 2.00695C0.510266 2.00695 0.578835 1.99552 0.635976 1.99552C7.58432 1.99552 14.5327 2.06409 21.481 1.94981C23.3781 1.91552 24.6923 2.44122 25.9609 3.82403C27.1722 5.12685 28.7036 6.13253 30.0979 7.26392C31.3321 8.3496 30.7607 9.94954 30.7264 11.1038C30.635 14.4294 30.635 17.8121 29.5607 21.0577C29.2979 21.8691 29.3322 22.7948 29.0579 23.6062C28.4865 25.3205 29.515 27.229 28.2008 28.8975C27.1494 30.2346 26.4066 31.8231 25.5266 33.2973C24.7495 34.543 23.6181 35.5944 23.4695 37.1715C23.3895 37.1943 23.3095 37.2058 23.2295 37.2286C21.5381 36.8972 19.5154 38.7372 18.1325 36.4172C18.1325 36.4172 18.0411 36.4515 18.0297 36.4744C17.6183 37.7658 16.2697 37.8115 15.3898 38.04C11.5042 39.0571 7.48146 39.0114 3.51588 38.7257C0.955965 38.5429 0.144564 39.3428 0.61312 41.7428C0.567407 41.7542 0.510266 41.7542 0.453125 41.7542Z" fill="#80C9C1" stroke="#80C9C1" stroke-width="0.163692"/>
<path d="M25.5391 33.2858C26.419 31.8115 27.1619 30.223 28.2133 28.8859C29.5275 27.2174 28.499 25.3089 29.0704 23.5947C29.3447 22.7833 29.2989 21.869 29.5732 21.0462C30.636 17.812 30.636 14.4178 30.7389 11.0922C30.7732 9.92654 31.3332 8.33802 30.1103 7.25234C31.7789 8.01803 34.0188 7.06949 35.2416 9.36656C36.2701 11.2979 37.7787 8.87514 39.0929 9.33227C39.3329 8.55516 39.9957 8.01803 40.0186 7.04663C40.0414 6.28094 40.2586 4.601 41.1843 4.84099C44.0527 5.59525 46.9212 4.66957 49.744 5.18384C48.2926 7.26377 46.4869 9.13799 45.7441 11.6293C45.207 13.4236 46.6012 14.8749 46.8184 16.5663C47.0355 18.3263 48.8297 19.9833 48.0526 21.709C46.7041 24.6918 45.1384 27.5717 44.0985 30.703C43.8127 31.5715 42.5328 31.3087 41.7442 31.1715C40.4071 30.943 40.27 31.5372 40.3729 32.6115C40.4414 33.3658 40.3729 34.1315 40.3614 34.8971C38.7501 34.8171 37.1387 34.7829 35.5387 34.6343C35.0587 34.5886 34.6016 34.2686 34.1331 34.0743C34.3616 33.6172 34.1445 32.8972 34.9216 32.7486C35.0016 32.7372 35.1387 32.4515 35.1045 32.3944C34.6588 31.7772 34.1902 31.183 33.7102 30.6001C33.6988 30.5887 33.4245 30.7373 33.3217 30.8516C31.2417 33.2515 28.8647 34.7943 25.5391 33.2858Z" fill="#95C7DB" stroke="#95C7DB" stroke-width="0.163692"/>
<path d="M49.7528 5.18398C46.93 4.68114 44.0615 5.5954 41.193 4.84114C40.2559 4.60114 40.0502 6.28109 40.0274 7.04678C39.9931 8.01817 39.3417 8.5553 39.1017 9.33241C37.7874 8.87529 36.2789 11.2981 35.2504 9.3667C34.0276 7.06963 31.7876 8.01817 30.1191 7.25248C28.7249 6.12109 27.1821 5.11541 25.9821 3.8126C24.7136 2.42979 23.3879 1.90409 21.5023 1.93837C14.5311 2.06408 7.58273 1.99551 0.634385 1.99551C1.00009 1.35554 -0.165588 -0.0272759 1.30865 -0.0387041C18.5538 -0.0958451 35.8104 -0.0844169 53.0555 -0.0387041C53.7526 -0.0387041 54.4383 0.38414 55.1354 0.612703C52.8955 1.26411 51.4441 2.87549 50.1985 4.72685C50.0499 4.87542 49.9013 5.02399 49.7528 5.18398Z" fill="#87ADD4" stroke="#87ADD4" stroke-width="0.163692"/>
<path d="M47.6758 48.1309C47.7901 46.9538 48.3615 46.371 49.6071 46.2796C50.91 46.1881 50.0871 44.9539 50.43 44.2911C51.2185 42.7482 51.7556 41.0454 51.6756 39.2398C52.1785 39.0569 52.7156 38.9427 53.1613 38.6684C54.7155 37.7084 55.8241 36.257 57.824 35.7085C58.9211 35.3999 60.0411 35.4799 61.0696 35.1256C62.9553 34.4742 62.8639 32.4286 63.6981 31.0229C64.7266 30.2001 65.1952 29.0687 65.7895 27.9259C66.338 26.8859 65.5038 24.8974 67.5951 24.7946C68.2122 24.7603 68.4408 24.4517 68.5437 23.926C68.9779 23.8117 69.4216 23.7062 69.8559 23.5919C70.8844 28.6432 68.7494 32.76 65.0466 35.5828C62.4867 37.5256 62.5667 39.7998 62.1553 42.2454C61.6067 42.9311 61.0696 43.6054 60.5211 44.2911C59.9382 45.3996 58.8983 44.8396 58.0526 44.9425C57.2983 45.0339 56.5441 44.8167 55.8469 45.3996C53.5042 47.3767 50.7842 48.3709 47.6758 48.1309Z" fill="#FEDAA5" stroke="#FEDAA5" stroke-width="0.163692"/>
<path d="M63.7304 31.004C62.8961 32.4097 62.9714 34.4623 61.0857 35.1251C60.0572 35.4794 58.9324 35.3965 57.8353 35.705C55.8354 36.2536 54.7239 37.7088 53.1697 38.6688C52.724 38.9431 52.1665 39.0596 51.675 39.2424C50.0408 38.2482 48.4074 37.2236 46.7617 36.2294C46.9103 36.2294 47.1046 36.1608 47.2074 36.2294C49.7445 37.795 48.3845 35.0294 48.3845 34.8923C48.4759 31.9552 50.3273 31.1895 53.1044 30.801C55.63 30.4467 57.8585 32.2295 60.2356 31.0867C60.7498 30.8353 61.1727 30.4124 61.6412 30.0696C62.3383 30.3781 63.0447 30.6954 63.7304 31.004Z" fill="#FFF1CF" stroke="#FFF1CF" stroke-width="0.163692" stroke-linejoin="bevel"/>
<path d="M43.0532 53.8855C42.641 55.1906 42.9158 57.0452 40.6491 56.8162C40.6001 56.6817 40.394 56.8256 40.3629 56.9421C40.3056 56.9421 40.2195 56.9014 40.1623 56.9014C39.8188 50.3646 40.0996 43.8226 39.0234 37.3316C39.115 36.3127 39.7561 35.7174 40.6262 35.2938C42.5838 36.2669 44.8734 34.9618 46.7852 36.2211C48.4223 37.2171 50.0266 38.2431 51.6751 39.239C51.7552 41.0478 51.25 42.7122 50.4601 44.2691C50.1166 44.9331 50.9409 46.1695 49.6358 46.2611C48.388 46.3412 47.8156 46.9365 47.7011 48.1157C46.1327 50.039 44.5872 51.9622 43.0532 53.8855Z" fill="#A29EA1" stroke="#A29EA1" stroke-width="0.163692"/>
<path d="M0.453125 41.7541C0.510266 41.7541 0.567407 41.7426 0.624548 41.7426C7.64146 41.9941 14.6584 42.3255 21.6638 41.5255C19.6296 44.1197 17.6183 46.2796 13.6755 45.9368C9.41283 45.5711 5.07011 46.0739 0.773115 46.2111C0.670261 45.1825 0.578835 44.154 0.475981 43.1255C0.464553 42.6683 0.453125 42.2112 0.453125 41.7541Z" fill="#797AAA" stroke="#797AAA" stroke-width="0.163692"/>
<path d="M62.1523 42.2454C62.5638 39.7998 62.4838 37.5256 65.0437 35.5828C68.7464 32.76 70.8835 28.6459 69.8435 23.5946C71.1349 23.2061 71.9806 22.6461 71.9577 21.0004C71.8663 14.1206 71.9234 7.22944 71.9349 0.349667C71.9349 0.14396 72.1634 -0.23317 72.3006 -0.23317C74.7576 -0.278883 77.2033 -0.278883 79.6603 -0.267455C79.7518 -0.267455 79.8318 -0.130317 79.9232 -0.0503193C77.5233 0.0182498 75.1233 0.0982474 72.7234 0.166817C72.5863 0.0982474 72.4491 0.0411068 72.3234 -0.0274624C72.2777 0.155389 72.1863 0.349667 72.1863 0.532518C72.1749 7.538 72.1863 14.5321 72.1749 21.5375C72.1634 24.3832 73.0434 27.3088 72.1177 30.063C71.1349 32.9886 69.9578 35.9028 67.9807 38.3484C66.9065 39.6741 66.5408 41.7883 64.2437 41.8797C63.5352 41.914 62.6095 40.8283 62.1523 42.2454Z" fill="#F8B570"/>
<path d="M40.656 35.2812C39.7989 35.7041 39.1218 36.3486 39.0189 37.3657C38.5618 37.6742 38.0932 37.9942 37.6361 38.3028C35.3505 38.2342 33.0762 38.1542 30.7906 38.0856C30.3335 38.0171 29.8763 37.9371 29.4192 37.8685C27.5336 36.7828 25.4651 37.32 23.4766 37.16C23.6251 35.5829 24.7565 34.5315 25.5336 33.2858C28.8592 34.7829 31.2249 33.2401 33.3277 30.8402C33.4305 30.7259 33.7048 30.5773 33.7162 30.5888C34.1962 31.1716 34.6648 31.7659 35.1105 32.383C35.1447 32.4401 35.019 32.7144 34.9276 32.7373C34.1505 32.8858 34.3791 33.6058 34.1391 34.0629C34.6076 34.2572 35.0647 34.5772 35.5447 34.6229C37.1447 34.76 38.8014 34.7816 40.4128 34.8616C40.4928 35.0101 40.576 35.1327 40.656 35.2812Z" fill="#87ADD4"/>
<path d="M61.0985 9.66178C61.0985 12.8865 61.0814 16.1997 61.0699 19.4243C61.0699 19.5161 60.8634 19.6997 60.8175 19.6768C60.2322 19.4473 59.9453 19.0342 59.9453 18.3686C59.9912 12.4815 60.0106 6.58891 60.0565 0.701878C60.0565 0.392034 59.8834 -0.0793739 60.5145 -0.0908496C61.1342 -0.102325 61.0157 0.323987 61.0272 0.656782C61.0272 3.67489 61.0181 6.6322 61.0181 9.65031C61.0411 9.66178 61.064 9.66178 61.0985 9.66178Z" fill="#DDC4E0"/>
<path d="M63.6971 31.0344C63.0114 30.7258 62.3029 30.3601 61.6172 30.0515C62.6114 28.6687 64.0285 27.4231 64.4742 25.8803C65.1828 23.4232 66.9938 23.9122 68.6395 23.9007C68.5366 24.4264 68.2341 24.7717 67.617 24.7946C65.5256 24.8974 66.3942 26.8974 65.8456 27.9373C65.2628 29.0916 64.7256 30.2115 63.6971 31.0344Z" fill="#F8C9D1" stroke="#F8C9D1" stroke-width="0.163692"/>
<path d="M55.1386 0.61244C54.4414 0.383876 53.7557 -0.0389678 53.0586 -0.0389678C35.8135 -0.0732524 18.5569 -0.0961088 1.31177 -0.0389678C-0.162467 -0.0389678 0.99178 1.34384 0.637506 1.99525C0.580365 1.99525 0.511796 2.00668 0.454655 2.00668C0.111809 0.349591 0.431799 -0.358957 2.47745 -0.347529C19.9854 -0.244675 37.5049 -0.290388 55.0128 -0.267531C55.39 -0.267531 56.03 -0.58752 56.1214 0.0296021C56.2471 0.761006 55.4928 0.429589 55.1386 0.61244Z" fill="#95C7DB" stroke="#95C7DB" stroke-width="0.163692"/>
<path d="M0.464553 43.1254C0.567407 44.1539 0.658833 45.1824 0.761686 46.211C0.715974 46.9081 0.624548 47.6052 0.624548 48.3023C0.61312 57.9477 0.61312 67.5931 0.624548 77.2385C0.624548 77.4557 0.750258 77.6728 0.818827 77.8899C0.693117 78.0156 0.567407 78.1414 0.453125 78.2671C0.453125 66.5532 0.464553 54.8393 0.464553 43.1254Z" fill="#9B8BC1"/>
<path d="M49.7539 5.18393C49.9025 5.03537 50.051 4.8868 50.211 4.72681C50.051 4.87537 49.9025 5.02394 49.7539 5.18393Z" fill="#95C7DB"/>
<path d="M0.820038 77.8901C0.751469 77.6729 0.625759 77.4558 0.625759 77.2387C0.61433 67.5933 0.61433 57.9479 0.625759 48.3025C0.625759 47.6054 0.717184 46.9082 0.762897 46.2111C5.07133 46.0854 9.40261 45.5711 13.6653 45.9368C17.6081 46.2797 19.6194 44.1198 21.6536 41.5256C21.7108 41.5141 21.7793 41.5027 21.8365 41.4798C22.6365 41.1827 23.0136 41.6398 23.7107 42.0513C26.4192 43.6283 29.3677 42.8169 31.9619 41.5598C33.699 40.7256 34.8875 41.217 35.4932 42.5084C37.0703 45.9254 36.3846 49.6853 36.796 53.2852C37.2645 57.3307 34.8189 56.3593 32.7276 56.3708C31.3333 56.3822 29.9505 56.3936 28.5563 56.3593C28.2591 56.3479 27.9163 56.2222 27.6877 56.0279C26.1449 54.7937 24.3278 56.2908 22.7507 55.5137C21.0594 54.6794 19.928 56.7822 18.3737 56.3251C17.8938 56.1879 17.5395 55.2622 17.1281 55.2737C14.6596 55.3194 12.1682 55.3308 10.0769 57.045C9.17405 57.7879 7.6541 57.9479 7.58553 59.4335C7.47125 61.7306 7.4941 64.0391 7.50553 66.3362C7.51696 68.4504 7.53982 68.4504 8.7512 68.8846C8.81977 68.9075 8.83687 69.081 8.87116 69.1838C7.4312 70.7038 5.99701 72.2217 4.55706 73.7302C3.31138 75.1244 2.06571 76.5072 0.820038 77.8901Z" fill="#6E5EA6" stroke="#6E5EA6" stroke-width="0.163692"/>
<path d="M8.86718 69.1931C8.8329 69.0903 8.82147 68.9188 8.7529 68.896C7.54151 68.4617 7.51866 68.4731 7.50723 66.3475C7.4958 64.0504 7.48437 61.7419 7.58722 59.4449C7.65579 57.9592 9.17574 57.7992 10.0786 57.0564C12.1699 55.3421 14.6613 55.3193 17.1298 55.285C17.5298 55.2736 17.8955 56.1992 18.3754 56.3364C19.9297 56.7935 21.0611 54.6907 22.7524 55.525C24.3181 56.3021 26.1466 54.805 27.6894 56.0393C27.918 56.2221 28.2608 56.3592 28.558 56.3707C29.9522 56.405 31.335 56.3935 32.7292 56.3821C34.8206 56.3707 37.2548 57.3421 36.7977 53.2965C36.3863 49.6966 37.072 45.9367 35.4949 42.5197C34.9006 41.2283 33.7006 40.7369 31.9636 41.5712C29.3694 42.8283 26.4209 43.6397 23.7124 42.0626C23.0153 41.6512 22.6382 41.194 21.8382 41.4912C22.3067 40.0741 22.7739 38.6354 23.2424 37.2183C23.3224 37.1954 23.4049 37.1826 23.4848 37.1598C25.4734 37.3198 27.5401 36.7799 29.4257 37.8656C29.8829 37.9341 30.3431 38.0153 30.8002 38.0839C31.1088 38.6096 37.075 38.7859 37.6371 38.3053C38.0942 37.9967 38.5705 37.6661 39.0276 37.3576C40.1019 43.8373 39.8376 50.428 40.1804 56.9535C38.1691 57.5592 36.2948 58.4506 34.6949 59.8448C32.775 59.7648 30.8093 59.8791 28.9351 59.5477C26.2609 59.0792 24.2038 60.2334 22.1353 61.5476C21.2782 62.0848 20.3411 62.2219 19.4383 61.9591C16.3412 61.0791 13.5185 62.9647 13.6785 66.0961C13.7927 68.1989 13.5185 69.4445 11.0043 68.736C10.49 68.5874 9.86144 68.8274 9.29003 68.8845C9.15289 68.976 9.00432 69.0788 8.86718 69.1931Z" fill="#797AAA" stroke="#797AAA" stroke-width="0.163692"/>
<path d="M9.29688 68.8729C9.86828 68.8157 10.4968 68.5757 11.0111 68.7243C13.5367 69.4328 13.7996 68.1986 13.6853 66.0844C13.5253 62.9531 16.3366 61.0674 19.4451 61.9474C20.3479 62.2102 21.2851 62.0731 22.1422 61.536C24.2107 60.2331 26.2677 59.0675 28.9419 59.536C30.8162 59.8674 32.7818 59.7532 34.7017 59.8332C33.5589 60.656 32.4047 61.4902 31.2619 62.3131C30.8619 62.5531 30.4733 62.7931 30.0733 63.0216C29.0219 62.9988 29.0334 64.3702 28.5648 64.4844C26.1877 65.0901 25.2163 67.3301 23.4221 68.5643C23.2393 68.2329 23.1136 68.1415 22.6793 68.3815C22.005 68.7472 21.2279 69.0786 20.4736 69.1129C17.0223 69.2614 13.5824 69.3071 10.1311 69.3414C9.84543 69.3528 9.57115 69.0329 9.29688 68.8729Z" fill="#A29EA1" stroke="#A29EA1" stroke-width="0.163692"/>
<path d="M47.672 48.1309C50.7804 48.3823 53.5003 47.3766 55.8546 45.3995C56.5517 44.8167 57.3059 45.0338 58.0602 44.9424C58.9059 44.8396 59.9458 45.3996 60.5287 44.291C60.6773 45.571 61.1344 46.9081 60.883 48.0966C60.6315 49.2508 59.1916 48.6566 58.3002 48.8052C56.6888 49.0794 55.5917 49.948 54.5403 51.1251C53.9003 51.8336 52.8604 52.1536 52.0947 52.7479C49.2948 54.9307 45.9806 52.7822 43.0664 53.8907C44.5864 51.9708 46.1292 50.0508 47.672 48.1309Z" fill="#F8B570"/>
<path d="M9.29811 68.8733C9.57885 69.0392 9.85679 69.3515 10.1311 69.3401C13.5824 69.2944 17.0337 69.2496 20.4736 69.1124C21.2278 69.0782 22.0028 68.7503 22.6771 68.3732C23.1113 68.1332 23.2542 68.2265 23.4371 68.5579C23.3685 68.6494 23.2976 68.7475 23.2291 68.839C22.1548 70.0161 21.092 71.2046 20.0178 72.3817C19.6978 72.816 19.3092 73.2045 19.0921 73.6845C18.4635 75.0788 18.3607 73.4217 17.835 73.4445C13.4123 73.6617 8.96959 73.6692 4.54688 73.7377C5.98683 72.2178 7.41973 70.7004 8.85968 69.1919C8.99682 69.0776 9.14955 68.9761 9.29811 68.8733Z" fill="#B59259" stroke="#B59259" stroke-width="0.163692"/>
<path d="M20.0161 72.37C21.0903 71.1929 22.1531 70.0043 23.2274 68.8272C24.7588 69.6158 25.913 68.233 27.2958 68.0958C28.5643 67.9701 30.2671 68.153 29.89 65.8673C29.7414 64.9531 29.9929 63.9817 30.0614 63.0331C30.4614 62.7931 30.85 62.5531 31.25 62.3246C31.2385 63.4674 31.0557 64.6445 31.2271 65.7645C31.6271 68.4044 29.4215 69.5472 27.9472 70.4157C26.1073 71.5014 26.4158 72.8499 26.233 74.2899C26.1758 74.7356 26.233 75.2042 26.2216 75.6613C26.2101 76.1641 26.1644 76.667 26.1416 77.1584C25.7759 76.5527 25.433 75.9241 25.033 75.3413C24.5759 74.667 24.1759 73.6271 23.5702 73.4785C22.6445 73.2499 21.696 72.2557 20.5875 73.1357C20.4275 73.2614 20.1646 73.9699 19.8103 73.3414C19.7189 73.1128 19.9475 72.7014 20.0161 72.37Z" fill="#F8B570"/>
<path d="M23.2414 37.217C22.7729 38.6341 22.3157 40.0626 21.8472 41.4797C21.79 41.4911 21.7215 41.5025 21.6643 41.5254C14.6588 42.3368 7.64193 41.9939 0.625024 41.7425C0.156468 39.354 0.979298 38.5541 3.52778 38.7255C7.49337 38.9998 11.5161 39.0455 15.4017 38.0398C16.2816 37.8112 17.6302 37.7541 18.0416 36.4741C18.053 36.4398 18.1444 36.417 18.1444 36.417C19.5273 38.7255 21.5615 36.897 23.2414 37.217Z" fill="#A29EA1" stroke="#A29EA1" stroke-width="0.163692"/>
<path d="M37.6424 38.3026C37.151 38.8054 31.1169 38.6111 30.7969 38.0854C33.0825 38.154 35.3682 38.234 37.6424 38.3026Z" fill="#7D89C1" stroke="#7D89C1" stroke-width="0.163692"/>
<path d="M30.7972 38.0858C30.34 38.0172 29.8829 37.9372 29.4258 37.8687C29.8829 37.9372 30.34 38.0172 30.7972 38.0858Z" fill="#7D89C1"/>
</g>
</svg>
