<svg width="446" height="42" viewBox="0 0 446 42" fill="none" xmlns="http://www.w3.org/2000/svg">
<g clip-path="url(#clip0_5572_29823)">
<path d="M42.5 21C42.5 30.3874 34.8874 38 25.5 38C16.1126 38 8.5 30.3874 8.5 21C8.5 11.6126 16.1126 4 25.5 4C34.8874 4 42.5 11.6126 42.5 21Z" fill="url(#paint0_linear_5572_29823)"/>
<mask id="path-2-outside-1_5572_29823" maskUnits="userSpaceOnUse" x="16.6992" y="7.94983" width="18" height="27" fill="black">
<rect fill="white" x="16.6992" y="7.94983" width="18" height="27"/>
<path fill-rule="evenodd" clip-rule="evenodd" d="M24.6485 10.4311C24.6485 10.1653 24.8639 9.94983 25.1297 9.94983H26.7172C26.983 9.94983 27.1985 10.1653 27.1985 10.4311V12.8552C27.6577 12.9185 28.0974 13.0192 28.5177 13.1575C29.2977 13.4123 29.9884 13.7845 30.59 14.2739C31.1915 14.7582 31.6809 15.3521 32.0581 16.0556C32.3636 16.6176 32.5812 17.2447 32.7109 17.9368C32.764 18.22 32.539 18.472 32.2509 18.472H29.861C29.6212 18.472 29.4219 18.2942 29.3624 18.0619C29.2932 17.7918 29.1951 17.5436 29.0683 17.3173C28.8796 16.9757 28.6375 16.6852 28.3418 16.4456C28.0461 16.206 27.7046 16.0224 27.3171 15.895C26.9348 15.7676 26.5193 15.7038 26.0707 15.7038C25.2602 15.7038 24.5541 15.9052 23.9526 16.3079C23.351 16.7056 22.8846 17.2867 22.5532 18.0514C22.2218 18.811 22.0562 19.7337 22.0562 20.8195C22.0562 21.936 22.2218 22.874 22.5532 23.6335C22.8897 24.3931 23.3587 24.9666 23.9602 25.3541C24.5618 25.7415 25.2576 25.9352 26.0478 25.9352C26.4913 25.9352 26.9017 25.8766 27.2789 25.7593C27.6612 25.6421 28.0003 25.4713 28.2959 25.247C28.5916 25.0176 28.8363 24.7398 29.03 24.4135C29.1644 24.193 29.2709 23.9514 29.3494 23.6889C29.4162 23.4655 29.6128 23.2979 29.846 23.2989L32.252 23.3099C32.5397 23.3112 32.7636 23.5637 32.7032 23.8451C32.5895 24.3752 32.4025 24.8909 32.1423 25.3923C31.8007 26.055 31.3393 26.6489 30.7582 27.174C30.1821 27.694 29.4939 28.1069 28.6936 28.4128C28.1931 28.6021 27.6513 28.7318 27.0681 28.8019C27.1489 28.888 27.1985 29.0039 27.1985 29.1313V31.5688C27.1985 31.8346 26.983 32.0501 26.7172 32.0501H25.1297C24.8639 32.0501 24.6485 31.8346 24.6485 31.5688V29.1313C24.6485 28.9937 24.7063 28.8695 24.799 28.7818C23.8748 28.6504 23.0243 28.3618 22.2473 27.9157C21.1513 27.2836 20.2847 26.3685 19.6474 25.1705C19.0153 23.9725 18.6992 22.5222 18.6992 20.8195C18.6992 19.1117 19.0204 17.6589 19.6627 16.4609C20.305 15.2629 21.1768 14.3503 22.2779 13.7233C23.0077 13.3044 23.798 13.0242 24.6487 12.8829C24.6486 12.8782 24.6485 12.8734 24.6485 12.8686V10.4311Z"/>
</mask>
<path d="M27.1985 12.8552H25.2735V14.5332L26.9358 14.7622L27.1985 12.8552ZM28.5177 13.1575L27.9162 14.9861L27.9197 14.9872L28.5177 13.1575ZM30.59 14.2739L29.3751 15.7671L29.3828 15.7733L30.59 14.2739ZM32.0581 16.0556L30.3616 16.9653L30.3668 16.9748L32.0581 16.0556ZM32.7109 17.9368L30.8189 18.2915L32.7109 17.9368ZM29.3624 18.0619L27.4976 18.5397L27.4976 18.5397L29.3624 18.0619ZM29.0683 17.3173L27.3831 18.2479L27.3891 18.2586L29.0683 17.3173ZM28.3418 16.4456L29.5538 14.95L29.5538 14.95L28.3418 16.4456ZM27.3171 15.895L26.7084 17.7212L26.7156 17.7236L27.3171 15.895ZM23.9526 16.3079L25.0141 17.9138L25.0235 17.9075L23.9526 16.3079ZM22.5532 18.0514L24.3176 18.8211L24.3195 18.8168L22.5532 18.0514ZM22.5532 23.6335L20.7888 24.4033L20.7931 24.4132L22.5532 23.6335ZM23.9602 25.3541L22.9179 26.9724H22.9179L23.9602 25.3541ZM27.2789 25.7593L26.7145 23.9189L26.7076 23.9211L27.2789 25.7593ZM28.2959 25.247L29.4594 26.7806L29.4677 26.7743L29.4759 26.7679L28.2959 25.247ZM29.03 24.4135L27.3862 23.4118L27.3804 23.4212L27.3748 23.4307L29.03 24.4135ZM29.3494 23.6889L31.1937 24.2404L31.1937 24.2404L29.3494 23.6889ZM29.846 23.2989L29.8548 21.3739H29.8548L29.846 23.2989ZM32.252 23.3099L32.2608 21.3849H32.2608L32.252 23.3099ZM32.7032 23.8451L30.821 23.4413L30.821 23.4413L32.7032 23.8451ZM32.1423 25.3923L30.4337 24.5054L30.4311 24.5104L32.1423 25.3923ZM30.7582 27.174L32.048 28.603L32.0487 28.6023L30.7582 27.174ZM28.6936 28.4128L29.3745 30.2133L29.3808 30.2109L28.6936 28.4128ZM27.0681 28.8019L26.8381 26.8907L23.0591 27.3454L25.6649 30.1198L27.0681 28.8019ZM24.799 28.7818L26.1222 30.1799L29.0201 27.4372L25.0698 26.8759L24.799 28.7818ZM22.2473 27.9157L21.2856 29.5833L21.2889 29.5852L22.2473 27.9157ZM19.6474 25.1705L17.9449 26.0689L17.9479 26.0745L19.6474 25.1705ZM19.6627 16.4609L21.3592 17.3705L21.3592 17.3705L19.6627 16.4609ZM22.2779 13.7233L23.2305 15.3961L23.2363 15.3928L22.2779 13.7233ZM24.6487 12.8829L24.9641 14.7819L26.6221 14.5066L26.5729 12.8266L24.6487 12.8829ZM25.1297 8.02483C23.8008 8.02483 22.7235 9.10214 22.7235 10.4311H26.5735C26.5735 11.2284 25.9271 11.8748 25.1297 11.8748V8.02483ZM26.7172 8.02483H25.1297V11.8748H26.7172V8.02483ZM29.1235 10.4311C29.1235 9.10215 28.0462 8.02483 26.7172 8.02483V11.8748C25.9199 11.8748 25.2735 11.2284 25.2735 10.4311H29.1235ZM29.1235 12.8552V10.4311H25.2735V12.8552H29.1235ZM26.9358 14.7622C27.2854 14.8104 27.6114 14.8858 27.9162 14.9861L29.1192 11.3288C28.5835 11.1526 28.03 11.0266 27.4612 10.9482L26.9358 14.7622ZM27.9197 14.9872C28.4884 15.1731 28.9673 15.4353 29.3751 15.7671L31.8048 12.7806C31.0096 12.1336 30.107 11.6516 29.1157 11.3277L27.9197 14.9872ZM29.3828 15.7733C29.7766 16.0903 30.1022 16.4813 30.3617 16.9653L33.7546 15.1459C33.2597 14.2228 32.6065 13.426 31.7971 12.7744L29.3828 15.7733ZM30.3668 16.9748C30.5671 17.3434 30.7225 17.7771 30.8189 18.2915L34.603 17.5821C34.4399 16.7123 34.16 15.8918 33.7495 15.1364L30.3668 16.9748ZM30.8189 18.2915C30.6327 17.2984 31.4288 16.547 32.2509 16.547V20.397C33.6492 20.397 34.8953 19.1416 34.603 17.5821L30.8189 18.2915ZM32.2509 16.547H29.861V20.397H32.2509V16.547ZM29.861 16.547C30.6267 16.547 31.1014 17.0936 31.2271 17.5841L27.4976 18.5397C27.7423 19.4948 28.6158 20.397 29.861 20.397V16.547ZM31.2271 17.5841C31.1195 17.1641 30.9619 16.7585 30.7474 16.376L27.3891 18.2586C27.4284 18.3287 27.4668 18.4195 27.4976 18.5397L31.2271 17.5841ZM30.7534 16.3867C30.448 15.8337 30.047 15.3497 29.5538 14.95L27.1299 17.9412C27.228 18.0207 27.3113 18.1178 27.3831 18.2479L30.7534 16.3867ZM29.5538 14.95C29.0638 14.553 28.5121 14.2616 27.9187 14.0664L26.7156 17.7236C26.8971 17.7833 27.0284 17.859 27.1299 17.9412L29.5538 14.95ZM27.9259 14.0688C27.3264 13.869 26.703 13.7788 26.0707 13.7788V17.6288C26.3356 17.6288 26.5432 17.6661 26.7084 17.7212L27.9259 14.0688ZM26.0707 13.7788C24.9261 13.7788 23.8372 14.0686 22.8816 14.7083L25.0235 17.9075C25.271 17.7418 25.5942 17.6288 26.0707 17.6288V13.7788ZM22.891 14.7021C21.9318 15.3361 21.243 16.2334 20.7869 17.286L24.3195 18.8168C24.5261 18.34 24.7702 18.075 25.0141 17.9138L22.891 14.7021ZM20.7888 17.2817C20.3241 18.3468 20.1312 19.5472 20.1312 20.8195H23.9812C23.9812 19.9202 24.1196 19.2751 24.3176 18.8211L20.7888 17.2817ZM20.1312 20.8195C20.1312 22.114 20.3216 23.3322 20.7888 24.4033L24.3176 22.8638C24.1221 22.4157 23.9812 21.7579 23.9812 20.8195H20.1312ZM20.7931 24.4132C21.2567 25.4597 21.952 26.3503 22.9179 26.9724L25.0025 23.7357C24.7654 23.5829 24.5226 23.3265 24.3133 22.8539L20.7931 24.4132ZM22.9179 26.9724C23.8622 27.5807 24.9279 27.8602 26.0478 27.8602V24.0102C25.5873 24.0102 25.2613 23.9023 25.0025 23.7357L22.9179 26.9724ZM26.0478 27.8602C26.6616 27.8602 27.2669 27.7789 27.8503 27.5976L26.7076 23.9211C26.5364 23.9743 26.321 24.0102 26.0478 24.0102V27.8602ZM27.8433 27.5998C28.425 27.4214 28.9701 27.1518 29.4594 26.7806L27.1325 23.7134C27.0304 23.7908 26.8975 23.8628 26.7145 23.9189L27.8433 27.5998ZM29.4759 26.7679C29.9651 26.3884 30.37 25.9272 30.6852 25.3963L27.3748 23.4307C27.3026 23.5524 27.2181 23.6468 27.1159 23.7261L29.4759 26.7679ZM30.6739 25.4152C30.8991 25.0455 31.0708 24.6514 31.1937 24.2404L27.505 23.1375C27.4709 23.2515 27.4297 23.3404 27.3862 23.4118L30.6739 25.4152ZM31.1937 24.2404C31.0531 24.7104 30.5815 25.2273 29.8372 25.2239L29.8548 21.3739C28.6441 21.3684 27.7792 22.2206 27.505 23.1375L31.1937 24.2404ZM29.8372 25.2239L32.2432 25.2349L32.2608 21.3849L29.8548 21.3739L29.8372 25.2239ZM32.2432 25.2349C31.4371 25.2312 30.5988 24.4772 30.821 23.4413L34.5854 24.2488C34.9283 22.6502 33.6423 21.3912 32.2608 21.3849L32.2432 25.2349ZM30.821 23.4413C30.7449 23.7964 30.6181 24.1502 30.4337 24.5054L33.8508 26.2792C34.1869 25.6316 34.4341 24.9539 34.5854 24.2488L30.821 23.4413ZM30.4311 24.5104C30.201 24.9569 29.8857 25.368 29.4677 25.7457L32.0487 28.6023C32.793 27.9299 33.4004 27.1532 33.8534 26.2742L30.4311 24.5104ZM29.4683 25.745C29.0861 26.0901 28.6079 26.3847 28.0064 26.6146L29.3808 30.2109C30.38 29.8291 31.2781 29.2979 32.048 28.603L29.4683 25.745ZM28.0126 26.6123C27.6709 26.7415 27.282 26.8373 26.8381 26.8907L27.298 30.7132C28.0206 30.6262 28.7154 30.4626 29.3745 30.2133L28.0126 26.6123ZM29.1235 29.1313C29.1235 28.4951 28.874 27.9129 28.4712 27.4841L25.6649 30.1198C25.4239 29.8632 25.2735 29.5127 25.2735 29.1313H29.1235ZM29.1235 31.5688V29.1313H25.2735V31.5688H29.1235ZM26.7172 33.9751C28.0462 33.9751 29.1235 32.8978 29.1235 31.5688H25.2735C25.2735 30.7715 25.9199 30.1251 26.7172 30.1251V33.9751ZM25.1297 33.9751H26.7172V30.1251H25.1297V33.9751ZM22.7235 31.5688C22.7235 32.8978 23.8008 33.9751 25.1297 33.9751V30.1251C25.9271 30.1251 26.5735 30.7715 26.5735 31.5688H22.7235ZM22.7235 29.1313V31.5688H26.5735V29.1313H22.7235ZM23.4758 27.3836C23.0149 27.8198 22.7235 28.4431 22.7235 29.1313H26.5735C26.5735 29.5442 26.3977 29.9192 26.1222 30.1799L23.4758 27.3836ZM25.0698 26.8759C24.3774 26.7775 23.7617 26.5655 23.2057 26.2463L21.2889 29.5852C22.2868 30.1581 23.3722 30.5234 24.5282 30.6876L25.0698 26.8759ZM23.2091 26.2482C22.4485 25.8095 21.8275 25.17 21.3469 24.2665L17.9479 26.0745C18.7418 27.5671 19.8541 28.7577 21.2856 29.5833L23.2091 26.2482ZM21.3499 24.2722C20.8967 23.4133 20.6242 22.2879 20.6242 20.8195H16.7742C16.7742 22.7565 17.1338 24.5318 17.9449 26.0689L21.3499 24.2722ZM20.6242 20.8195C20.6242 19.3494 20.9005 18.226 21.3592 17.3705L17.9662 15.5512C17.1402 17.0917 16.7742 18.8741 16.7742 20.8195H20.6242ZM21.3592 17.3705C21.8433 16.4676 22.4673 15.8307 23.2305 15.3961L21.3253 12.0505C19.8863 12.87 18.7668 14.0581 17.9662 15.5512L21.3592 17.3705ZM23.2363 15.3928C23.7622 15.0909 24.3339 14.8866 24.9641 14.7819L24.3333 10.984C23.262 11.1619 22.2532 11.5178 21.3195 12.0539L23.2363 15.3928ZM22.7235 12.8686C22.7235 12.8922 22.7238 12.9158 22.7245 12.9393L26.5729 12.8266C26.5733 12.8405 26.5735 12.8545 26.5735 12.8686H22.7235ZM22.7235 10.4311V12.8686H26.5735V10.4311H22.7235Z" fill="#F2B90C" mask="url(#path-2-outside-1_5572_29823)"/>
<mask id="path-4-outside-2_5572_29823" maskUnits="userSpaceOnUse" x="17.6992" y="8.94983" width="16" height="25" fill="black">
<rect fill="white" x="17.6992" y="8.94983" width="16" height="25"/>
<path fill-rule="evenodd" clip-rule="evenodd" d="M24.6485 10.4311C24.6485 10.1653 24.8639 9.94983 25.1297 9.94983H26.7172C26.983 9.94983 27.1985 10.1653 27.1985 10.4311V12.8552C27.6577 12.9185 28.0974 13.0192 28.5177 13.1575C29.2977 13.4123 29.9884 13.7845 30.59 14.2739C31.1915 14.7582 31.6809 15.3521 32.0581 16.0556C32.3636 16.6176 32.5812 17.2447 32.7109 17.9368C32.764 18.22 32.539 18.472 32.2509 18.472H29.861C29.6212 18.472 29.4219 18.2942 29.3624 18.0619C29.2932 17.7918 29.1951 17.5436 29.0683 17.3173C28.8796 16.9757 28.6375 16.6852 28.3418 16.4456C28.0461 16.206 27.7046 16.0224 27.3171 15.895C26.9348 15.7676 26.5193 15.7038 26.0707 15.7038C25.2602 15.7038 24.5541 15.9052 23.9526 16.3079C23.351 16.7056 22.8846 17.2867 22.5532 18.0514C22.2218 18.811 22.0562 19.7337 22.0562 20.8195C22.0562 21.936 22.2218 22.874 22.5532 23.6335C22.8897 24.3931 23.3587 24.9666 23.9602 25.3541C24.5618 25.7415 25.2576 25.9352 26.0478 25.9352C26.4913 25.9352 26.9017 25.8766 27.2789 25.7593C27.6612 25.6421 28.0003 25.4713 28.2959 25.247C28.5916 25.0176 28.8363 24.7398 29.03 24.4135C29.1644 24.193 29.2709 23.9514 29.3494 23.6889C29.4162 23.4655 29.6128 23.2979 29.846 23.2989L32.252 23.3099C32.5397 23.3112 32.7636 23.5637 32.7032 23.8451C32.5895 24.3752 32.4025 24.8909 32.1423 25.3923C31.8007 26.055 31.3393 26.6489 30.7582 27.174C30.1821 27.694 29.4939 28.1069 28.6936 28.4128C28.2306 28.5879 27.7323 28.712 27.1985 28.7852V31.5687C27.1985 31.8345 26.983 32.05 26.7172 32.05H25.1297C24.8639 32.05 24.6485 31.8345 24.6485 31.5687V28.7589C23.7823 28.6185 22.9819 28.3374 22.2473 27.9157C21.1513 27.2836 20.2847 26.3685 19.6474 25.1705C19.0153 23.9725 18.6992 22.5222 18.6992 20.8195C18.6992 19.1117 19.0204 17.6589 19.6627 16.4609C20.305 15.2629 21.1768 14.3503 22.2779 13.7233C23.0077 13.3044 23.798 13.0242 24.6487 12.8829C24.6486 12.8782 24.6485 12.8734 24.6485 12.8686V10.4311Z"/>
</mask>
<path fill-rule="evenodd" clip-rule="evenodd" d="M24.6485 10.4311C24.6485 10.1653 24.8639 9.94983 25.1297 9.94983H26.7172C26.983 9.94983 27.1985 10.1653 27.1985 10.4311V12.8552C27.6577 12.9185 28.0974 13.0192 28.5177 13.1575C29.2977 13.4123 29.9884 13.7845 30.59 14.2739C31.1915 14.7582 31.6809 15.3521 32.0581 16.0556C32.3636 16.6176 32.5812 17.2447 32.7109 17.9368C32.764 18.22 32.539 18.472 32.2509 18.472H29.861C29.6212 18.472 29.4219 18.2942 29.3624 18.0619C29.2932 17.7918 29.1951 17.5436 29.0683 17.3173C28.8796 16.9757 28.6375 16.6852 28.3418 16.4456C28.0461 16.206 27.7046 16.0224 27.3171 15.895C26.9348 15.7676 26.5193 15.7038 26.0707 15.7038C25.2602 15.7038 24.5541 15.9052 23.9526 16.3079C23.351 16.7056 22.8846 17.2867 22.5532 18.0514C22.2218 18.811 22.0562 19.7337 22.0562 20.8195C22.0562 21.936 22.2218 22.874 22.5532 23.6335C22.8897 24.3931 23.3587 24.9666 23.9602 25.3541C24.5618 25.7415 25.2576 25.9352 26.0478 25.9352C26.4913 25.9352 26.9017 25.8766 27.2789 25.7593C27.6612 25.6421 28.0003 25.4713 28.2959 25.247C28.5916 25.0176 28.8363 24.7398 29.03 24.4135C29.1644 24.193 29.2709 23.9514 29.3494 23.6889C29.4162 23.4655 29.6128 23.2979 29.846 23.2989L32.252 23.3099C32.5397 23.3112 32.7636 23.5637 32.7032 23.8451C32.5895 24.3752 32.4025 24.8909 32.1423 25.3923C31.8007 26.055 31.3393 26.6489 30.7582 27.174C30.1821 27.694 29.4939 28.1069 28.6936 28.4128C28.2306 28.5879 27.7323 28.712 27.1985 28.7852V31.5687C27.1985 31.8345 26.983 32.05 26.7172 32.05H25.1297C24.8639 32.05 24.6485 31.8345 24.6485 31.5687V28.7589C23.7823 28.6185 22.9819 28.3374 22.2473 27.9157C21.1513 27.2836 20.2847 26.3685 19.6474 25.1705C19.0153 23.9725 18.6992 22.5222 18.6992 20.8195C18.6992 19.1117 19.0204 17.6589 19.6627 16.4609C20.305 15.2629 21.1768 14.3503 22.2779 13.7233C23.0077 13.3044 23.798 13.0242 24.6487 12.8829C24.6486 12.8782 24.6485 12.8734 24.6485 12.8686V10.4311Z" fill="white"/>
<path d="M27.1985 12.8552H26.236V13.6942L27.0671 13.8087L27.1985 12.8552ZM28.5177 13.1575L28.2169 14.0718L28.2187 14.0723L28.5177 13.1575ZM30.59 14.2739L29.9825 15.0205L29.9864 15.0236L30.59 14.2739ZM32.0581 16.0556L31.2099 16.5104L31.2125 16.5152L32.0581 16.0556ZM32.7109 17.9368L31.7649 18.1141L32.7109 17.9368ZM29.3624 18.0619L28.43 18.3008L28.43 18.3008L29.3624 18.0619ZM29.0683 17.3173L28.2257 17.7826L28.2287 17.788L29.0683 17.3173ZM28.3418 16.4456L28.9478 15.6978V15.6978L28.3418 16.4456ZM27.3171 15.895L27.0128 16.8081L27.0164 16.8093L27.3171 15.895ZM23.9526 16.3079L24.4833 17.1109L24.488 17.1077L23.9526 16.3079ZM22.5532 18.0514L23.4354 18.4362L23.4363 18.4341L22.5532 18.0514ZM22.5532 23.6335L21.671 24.0184L21.6732 24.0234L22.5532 23.6335ZM23.9602 25.3541L23.439 26.1633L23.9602 25.3541ZM27.2789 25.7593L26.9967 24.8391L26.9932 24.8402L27.2789 25.7593ZM28.2959 25.247L28.8777 26.0139L28.8859 26.0075L28.2959 25.247ZM29.03 24.4135L28.208 23.9126L28.2024 23.9221L29.03 24.4135ZM29.3494 23.6889L30.2715 23.9647L30.2715 23.9647L29.3494 23.6889ZM29.846 23.2989L29.8504 22.3364H29.8504L29.846 23.2989ZM32.252 23.3099L32.2564 22.3474H32.2564L32.252 23.3099ZM32.7032 23.8451L31.7621 23.6432V23.6432L32.7032 23.8451ZM32.1423 25.3923L31.288 24.9489L31.2867 24.9514L32.1423 25.3923ZM30.7582 27.174L31.4031 27.8885L31.4035 27.8882L30.7582 27.174ZM28.6936 28.4128L29.034 29.313L29.0372 29.3119L28.6936 28.4128ZM27.1985 28.7852L27.0678 27.8316L26.236 27.9456V28.7852H27.1985ZM24.6485 28.7589H25.611V27.9398L24.8025 27.8088L24.6485 28.7589ZM22.2473 27.9157L21.7665 28.7495L21.7681 28.7505L22.2473 27.9157ZM19.6474 25.1705L18.7962 25.6197L18.7977 25.6225L19.6474 25.1705ZM19.6627 16.4609L20.511 16.9157H20.511L19.6627 16.4609ZM22.2779 13.7233L22.7542 14.5597L22.7571 14.558L22.2779 13.7233ZM24.6487 12.8829L24.8064 13.8324L25.6354 13.6948L25.6108 12.8548L24.6487 12.8829ZM25.1297 8.98733C24.3324 8.98733 23.686 9.63372 23.686 10.4311H25.611C25.611 10.6969 25.3955 10.9123 25.1297 10.9123V8.98733ZM26.7172 8.98733H25.1297V10.9123H26.7172V8.98733ZM28.161 10.4311C28.161 9.63372 27.5146 8.98733 26.7172 8.98733V10.9123C26.4514 10.9123 26.236 10.6969 26.236 10.4311H28.161ZM28.161 12.8552V10.4311H26.236V12.8552H28.161ZM27.0671 13.8087C27.4716 13.8644 27.8544 13.9525 28.2169 14.0718L28.8184 12.2431C28.3405 12.0859 27.8439 11.9725 27.3298 11.9017L27.0671 13.8087ZM28.2187 14.0723C28.893 14.2927 29.4778 14.6099 29.9825 15.0205L31.1974 13.5273C30.499 12.9591 29.7023 12.532 28.8167 12.2426L28.2187 14.0723ZM29.9864 15.0236C30.484 15.4243 30.8915 15.9167 31.2099 16.5104L32.9064 15.6007C32.4703 14.7874 31.899 14.0921 31.1936 13.5242L29.9864 15.0236ZM31.2125 16.5152C31.4653 16.9805 31.6518 17.5109 31.7649 18.1141L33.657 17.7594C33.5105 16.9785 33.2618 16.2547 32.9038 15.596L31.2125 16.5152ZM31.7649 18.1141C31.6984 17.7592 31.9839 17.5095 32.2509 17.5095V19.4345C33.0941 19.4345 33.8297 18.6808 33.657 17.7594L31.7649 18.1141ZM32.2509 17.5095H29.861V19.4345H32.2509V17.5095ZM29.861 17.5095C30.124 17.5095 30.2617 17.6939 30.2947 17.823L28.43 18.3008C28.5821 18.8945 29.1185 19.4345 29.861 19.4345V17.5095ZM30.2947 17.823C30.2063 17.478 30.0785 17.1511 29.9078 16.8466L28.2287 17.788C28.3117 17.9361 28.38 18.1056 28.43 18.3008L30.2947 17.823ZM29.9108 16.852C29.6638 16.4047 29.3422 16.0174 28.9478 15.6978L27.7358 17.1934C27.9327 17.3529 28.0955 17.5468 28.2257 17.7826L29.9108 16.852ZM28.9478 15.6978C28.555 15.3795 28.1083 15.142 27.6179 14.9807L27.0164 16.8093C27.3008 16.9029 27.5373 17.0325 27.7358 17.1934L28.9478 15.6978ZM27.6215 14.9819C27.1306 14.8183 26.6112 14.7413 26.0707 14.7413V16.6663C26.4275 16.6663 26.739 16.7169 27.0128 16.8081L27.6215 14.9819ZM26.0707 14.7413C25.0932 14.7413 24.1957 14.9869 23.4171 15.5081L24.488 17.1077C24.9126 16.8235 25.4272 16.6663 26.0707 16.6663V14.7413ZM23.4218 15.505C22.6414 16.0208 22.0638 16.76 21.67 17.6687L23.4363 18.4341C23.7053 17.8134 24.0606 17.3903 24.4833 17.1109L23.4218 15.505ZM21.671 17.6665C21.273 18.5789 21.0937 19.6404 21.0937 20.8195H23.0187C23.0187 19.8269 23.1707 19.043 23.4354 18.4362L21.671 17.6665ZM21.0937 20.8195C21.0937 22.025 21.2717 23.1031 21.671 24.0184L23.4354 23.2487C23.172 22.6448 23.0187 21.8469 23.0187 20.8195H21.0937ZM21.6732 24.0234C22.0732 24.9264 22.6553 25.6585 23.439 26.1633L24.4814 24.5449C24.062 24.2748 23.7061 23.8598 23.4332 23.2437L21.6732 24.0234ZM23.439 26.1633C24.212 26.6611 25.0928 26.8977 26.0478 26.8977V24.9727C25.4225 24.9727 24.9115 24.8219 24.4814 24.5449L23.439 26.1633ZM26.0478 26.8977C26.5764 26.8977 27.0843 26.8278 27.5646 26.6785L26.9932 24.8402C26.7191 24.9254 26.4061 24.9727 26.0478 24.9727V26.8977ZM27.5611 26.6795C28.0431 26.5317 28.4852 26.3116 28.8777 26.0138L27.7142 24.4802C27.5153 24.6311 27.2794 24.7525 26.9967 24.8391L27.5611 26.6795ZM28.8859 26.0075C29.2783 25.703 29.6032 25.3335 29.8576 24.9049L28.2024 23.9221C28.0694 24.1461 27.9049 24.3322 27.7059 24.4866L28.8859 26.0075ZM29.8519 24.9144C30.0318 24.6192 30.1708 24.3014 30.2715 23.9647L28.4272 23.4132C28.3709 23.6015 28.2971 23.7667 28.2081 23.9127L29.8519 24.9144ZM30.2715 23.9647C30.2346 24.088 30.0971 24.2626 29.8416 24.2614L29.8504 22.3364C29.1285 22.3331 28.5977 22.843 28.4272 23.4132L30.2715 23.9647ZM29.8416 24.2614L32.2476 24.2724L32.2564 22.3474L29.8504 22.3364L29.8416 24.2614ZM32.2476 24.2724C31.9884 24.2712 31.6812 24.0205 31.7621 23.6432L33.6443 24.0469C33.8459 23.107 33.091 22.3512 32.2564 22.3474L32.2476 24.2724ZM31.7621 23.6432C31.6672 24.0858 31.5103 24.5206 31.288 24.9489L32.9965 25.8357C33.2947 25.2613 33.5118 24.6646 33.6443 24.0469L31.7621 23.6432ZM31.2867 24.9514C31.0009 25.506 30.6125 26.0085 30.1129 26.4598L31.4035 27.8882C32.0662 27.2894 32.6005 26.6041 32.9978 25.8332L31.2867 24.9514ZM30.1133 26.4595C29.6341 26.892 29.0509 27.2458 28.35 27.5137L29.0372 29.3119C29.9369 28.968 30.7301 28.4959 31.4031 27.8885L30.1133 26.4595ZM28.3531 27.5125C27.9635 27.6599 27.5361 27.7674 27.0678 27.8316L27.3292 29.7387C27.9284 29.6566 28.4977 29.5159 29.034 29.313L28.3531 27.5125ZM28.161 31.5687V28.7852H26.236V31.5687H28.161ZM26.7172 33.0125C27.5146 33.0125 28.161 32.3661 28.161 31.5687H26.236C26.236 31.3029 26.4514 31.0875 26.7172 31.0875V33.0125ZM25.1297 33.0125H26.7172V31.0875H25.1297V33.0125ZM23.686 31.5687C23.686 32.3661 24.3324 33.0125 25.1297 33.0125V31.0875C25.3955 31.0875 25.611 31.3029 25.611 31.5687H23.686ZM23.686 28.7589V31.5687H25.611V28.7589H23.686ZM24.8025 27.8088C24.0466 27.6863 23.3569 27.4429 22.7265 27.081L21.7681 28.7505C22.6069 29.232 23.518 29.5507 24.4945 29.709L24.8025 27.8088ZM22.7282 27.082C21.7999 26.5466 21.0561 25.7692 20.4972 24.7185L18.7977 25.6225C19.5132 26.9678 20.5027 28.0206 21.7665 28.7495L22.7282 27.082ZM20.4987 24.7214C19.956 23.6929 19.6617 22.4051 19.6617 20.8195H17.7367C17.7367 22.6394 18.0746 24.2522 18.7962 25.6197L20.4987 24.7214ZM19.6617 20.8195C19.6617 19.2306 19.9605 17.9424 20.511 16.9157L18.8144 16.006C18.0803 17.3753 17.7367 18.9929 17.7367 20.8195H19.6617ZM20.511 16.9157C21.0742 15.8652 21.822 15.0905 22.7542 14.5597L21.8016 12.8869C20.5315 13.6102 19.5359 14.6605 18.8144 16.006L20.511 16.9157ZM22.7571 14.558C23.385 14.1976 24.066 13.9554 24.8064 13.8324L24.491 11.9335C23.53 12.0931 22.6305 12.4111 21.7987 12.8886L22.7571 14.558ZM23.686 12.8686C23.686 12.8828 23.6862 12.897 23.6866 12.9111L25.6108 12.8548C25.6109 12.8594 25.611 12.864 25.611 12.8686H23.686ZM23.686 10.4311V12.8686H25.611V10.4311H23.686Z" fill="#E1B511" mask="url(#path-4-outside-2_5572_29823)"/>
<rect x="5" y="-13" width="42" height="69" fill="black" fill-opacity="0.5"/>
</g>
<path d="M108.927 34.9045C116.606 34.9045 122.83 28.6787 122.83 20.9999C122.83 13.3211 116.606 7.09534 108.927 7.09534C101.248 7.09534 95.0234 13.3211 95.0234 20.9999C95.0234 28.6787 101.248 34.9045 108.927 34.9045Z" fill="#F79E1B"/>
<path d="M88.0715 34.9044C95.7501 34.9044 101.975 28.6786 101.975 20.9998C101.975 13.321 95.7501 7.09528 88.0715 7.09528C80.3927 7.09528 74.168 13.321 74.168 20.9998C74.168 28.6786 80.3927 34.9044 88.0715 34.9044Z" fill="#EB001B"/>
<path fill-rule="evenodd" clip-rule="evenodd" d="M98.4992 11.8027C96.336 14.2539 95.0234 17.4736 95.0234 20.9997C95.0234 24.5258 96.336 27.7455 98.4992 30.1966C100.662 27.7455 101.975 24.5258 101.975 20.9997C101.975 17.4736 100.662 14.2539 98.4992 11.8027Z" fill="#FF5A00"/>
<mask id="mask0_5572_29823" style="mask-type:luminance" maskUnits="userSpaceOnUse" x="149" y="12" width="57" height="18">
<path d="M178.459 17.7549C178.428 20.2618 180.694 21.6609 182.401 22.4926C184.154 23.3461 184.743 23.8933 184.737 24.6564C184.723 25.8245 183.338 26.34 182.041 26.36C179.778 26.3952 178.463 25.7492 177.417 25.2606L176.602 29.0745C177.651 29.5581 179.594 29.9798 181.609 29.9982C186.338 29.9982 189.433 27.6637 189.449 24.0439C189.468 19.4502 183.095 19.1958 183.139 17.1424C183.154 16.5199 183.748 15.8555 185.05 15.6865C185.694 15.6011 187.473 15.5359 189.489 16.4647L190.281 12.7746C189.197 12.3797 187.803 12.0014 186.067 12.0014C181.616 12.0014 178.485 14.3678 178.459 17.7549ZM197.887 12.3194C197.024 12.3194 196.296 12.8231 195.971 13.5963L189.215 29.7271H193.941L194.881 27.1282H200.657L201.202 29.7271H205.368L201.733 12.3194H197.887ZM198.548 17.0219L199.912 23.5586H196.177L198.548 17.0219ZM172.729 12.3194L169.004 29.7271H173.508L177.231 12.3194H172.729ZM166.067 12.3194L161.38 24.1678L159.484 14.0933C159.261 12.9687 158.382 12.3194 157.407 12.3194H149.744L149.637 12.8248C151.21 13.1662 152.997 13.7168 154.08 14.3058C154.743 14.6657 154.932 14.9803 155.149 15.8354L158.741 29.7271H163.5L170.796 12.3194H166.067Z" fill="white"/>
</mask>
<g mask="url(#mask0_5572_29823)">
<path d="M143.801 14.1507L198.712 -6.07182L211.204 27.8494L156.293 48.072" fill="url(#paint1_linear_5572_29823)"/>
</g>
<path d="M246.141 10.057V31.9431H240.79L233.91 10.057H246.141Z" fill="#8B3FFD"/>
<path d="M260.946 6.1947C252.7 6.1947 246.141 12.85 246.141 21C246.141 29.2487 252.794 35.8053 260.946 35.8053C269.098 35.8053 275.751 29.15 275.751 21C275.751 12.85 269.098 6.1947 260.946 6.1947ZM260.946 26.5274C257.947 26.5274 255.417 23.9963 255.417 21C255.417 18.0037 257.947 15.4726 260.946 15.4726C263.944 15.4726 266.474 18.0037 266.474 21C266.381 23.9963 263.944 26.5274 260.946 26.5274Z" fill="#8B3FFD"/>
<path d="M344.795 15.1326V24.9667C344.795 25.0445 344.765 25.1203 344.711 25.1749C344.657 25.2305 344.584 25.2618 344.508 25.2618H342.591C342.515 25.2618 342.442 25.2305 342.388 25.1749C342.334 25.1203 342.303 25.0445 342.303 24.9667V15.1326C342.303 15.0548 342.334 14.979 342.388 14.9244C342.442 14.8688 342.515 14.8375 342.591 14.8375H344.508L344.795 15.1326ZM360.128 14.9356H357.924L357.637 15.1326L355.912 20.9344L353.995 15.1326C353.995 15.0346 353.899 14.9356 353.708 14.9356H352.174L351.887 15.1326L349.97 20.9344L348.245 15.1326C348.245 15.0346 348.149 14.9356 347.958 14.9356H345.849C345.753 14.9356 345.658 14.9355 345.658 15.0346C345.658 15.1326 345.562 15.2306 345.658 15.2306L348.916 25.1638C348.916 25.2618 349.012 25.3599 349.203 25.3599H350.928L351.216 25.1638L353.133 19.3609L355.049 25.1638C355.049 25.2618 355.145 25.3599 355.337 25.3599H357.062L357.349 25.1638L360.608 15.2306V15.0346L360.128 14.9356ZM363.387 14.9356H361.47C361.394 14.9356 361.321 14.9669 361.267 15.0225C361.213 15.0781 361.183 15.1528 361.183 15.2306V25.0647C361.183 25.1435 361.213 25.2184 361.267 25.2739C361.321 25.3285 361.394 25.3599 361.47 25.3599H363.387C363.463 25.3599 363.536 25.3285 363.59 25.2739C363.644 25.2184 363.674 25.1435 363.674 25.0647V15.2306C363.674 15.1528 363.644 15.0781 363.59 15.0225C363.536 14.9669 363.463 14.9356 363.387 14.9356ZM341.153 24.9667C341.249 25.0647 341.153 25.2618 340.962 25.2618H338.278L337.895 24.7696C337.045 25.3558 336.043 25.664 335.02 25.6549C333.622 25.6549 332.282 25.085 331.293 24.0713C330.305 23.0567 329.749 21.6813 329.749 20.2463C329.749 18.8122 330.305 17.4358 331.293 16.4222C332.282 15.4075 333.622 14.8375 335.02 14.8375C336.418 14.8375 337.759 15.4075 338.747 16.4222C339.736 17.4358 340.291 18.8122 340.291 20.2463C340.3 21.2963 339.999 22.325 339.428 23.1961L341.153 24.9667ZM336.362 22.803L335.308 21.5246C335.293 21.4862 335.286 21.4448 335.288 21.4033C335.289 21.3619 335.3 21.3215 335.318 21.2841C335.336 21.2467 335.361 21.2143 335.393 21.1881C335.424 21.1618 335.46 21.1426 335.499 21.1315H337.703C337.812 20.8142 337.877 20.4837 337.895 20.1482C337.908 19.7601 337.846 19.3741 337.713 19.0113C337.581 18.6485 337.379 18.316 337.121 18.033C336.863 17.7491 336.553 17.5216 336.209 17.361C335.865 17.2013 335.493 17.1124 335.116 17.0992C334.738 17.1124 334.367 17.2013 334.023 17.361C333.679 17.5216 333.369 17.7491 333.111 18.033C332.852 18.316 332.651 18.6485 332.519 19.0113C332.386 19.3741 332.324 19.7601 332.337 20.1482C332.324 20.5352 332.386 20.9213 332.519 21.2851C332.651 21.6479 332.852 21.9804 333.111 22.2634C333.369 22.5463 333.679 22.7747 334.023 22.9344C334.367 23.0951 334.738 23.184 335.116 23.1961L336.362 22.803ZM323.712 24.9667C323.808 25.3598 323.616 25.5569 323.52 25.5569C323.424 25.5569 323.233 25.3598 323.041 25.0647C322.948 24.9404 322.883 24.797 322.85 24.6444C322.817 24.4918 322.817 24.3331 322.849 24.1795C322.945 24.0814 323.041 23.9834 323.233 24.0814C323.424 24.1805 323.616 24.6716 323.712 24.9667ZM321.795 25.852C322.178 26.2451 322.37 26.6383 322.083 26.9334C322.026 27.0354 321.941 27.1183 321.839 27.1708C321.737 27.2234 321.621 27.2436 321.508 27.2285L320.837 27.0324C320.742 26.9727 320.66 26.8939 320.598 26.7999C320.536 26.706 320.494 26.5988 320.476 26.4867C320.458 26.3745 320.463 26.2603 320.493 26.1501C320.522 26.041 320.574 25.9389 320.645 25.852L321.124 25.6549C321.243 25.6216 321.368 25.6226 321.487 25.657C321.605 25.6913 321.712 25.759 321.795 25.852ZM321.124 29.2941C323.292 29.3467 325.354 30.2632 326.874 31.8509C327.066 32.0469 327.353 31.8509 327.162 31.5558C325.715 29.6468 323.634 28.3512 321.316 27.9166C320.386 27.7277 319.509 27.3305 318.747 26.7525C317.984 26.1744 317.356 25.4296 316.908 24.5736C316.716 24.2785 316.62 24.3765 316.62 24.6716C316.607 25.2305 316.639 25.7903 316.716 26.3431H316.428C315.234 26.3431 314.067 25.9804 313.074 25.2992C312.081 24.6181 311.307 23.6509 310.85 22.519C310.394 21.3872 310.274 20.1411 310.507 18.9395C310.74 17.7379 311.315 16.6334 312.159 15.7673C313.004 14.9002 314.079 14.311 315.25 14.0715C316.422 13.833 317.636 13.9552 318.739 14.4242C319.842 14.8931 320.785 15.6874 321.448 16.7061C322.112 17.7248 322.466 18.9223 322.466 20.1482V20.8364C321.831 20.7384 321.185 20.7384 320.549 20.8364C320.358 20.8364 320.358 20.9345 320.549 21.0335C321.507 21.177 322.391 21.6398 323.067 22.3513C323.742 23.0617 324.171 23.9814 324.287 24.9667C324.287 25.0647 324.383 25.0647 324.383 24.9667C325.268 23.5246 325.733 21.8531 325.724 20.1482C325.724 18.2806 325.185 16.4555 324.174 14.9032C323.163 13.3509 321.726 12.1402 320.045 11.4257C318.364 10.7112 316.514 10.5243 314.729 10.8881C312.945 11.2529 311.305 12.1524 310.019 13.4722C308.732 14.7931 307.856 16.4747 307.501 18.3059C307.146 20.1371 307.328 22.036 308.025 23.7611C308.721 25.4862 309.9 26.9606 311.413 27.9975C312.926 29.0354 314.705 29.5892 316.524 29.5892C317.866 29.4902 319.208 29.2941 321.124 29.2941Z" fill="#FF8C00"/>
<mask id="mask1_5572_29823" style="mask-type:luminance" maskUnits="userSpaceOnUse" x="384" y="12" width="61" height="18">
<path d="M444.609 12.9498H384.234V29.0498H444.609V12.9498Z" fill="white"/>
</mask>
<g mask="url(#mask1_5572_29823)">
<path fill-rule="evenodd" clip-rule="evenodd" d="M400.504 12.9498V12.9565C400.496 12.9565 398.145 12.9498 397.518 15.0656C396.944 17.007 395.324 22.3643 395.28 22.5119H394.832C394.832 22.5119 393.175 17.0352 392.593 15.0589C391.966 12.9431 389.608 12.9498 389.608 12.9498H384.234V29.0498H389.608V19.4878H389.832H390.055L393.19 29.0498H396.921L400.056 19.4958H400.504V29.0498H405.877V12.9498H400.504Z" fill="#4DB45E"/>
<path fill-rule="evenodd" clip-rule="evenodd" d="M420.132 12.95C420.132 12.95 418.557 13.0841 417.819 14.6378L414.012 22.512H413.565V12.95H408.191V29.05H413.266C413.266 29.05 414.915 28.9091 415.654 27.3621L419.386 19.4879H419.834V29.05H425.207V12.95H420.132Z" fill="#4DB45E"/>
<path fill-rule="evenodd" clip-rule="evenodd" d="M427.594 20.2618V29.0498H432.967V23.9179H438.788C441.326 23.9179 443.475 22.3924 444.273 20.2618H427.594Z" fill="#4DB45E"/>
<path fill-rule="evenodd" clip-rule="evenodd" d="M438.788 12.95H426.84C427.437 16.0157 429.877 18.4763 433.034 19.2773C433.75 19.4597 434.504 19.559 435.28 19.559H444.49C444.572 19.1927 444.609 18.8211 444.609 18.4334C444.609 15.4039 442.004 12.95 438.788 12.95Z" fill="url(#paint2_linear_5572_29823)"/>
</g>
<g style="mix-blend-mode:saturation">
<rect width="446" height="42" fill="#393939"/>
</g>
<defs>
<linearGradient id="paint0_linear_5572_29823" x1="16.9991" y1="6.27545" x2="34.0008" y2="35.7245" gradientUnits="userSpaceOnUse">
<stop stop-color="#FFDA1C"/>
<stop offset="1" stop-color="#FEB705"/>
</linearGradient>
<linearGradient id="paint1_linear_5572_29823" x1="154.685" y1="29.4512" x2="201.654" y2="12.1531" gradientUnits="userSpaceOnUse">
<stop stop-color="#222357"/>
<stop offset="1" stop-color="#254AA5"/>
</linearGradient>
<linearGradient id="paint2_linear_5572_29823" x1="426.841" y1="16.2545" x2="444.609" y2="16.2545" gradientUnits="userSpaceOnUse">
<stop offset="0.3" stop-color="#00B4E6"/>
<stop offset="1" stop-color="#088CCB"/>
</linearGradient>
<clipPath id="clip0_5572_29823">
<rect width="51" height="42" fill="white"/>
</clipPath>
</defs>
</svg>
