<svg width="161" height="51" viewBox="0 0 161 51" fill="none" xmlns="http://www.w3.org/2000/svg">
<path d="M75.3004 19.5974C75.1945 18.644 74.771 17.9025 74.0298 17.3728C73.2885 16.8431 72.3355 16.5253 71.0649 16.5253C70.2178 16.5253 69.4765 16.6313 68.9471 16.8431C68.3118 17.055 67.8882 17.3728 67.5705 17.7965C67.2529 18.2203 67.147 18.644 67.147 19.1737C67.147 19.5974 67.2529 20.0211 67.4647 20.3389C67.6764 20.6567 67.9941 20.9745 68.3118 21.1864C68.6294 21.3982 69.053 21.6101 69.5824 21.822C70.006 22.0338 70.5354 22.1398 71.0649 22.2457L73.2885 22.7753C74.3474 22.9872 75.3004 23.305 76.2534 23.7287C77.2064 24.1525 77.9477 24.5762 78.583 25.2118C79.2183 25.8474 79.7478 26.483 80.0654 27.3304C80.3831 28.1779 80.5949 29.0253 80.5949 30.0847C80.5949 31.5677 80.1713 32.9448 79.4301 34.0042C78.6889 35.0635 77.63 35.9109 76.1475 36.5465C74.771 37.1821 72.9709 37.4999 70.959 37.4999C68.9471 37.4999 67.2529 37.1821 65.7704 36.5465C64.3939 36.0169 63.2291 35.0635 62.382 33.8982C61.5349 32.733 61.1113 31.2499 61.1113 29.4491H66.194C66.2999 30.2965 66.5117 30.9321 66.9352 31.4618C67.3588 31.9915 67.8882 32.4152 68.6294 32.733C69.3707 33.0508 70.1119 33.1567 71.0649 33.1567C71.912 33.1567 72.7591 33.0508 73.3944 32.733C74.0298 32.5211 74.5592 32.0974 74.8769 31.6737C75.1945 31.2499 75.4063 30.7203 75.4063 30.0847C75.4063 29.555 75.1945 29.0253 74.8769 28.7076C74.5592 28.2838 74.0298 27.966 73.5003 27.7542C72.865 27.5423 72.1238 27.2245 71.1708 27.0126L68.5235 26.377C66.4058 25.8474 64.8174 25.1059 63.6527 24.0465C62.4879 22.9872 61.8525 21.5042 61.8525 19.7033C61.8525 18.2203 62.2761 16.9491 63.0173 15.7838C63.8644 14.6186 64.9233 13.7711 66.2999 13.1355C67.6764 12.4999 69.2648 12.1821 71.0649 12.1821C72.865 12.1821 74.4533 12.4999 75.8299 13.1355C77.2064 13.7711 78.2653 14.6186 79.0065 15.7838C79.7478 16.9491 80.1713 18.2203 80.1713 19.7033H75.3004V19.5974Z" fill="white"/>
<path d="M86.5246 16.3135C85.7834 16.3135 85.148 16.1016 84.6186 15.572C84.0891 15.0423 83.7715 14.4067 83.7715 13.7711C83.7715 13.0296 84.0891 12.394 84.6186 11.9703C85.148 11.4406 85.7834 11.2288 86.5246 11.2288C87.2658 11.2288 87.9011 11.4406 88.4306 11.9703C88.96 12.4999 89.2777 13.1355 89.2777 13.7711C89.2777 14.5127 88.96 15.1483 88.4306 15.572C87.9011 15.9957 87.2658 16.3135 86.5246 16.3135ZM83.9833 37.1821V18.7499H89.0659V37.1821H83.9833Z" fill="white"/>
<path d="M101.562 44.4915C99.8673 44.4915 98.4907 44.2796 97.326 43.8559C96.1612 43.4322 95.2082 42.7966 94.467 42.055C93.7257 41.3135 93.3022 40.3601 93.0904 39.4067L97.8554 38.7711C97.9613 39.0889 98.279 39.5127 98.4907 39.8305C98.8084 40.1483 99.232 40.3601 99.7614 40.572C100.291 40.7838 100.926 40.8898 101.667 40.8898C102.832 40.8898 103.679 40.572 104.421 40.0423C105.162 39.5127 105.479 38.5593 105.479 37.2881V33.8983H105.268C105.056 34.4279 104.738 34.8516 104.209 35.3813C103.785 35.805 103.15 36.2288 102.515 36.5466C101.879 36.8644 100.926 36.9703 99.9732 36.9703C98.5966 36.9703 97.326 36.6525 96.1612 36.0169C94.9964 35.3813 94.1493 34.4279 93.4081 33.0508C92.7727 31.6737 92.4551 29.9788 92.4551 27.9661C92.4551 25.8474 92.7727 24.1525 93.514 22.7754C94.1493 21.3983 95.1023 20.3389 96.2671 19.5974C97.4319 18.8559 98.5966 18.5381 99.9732 18.5381C101.032 18.5381 101.879 18.75 102.62 19.0677C103.362 19.3855 103.891 19.8093 104.315 20.3389C104.738 20.8686 105.056 21.3983 105.268 21.822H105.479V18.75H110.562V37.394C110.562 38.983 110.139 40.2542 109.397 41.3135C108.656 42.3728 107.597 43.2203 106.221 43.7499C104.844 44.1737 103.256 44.4915 101.562 44.4915ZM101.667 33.0508C102.515 33.0508 103.15 32.8389 103.785 32.4152C104.315 31.9915 104.844 31.4618 105.056 30.6144C105.374 29.8728 105.479 28.9194 105.479 27.8601C105.479 26.8008 105.374 25.8474 105.056 25C104.738 24.1525 104.315 23.6228 103.785 23.0932C103.256 22.6694 102.515 22.4576 101.667 22.4576C100.82 22.4576 100.079 22.6694 99.5496 23.0932C99.0202 23.5169 98.4907 24.1525 98.279 25C97.9613 25.8474 97.8554 26.6949 97.8554 27.7542C97.8554 28.8135 97.9613 29.7669 98.279 30.5084C98.5966 31.2499 99.0202 31.8855 99.5496 32.3093C100.079 32.8389 100.82 33.0508 101.667 33.0508Z" fill="white"/>
<path d="M119.774 26.483V37.1822H114.691V18.75H119.562V22.0338H119.774C120.198 20.9745 120.833 20.1271 121.786 19.4915C122.739 18.8559 123.904 18.5381 125.28 18.5381C126.551 18.5381 127.716 18.8559 128.669 19.3855C129.622 19.9152 130.363 20.7627 130.892 21.822C131.422 22.8813 131.634 24.0466 131.634 25.5296V37.2881H126.551V26.3771C126.551 25.2118 126.233 24.3644 125.704 23.7288C125.069 23.0932 124.327 22.7754 123.268 22.7754C122.527 22.7754 121.998 22.8813 121.468 23.1991C120.939 23.5169 120.515 23.9406 120.198 24.4703C119.88 25 119.774 25.7415 119.774 26.483Z" fill="white"/>
<path d="M140.952 37.4999C139.787 37.4999 138.728 37.2881 137.775 36.8643C136.822 36.4406 136.081 35.805 135.551 35.0635C135.022 34.216 134.704 33.2626 134.704 31.9915C134.704 30.9321 134.916 30.0847 135.234 29.4491C135.657 28.7076 136.081 28.1779 136.822 27.7542C137.457 27.3304 138.198 27.0126 139.046 26.8008C139.893 26.5889 140.74 26.483 141.693 26.377C142.752 26.2711 143.599 26.1652 144.34 26.0592C144.975 25.9533 145.505 25.8474 145.822 25.6355C146.14 25.4237 146.246 25.1059 146.246 24.7881V24.6821C146.246 23.9406 146.034 23.305 145.505 22.8813C144.975 22.4576 144.34 22.2457 143.493 22.2457C142.54 22.2457 141.799 22.4576 141.269 22.8813C140.74 23.305 140.316 23.8347 140.21 24.3643L135.445 23.9406C135.657 22.7753 136.187 21.822 136.822 20.9745C137.563 20.127 138.41 19.4915 139.575 19.0677C140.74 18.644 142.01 18.4321 143.493 18.4321C144.552 18.4321 145.505 18.5381 146.458 18.7499C147.411 18.9618 148.258 19.3855 148.999 19.9152C149.74 20.4448 150.27 21.0804 150.693 21.822C151.117 22.5635 151.329 23.5169 151.329 24.6821V37.1821H146.458V34.6398H146.352C146.034 35.1694 145.611 35.6991 145.187 36.1228C144.658 36.5465 144.128 36.8643 143.387 37.1821C142.646 37.394 141.905 37.4999 140.952 37.4999ZM142.434 34.0042C143.175 34.0042 143.811 33.8982 144.446 33.5804C144.975 33.2626 145.505 32.8389 145.822 32.3092C146.14 31.7796 146.352 31.2499 146.352 30.6143V28.6016C146.14 28.7076 145.928 28.8135 145.717 28.9194C145.399 29.0253 145.081 29.1313 144.764 29.1313C144.446 29.2372 144.022 29.2372 143.705 29.3431C143.387 29.3431 143.069 29.4491 142.752 29.4491C142.116 29.555 141.587 29.6609 141.163 29.8728C140.74 30.0847 140.316 30.2965 140.104 30.6143C139.893 30.9321 139.681 31.3559 139.681 31.7796C139.681 32.5211 139.893 33.0508 140.422 33.3686C140.952 33.7923 141.587 34.0042 142.434 34.0042Z" fill="white"/>
<path d="M160.435 12.4999V37.1821H155.353V12.4999H160.435Z" fill="white"/>
<path d="M19.8139 0.741525L20.3433 2.9661C18.1197 3.49576 16.0019 4.34322 14.0959 5.61441L12.9311 3.60169C15.0489 2.33051 17.3785 1.37712 19.8139 0.741525ZM31.8852 0.741525L31.3558 2.9661C33.5794 3.49576 35.6972 4.34322 37.6032 5.61441L38.768 3.60169C36.6502 2.33051 34.3207 1.37712 31.8852 0.741525ZM4.46002 12.0763C3.18935 14.1949 2.23635 16.5254 1.60102 18.9619L3.82468 19.4915C4.35413 17.2669 5.20124 15.1483 6.4719 13.2415L4.46002 12.0763ZM3.18935 25C3.18935 23.8347 3.29524 22.7754 3.40113 21.6102L1.07157 21.2924C0.648017 23.7288 0.648017 26.2712 1.07157 28.8136L3.40113 28.4958C3.29524 27.3305 3.18935 26.1653 3.18935 25ZM38.768 46.3983L37.6032 44.3856C35.6972 45.5508 33.5794 46.3983 31.3558 47.0339L31.8852 49.2585C34.3207 48.7288 36.6502 47.6695 38.768 46.3983ZM48.5098 25C48.5098 26.1653 48.4039 27.2246 48.298 28.3898L50.6275 28.7076C51.0511 26.2712 51.0511 23.7288 50.6275 21.1864L48.298 21.5042C48.4039 22.7754 48.5098 23.8347 48.5098 25ZM50.0981 31.0381L47.8744 30.5085C47.345 32.733 46.4979 34.8517 45.2272 36.7585L47.2391 37.9237C48.5098 35.8051 49.5687 33.4746 50.0981 31.0381ZM29.238 47.4576C27.0143 47.7754 24.6848 47.7754 22.4611 47.4576L22.1435 49.7881C24.5789 50.2119 27.1202 50.2119 29.6616 49.7881L29.238 47.4576ZM44.0624 38.4534C42.6859 40.2542 41.0975 41.9492 39.2974 43.2203L40.674 45.1271C42.6859 43.6441 44.486 41.8432 45.9684 39.8305L44.0624 38.4534ZM39.2974 6.77966C41.0975 8.15678 42.7918 9.74576 44.0624 11.5466L45.9684 10.1695C44.486 8.15678 42.6859 6.35593 40.674 4.87288L39.2974 6.77966ZM7.63668 11.5466C9.01324 9.74576 10.6016 8.05085 12.4017 6.77966L11.0251 4.87288C9.01324 6.35593 7.21312 8.15678 5.73068 10.1695L7.63668 11.5466ZM47.2391 12.0763L45.2272 13.2415C46.392 15.1483 47.2391 17.2669 47.8744 19.4915L50.0981 18.9619C49.5687 16.5254 48.5098 14.1949 47.2391 12.0763ZM22.4611 2.6483C24.6848 2.33051 27.0143 2.33051 29.238 2.6483L29.5557 0.317797C27.1202 -0.105932 24.5789 -0.105932 22.0376 0.317797L22.4611 2.6483ZM8.80146 45.7627L3.93057 46.928L5.09535 42.0551L2.76579 41.5254L1.60102 46.3983C1.49513 47.0339 1.60102 47.6695 1.91868 48.1992C2.23635 48.7288 2.76579 49.1525 3.40113 49.2585C3.71879 49.3644 4.14235 49.3644 4.46002 49.2585L9.3309 48.0932L8.80146 45.7627ZM3.29524 39.4068L5.62479 39.9364L6.36601 36.5466C5.20124 34.6398 4.35413 32.5212 3.82468 30.4025L1.60102 30.9322C2.13046 33.0508 2.87168 34.9576 3.93057 36.8644L3.29524 39.4068ZM14.2018 44.4915L10.8133 45.2331L11.3428 47.5636L13.7782 47.0339C15.6842 48.0932 17.6961 48.8347 19.708 49.3644L20.2375 47.1398C18.2256 46.5042 16.2137 45.6568 14.2018 44.4915Z" fill="#3A76F0"/>
<path d="M25.8503 4.2373C14.3085 4.2373 4.99023 13.5593 4.99023 24.8941C4.99023 28.9195 6.15501 32.7331 8.1669 35.911L6.04912 44.7034L14.732 42.4788C17.9087 44.3856 21.6148 45.5509 25.6386 45.5509C37.1804 45.5509 46.3928 36.3348 46.3928 24.8941C46.3928 13.4534 37.2863 4.2373 25.8503 4.2373Z" fill="#3A76F0"/>
</svg>
