<svg width="201" height="49" viewBox="0 0 201 49" fill="none" xmlns="http://www.w3.org/2000/svg">
<g clip-path="url(#clip0_2593_30073)">
<path d="M24.9624 48.8154C38.4753 48.8154 49.4296 37.8879 49.4296 24.4081C49.4296 10.9283 38.4753 0.000732422 24.9624 0.000732422C11.4495 0.000732422 0.495117 10.9283 0.495117 24.4081C0.495117 37.8879 11.4495 48.8154 24.9624 48.8154Z" fill="url(#paint0_linear_2593_30073)"/>
<path fill-rule="evenodd" clip-rule="evenodd" d="M11.5858 24.1419C18.7126 21.0244 23.4764 19.0095 25.8393 18.021C32.6231 15.2077 34.0332 14.7135 34.9478 14.7135C35.1384 14.7135 35.5957 14.7515 35.9006 14.9796C36.1293 15.1697 36.2055 15.4358 36.2436 15.6259C36.2817 15.816 36.3198 16.2342 36.2817 16.5764C35.9006 20.4162 34.3381 29.8065 33.4996 34.1025C33.1566 35.9274 32.4706 36.5356 31.8227 36.6117C30.4126 36.7257 29.3074 35.6612 27.9354 34.7868C25.8012 33.3802 24.5817 32.5058 22.4856 31.1371C20.0846 29.5404 21.6471 28.666 23.0191 27.2593C23.3621 26.8792 29.6504 21.2145 29.7648 20.6823C29.7648 20.6062 29.8029 20.3781 29.6504 20.2641C29.498 20.15 29.3074 20.188 29.155 20.2261C28.9263 20.2641 25.4963 22.5451 18.8269 27.0312C17.836 27.7155 16.9595 28.0197 16.1591 28.0197C15.2826 28.0197 13.6057 27.5255 12.348 27.1073C10.8236 26.613 9.60404 26.3469 9.71837 25.5105C9.8327 25.0543 10.4425 24.5981 11.5858 24.1419Z" fill="white"/>
</g>
<path d="M86.1731 18.0656C88.5862 18.0656 90.4424 18.8062 91.7418 20.3802C93.0412 21.9541 93.6909 24.0836 93.6909 26.8611V28.4351H82.1821C82.2749 29.9165 82.8318 31.0275 83.6671 31.8607C84.5024 32.694 85.6162 33.1569 86.9156 33.1569C88.7718 33.1569 90.2568 32.4163 91.3706 30.9349L93.5052 32.9718C92.7627 33.9902 91.8346 34.8235 90.6281 35.379C89.4215 35.9345 88.1221 36.2122 86.6371 36.2122C84.1312 36.2122 82.0893 35.379 80.5115 33.805C78.9337 32.2311 78.1912 30.1016 78.1912 27.5093V27.0463C78.1912 25.2872 78.5625 23.7133 79.2121 22.3245C79.8618 20.9357 80.8828 19.8247 82.0893 19.084C83.2959 18.4359 84.6881 18.0656 86.1731 18.0656ZM78.8409 12.2327V15.5658H71.4159V35.9345H67.3322V15.5658H60V12.2327H78.8409ZM86.1731 21.2135C85.0593 21.2135 84.224 21.5838 83.5743 22.3245C82.9246 23.0652 82.4606 24.1762 82.2749 25.4724H89.7927V25.1946C89.6999 23.8984 89.3287 22.88 88.7718 22.2319C88.1221 21.4912 87.2868 21.2135 86.1731 21.2135ZM100.281 35.9345H96.2896V10.9365H100.281V35.9345ZM111.418 36.3048C108.912 36.3048 106.87 35.4716 105.292 33.8976C103.715 32.3237 102.972 30.1942 102.972 27.6018V27.1389C102.972 25.3798 103.343 23.8058 103.993 22.4171C104.643 21.0283 105.664 19.9173 106.87 19.1766C108.077 18.4359 109.469 18.0656 110.954 18.0656C113.367 18.0656 115.223 18.8062 116.523 20.3802C117.822 21.9541 118.472 24.0836 118.472 26.8611V28.4351H106.963C107.056 29.9165 107.613 31.0275 108.448 31.8607C109.283 32.694 110.397 33.1569 111.696 33.1569C113.553 33.1569 115.038 32.4163 116.151 30.9349L118.286 32.9718C117.544 33.9902 116.615 34.8235 115.409 35.379C114.202 36.0271 112.903 36.3048 111.418 36.3048ZM110.954 21.2135C109.84 21.2135 109.005 21.5838 108.355 22.3245C107.706 23.0652 107.241 24.1762 107.056 25.4724H114.574V25.1946C114.481 23.8984 114.11 22.88 113.553 22.2319C112.903 21.4912 112.068 21.2135 110.954 21.2135ZM120.421 27.0463C120.421 24.2688 121.07 22.1393 122.37 20.4728C123.669 18.8063 125.34 18.0656 127.475 18.0656C129.516 18.0656 131.094 18.8063 132.208 20.195L132.394 18.4359H136.013V35.5641C136.013 37.8788 135.271 39.7305 133.879 41.0267C132.394 42.3228 130.445 43.0635 128.031 43.0635C126.732 43.0635 125.433 42.7858 124.226 42.2303C123.02 41.6748 122.091 41.0267 121.442 40.1008L123.298 37.6936C124.505 39.175 125.99 39.823 127.846 39.823C129.145 39.823 130.166 39.4527 131.001 38.712C131.744 37.9713 132.115 36.9529 132.115 35.5641V34.3605C131.001 35.6567 129.424 36.3048 127.567 36.3048C125.525 36.3048 123.855 35.4716 122.463 33.805C121.07 32.2311 120.421 29.9165 120.421 27.0463ZM124.412 27.4167C124.412 29.1758 124.783 30.5646 125.525 31.583C126.268 32.6014 127.289 33.0644 128.495 33.0644C130.073 33.0644 131.28 32.4162 132.022 31.0275V23.2503C131.28 21.9541 130.073 21.2135 128.495 21.2135C127.196 21.2135 126.175 21.769 125.433 22.7874C124.783 23.8058 124.412 25.3798 124.412 27.4167ZM148.914 21.9541C148.357 21.8616 147.893 21.8616 147.336 21.8616C145.48 21.8616 144.274 22.6022 143.624 23.991V36.0271H139.633V18.4359H143.438L143.531 20.3802C144.459 18.8062 145.851 18.0656 147.522 18.0656C148.079 18.0656 148.543 18.1582 148.914 18.2507V21.9541ZM160.98 35.9345C160.794 35.5641 160.609 35.0086 160.516 34.2679C159.216 35.5641 157.731 36.2122 155.875 36.2122C154.112 36.2122 152.627 35.7493 151.513 34.7309C150.399 33.7124 149.842 32.5088 149.842 31.0275C149.842 29.1758 150.585 27.6944 151.977 26.676C153.369 25.6575 155.411 25.1946 158.01 25.1946H160.423V24.0836C160.423 23.1577 160.144 22.4171 159.68 21.8616C159.124 21.306 158.381 21.0283 157.36 21.0283C156.432 21.0283 155.689 21.2135 155.133 21.6764C154.576 22.1393 154.297 22.6948 154.297 23.4355H150.306C150.306 22.5097 150.585 21.5838 151.234 20.7505C151.884 19.9173 152.719 19.2692 153.833 18.8063C154.947 18.3433 156.154 18.0656 157.546 18.0656C159.588 18.0656 161.258 18.6211 162.465 19.6395C163.671 20.658 164.321 22.1393 164.321 23.991V31.9533C164.321 33.5273 164.507 34.8235 164.971 35.7493V36.0271H160.98V35.9345ZM156.618 33.1569C157.36 33.1569 158.103 32.9718 158.845 32.6014C159.495 32.2311 160.052 31.6756 160.423 31.0275V27.6944H158.288C156.803 27.6944 155.689 27.9722 154.947 28.4351C154.204 28.9906 153.833 29.6387 153.833 30.5645C153.833 31.3052 154.112 31.9533 154.576 32.4162C155.133 32.8792 155.782 33.1569 156.618 33.1569ZM171.746 18.3433L171.839 20.195C173.045 18.7137 174.809 18.0656 176.943 18.0656C179.264 18.0656 180.934 18.9914 181.77 20.7505C183.069 18.9914 184.833 18.0656 187.153 18.0656C189.102 18.0656 190.587 18.6211 191.515 19.6395C192.443 20.7505 193 22.3245 193 24.3614V35.9345H189.009V24.4539C189.009 23.3429 188.731 22.5097 188.267 21.9541C187.803 21.3986 186.967 21.2135 185.853 21.2135C184.925 21.2135 184.183 21.4912 183.626 21.9541C183.069 22.4171 182.698 23.0652 182.419 23.8058V35.9345H178.428V24.3614C178.336 22.3245 177.315 21.2135 175.273 21.2135C173.695 21.2135 172.581 21.8616 171.932 23.1577V35.9345H167.941V18.3433H171.746Z" fill="white"/>
<defs>
<linearGradient id="paint0_linear_2593_30073" x1="0.531399" y1="24.3904" x2="49.4305" y2="24.3904" gradientUnits="userSpaceOnUse">
<stop stop-color="#2AABEE"/>
<stop offset="1" stop-color="#229ED9"/>
</linearGradient>
<clipPath id="clip0_2593_30073">
<rect width="50" height="48.8372" fill="white"/>
</clipPath>
</defs>
</svg>
