<svg width="199" height="55" viewBox="0 0 199 55" fill="none" xmlns="http://www.w3.org/2000/svg">
<path d="M28.229 39.6954H33.6986V30.0209H43.5372V39.6954H49.0068V15.2509H43.5372V24.8221H33.6986V15.2509H28.229V39.6954Z" fill="white"/>
<path d="M129.062 39.6954H137.394C144.28 39.6954 149.857 34.2212 149.857 27.4732C149.857 20.7251 144.28 15.2509 137.394 15.2509H129.062V39.6954ZM134.562 34.6688V20.2775H137.394C141.525 20.2775 144.314 23.5138 144.314 27.4732C144.314 31.4324 141.525 34.6688 137.394 34.6688H134.562Z" fill="white"/>
<path d="M102.785 39.7222V15.2778H97.2847V30.392L85.4792 15.2778H80.7847V39.7222H86.2847V24.608L98.0901 39.7222H102.785Z" fill="white"/>
<path d="M74.0623 39.7222H79.5623V15.2778H74.0623V39.7222Z" fill="white"/>
<path d="M122.34 39.7222H127.84V15.2778H122.34V39.7222Z" fill="white"/>
<path d="M50.229 39.7491H65.5068V34.5102H55.7092V30.1329H63.671V24.894H55.7092V20.5167H65.5068V15.2778H50.229V39.7491Z" fill="white"/>
<path d="M149.84 39.7491H165.118V34.5102H155.321V30.1329H163.282V24.894H155.321V20.5167H165.118V15.2778H149.84V39.7491Z" fill="white"/>
<path d="M16.6179 39.7222H22.1179V20.511H28.2291V15.2778H10.5068V20.511H16.6179V39.7222Z" fill="white"/>
<path d="M113.027 40.0875C118.289 40.0875 121.729 36.8477 121.729 32.6772C121.729 28.8169 119.287 26.2664 115.262 25.1979L112.476 24.4741C110.55 23.9571 109.483 23.1989 109.518 21.8547C109.552 20.5105 110.791 19.8556 112.408 19.8556C113.749 19.8556 115.228 20.5105 115.778 22.4406H121.213C121.041 18.7182 117.807 14.789 112.408 14.789C107.351 14.789 104.015 17.6497 104.015 22.2338C104.049 26.0941 106.732 28.5067 110.619 29.5752L112.992 30.1956C115.331 30.8505 116.191 31.7121 116.191 32.8495C116.191 34.2282 114.85 35.0209 113.027 35.0209C110.86 35.0209 109.243 33.8835 108.864 31.8155H103.396C103.567 35.9171 107.007 40.0875 113.027 40.0875Z" fill="white"/>
<path d="M166.34 39.7222H171.84L171.817 29.6346H172.679L180.844 39.7222H187.423L178.776 28.946C181.911 27.8443 183.565 25.813 183.565 22.6455C183.565 18.6174 180.602 15.2778 175.986 15.2778H166.34V39.7222ZM171.84 24.9867V20.3044H175.331C176.951 20.3044 178.122 21.1651 178.122 22.6455C178.122 24.0571 176.951 24.9867 175.331 24.9867H171.84Z" fill="white"/>
</svg>
