<svg width="168" height="55" viewBox="0 0 168 55" fill="none" xmlns="http://www.w3.org/2000/svg">
<path d="M26.2475 22.2989V37.7151L33.2742 39.965V22.2989H37.7943V37.7151L44.7798 39.965L49.341 33.7152H44.8209V18.5073L37.8354 16.0491L33.2742 21.4656V18.5073L26.2886 16.0491L21.7274 21.4656V18.5073L14.7418 16.0491L10.1807 22.2989H14.7007V37.7151L21.7274 39.965V22.2989H26.2475ZM101.692 33.7152V18.299L94.6651 16.0491V37.5067L101.651 39.965L106.212 34.5485V37.5067L113.197 39.965L117.759 33.7152H113.239V18.299L106.212 16.0491V33.7152H101.692ZM153.549 19.1323L146.687 16.0491L138.551 19.9656L146.687 23.0488L135.51 28.507V37.4234L142.537 39.965L146.687 34.5068V37.5067L153.714 39.965L158.07 33.6735H153.549V19.1323ZM58.4223 39.965L66.4762 36.7151L58.4223 33.6735V29.2987L68.9828 24.1321L62.9835 16.0491L51.3956 21.6739V36.9234L58.4223 39.965ZM133.99 33.2152L125.443 30.5903L133.456 20.2573L123.429 16.0491L118.17 22.7989L126.758 25.4654L118.58 35.7568L128.73 39.965L133.99 33.2152ZM142.537 33.7152V27.5487L146.687 25.5488V33.7152H142.537ZM58.4223 20.0906L61.9562 25.0071L58.4223 26.7154V20.0906ZM70.7909 36.9234L77.8175 39.965L89.3643 35.2985V16.8407L70.7909 8.71594V15.9122L82.3376 20.537V35.3401L77.8175 33.6735V20.6739L70.7909 22.9238V36.9234Z" fill="#DCAD76"/>
</svg>
