<svg width="240" height="55" viewBox="0 0 240 55" fill="none" xmlns="http://www.w3.org/2000/svg">
<mask id="mask0_2408_33981" style="mask-type:luminance" maskUnits="userSpaceOnUse" x="7" y="15" width="226" height="26">
<path d="M232.875 15.036H7.22253V40.5751H232.875V15.036Z" fill="white"/>
</mask>
<g mask="url(#mask0_2408_33981)">
<path d="M12.4258 28.9119V35.7799H7.22253V15.2324H15.1339C16.7138 15.2324 18.0709 15.4039 19.2051 15.7469C20.3392 16.0899 21.2731 16.5625 22.0067 17.1645C22.7251 17.7457 23.2818 18.4752 23.631 19.2928C23.9796 20.111 24.1539 20.9947 24.1544 21.944C24.1544 22.969 23.975 23.9092 23.6159 24.7646C23.2661 25.6076 22.7013 26.3619 21.9687 26.9645C21.2293 27.5757 20.2928 28.0528 19.1592 28.3956C18.0257 28.7385 16.6839 28.91 15.1339 28.9101L12.4258 28.9119ZM12.4258 25.3168H15.1351C16.4891 25.3168 17.4638 25.0206 18.0595 24.4284C18.6552 23.8361 18.9529 23.0086 18.9527 21.946C18.9527 21.4757 18.8756 21.048 18.7216 20.663C18.5741 20.2868 18.3345 19.9466 18.0212 19.6684C17.7073 19.3914 17.3122 19.1775 16.8361 19.0268C16.3599 18.8761 15.7929 18.8008 15.1351 18.801H12.4258V25.3168Z" fill="white"/>
<path d="M32.976 20.9302C34.1857 20.9302 35.2887 21.1042 36.2853 21.4522C37.282 21.8003 38.1364 22.2988 38.8484 22.9478C39.5616 23.5967 40.1162 24.3841 40.5122 25.3102C40.9082 26.2363 41.1058 27.2775 41.105 28.4337C41.105 29.5995 40.9074 30.6501 40.5122 31.5856C40.1171 32.521 39.5625 33.3153 38.8484 33.9684C38.1346 34.6222 37.2803 35.1253 36.2853 35.4774C35.2904 35.8297 34.1872 36.0061 32.976 36.0067C31.7542 36.0067 30.6431 35.8304 29.643 35.478C28.6428 35.1257 27.7807 34.6226 27.057 33.9689C26.3332 33.3157 25.7738 32.5214 25.3786 31.5861C24.9835 30.6508 24.7862 29.6 24.7866 28.4337C24.7866 27.2771 24.984 26.2359 25.379 25.3102C25.7739 24.3845 26.3334 23.597 27.0573 22.9478C27.7807 22.2995 28.6426 21.801 29.6432 21.4522C30.6438 21.1035 31.7549 20.9295 32.976 20.9302ZM32.976 32.7625C34.0732 32.7625 34.8812 32.4078 35.4 31.6984C35.9188 30.9888 36.1783 29.9102 36.1783 28.4624C36.1783 27.0148 35.9191 25.9384 35.4006 25.2331C34.8822 24.5279 34.074 24.1748 32.976 24.1739C31.8459 24.1739 31.0192 24.5265 30.496 25.2317C29.9728 25.9369 29.7111 27.0138 29.7111 28.4624C29.7111 29.9102 29.9728 30.9892 30.496 31.6995C31.0192 32.4096 31.8459 32.7632 32.976 32.7625Z" fill="white"/>
<path d="M55.2341 24.625C55.1115 24.7659 54.9719 24.8937 54.8182 25.0061C54.6851 25.1002 54.4949 25.1471 54.2493 25.1471C54.0248 25.15 53.8037 25.0963 53.6102 24.992C53.4202 24.8885 53.207 24.7734 52.971 24.6469C52.7063 24.5084 52.4282 24.3928 52.1399 24.3018C51.8218 24.1988 51.4268 24.1472 50.9548 24.147C50.3698 24.147 49.8645 24.2457 49.4385 24.443C49.0146 24.6388 48.6518 24.9299 48.3843 25.2891C48.1074 25.6561 47.9021 26.1051 47.7683 26.636C47.6346 27.1669 47.568 27.7662 47.5687 28.4338C47.5687 29.8349 47.8637 30.9113 48.4537 31.6635C49.0437 32.4154 49.8569 32.7914 50.8933 32.7914C51.4475 32.7914 51.8863 32.7279 52.2097 32.601C52.5014 32.4902 52.7777 32.3482 53.0331 32.1779C53.2591 32.0228 53.4669 31.879 53.6563 31.7465C53.8457 31.6141 54.0842 31.5482 54.3721 31.5492C54.752 31.5492 55.0393 31.6762 55.2341 31.9303L56.6196 33.4957C56.1273 34.0135 55.6091 34.434 55.0649 34.7575C54.5436 35.0718 53.9829 35.3275 53.3951 35.5194C52.8385 35.6998 52.2633 35.8273 51.6781 35.8998C51.1222 35.9689 50.5621 36.0042 50.001 36.0054C49.0421 36.0084 48.0922 35.8358 47.2069 35.4981C46.3231 35.1622 45.5259 34.6603 44.8669 34.0247C44.1951 33.3804 43.6614 32.5884 43.2658 31.6484C42.8702 30.7086 42.6727 29.6369 42.6731 28.4335C42.6731 27.3805 42.8444 26.3957 43.1873 25.4789C43.5301 24.5622 44.038 23.7681 44.7111 23.0964C45.3829 22.4253 46.2143 21.8964 47.2051 21.5097C48.1959 21.1229 49.3427 20.9301 50.6456 20.9313C51.8973 20.9313 52.9955 21.1147 53.9398 21.4815C54.8841 21.8483 55.736 22.384 56.4952 23.0886L55.2341 24.625Z" fill="white"/>
<path d="M67.8723 22.2565C68.1121 21.924 68.4371 21.6503 68.8189 21.4593C69.1966 21.2615 69.6239 21.1571 70.0589 21.1561H73.83L70.473 26.4726C70.2168 26.8676 69.9552 27.1872 69.6881 27.4315C69.4126 27.6811 69.0818 27.8735 68.718 27.9957C69.2413 28.156 69.6671 28.3817 69.9954 28.6728C70.324 28.9638 70.6162 29.3305 70.8727 29.7729L74.2134 35.7801H70.9201C70.5506 35.7846 70.1817 35.754 69.8191 35.6887C69.5265 35.6344 69.244 35.5419 68.9802 35.414C68.7397 35.2961 68.5215 35.1436 68.3338 34.9621C68.1401 34.7732 67.9697 34.5652 67.8259 34.3418L66.1306 30.6604C65.9765 30.3313 65.7532 30.0894 65.4603 29.9345C65.1675 29.7796 64.8317 29.7021 64.4526 29.7018H63.2517V35.7795H58.4799V21.1573H63.2517V26.9532H64.2378C64.6688 26.9532 64.9894 26.8898 65.1997 26.763C65.41 26.6363 65.5974 26.4223 65.7616 26.1211L67.8723 22.2565Z" fill="white"/>
<path d="M82.7265 20.9302C83.9362 20.9302 85.0395 21.1042 86.0364 21.4522C87.0333 21.8003 87.8876 22.2988 88.5994 22.9478C89.3124 23.5967 89.8672 24.3841 90.2633 25.3102C90.6595 26.2363 90.857 27.2775 90.8558 28.4337C90.8558 29.5995 90.6583 30.6501 90.2633 31.5856C89.8683 32.521 89.3137 33.3153 88.5994 33.9684C87.8856 34.6222 87.0311 35.1253 86.0364 35.4774C85.0417 35.8297 83.9383 36.0059 82.7265 36.0061C81.505 36.0061 80.3941 35.8299 79.3936 35.4774C78.3933 35.125 77.5311 34.622 76.8074 33.9684C76.084 33.3151 75.5248 32.5209 75.1297 31.5856C74.7346 30.6503 74.537 29.5996 74.537 28.4337C74.537 27.2771 74.7346 26.2359 75.1297 25.3102C75.5248 24.3845 76.084 23.597 76.8074 22.9478C77.5308 22.2995 78.3929 21.801 79.3936 21.4522C80.3945 21.1035 81.5054 20.9295 82.7265 20.9302ZM82.7265 32.7625C83.8244 32.7625 84.6326 32.4078 85.1508 31.6984C85.669 30.9888 85.9282 29.9102 85.9284 28.4624C85.9284 27.0148 85.6692 25.9384 85.1508 25.2331C84.6323 24.5279 83.8243 24.1753 82.7265 24.1753C81.5976 24.1753 80.7709 24.5279 80.2464 25.2331C79.7218 25.9384 79.4598 27.0148 79.4602 28.4624C79.4602 29.9102 79.7224 30.9892 80.2466 31.6995C80.7709 32.4096 81.5974 32.7632 82.7265 32.7625Z" fill="white"/>
<path d="M102.815 29.3213C102.969 28.9266 103.133 28.5387 103.307 28.1575C103.474 27.7925 103.664 27.4371 103.878 27.0934L106.586 22.089C106.812 21.7036 107.087 21.4497 107.41 21.3274C107.72 21.2077 108.052 21.1454 108.388 21.1439H112.389V35.7832H108.08V28.8559C108.08 28.4986 108.098 28.0968 108.134 27.6502C108.167 27.222 108.226 26.7959 108.311 26.3738L104.416 33.2983C104.129 33.7775 103.682 34.0173 103.077 34.0173H102.569C101.964 34.0173 101.518 33.7775 101.23 33.2983L97.3054 26.3315C97.3876 26.7453 97.4518 27.18 97.498 27.6358C97.5439 28.0916 97.567 28.498 97.5673 28.855V35.7791H93.2568V21.1419H97.2593C97.596 21.1436 97.9286 21.2084 98.2369 21.3323C98.5596 21.4598 98.8341 21.7114 99.0603 22.087L101.754 27.0928C102.16 27.8139 102.514 28.5582 102.815 29.3213Z" fill="white"/>
<path d="M127.352 24.625C127.229 24.7658 127.09 24.8936 126.936 25.0061C126.803 25.1001 126.613 25.147 126.367 25.147C126.142 25.1501 125.921 25.0964 125.728 24.992C125.538 24.8885 125.325 24.7735 125.089 24.6469C124.824 24.5084 124.546 24.3928 124.257 24.3018C123.939 24.1988 123.545 24.1472 123.073 24.147C122.488 24.147 121.982 24.2457 121.556 24.443C121.132 24.6389 120.769 24.93 120.502 25.2891C120.225 25.6561 120.02 26.1051 119.886 26.636C119.753 27.1669 119.686 27.7661 119.687 28.4336C119.687 29.8346 119.982 30.9111 120.572 31.663C121.162 32.4152 121.975 32.7912 123.012 32.7912C123.566 32.7912 124.004 32.7276 124.327 32.6007C124.619 32.4901 124.896 32.3481 125.151 32.1777C125.377 32.0226 125.585 31.8787 125.774 31.7462C125.964 31.6138 126.203 31.548 126.491 31.549C126.87 31.549 127.157 31.676 127.353 31.9301L128.738 33.4955C128.246 34.0132 127.727 34.4337 127.183 34.7572C126.662 35.0715 126.101 35.3273 125.513 35.519C124.957 35.6995 124.381 35.827 123.797 35.8995C123.24 35.9686 122.68 36.004 122.119 36.0051C121.16 36.0081 120.21 35.8356 119.325 35.4977C118.441 35.162 117.644 34.66 116.985 34.0244C116.313 33.3801 115.779 32.5881 115.384 31.6481C114.988 30.7083 114.79 29.6367 114.789 28.4336C114.789 27.3805 114.961 26.3957 115.305 25.479C115.649 24.5622 116.157 23.7678 116.83 23.0955C117.502 22.4245 118.333 21.8955 119.324 21.5088C120.315 21.1221 121.461 20.9293 122.763 20.9304C124.015 20.9304 125.113 21.1138 126.058 21.4806C127.002 21.8474 127.854 22.3831 128.613 23.0878L127.352 24.625Z" fill="#758CDA"/>
<path d="M130.6 21.1572H137.28C138.306 21.1572 139.199 21.2465 139.958 21.4252C140.717 21.6039 141.346 21.8532 141.845 22.173C142.342 22.4922 142.711 22.8708 142.952 23.3088C143.196 23.7527 143.32 24.2432 143.315 24.7399C143.314 25.0702 143.27 25.3992 143.184 25.7201C143.094 26.0612 142.94 26.3856 142.73 26.6792C142.514 26.9847 142.219 27.2644 141.845 27.5185C141.47 27.7725 140.99 27.97 140.405 28.111C140.871 28.209 141.323 28.3557 141.752 28.5481C142.149 28.7239 142.513 28.957 142.83 29.2384C143.132 29.5101 143.372 29.8336 143.538 30.1903C143.707 30.5521 143.792 30.9634 143.792 31.4241C143.792 32.2048 143.613 32.8698 143.253 33.419C142.9 33.9634 142.412 34.4247 141.83 34.7659C141.24 35.1135 140.567 35.3696 139.813 35.5341C139.054 35.6992 138.277 35.7821 137.496 35.781H130.602L130.6 21.1572ZM135.125 27.1225H137.142C137.726 27.1225 138.204 26.9603 138.573 26.6361C138.943 26.3119 139.128 25.8957 139.128 25.3876C139.127 25.2058 139.096 25.0252 139.035 24.8521C138.972 24.6706 138.861 24.506 138.712 24.3726C138.558 24.2313 138.352 24.1163 138.096 24.0275C137.84 23.9387 137.522 23.894 137.142 23.8935H135.125V27.1225ZM135.125 29.7173V32.9034H137.465C138.06 32.9034 138.532 32.7556 138.881 32.4602C139.23 32.1648 139.404 31.7628 139.405 31.2546C139.405 31.0552 139.382 30.8566 139.335 30.6621C139.291 30.4783 139.196 30.3082 139.058 30.1685C138.919 30.0276 138.722 29.9168 138.465 29.836C138.209 29.7553 137.876 29.7154 137.465 29.7164L135.125 29.7173Z" fill="#758CDA"/>
<path d="M153.597 20.9302C154.806 20.9302 155.91 21.1042 156.907 21.4522C157.904 21.8003 158.758 22.2988 159.47 22.9478C160.183 23.5967 160.738 24.3841 161.135 25.3102C161.53 26.2363 161.728 27.2775 161.726 28.4337C161.726 29.5995 161.529 30.6501 161.135 31.5856C160.739 32.521 160.185 33.3153 159.47 33.9684C158.756 34.6222 157.902 35.1253 156.907 35.4774C155.912 35.8297 154.809 36.0059 153.597 36.0061C152.377 36.0061 151.265 35.8299 150.264 35.4774C149.264 35.125 148.402 34.6216 147.679 33.9672C146.956 33.314 146.396 32.5199 146.001 31.5847C145.606 30.6496 145.408 29.5992 145.408 28.4337C145.408 27.2775 145.606 26.2363 146.001 25.3102C146.397 24.3841 146.956 23.5967 147.679 22.9478C148.402 22.2995 149.264 21.801 150.265 21.4522C151.266 21.1035 152.377 20.9295 153.597 20.9302ZM153.597 32.7625C154.695 32.7625 155.503 32.4078 156.021 31.6984C156.54 30.9888 156.799 29.9102 156.799 28.4624C156.799 27.0148 156.54 25.9384 156.021 25.2331C155.503 24.5279 154.695 24.1753 153.597 24.1753C152.468 24.1753 151.642 24.5279 151.119 25.2331C150.596 25.9384 150.334 27.0148 150.333 28.4624C150.333 29.9102 150.594 30.9892 151.119 31.6995C151.643 32.4096 152.47 32.7632 153.597 32.7625Z" fill="#758CDA"/>
<path d="M173.039 19.1254C172.157 19.1726 171.4 19.3164 170.768 19.5568C170.138 19.7973 169.616 20.1238 169.207 20.5364C168.788 20.9611 168.472 21.4606 168.274 22.0032C168.063 22.5671 167.937 23.1923 167.897 23.8787C168.164 23.5593 168.467 23.2684 168.805 23.0116C169.167 22.7366 169.565 22.5046 169.99 22.3213C170.45 22.1223 170.933 21.9688 171.43 21.8634C171.982 21.747 172.548 21.6902 173.115 21.694C174.172 21.694 175.127 21.8655 175.979 22.2086C176.811 22.5394 177.555 23.0348 178.155 23.6593C178.756 24.2843 179.217 25.034 179.541 25.9083C179.865 26.7827 180.026 27.756 180.026 28.8284C180.026 29.9383 179.829 30.9353 179.433 31.8195C179.039 32.7039 178.485 33.456 177.77 34.0759C177.056 34.6965 176.203 35.1736 175.207 35.5074C174.211 35.8409 173.108 36.0074 171.896 36.0066C170.674 36.0066 169.561 35.828 168.555 35.4708C167.549 35.1135 166.685 34.5448 165.962 33.7646C165.238 32.9845 164.679 31.9786 164.284 30.747C163.888 29.5155 163.691 28.02 163.691 26.2604C163.691 24.813 163.838 23.4516 164.131 22.1763C164.424 20.9011 164.919 19.7773 165.613 18.805C166.307 17.8321 167.225 17.0447 168.37 16.4429C169.513 15.841 170.937 15.4884 172.641 15.3851L178.29 15.033L178.552 17.2326C178.602 17.6928 178.526 18.0853 178.32 18.4101C178.115 18.7349 177.751 18.9066 177.227 18.9252L173.039 19.1254ZM171.9 32.9171C172.998 32.9171 173.806 32.581 174.324 31.909C174.843 31.2369 175.102 30.2147 175.102 28.842C175.102 27.4697 174.843 26.4496 174.324 25.7818C173.806 25.114 172.998 24.7804 171.9 24.7809C170.76 24.7809 169.929 25.1125 169.406 25.7755C168.883 26.4385 168.621 27.4514 168.619 28.8141C168.619 30.1964 168.881 31.2259 169.406 31.9027C169.93 32.5796 170.761 32.9177 171.9 32.9171Z" fill="#758CDA"/>
<path d="M189.833 20.9302C191.043 20.9302 192.146 21.1042 193.143 21.4522C194.14 21.8003 194.994 22.2988 195.706 22.9478C196.418 23.5967 196.974 24.3841 197.369 25.3102C197.766 26.2363 197.964 27.2775 197.963 28.4337C197.963 29.5995 197.765 30.6501 197.369 31.5856C196.974 32.521 196.42 33.3153 195.705 33.9684C194.991 34.6222 194.137 35.1253 193.143 35.4774C192.147 35.8297 191.044 36.0059 189.833 36.0061C188.611 36.0061 187.501 35.8299 186.499 35.4774C185.499 35.125 184.637 34.622 183.913 33.9684C183.19 33.3151 182.631 32.5209 182.236 31.5856C181.84 30.6503 181.642 29.5996 181.644 28.4337C181.644 27.2771 181.842 26.2359 182.236 25.3102C182.631 24.3845 183.191 23.597 183.915 22.9478C184.637 22.2995 185.499 21.801 186.501 21.4522C187.501 21.1035 188.611 20.9295 189.833 20.9302ZM189.833 32.7625C190.931 32.7625 191.739 32.4078 192.257 31.6984C192.776 30.9888 193.035 29.9102 193.035 28.4624C193.035 27.0148 192.776 25.9384 192.257 25.2331C191.739 24.5279 190.931 24.1753 189.833 24.1753C188.704 24.1753 187.878 24.5279 187.353 25.2331C186.829 25.9384 186.568 27.0148 186.571 28.4624C186.571 29.9102 186.833 30.9892 187.356 31.6995C187.879 32.4096 188.704 32.7632 189.833 32.7625Z" fill="#758CDA"/>
<path d="M215.001 21.157V32.6504H217.942V39.3339C217.942 39.7094 217.816 40.0102 217.565 40.2361C217.313 40.462 216.992 40.5748 216.601 40.5746H213.599V35.7798H202.963V39.3913C202.963 39.54 202.937 39.6877 202.885 39.8288C202.834 39.9691 202.754 40.0985 202.646 40.2096C202.534 40.3255 202.394 40.417 202.238 40.4774C202.053 40.5472 201.854 40.5809 201.653 40.576H198.622V32.7764H199.162C199.494 32.7681 199.825 32.7207 200.146 32.6354C200.464 32.5508 200.769 32.3746 201.062 32.1069C201.354 31.839 201.629 31.4488 201.885 30.9362C202.142 30.4237 202.375 29.7398 202.586 28.8845C202.797 28.0291 202.984 26.9714 203.148 25.7113C203.312 24.4515 203.446 22.9332 203.549 21.1561L215.001 21.157ZM207.443 24.3874C207.258 26.4655 206.986 28.1832 206.626 29.5405C206.268 30.8977 205.847 31.9765 205.364 32.7764H210.384V24.3868L207.443 24.3874Z" fill="#758CDA"/>
<path d="M230.687 35.7801C230.235 35.7801 229.894 35.7236 229.663 35.611C229.432 35.4982 229.239 35.2628 229.085 34.9048L228.747 34.1013C228.346 34.4119 227.962 34.6846 227.593 34.9196C227.23 35.1506 226.848 35.3512 226.445 35.5189C226.042 35.6857 225.618 35.8088 225.183 35.8852C224.694 35.9688 224.196 36.009 223.698 36.0053C222.969 36.0053 222.307 35.9184 221.713 35.7446C221.117 35.571 220.612 35.3147 220.195 34.9759C219.774 34.6287 219.445 34.197 219.234 33.7141C219.008 33.211 218.896 32.6303 218.896 31.9718C218.896 31.4541 219.039 30.9231 219.327 30.3787C219.614 29.8345 220.111 29.3384 220.819 28.891C221.526 28.4444 222.481 28.0705 223.683 27.7693C224.883 27.4681 226.398 27.2987 228.224 27.2614V26.641C228.224 25.7856 228.031 25.1675 227.647 24.7865C227.262 24.4055 226.716 24.2152 226.007 24.2156C225.442 24.2156 224.981 24.272 224.621 24.3847C224.29 24.4869 223.968 24.6142 223.66 24.7655C223.378 24.907 223.102 25.0339 222.836 25.1463C222.568 25.2586 222.25 25.315 221.882 25.3154C221.554 25.3154 221.276 25.2402 221.051 25.0899C220.83 24.9451 220.642 24.7631 220.496 24.5538L219.634 23.186C220.571 22.421 221.661 21.8297 222.843 21.4448C224.018 21.064 225.279 20.8735 226.624 20.8733C227.588 20.8733 228.458 21.0171 229.233 21.3047C230.008 21.5923 230.664 21.9918 231.203 22.5032C231.742 23.0157 232.156 23.6244 232.444 24.3292C232.732 25.034 232.875 25.805 232.875 26.6421V35.7804L230.687 35.7801ZM225.207 33.1148C225.822 33.1148 226.36 33.0161 226.823 32.8186C227.285 32.6211 227.752 32.3014 228.224 31.8597V29.8288C227.269 29.8658 226.485 29.941 225.869 30.0544C225.254 30.1676 224.767 30.3089 224.408 30.4779C224.048 30.647 223.799 30.8397 223.661 31.0558C223.524 31.2692 223.451 31.5129 223.452 31.761C223.452 32.2595 223.601 32.6097 223.899 32.8116C224.196 33.0135 224.633 33.1142 225.209 33.1137L225.207 33.1148Z" fill="#758CDA"/>
</g>
</svg>
