<svg width="158" height="55" viewBox="0 0 158 55" fill="none" xmlns="http://www.w3.org/2000/svg">
<path d="M125.728 18.8734V37.8484H135.061C137.669 37.8484 139.179 37.4359 140.277 36.4734C141.65 35.2359 142.336 33.0359 142.336 28.3609C142.336 23.6859 141.65 21.4859 140.277 20.2484C139.179 19.2859 137.669 18.8734 135.061 18.8734H125.728ZM138.493 28.3609C138.493 32.4859 138.218 33.4484 137.395 33.9984C136.846 34.4109 136.159 34.5484 134.787 34.5484H129.571V22.0359H134.787C136.159 22.0359 136.846 22.0359 137.395 22.5859C138.218 23.2734 138.493 24.2359 138.493 28.3609ZM147.14 42.0427H119.756V14.6109H147.14V42.0427ZM97.3838 22.0359V18.8734H113.581V24.9234H110.148V22.0359H103.559V26.5734H108.775V29.5984H103.559V34.6859H110.286V31.3859H113.717V37.8484H97.3849V34.6859H99.9917V22.0359H97.3838ZM82.6968 32.8984C82.6968 34.9609 82.833 36.4734 83.1075 37.7109H86.8147C86.6763 36.7484 86.5401 34.9609 86.5401 32.6234C86.4018 29.8734 85.5782 29.4609 83.6566 29.0484C85.8527 28.6359 86.8147 27.6734 86.8147 24.2359C86.8147 21.4859 86.4018 20.3859 85.5782 19.6984C85.0292 19.1484 84.0694 18.8734 82.5585 18.8734H71.0286V37.8484H74.8719V30.4234H80.2261C81.3242 30.4234 81.7349 30.5609 82.1478 30.8359C82.5607 31.1109 82.6968 31.5234 82.6968 32.8984ZM74.8719 27.3984V22.1734H81.0497C81.8733 22.1734 82.1478 22.3109 82.284 22.4484C82.5585 22.7234 82.833 23.1359 82.833 24.7859C82.833 26.4359 82.5585 26.9859 82.284 27.2609C82.1478 27.3984 81.8733 27.5359 81.0497 27.5359L74.8719 27.3984ZM92.3051 42.0427H64.8529V14.6109H92.2359V42.0427H92.3051ZM57.7154 34.6859V37.8484H44.6745V34.6859H49.3414V22.0359H44.6745V18.8734H57.7143V22.0359H53.0474V34.6859H57.7154ZM35.6845 18.8734H32.1157L29.5077 33.8609L26.488 19.9734C26.3507 19.0109 25.9389 18.8734 25.1154 18.8734H23.1937C22.3701 18.8734 21.9584 19.1484 21.8211 19.9734L18.8014 33.8609L16.1934 18.8734H12.3501L16.0561 36.8859C16.1934 37.7109 16.4679 37.8484 17.4288 37.8484H20.0367C20.8603 37.8484 21.1348 37.7109 21.4093 36.8859L24.2918 23.8234L27.1743 36.8859C27.3115 37.7109 27.5861 37.8484 28.5469 37.8484H31.0176C31.8411 37.8484 32.2529 37.7109 32.3902 36.8859L35.6845 18.8734ZM37.6061 42.0427H10.1539V14.6109H37.538V42.0427H37.6061Z" fill="white"/>
</svg>
