<svg width="540" height="420" viewBox="0 0 540 420" fill="none" xmlns="http://www.w3.org/2000/svg">
<g clip-path="url(#clip0_6848_23456)">
<path d="M0 0H540V420H0V0Z" fill="url(#paint0_linear_6848_23456)"/>
<rect width="200" height="44" transform="translate(20 85)" fill="black"/>
<path d="M70.682 117.309C69.4989 117.309 68.4186 117.111 67.4413 116.717C66.4639 116.323 65.6323 115.74 64.9465 114.968C64.2606 114.179 63.729 113.211 63.3518 112.062C62.9746 110.896 62.786 109.55 62.786 108.024C62.786 106.498 62.9746 105.16 63.3518 104.012C63.729 102.846 64.2606 101.877 64.9465 101.105C65.6323 100.316 66.4639 99.7249 67.4413 99.3305C68.4186 98.9361 69.4989 98.739 70.682 98.739C71.8651 98.739 72.9453 98.9361 73.9227 99.3305C74.9 99.7249 75.7316 100.316 76.4175 101.105C77.1033 101.877 77.6349 102.846 78.0121 104.012C78.3893 105.16 78.5779 106.498 78.5779 108.024C78.5779 109.55 78.3893 110.896 78.0121 112.062C77.6349 113.211 77.1033 114.179 76.4175 114.968C75.7316 115.74 74.9 116.323 73.9227 116.717C72.9453 117.111 71.8651 117.309 70.682 117.309ZM70.682 113.836C71.8651 113.836 72.7824 113.451 73.434 112.679C74.1027 111.907 74.4371 110.802 74.4371 109.361V106.686C74.4371 105.246 74.1027 104.14 73.434 103.369C72.7824 102.597 71.8651 102.211 70.682 102.211C69.4989 102.211 68.5729 102.597 67.9042 103.369C67.2527 104.14 66.9269 105.246 66.9269 106.686V109.361C66.9269 110.802 67.2527 111.907 67.9042 112.679C68.5729 113.451 69.4989 113.836 70.682 113.836ZM81.8924 103.497H85.6989V105.76H85.8275C86.0161 105.006 86.4448 104.389 87.1135 103.909C87.7993 103.429 88.5795 103.188 89.454 103.188C91.1686 103.188 92.4632 103.789 93.3377 104.989C94.2121 106.189 94.6494 107.938 94.6494 110.236C94.6494 112.533 94.2121 114.291 93.3377 115.508C92.4632 116.709 91.1686 117.309 89.454 117.309C89.0082 117.309 88.5881 117.24 88.1937 117.103C87.7993 116.983 87.4393 116.811 87.1135 116.588C86.8048 116.348 86.5391 116.074 86.3162 115.765C86.0933 115.44 85.9304 115.097 85.8275 114.737H85.6989V122.144H81.8924V103.497ZM88.1937 114.222C88.9139 114.222 89.5054 113.974 89.9684 113.476C90.4485 112.962 90.6885 112.276 90.6885 111.419V109.078C90.6885 108.221 90.4485 107.544 89.9684 107.046C89.5054 106.532 88.9139 106.275 88.1937 106.275C87.4736 106.275 86.8734 106.455 86.3933 106.815C85.9304 107.158 85.6989 107.638 85.6989 108.255V112.242C85.6989 112.859 85.9304 113.348 86.3933 113.708C86.8734 114.051 87.4736 114.222 88.1937 114.222ZM103.43 117.309C102.401 117.309 101.484 117.146 100.678 116.82C99.8722 116.477 99.1863 116.006 98.6205 115.405C98.0718 114.788 97.6517 114.042 97.3602 113.168C97.0859 112.293 96.9487 111.316 96.9487 110.236C96.9487 109.173 97.0859 108.212 97.3602 107.355C97.6346 106.481 98.0375 105.735 98.569 105.117C99.1177 104.5 99.7864 104.029 100.575 103.703C101.364 103.36 102.264 103.188 103.276 103.188C104.39 103.188 105.342 103.377 106.131 103.754C106.937 104.132 107.588 104.637 108.085 105.272C108.6 105.906 108.968 106.644 109.191 107.484C109.431 108.307 109.551 109.173 109.551 110.081V111.213H100.884V111.419C100.884 112.31 101.124 113.022 101.604 113.554C102.084 114.068 102.839 114.325 103.867 114.325C104.656 114.325 105.299 114.171 105.796 113.862C106.294 113.536 106.757 113.151 107.185 112.705L109.088 115.071C108.488 115.774 107.7 116.323 106.722 116.717C105.762 117.111 104.665 117.309 103.43 117.309ZM103.353 105.992C102.581 105.992 101.973 106.249 101.527 106.764C101.098 107.261 100.884 107.929 100.884 108.77V108.975H105.616V108.744C105.616 107.921 105.428 107.261 105.05 106.764C104.69 106.249 104.125 105.992 103.353 105.992ZM112.497 117V103.497H116.303V105.786H116.458C116.698 105.083 117.118 104.474 117.718 103.96C118.318 103.446 119.15 103.188 120.213 103.188C121.602 103.188 122.648 103.651 123.351 104.577C124.071 105.503 124.431 106.824 124.431 108.538V117H120.624V108.847C120.624 107.972 120.487 107.329 120.213 106.918C119.938 106.489 119.45 106.275 118.747 106.275C118.438 106.275 118.138 106.318 117.847 106.403C117.555 106.472 117.289 106.592 117.049 106.764C116.826 106.935 116.646 107.149 116.509 107.407C116.372 107.647 116.303 107.929 116.303 108.255V117H112.497ZM131.544 117L125.757 99.0476H129.718L132.392 107.664L133.807 113.296H133.884L135.247 107.664L137.922 99.0476H141.754L135.916 117H131.544ZM144.362 117V99.0476H152.85C153.69 99.0476 154.444 99.1933 155.113 99.4848C155.782 99.7592 156.348 100.145 156.81 100.642C157.291 101.139 157.659 101.748 157.916 102.468C158.174 103.171 158.302 103.943 158.302 104.783C158.302 105.64 158.174 106.421 157.916 107.124C157.659 107.827 157.291 108.427 156.81 108.924C156.348 109.421 155.782 109.816 155.113 110.107C154.444 110.381 153.69 110.519 152.85 110.519H148.272V117H144.362ZM148.272 107.124H152.387C152.97 107.124 153.424 106.978 153.75 106.686C154.093 106.378 154.264 105.932 154.264 105.349V104.217C154.264 103.634 154.093 103.197 153.75 102.906C153.424 102.597 152.97 102.443 152.387 102.443H148.272V107.124ZM166.976 108.512L165.253 104.912H165.176V117H161.498V99.0476H165.767L170.68 107.535L172.403 111.136H172.48V99.0476H176.158V117H171.889L166.976 108.512Z" fill="url(#paint1_linear_6848_23456)"/>
<rect width="152" height="42" transform="translate(368 358)" fill="black"/>
<path d="M383.81 389L379.746 371.048H383.604L385.301 379.664L386.253 384.653H386.33L387.462 379.664L389.442 371.048H393.712L395.718 379.664L396.824 384.653H396.901L397.853 379.664L399.576 371.048H403.279L399.113 389H394.663L392.4 379.278L391.526 375.343H391.448L390.548 379.278L388.285 389H383.81ZM407.952 374.057C407.18 374.057 406.614 373.885 406.254 373.542C405.911 373.182 405.74 372.728 405.74 372.179V371.613C405.74 371.065 405.911 370.619 406.254 370.276C406.614 369.916 407.18 369.736 407.952 369.736C408.723 369.736 409.28 369.916 409.623 370.276C409.983 370.619 410.164 371.065 410.164 371.613V372.179C410.164 372.728 409.983 373.182 409.623 373.542C409.28 373.885 408.723 374.057 407.952 374.057ZM406.048 375.497H409.855V389H406.048V375.497ZM413.665 389V375.497H417.471V378.429H417.6C417.669 378.052 417.789 377.692 417.96 377.349C418.132 376.989 418.354 376.672 418.629 376.397C418.92 376.123 419.263 375.909 419.658 375.754C420.052 375.583 420.515 375.497 421.046 375.497H421.715V379.046H420.764C419.649 379.046 418.817 379.192 418.269 379.484C417.737 379.775 417.471 380.315 417.471 381.104V389H413.665ZM429.828 389.309C428.799 389.309 427.881 389.146 427.075 388.82C426.27 388.477 425.584 388.006 425.018 387.405C424.469 386.788 424.049 386.042 423.758 385.168C423.483 384.293 423.346 383.316 423.346 382.236C423.346 381.173 423.483 380.212 423.758 379.355C424.032 378.481 424.435 377.735 424.966 377.117C425.515 376.5 426.184 376.029 426.973 375.703C427.761 375.36 428.662 375.188 429.673 375.188C430.788 375.188 431.739 375.377 432.528 375.754C433.334 376.132 433.986 376.637 434.483 377.272C434.997 377.906 435.366 378.644 435.589 379.484C435.829 380.307 435.949 381.173 435.949 382.081V383.213H427.281V383.419C427.281 384.31 427.521 385.022 428.001 385.554C428.482 386.068 429.236 386.325 430.265 386.325C431.053 386.325 431.696 386.171 432.194 385.862C432.691 385.536 433.154 385.151 433.583 384.705L435.486 387.071C434.886 387.774 434.097 388.323 433.12 388.717C432.159 389.111 431.062 389.309 429.828 389.309ZM429.75 377.992C428.979 377.992 428.37 378.249 427.924 378.764C427.496 379.261 427.281 379.929 427.281 380.77V380.975H432.014V380.744C432.014 379.921 431.825 379.261 431.448 378.764C431.088 378.249 430.522 377.992 429.75 377.992ZM451.394 389.977C451.394 390.698 451.266 391.332 451.008 391.881C450.768 392.429 450.365 392.892 449.8 393.269C449.234 393.664 448.479 393.955 447.536 394.144C446.61 394.35 445.461 394.453 444.09 394.453C442.924 394.453 441.929 394.375 441.106 394.221C440.3 394.084 439.64 393.878 439.126 393.604C438.629 393.347 438.26 393.021 438.02 392.626C437.797 392.249 437.686 391.812 437.686 391.315C437.686 390.56 437.908 389.969 438.354 389.54C438.8 389.111 439.417 388.846 440.206 388.743V388.46C439.554 388.34 439.066 388.066 438.74 387.637C438.414 387.191 438.251 386.677 438.251 386.094C438.251 385.734 438.32 385.425 438.457 385.168C438.611 384.893 438.8 384.662 439.023 384.473C439.263 384.268 439.537 384.105 439.846 383.985C440.155 383.865 440.463 383.77 440.772 383.702V383.599C439.949 383.222 439.34 382.707 438.946 382.056C438.551 381.387 438.354 380.615 438.354 379.741C438.354 378.369 438.826 377.272 439.769 376.449C440.729 375.609 442.186 375.188 444.141 375.188C445.033 375.188 445.796 375.274 446.43 375.446V374.931C446.43 374.211 446.602 373.697 446.945 373.388C447.305 373.062 447.811 372.899 448.462 372.899H450.597V375.729H447.613V375.883C448.402 376.26 448.985 376.783 449.362 377.452C449.74 378.103 449.928 378.866 449.928 379.741C449.928 381.095 449.448 382.184 448.488 383.007C447.545 383.813 446.096 384.216 444.141 384.216C443.267 384.216 442.469 384.122 441.749 383.933C441.355 384.19 441.158 384.55 441.158 385.013C441.158 385.339 441.278 385.596 441.518 385.785C441.775 385.956 442.195 386.042 442.778 386.042H446.687C448.334 386.042 449.525 386.385 450.262 387.071C451.017 387.757 451.394 388.726 451.394 389.977ZM447.819 390.492C447.819 390.097 447.665 389.797 447.356 389.592C447.048 389.386 446.507 389.283 445.736 389.283H441.106C440.935 389.454 440.806 389.643 440.72 389.849C440.652 390.072 440.618 390.286 440.618 390.492C440.618 390.989 440.832 391.349 441.261 391.572C441.689 391.812 442.418 391.932 443.447 391.932H444.99C446.019 391.932 446.747 391.812 447.176 391.572C447.605 391.349 447.819 390.989 447.819 390.492ZM444.141 381.721C444.896 381.721 445.453 381.567 445.813 381.258C446.19 380.933 446.379 380.47 446.379 379.869V379.561C446.379 378.961 446.19 378.506 445.813 378.198C445.453 377.872 444.896 377.709 444.141 377.709C443.387 377.709 442.821 377.872 442.444 378.198C442.084 378.506 441.904 378.961 441.904 379.561V379.869C441.904 380.47 442.084 380.933 442.444 381.258C442.821 381.567 443.387 381.721 444.141 381.721ZM461.215 386.737H461.087C460.967 387.08 460.804 387.405 460.598 387.714C460.409 388.023 460.161 388.297 459.852 388.537C459.544 388.777 459.175 388.966 458.746 389.103C458.335 389.24 457.855 389.309 457.306 389.309C455.917 389.309 454.863 388.854 454.142 387.945C453.439 387.02 453.088 385.699 453.088 383.985V375.497H456.894V383.65C456.894 384.473 457.04 385.108 457.332 385.554C457.623 385.999 458.12 386.222 458.823 386.222C459.115 386.222 459.406 386.179 459.698 386.094C459.989 386.008 460.247 385.888 460.469 385.734C460.692 385.562 460.872 385.356 461.01 385.116C461.147 384.876 461.215 384.593 461.215 384.268V375.497H465.022V389H461.215V386.737ZM478.8 389C478.114 389 477.54 388.786 477.077 388.357C476.631 387.928 476.348 387.354 476.228 386.634H476.074C475.868 387.508 475.414 388.177 474.711 388.64C474.008 389.086 473.142 389.309 472.113 389.309C470.758 389.309 469.721 388.949 469.001 388.228C468.281 387.508 467.921 386.557 467.921 385.374C467.921 383.95 468.435 382.896 469.464 382.21C470.51 381.507 471.924 381.155 473.707 381.155H475.842V380.307C475.842 379.655 475.671 379.141 475.328 378.764C474.985 378.369 474.41 378.172 473.605 378.172C472.85 378.172 472.25 378.335 471.804 378.661C471.358 378.986 470.99 379.355 470.698 379.767L468.435 377.76C468.984 376.955 469.669 376.329 470.493 375.883C471.333 375.42 472.464 375.188 473.888 375.188C475.808 375.188 477.248 375.609 478.208 376.449C479.169 377.289 479.649 378.515 479.649 380.127V386.042H480.909V389H478.8ZM473.527 386.659C474.162 386.659 474.702 386.522 475.148 386.248C475.611 385.974 475.842 385.528 475.842 384.911V383.316H473.99C472.499 383.316 471.753 383.822 471.753 384.833V385.219C471.753 385.716 471.907 386.085 472.216 386.325C472.524 386.548 472.962 386.659 473.527 386.659ZM483.721 389V375.497H487.528V378.429H487.656C487.725 378.052 487.845 377.692 488.016 377.349C488.188 376.989 488.411 376.672 488.685 376.397C488.977 376.123 489.319 375.909 489.714 375.754C490.108 375.583 490.571 375.497 491.103 375.497H491.771V379.046H490.82C489.705 379.046 488.874 379.192 488.325 379.484C487.793 379.775 487.528 380.315 487.528 381.104V389H483.721ZM502.558 386.737H502.429C502.327 387.097 502.164 387.44 501.941 387.765C501.718 388.074 501.444 388.348 501.118 388.588C500.809 388.811 500.449 388.983 500.037 389.103C499.643 389.24 499.232 389.309 498.803 389.309C497.088 389.309 495.794 388.709 494.919 387.508C494.045 386.291 493.608 384.533 493.608 382.236C493.608 379.938 494.045 378.189 494.919 376.989C495.794 375.789 497.088 375.188 498.803 375.188C499.677 375.188 500.449 375.429 501.118 375.909C501.804 376.389 502.241 377.006 502.429 377.76H502.558V369.967H506.365V389H502.558V386.737ZM500.063 386.222C500.783 386.222 501.375 386.051 501.838 385.708C502.318 385.348 502.558 384.859 502.558 384.242V380.255C502.558 379.638 502.318 379.158 501.838 378.815C501.375 378.455 500.783 378.275 500.063 378.275C499.343 378.275 498.743 378.532 498.263 379.046C497.8 379.544 497.568 380.221 497.568 381.078V383.419C497.568 384.276 497.8 384.962 498.263 385.476C498.743 385.974 499.343 386.222 500.063 386.222Z" fill="url(#paint2_linear_6848_23456)"/>
<rect width="140" height="95" transform="translate(224 179)" fill="black"/>
<path d="M268.233 236.809C267.016 236.809 265.919 236.62 264.941 236.243C263.964 235.848 263.132 235.274 262.446 234.52C261.761 233.748 261.229 232.796 260.852 231.665C260.475 230.516 260.286 229.178 260.286 227.652C260.286 226.144 260.475 224.806 260.852 223.64C261.229 222.457 261.761 221.471 262.446 220.682C263.132 219.876 263.964 219.268 264.941 218.856C265.919 218.445 267.016 218.239 268.233 218.239C269.897 218.239 271.268 218.582 272.349 219.268C273.429 219.936 274.295 221 274.946 222.457L271.577 224.206C271.337 223.451 270.96 222.851 270.445 222.406C269.948 221.943 269.211 221.711 268.233 221.711C267.085 221.711 266.159 222.088 265.456 222.843C264.77 223.58 264.427 224.66 264.427 226.083V228.964C264.427 230.387 264.77 231.476 265.456 232.231C266.159 232.968 267.085 233.336 268.233 233.336C269.194 233.336 269.957 233.079 270.522 232.565C271.105 232.033 271.534 231.399 271.808 230.662L274.998 232.513C274.329 233.885 273.446 234.948 272.349 235.703C271.268 236.44 269.897 236.809 268.233 236.809ZM281.566 236.5C280.263 236.5 279.302 236.183 278.685 235.548C278.085 234.914 277.785 233.997 277.785 232.796V217.467H281.591V233.542H283.289V236.5H281.566ZM291.307 236.809C290.312 236.809 289.421 236.646 288.632 236.32C287.86 235.994 287.2 235.523 286.651 234.905C286.12 234.288 285.708 233.542 285.417 232.668C285.125 231.793 284.98 230.816 284.98 229.736C284.98 228.655 285.125 227.678 285.417 226.804C285.708 225.929 286.12 225.192 286.651 224.592C287.2 223.974 287.86 223.503 288.632 223.177C289.421 222.851 290.312 222.688 291.307 222.688C292.301 222.688 293.184 222.851 293.956 223.177C294.745 223.503 295.405 223.974 295.936 224.592C296.485 225.192 296.905 225.929 297.196 226.804C297.488 227.678 297.634 228.655 297.634 229.736C297.634 230.816 297.488 231.793 297.196 232.668C296.905 233.542 296.485 234.288 295.936 234.905C295.405 235.523 294.745 235.994 293.956 236.32C293.184 236.646 292.301 236.809 291.307 236.809ZM291.307 233.799C292.061 233.799 292.644 233.568 293.056 233.105C293.467 232.642 293.673 231.982 293.673 231.125V228.373C293.673 227.515 293.467 226.855 293.056 226.392C292.644 225.929 292.061 225.698 291.307 225.698C290.552 225.698 289.969 225.929 289.558 226.392C289.146 226.855 288.94 227.515 288.94 228.373V231.125C288.94 231.982 289.146 232.642 289.558 233.105C289.969 233.568 290.552 233.799 291.307 233.799ZM310.582 236.5C309.897 236.5 309.322 236.286 308.859 235.857C308.413 235.428 308.13 234.854 308.01 234.134H307.856C307.65 235.008 307.196 235.677 306.493 236.14C305.79 236.586 304.924 236.809 303.895 236.809C302.541 236.809 301.503 236.449 300.783 235.728C300.063 235.008 299.703 234.057 299.703 232.874C299.703 231.45 300.217 230.396 301.246 229.71C302.292 229.007 303.707 228.655 305.49 228.655H307.625V227.807C307.625 227.155 307.453 226.641 307.11 226.264C306.767 225.869 306.193 225.672 305.387 225.672C304.633 225.672 304.032 225.835 303.587 226.161C303.141 226.486 302.772 226.855 302.481 227.267L300.217 225.26C300.766 224.455 301.452 223.829 302.275 223.383C303.115 222.92 304.247 222.688 305.67 222.688C307.59 222.688 309.031 223.109 309.991 223.949C310.951 224.789 311.431 226.015 311.431 227.627V233.542H312.691V236.5H310.582ZM305.31 234.159C305.944 234.159 306.484 234.022 306.93 233.748C307.393 233.474 307.625 233.028 307.625 232.411V230.816H305.773C304.281 230.816 303.535 231.322 303.535 232.333V232.719C303.535 233.216 303.69 233.585 303.998 233.825C304.307 234.048 304.744 234.159 305.31 234.159ZM315.504 217.467H319.31V228.707H319.464L321.136 226.212L323.837 222.997H328.055L323.554 228.167L328.569 236.5H324.043L321.008 230.79L319.31 232.693V236.5H315.504V217.467Z" fill="url(#paint3_linear_6848_23456)"/>
<path d="M20 356H221V400H25C22.2386 400 20 397.761 20 395V356Z" fill="black"/>
<path d="M84.286 388V384.888H86.6008V373.16H84.286V370.048H92.825V373.16H90.5102V384.888H92.825V388H84.286ZM102.589 380.181L100.249 383.01V388H96.3393V370.048H100.249V378.587H100.403L102.949 375.114L106.987 370.048H111.411L105.367 377.429L111.951 388H107.347L102.589 380.181ZM114.505 388V370.048H126.722V373.52H118.414V377.198H125.539V380.644H118.414V384.528H126.722V388H114.505ZM133.06 388L128.636 374.497H132.391L134.063 379.95L135.323 384.836H135.529L136.789 379.95L138.409 374.497H142.01L137.586 388H133.06ZM156.673 388H143.967V384.476L149.497 379.744C149.994 379.315 150.414 378.929 150.757 378.587C151.1 378.226 151.374 377.884 151.58 377.558C151.803 377.215 151.957 376.88 152.043 376.555C152.146 376.229 152.197 375.877 152.197 375.5V375.14C152.197 374.797 152.129 374.497 151.992 374.24C151.855 373.983 151.674 373.768 151.452 373.597C151.229 373.425 150.971 373.297 150.68 373.211C150.406 373.125 150.123 373.083 149.831 373.083C149.403 373.083 149.025 373.151 148.7 373.288C148.391 373.425 148.117 373.614 147.877 373.854C147.654 374.077 147.465 374.343 147.311 374.651C147.156 374.943 147.036 375.26 146.951 375.603L143.581 374.317C143.787 373.7 144.07 373.117 144.43 372.568C144.79 372.002 145.236 371.514 145.768 371.102C146.316 370.673 146.959 370.339 147.697 370.099C148.434 369.859 149.265 369.739 150.191 369.739C151.169 369.739 152.035 369.876 152.789 370.15C153.543 370.425 154.178 370.802 154.692 371.282C155.224 371.762 155.627 372.337 155.901 373.005C156.175 373.657 156.313 374.369 156.313 375.14C156.313 375.912 156.184 376.615 155.927 377.249C155.67 377.884 155.318 378.484 154.872 379.05C154.444 379.598 153.938 380.121 153.355 380.618C152.772 381.116 152.163 381.621 151.529 382.136L148.185 384.759H156.673V388Z" fill="url(#paint4_linear_6848_23456)"/>
<path d="M311 20H515C517.761 20 520 22.2386 520 25V80H311V20Z" fill="black"/>
<path d="M338.793 60.3086C337.216 60.3086 335.878 60.0429 334.781 59.5113C333.683 58.9626 332.749 58.2596 331.977 57.4023L334.549 54.8046C335.767 56.1763 337.267 56.8622 339.05 56.8622C340.01 56.8622 340.722 56.665 341.185 56.2706C341.648 55.8763 341.879 55.3533 341.879 54.7017C341.879 54.2045 341.742 53.793 341.468 53.4672C341.194 53.1242 340.636 52.8928 339.796 52.7727L338.022 52.5413C336.118 52.3012 334.721 51.7268 333.829 50.818C332.955 49.9093 332.517 48.7004 332.517 47.1915C332.517 46.3857 332.672 45.6484 332.98 44.9796C333.289 44.3109 333.726 43.7365 334.292 43.2564C334.875 42.7763 335.578 42.4077 336.401 42.1505C337.241 41.8761 338.193 41.739 339.256 41.739C340.611 41.739 341.802 41.9533 342.831 42.3819C343.86 42.8106 344.743 43.4365 345.48 44.2595L342.883 46.8829C342.454 46.3857 341.931 45.9827 341.314 45.6741C340.714 45.3483 339.95 45.1854 339.025 45.1854C338.15 45.1854 337.499 45.3397 337.07 45.6484C336.641 45.957 336.427 46.3857 336.427 46.9344C336.427 47.5516 336.59 47.9974 336.916 48.2718C337.258 48.5461 337.807 48.7433 338.562 48.8633L340.336 49.1463C342.188 49.4377 343.56 50.0122 344.451 50.8695C345.343 51.7097 345.789 52.9099 345.789 54.4702C345.789 55.3276 345.635 56.1163 345.326 56.8365C345.017 57.5566 344.563 58.1739 343.963 58.6883C343.38 59.2027 342.651 59.6056 341.777 59.8971C340.902 60.1715 339.908 60.3086 338.793 60.3086ZM349.082 40.9674H352.888V48.7862H353.042C353.283 48.0832 353.703 47.4745 354.303 46.9601C354.903 46.4457 355.734 46.1885 356.798 46.1885C358.186 46.1885 359.232 46.6514 359.935 47.5773C360.656 48.5033 361.016 49.8235 361.016 51.5382V60H357.209V51.8468C357.209 50.9724 357.072 50.3294 356.798 49.9178C356.523 49.4892 356.035 49.2749 355.332 49.2749C355.023 49.2749 354.723 49.3177 354.431 49.4034C354.14 49.472 353.874 49.5921 353.634 49.7635C353.411 49.935 353.231 50.1493 353.094 50.4065C352.957 50.6466 352.888 50.9295 352.888 51.2553V60H349.082V40.9674ZM374.639 60C373.954 60 373.379 59.7857 372.916 59.357C372.47 58.9283 372.187 58.3539 372.067 57.6338H371.913C371.707 58.5083 371.253 59.177 370.55 59.6399C369.847 60.0857 368.981 60.3086 367.952 60.3086C366.598 60.3086 365.56 59.9486 364.84 59.2284C364.12 58.5083 363.76 57.5566 363.76 56.3735C363.76 54.9503 364.274 53.8958 365.303 53.21C366.349 52.507 367.764 52.1555 369.547 52.1555H371.682V51.3067C371.682 50.6551 371.51 50.1407 371.167 49.7635C370.824 49.3692 370.25 49.172 369.444 49.172C368.69 49.172 368.089 49.3349 367.644 49.6606C367.198 49.9864 366.829 50.3551 366.538 50.7666L364.274 48.7605C364.823 47.9546 365.509 47.3287 366.332 46.8829C367.172 46.42 368.304 46.1885 369.727 46.1885C371.647 46.1885 373.088 46.6086 374.048 47.4487C375.008 48.2889 375.488 49.5149 375.488 51.1267V57.0422H376.748V60H374.639ZM369.367 57.6595C370.001 57.6595 370.541 57.5223 370.987 57.248C371.45 56.9736 371.682 56.5278 371.682 55.9106V54.3159H369.83C368.338 54.3159 367.592 54.8218 367.592 55.8334V56.2192C367.592 56.7164 367.747 57.0851 368.055 57.3251C368.364 57.548 368.801 57.6595 369.367 57.6595ZM387.842 57.7367H387.714C387.611 58.0967 387.448 58.4397 387.225 58.7655C387.002 59.0741 386.728 59.3484 386.402 59.5885C386.093 59.8114 385.733 59.9829 385.322 60.1029C384.927 60.2401 384.516 60.3086 384.087 60.3086C382.373 60.3086 381.078 59.7085 380.204 58.5083C379.329 57.2908 378.892 55.5333 378.892 53.2357C378.892 50.9381 379.329 49.1891 380.204 47.9889C381.078 46.7886 382.373 46.1885 384.087 46.1885C384.962 46.1885 385.733 46.4285 386.402 46.9086C387.088 47.3887 387.525 48.006 387.714 48.7605H387.842V40.9674H391.649V60H387.842V57.7367ZM385.348 57.2223C386.068 57.2223 386.659 57.0508 387.122 56.7079C387.602 56.3478 387.842 55.8591 387.842 55.2418V51.2553C387.842 50.638 387.602 50.1579 387.122 49.815C386.659 49.4549 386.068 49.2749 385.348 49.2749C384.627 49.2749 384.027 49.532 383.547 50.0464C383.084 50.5437 382.853 51.221 382.853 52.0783V54.4188C382.853 55.2761 383.084 55.962 383.547 56.4764C384.027 56.9736 384.627 57.2223 385.348 57.2223ZM400.944 60.3086C399.949 60.3086 399.058 60.1457 398.269 59.82C397.497 59.4942 396.837 59.0226 396.289 58.4054C395.757 57.7881 395.346 57.0422 395.054 56.1678C394.763 55.2933 394.617 54.3159 394.617 53.2357C394.617 52.1555 394.763 51.1781 395.054 50.3036C395.346 49.4292 395.757 48.6919 396.289 48.0917C396.837 47.4745 397.497 47.0029 398.269 46.6772C399.058 46.3514 399.949 46.1885 400.944 46.1885C401.938 46.1885 402.821 46.3514 403.593 46.6772C404.382 47.0029 405.042 47.4745 405.574 48.0917C406.122 48.6919 406.542 49.4292 406.834 50.3036C407.125 51.1781 407.271 52.1555 407.271 53.2357C407.271 54.3159 407.125 55.2933 406.834 56.1678C406.542 57.0422 406.122 57.7881 405.574 58.4054C405.042 59.0226 404.382 59.4942 403.593 59.82C402.821 60.1457 401.938 60.3086 400.944 60.3086ZM400.944 57.2994C401.698 57.2994 402.281 57.0679 402.693 56.605C403.104 56.142 403.31 55.4819 403.31 54.6246V51.8725C403.31 51.0152 403.104 50.3551 402.693 49.8921C402.281 49.4292 401.698 49.1977 400.944 49.1977C400.189 49.1977 399.607 49.4292 399.195 49.8921C398.783 50.3551 398.578 51.0152 398.578 51.8725V54.6246C398.578 55.4819 398.783 56.142 399.195 56.605C399.607 57.0679 400.189 57.2994 400.944 57.2994ZM408.703 46.4971H412.381L413.693 51.9497L414.619 56.0649H414.722L415.802 51.9497L417.345 46.4971H420.817L422.386 51.9497L423.492 56.0649H423.595L424.521 51.9497L425.833 46.4971H429.356L425.627 60H421.64L419.994 54.2902L419.043 50.7923H418.965L418.04 54.2902L416.393 60H412.484L408.703 46.4971ZM436.35 60.3086C435.047 60.3086 433.949 60.1029 433.058 59.6914C432.166 59.2627 431.369 58.6626 430.666 57.891L432.903 55.6276C433.383 56.1592 433.915 56.5793 434.498 56.8879C435.081 57.1965 435.741 57.3509 436.478 57.3509C437.233 57.3509 437.756 57.2394 438.047 57.0165C438.339 56.7765 438.485 56.4592 438.485 56.0649C438.485 55.4305 438.03 55.0532 437.121 54.9332L435.655 54.7532C432.62 54.3759 431.103 52.9871 431.103 50.5866C431.103 49.935 431.223 49.3434 431.463 48.8119C431.72 48.2632 432.072 47.8002 432.518 47.423C432.981 47.0287 433.529 46.7286 434.164 46.5228C434.815 46.2999 435.544 46.1885 436.35 46.1885C437.053 46.1885 437.67 46.2399 438.202 46.3428C438.75 46.4285 439.23 46.5657 439.642 46.7543C440.071 46.9258 440.456 47.1487 440.799 47.423C441.159 47.6802 441.511 47.9717 441.854 48.2975L439.668 50.5351C439.239 50.1065 438.75 49.7721 438.202 49.532C437.67 49.2749 437.121 49.1463 436.556 49.1463C435.904 49.1463 435.441 49.2491 435.167 49.4549C434.892 49.6606 434.755 49.935 434.755 50.2779C434.755 50.638 434.85 50.9209 435.038 51.1267C435.244 51.3153 435.621 51.4525 436.17 51.5382L437.687 51.7439C440.654 52.1383 442.137 53.4929 442.137 55.8077C442.137 56.4592 442 57.0594 441.725 57.6081C441.451 58.1567 441.057 58.6369 440.542 59.0484C440.045 59.4427 439.436 59.7514 438.716 59.9743C438.013 60.1972 437.224 60.3086 436.35 60.3086ZM450.468 60.3086C449.473 60.3086 448.581 60.1457 447.793 59.82C447.021 59.4942 446.361 59.0226 445.812 58.4054C445.281 57.7881 444.869 57.0422 444.578 56.1678C444.286 55.2933 444.141 54.3159 444.141 53.2357C444.141 52.1555 444.286 51.1781 444.578 50.3036C444.869 49.4292 445.281 48.6919 445.812 48.0917C446.361 47.4745 447.021 47.0029 447.793 46.6772C448.581 46.3514 449.473 46.1885 450.468 46.1885C451.462 46.1885 452.345 46.3514 453.117 46.6772C453.905 47.0029 454.566 47.4745 455.097 48.0917C455.646 48.6919 456.066 49.4292 456.357 50.3036C456.649 51.1781 456.795 52.1555 456.795 53.2357C456.795 54.3159 456.649 55.2933 456.357 56.1678C456.066 57.0422 455.646 57.7881 455.097 58.4054C454.566 59.0226 453.905 59.4942 453.117 59.82C452.345 60.1457 451.462 60.3086 450.468 60.3086ZM450.468 57.2994C451.222 57.2994 451.805 57.0679 452.217 56.605C452.628 56.142 452.834 55.4819 452.834 54.6246V51.8725C452.834 51.0152 452.628 50.3551 452.217 49.8921C451.805 49.4292 451.222 49.1977 450.468 49.1977C449.713 49.1977 449.13 49.4292 448.719 49.8921C448.307 50.3551 448.101 51.0152 448.101 51.8725V54.6246C448.101 55.4819 448.307 56.142 448.719 56.605C449.13 57.0679 449.713 57.2994 450.468 57.2994ZM465.217 60.3086C464.205 60.3086 463.305 60.1457 462.516 59.82C461.727 59.477 461.067 59.0055 460.536 58.4054C460.004 57.7881 459.601 57.0422 459.327 56.1678C459.053 55.2933 458.915 54.3159 458.915 53.2357C458.915 52.1555 459.053 51.1867 459.327 50.3294C459.601 49.4549 460.004 48.709 460.536 48.0917C461.067 47.4745 461.727 47.0029 462.516 46.6772C463.305 46.3514 464.205 46.1885 465.217 46.1885C466.588 46.1885 467.729 46.4971 468.637 47.1144C469.563 47.7317 470.223 48.5976 470.618 49.7121L467.531 51.0495C467.411 50.5351 467.163 50.0979 466.786 49.7378C466.408 49.3777 465.885 49.1977 465.217 49.1977C464.445 49.1977 463.862 49.4549 463.468 49.9693C463.073 50.4665 462.876 51.1438 462.876 52.0011V54.5217C462.876 55.379 463.073 56.0563 463.468 56.5535C463.862 57.0508 464.445 57.2994 465.217 57.2994C465.903 57.2994 466.443 57.1194 466.837 56.7593C467.249 56.3821 467.549 55.8934 467.737 55.2933L470.695 56.5793C470.249 57.8653 469.555 58.8083 468.612 59.4084C467.686 60.0086 466.554 60.3086 465.217 60.3086ZM473.308 40.9674H477.115V52.2069H477.269L478.941 49.7121L481.641 46.4971H485.859L481.358 51.6668L486.374 60H481.847L478.812 54.2902L477.115 56.1935V60H473.308V40.9674ZM492.736 60.3086C491.433 60.3086 490.336 60.1029 489.444 59.6914C488.553 59.2627 487.755 58.6626 487.052 57.891L489.29 55.6276C489.77 56.1592 490.302 56.5793 490.885 56.8879C491.468 57.1965 492.128 57.3509 492.865 57.3509C493.619 57.3509 494.142 57.2394 494.434 57.0165C494.725 56.7765 494.871 56.4592 494.871 56.0649C494.871 55.4305 494.417 55.0532 493.508 54.9332L492.042 54.7532C489.007 54.3759 487.49 52.9871 487.49 50.5866C487.49 49.935 487.61 49.3434 487.85 48.8119C488.107 48.2632 488.458 47.8002 488.904 47.423C489.367 47.0287 489.916 46.7286 490.55 46.5228C491.202 46.2999 491.931 46.1885 492.736 46.1885C493.439 46.1885 494.057 46.2399 494.588 46.3428C495.137 46.4285 495.617 46.5657 496.029 46.7543C496.457 46.9258 496.843 47.1487 497.186 47.423C497.546 47.6802 497.898 47.9717 498.24 48.2975L496.054 50.5351C495.626 50.1065 495.137 49.7721 494.588 49.532C494.057 49.2749 493.508 49.1463 492.942 49.1463C492.291 49.1463 491.828 49.2491 491.553 49.4549C491.279 49.6606 491.142 49.935 491.142 50.2779C491.142 50.638 491.236 50.9209 491.425 51.1267C491.63 51.3153 492.008 51.4525 492.556 51.5382L494.074 51.7439C497.04 52.1383 498.523 53.4929 498.523 55.8077C498.523 56.4592 498.386 57.0594 498.112 57.6081C497.838 58.1567 497.443 58.6369 496.929 59.0484C496.432 59.4427 495.823 59.7514 495.103 59.9743C494.4 60.1972 493.611 60.3086 492.736 60.3086Z" fill="url(#paint5_linear_6848_23456)"/>
<rect width="209" height="60" transform="translate(311 83)" fill="black"/>
<path d="M353.04 122.5L351.754 118.231H345.761L344.475 122.5H340.514L346.43 104.548H351.265L357.104 122.5H353.04ZM348.796 108.097H348.668L346.687 114.913H350.802L348.796 108.097ZM359.639 122.5V108.997H363.445V111.286H363.6C363.84 110.566 364.251 109.957 364.834 109.46C365.417 108.946 366.215 108.688 367.226 108.688C368.152 108.688 368.941 108.92 369.592 109.383C370.244 109.846 370.716 110.523 371.007 111.415H371.084C371.204 111.038 371.384 110.686 371.624 110.36C371.881 110.017 372.19 109.726 372.55 109.486C372.91 109.246 373.313 109.057 373.759 108.92C374.205 108.766 374.685 108.688 375.199 108.688C376.502 108.688 377.497 109.151 378.183 110.077C378.886 111.003 379.237 112.324 379.237 114.038V122.5H375.431V114.347C375.431 112.632 374.814 111.775 373.579 111.775C373.013 111.775 372.499 111.938 372.036 112.264C371.573 112.589 371.341 113.087 371.341 113.755V122.5H367.535V114.347C367.535 112.632 366.918 111.775 365.683 111.775C365.409 111.775 365.134 111.818 364.86 111.903C364.603 111.972 364.363 112.092 364.14 112.264C363.934 112.435 363.763 112.649 363.625 112.907C363.505 113.147 363.445 113.429 363.445 113.755V122.5H359.639ZM382.878 122.5V108.997H386.685V111.286H386.839C387.079 110.583 387.499 109.974 388.099 109.46C388.699 108.946 389.531 108.688 390.594 108.688C391.983 108.688 393.029 109.151 393.732 110.077C394.452 111.003 394.812 112.324 394.812 114.038V122.5H391.006V114.347C391.006 113.472 390.868 112.829 390.594 112.418C390.32 111.989 389.831 111.775 389.128 111.775C388.819 111.775 388.519 111.818 388.228 111.903C387.936 111.972 387.671 112.092 387.43 112.264C387.208 112.435 387.028 112.649 386.89 112.907C386.753 113.147 386.685 113.429 386.685 113.755V122.5H382.878ZM404.089 122.809C403.06 122.809 402.143 122.646 401.337 122.32C400.531 121.977 399.846 121.506 399.28 120.905C398.731 120.288 398.311 119.542 398.019 118.668C397.745 117.793 397.608 116.816 397.608 115.736C397.608 114.673 397.745 113.712 398.019 112.855C398.294 111.981 398.697 111.235 399.228 110.617C399.777 110 400.446 109.529 401.234 109.203C402.023 108.86 402.923 108.688 403.935 108.688C405.049 108.688 406.001 108.877 406.79 109.254C407.596 109.632 408.247 110.137 408.745 110.772C409.259 111.406 409.628 112.144 409.851 112.984C410.091 113.807 410.211 114.673 410.211 115.581V116.713H401.543V116.919C401.543 117.81 401.783 118.522 402.263 119.054C402.743 119.568 403.498 119.825 404.527 119.825C405.315 119.825 405.958 119.671 406.455 119.362C406.953 119.036 407.416 118.651 407.844 118.205L409.748 120.571C409.147 121.274 408.359 121.823 407.381 122.217C406.421 122.611 405.324 122.809 404.089 122.809ZM404.012 111.492C403.241 111.492 402.632 111.749 402.186 112.264C401.757 112.761 401.543 113.429 401.543 114.27V114.475H406.275V114.244C406.275 113.421 406.087 112.761 405.71 112.264C405.35 111.749 404.784 111.492 404.012 111.492ZM412.259 122.5V119.491L418.972 111.955H412.49V108.997H423.396V111.981L416.657 119.542H423.576V122.5H412.259ZM428.503 107.557C427.731 107.557 427.166 107.385 426.805 107.042C426.463 106.682 426.291 106.228 426.291 105.679V105.113C426.291 104.565 426.463 104.119 426.805 103.776C427.166 103.416 427.731 103.236 428.503 103.236C429.275 103.236 429.832 103.416 430.175 103.776C430.535 104.119 430.715 104.565 430.715 105.113V105.679C430.715 106.228 430.535 106.682 430.175 107.042C429.832 107.385 429.275 107.557 428.503 107.557ZM426.6 108.997H430.406V122.5H426.6V108.997ZM444.195 122.5C443.51 122.5 442.935 122.286 442.472 121.857C442.026 121.428 441.744 120.854 441.623 120.134H441.469C441.263 121.008 440.809 121.677 440.106 122.14C439.403 122.586 438.537 122.809 437.508 122.809C436.154 122.809 435.116 122.449 434.396 121.728C433.676 121.008 433.316 120.057 433.316 118.874C433.316 117.45 433.83 116.396 434.859 115.71C435.905 115.007 437.32 114.655 439.103 114.655H441.238V113.807C441.238 113.155 441.066 112.641 440.723 112.264C440.38 111.869 439.806 111.672 439 111.672C438.246 111.672 437.645 111.835 437.2 112.161C436.754 112.486 436.385 112.855 436.094 113.267L433.83 111.26C434.379 110.455 435.065 109.829 435.888 109.383C436.728 108.92 437.86 108.688 439.283 108.688C441.203 108.688 442.644 109.109 443.604 109.949C444.564 110.789 445.044 112.015 445.044 113.627V119.542H446.304V122.5H444.195ZM438.923 120.159C439.557 120.159 440.097 120.022 440.543 119.748C441.006 119.474 441.238 119.028 441.238 118.411V116.816H439.386C437.894 116.816 437.148 117.322 437.148 118.333V118.719C437.148 119.216 437.303 119.585 437.611 119.825C437.92 120.048 438.357 120.159 438.923 120.159ZM451.9 122.5L447.837 104.548H451.695L453.392 113.164L454.344 118.153H454.421L455.553 113.164L457.533 104.548H461.802L463.809 113.164L464.915 118.153H464.992L465.943 113.164L467.667 104.548H471.37L467.204 122.5H462.754L460.491 112.778L459.616 108.843H459.539L458.639 112.778L456.376 122.5H451.9ZM485.136 119.645H485.007C484.87 120.554 484.407 121.308 483.618 121.908C482.83 122.509 481.758 122.809 480.403 122.809C479.375 122.809 478.414 122.611 477.523 122.217C476.631 121.823 475.851 121.24 475.182 120.468C474.514 119.697 473.991 118.736 473.613 117.588C473.236 116.439 473.048 115.11 473.048 113.601C473.048 112.092 473.245 110.755 473.639 109.589C474.034 108.423 474.582 107.445 475.285 106.657C476.005 105.868 476.863 105.268 477.857 104.856C478.852 104.445 479.958 104.239 481.175 104.239C482.787 104.239 484.176 104.59 485.342 105.293C486.508 105.979 487.425 107.017 488.094 108.406L484.904 110.232C484.63 109.529 484.201 108.937 483.618 108.457C483.035 107.96 482.221 107.711 481.175 107.711C479.958 107.711 478.989 108.063 478.269 108.766C477.549 109.469 477.189 110.575 477.189 112.083V114.964C477.189 116.456 477.549 117.562 478.269 118.282C478.989 118.985 479.958 119.336 481.175 119.336C481.655 119.336 482.11 119.285 482.538 119.182C482.967 119.062 483.344 118.891 483.67 118.668C483.996 118.428 484.244 118.145 484.416 117.819C484.604 117.493 484.699 117.107 484.699 116.662V115.761H481.355V112.495H488.428V122.5H485.136V119.645Z" fill="url(#paint6_linear_6848_23456)"/>
<g opacity="0.5">
<rect x="21.75" y="20.75" width="96.5" height="10.5" stroke="#494B50" stroke-width="1.5"/>
<rect x="0.75" y="0.75" width="29.5" height="10.5" transform="matrix(-4.37114e-08 1 1 4.37114e-08 21 35)" stroke="#494B50" stroke-width="1.5"/>
<rect x="0.75" y="0.75" width="29.5" height="10.5" transform="matrix(-4.37114e-08 1 1 4.37114e-08 107 35)" stroke="#494B50" stroke-width="1.5"/>
<rect x="0.75" y="0.75" width="29.5" height="10.5" transform="matrix(-4.37114e-08 1 1 4.37114e-08 36 35)" stroke="#494B50" stroke-width="1.5"/>
<rect x="0.75" y="0.75" width="29.5" height="10.5" transform="matrix(-4.37114e-08 1 1 4.37114e-08 92 35)" stroke="#494B50" stroke-width="1.5"/>
<rect x="0.75" y="0.75" width="29.5" height="36.5" transform="matrix(-4.37114e-08 1 1 4.37114e-08 51 35)" stroke="#494B50" stroke-width="1.5"/>
<rect x="21.75" y="69.75" width="96.5" height="10.5" stroke="#494B50" stroke-width="1.5"/>
<rect x="123.75" y="20.75" width="95.5" height="10.5" stroke="#494B50" stroke-width="1.5"/>
<path d="M151.944 57.5L151.944 51.25L123.75 51.25L123.75 57.5L151.944 57.5ZM123.75 49.75L151.944 49.75L151.944 43.5L123.75 43.5L123.75 49.75ZM151.944 59L123.75 59L123.75 65.25L151.944 65.25L151.944 59ZM153.444 58.25L153.444 65.25L189.556 65.25L189.556 58.25L189.556 50.5L189.556 42.75L189.556 35.75L153.444 35.75L153.444 42.75L153.444 50.5L153.444 58.25ZM191.056 59L191.056 65.25L219.25 65.25L219.25 59L191.056 59ZM191.056 57.5L219.25 57.5L219.25 51.25L191.056 51.25L191.056 57.5ZM191.056 49.75L219.25 49.75L219.25 43.5L191.056 43.5L191.056 49.75ZM191.056 42L219.25 42L219.25 35.75L191.056 35.75L191.056 42ZM151.944 42L151.944 35.75L123.75 35.75L123.75 42L151.944 42Z" stroke="#494B50" stroke-width="1.5"/>
<rect x="123.75" y="69.75" width="95.5" height="10.5" stroke="#494B50" stroke-width="1.5"/>
<rect x="21.75" y="179.75" width="96.5" height="10.5" stroke="#494B50" stroke-width="1.5"/>
<rect x="0.75" y="0.75" width="29.5" height="10.5" transform="matrix(-4.37114e-08 1 1 4.37114e-08 21 194)" stroke="#494B50" stroke-width="1.5"/>
<rect x="0.75" y="0.75" width="29.5" height="10.5" transform="matrix(-4.37114e-08 1 1 4.37114e-08 107 194)" stroke="#494B50" stroke-width="1.5"/>
<rect x="0.75" y="0.75" width="29.5" height="10.5" transform="matrix(-4.37114e-08 1 1 4.37114e-08 36 194)" stroke="#494B50" stroke-width="1.5"/>
<rect x="0.75" y="0.75" width="29.5" height="10.5" transform="matrix(-4.37114e-08 1 1 4.37114e-08 92 194)" stroke="#494B50" stroke-width="1.5"/>
<rect x="0.75" y="0.75" width="29.5" height="36.5" transform="matrix(-4.37114e-08 1 1 4.37114e-08 51 194)" stroke="#494B50" stroke-width="1.5"/>
<rect x="0.75" y="0.75" width="29.5" height="10.5" transform="matrix(-4.4061e-08 1 1 4.33646e-08 21 307)" stroke="#494B50" stroke-width="1.5"/>
<rect x="0.75" y="0.75" width="29.5" height="10.5" transform="matrix(-4.4061e-08 1 1 4.33646e-08 107 307)" stroke="#494B50" stroke-width="1.5"/>
<rect x="0.75" y="0.75" width="29.5" height="10.5" transform="matrix(-4.4061e-08 1 1 4.33646e-08 36 307)" stroke="#494B50" stroke-width="1.5"/>
<rect x="0.75" y="0.75" width="29.5" height="10.5" transform="matrix(-4.4061e-08 1 1 4.33646e-08 92 307)" stroke="#494B50" stroke-width="1.5"/>
<rect x="0.75" y="0.75" width="29.5" height="36.5" transform="matrix(-4.4061e-08 1 1 4.33646e-08 51 307)" stroke="#494B50" stroke-width="1.5"/>
<rect x="21.75" y="341.75" width="96.5" height="10.5" stroke="#494B50" stroke-width="1.5"/>
<rect x="0.75" y="0.75" width="40.5" height="14.5" transform="matrix(-5.66629e-08 1 1 3.37202e-08 205 133)" stroke="#494B50" stroke-width="1.5"/>
<rect x="0.75" y="0.75" width="40.5" height="14.5" transform="matrix(-5.66629e-08 1 1 3.37202e-08 167 133)" stroke="#494B50" stroke-width="1.5"/>
<rect x="0.75" y="0.75" width="40.5" height="14.5" transform="matrix(-5.66629e-08 1 1 3.37202e-08 148 133)" stroke="#494B50" stroke-width="1.5"/>
<rect x="0.75" y="0.75" width="40.5" height="20.5" transform="matrix(-5.66629e-08 1 1 3.37202e-08 123 133)" stroke="#494B50" stroke-width="1.5"/>
<path d="M144 155H149" stroke="#494B50" stroke-width="2"/>
<path d="M163 155H168" stroke="#494B50" stroke-width="2"/>
<path d="M182 155H187" stroke="#494B50" stroke-width="2"/>
<path d="M201 155H206" stroke="#494B50" stroke-width="2"/>
<path d="M186.75 150.25L201.25 150.25L201.25 133.75L186.75 133.75L186.75 150.25ZM201.25 151.75L186.75 151.75L186.75 154.25L201.25 154.25L201.25 151.75ZM201.25 155.75L186.75 155.75L186.75 158.25L201.25 158.25L201.25 155.75ZM201.25 159.75L186.75 159.75L186.75 174.25L201.25 174.25L201.25 159.75Z" stroke="#494B50" stroke-width="1.5"/>
<rect x="123.75" y="179.75" width="96.5" height="10.5" stroke="#494B50" stroke-width="1.5"/>
<rect x="0.75" y="0.75" width="29.5" height="10.5" transform="matrix(-4.37114e-08 1 1 4.37114e-08 123 194)" stroke="#494B50" stroke-width="1.5"/>
<rect x="0.75" y="0.75" width="29.5" height="9.5" transform="matrix(-4.32654e-08 1 1 4.4162e-08 210 194)" stroke="#494B50" stroke-width="1.5"/>
<rect x="0.75" y="0.75" width="29.5" height="10.5" transform="matrix(-4.37114e-08 1 1 4.37114e-08 195 194)" stroke="#494B50" stroke-width="1.5"/>
<rect x="0.75" y="0.75" width="29.5" height="10.5" transform="matrix(-4.37114e-08 1 1 4.37114e-08 138 194)" stroke="#494B50" stroke-width="1.5"/>
<rect x="0.75" y="0.75" width="29.5" height="37.5" transform="matrix(-4.37114e-08 1 1 4.37114e-08 153 194)" stroke="#494B50" stroke-width="1.5"/>
<rect x="123.75" y="228.75" width="96.5" height="10.5" stroke="#494B50" stroke-width="1.5"/>
<rect x="123.75" y="243.75" width="96.5" height="10.5" stroke="#494B50" stroke-width="1.5"/>
<rect x="123.75" y="258.75" width="96.5" height="28.5" stroke="#494B50" stroke-width="1.5"/>
<rect x="123.75" y="291.75" width="96.5" height="12.5" stroke="#494B50" stroke-width="1.5"/>
<rect x="0.75" y="0.75" width="29.5" height="10.5" transform="matrix(-4.37114e-08 1 1 4.37114e-08 123 307)" stroke="#494B50" stroke-width="1.5"/>
<rect x="0.75" y="0.75" width="29.5" height="10.5" transform="matrix(-4.37114e-08 1 1 4.37114e-08 209 307)" stroke="#494B50" stroke-width="1.5"/>
<rect x="0.75" y="0.75" width="29.5" height="10.5" transform="matrix(-4.37114e-08 1 1 4.37114e-08 138 307)" stroke="#494B50" stroke-width="1.5"/>
<rect x="0.75" y="0.75" width="29.5" height="10.5" transform="matrix(-4.37114e-08 1 1 4.37114e-08 194 307)" stroke="#494B50" stroke-width="1.5"/>
<rect x="0.75" y="0.75" width="29.5" height="36.5" transform="matrix(-4.37114e-08 1 1 4.37114e-08 153 307)" stroke="#494B50" stroke-width="1.5"/>
<rect x="123.75" y="341.75" width="96.5" height="10.5" stroke="#494B50" stroke-width="1.5"/>
<rect x="306.25" y="20.75" width="153.5" height="38.5" transform="rotate(90 306.25 20.75)" stroke="#494B50" stroke-width="1.5"/>
<rect x="292.25" y="20.75" width="64.5656" height="10.5" transform="rotate(90 292.25 20.75)" stroke="#494B50" stroke-width="1.5"/>
<rect x="292.25" y="110.953" width="63.2951" height="10.5" transform="rotate(90 292.25 110.953)" stroke="#494B50" stroke-width="1.5"/>
<path d="M292.25 97.3864L281.75 97.3864L281.75 90.6282L292.25 90.6282L292.25 97.3864ZM281.75 98.8864L292.25 98.8864L292.25 105.645L281.75 105.645L281.75 98.8864Z" stroke="#494B50" stroke-width="1.5"/>
<rect x="263.25" y="20.75" width="153.5" height="38.5" transform="rotate(90 263.25 20.75)" stroke="#494B50" stroke-width="1.5"/>
<rect x="249.25" y="20.75" width="66.5" height="10.5" transform="rotate(90 249.25 20.75)" stroke="#494B50" stroke-width="1.5"/>
<rect x="249.25" y="112.207" width="62.041" height="10.5" transform="rotate(90 249.25 112.207)" stroke="#494B50" stroke-width="1.5"/>
<path d="M249.25 98.8757L238.75 98.8757L238.75 92.2773L249.25 92.2773L249.25 98.8757ZM238.75 100.376L249.25 100.376L249.25 106.974L238.75 106.974L238.75 100.376Z" stroke="#494B50" stroke-width="1.5"/>
<path d="M139.25 153.348L128.75 153.348L128.75 146.75L139.25 146.75L139.25 153.348ZM128.75 154.848L139.25 154.848L139.25 161.447L128.75 161.447L128.75 154.848Z" stroke="#494B50" stroke-width="1.5"/>
<path d="M519.25 160.75L507.75 160.75L507.75 148.75L519.25 148.75L519.25 160.75ZM507.75 162.25L519.25 162.25L519.25 174.25L507.75 174.25L507.75 162.25Z" stroke="#494B50" stroke-width="1.5"/>
<rect x="21.75" y="228.75" width="96.5" height="10.5" stroke="#494B50" stroke-width="1.5"/>
<rect x="21.75" y="291.75" width="96.5" height="12.5" stroke="#494B50" stroke-width="1.5"/>
<path d="M22 291L22 240" stroke="#494B50" stroke-width="1.5"/>
<path d="M28 291L28 264" stroke="#494B50" stroke-width="1.5"/>
<path d="M42 291L42 264" stroke="#494B50" stroke-width="1.5"/>
<path d="M56 291L56 264" stroke="#494B50" stroke-width="1.5"/>
<path d="M70 291L70 264" stroke="#494B50" stroke-width="1.5"/>
<path d="M83 252L102 252" stroke="#494B50" stroke-width="1.5"/>
<path d="M83 274L102 274" stroke="#494B50" stroke-width="1.5"/>
<path d="M25 267L25 240" stroke="#494B50" stroke-width="1.5"/>
<path d="M39 267L39 240" stroke="#494B50" stroke-width="1.5"/>
<path d="M53 267L53 240" stroke="#494B50" stroke-width="1.5"/>
<path d="M67 267L67 240" stroke="#494B50" stroke-width="1.5"/>
<path d="M99 249L118 249" stroke="#494B50" stroke-width="1.5"/>
<path d="M99 270L118 270" stroke="#494B50" stroke-width="1.5"/>
<path d="M35 291L35 264" stroke="#494B50" stroke-width="1.5"/>
<path d="M49 291L49 264" stroke="#494B50" stroke-width="1.5"/>
<path d="M63 291L63 264" stroke="#494B50" stroke-width="1.5"/>
<path d="M83 245L102 245" stroke="#494B50" stroke-width="1.5"/>
<path d="M83 266L102 266" stroke="#494B50" stroke-width="1.5"/>
<path d="M77 291L77 264" stroke="#494B50" stroke-width="1.5"/>
<path d="M83 259L102 259" stroke="#494B50" stroke-width="1.5"/>
<path d="M83 281L102 281" stroke="#494B50" stroke-width="1.5"/>
<path d="M83.5 288.25L102.5 288.25" stroke="#494B50" stroke-width="1.5"/>
<path d="M32 267L32 240" stroke="#494B50" stroke-width="1.5"/>
<path d="M46 267L46 240" stroke="#494B50" stroke-width="1.5"/>
<path d="M60 267L60 240" stroke="#494B50" stroke-width="1.5"/>
<path d="M99 242L118 242" stroke="#494B50" stroke-width="1.5"/>
<path d="M99 263L118 263" stroke="#494B50" stroke-width="1.5"/>
<path d="M74 267L74 240" stroke="#494B50" stroke-width="1.5"/>
<path d="M99 277L118 277" stroke="#494B50" stroke-width="1.5"/>
<path d="M99 256L118 256" stroke="#494B50" stroke-width="1.5"/>
<path d="M99 285L118 285" stroke="#494B50" stroke-width="1.5"/>
<path d="M118 292L118 241" stroke="#494B50" stroke-width="1.5"/>
<path d="M83 289L83 239" stroke="#494B50" stroke-width="1.5"/>
<rect x="-0.75" y="0.75" width="52.5" height="121.5" transform="matrix(-1 -8.74228e-08 -8.74228e-08 1 362.5 277)" stroke="#494B50" stroke-width="1.5"/>
<rect x="356.896" y="299.961" width="17.5588" height="16.2831" transform="rotate(-180 356.896 299.961)" stroke="#494B50" stroke-width="1.5"/>
<rect x="334.662" y="299.961" width="17.5588" height="16.2831" transform="rotate(-180 334.662 299.961)" stroke="#494B50" stroke-width="1.5"/>
<rect x="356.896" y="320.708" width="17.5588" height="16.2831" transform="rotate(-180 356.896 320.708)" stroke="#494B50" stroke-width="1.5"/>
<rect x="356.896" y="341.455" width="17.5588" height="16.2831" transform="rotate(-180 356.896 341.455)" stroke="#494B50" stroke-width="1.5"/>
<rect x="356.896" y="362.202" width="17.5588" height="16.2831" transform="rotate(-180 356.896 362.202)" stroke="#494B50" stroke-width="1.5"/>
<rect x="356.896" y="379.985" width="17.5588" height="13.3193" transform="rotate(-180 356.896 379.985)" stroke="#494B50" stroke-width="1.5"/>
<rect x="334.662" y="320.708" width="17.5588" height="16.2831" transform="rotate(-180 334.662 320.708)" stroke="#494B50" stroke-width="1.5"/>
<rect x="334.662" y="341.455" width="17.5588" height="16.2831" transform="rotate(-180 334.662 341.455)" stroke="#494B50" stroke-width="1.5"/>
<rect x="334.662" y="362.202" width="17.5588" height="16.2831" transform="rotate(-180 334.662 362.202)" stroke="#494B50" stroke-width="1.5"/>
<rect x="334.662" y="379.985" width="17.5588" height="13.3193" transform="rotate(-180 334.662 379.985)" stroke="#494B50" stroke-width="1.5"/>
<line x1="353.75" y1="380.735" x2="353.75" y2="398.518" stroke="#494B50" stroke-width="1.5"/>
<line x1="349.868" y1="380.735" x2="349.868" y2="398.518" stroke="#494B50" stroke-width="1.5"/>
<line x1="346.103" y1="380.735" x2="346.103" y2="398.518" stroke="#494B50" stroke-width="1.5"/>
<line x1="342.338" y1="380.735" x2="342.338" y2="398.518" stroke="#494B50" stroke-width="1.5"/>
<line x1="330.985" y1="380.735" x2="330.985" y2="398.518" stroke="#494B50" stroke-width="1.5"/>
<line x1="327.221" y1="380.735" x2="327.221" y2="398.518" stroke="#494B50" stroke-width="1.5"/>
<line x1="323.456" y1="380.735" x2="323.456" y2="398.518" stroke="#494B50" stroke-width="1.5"/>
<line x1="319.75" y1="380.735" x2="319.75" y2="398.518" stroke="#494B50" stroke-width="1.5"/>
<rect x="448.25" y="179.75" width="94.5" height="11.1234" transform="rotate(90 448.25 179.75)" stroke="#494B50" stroke-width="1.5"/>
<rect x="381.978" y="179.75" width="94.5" height="13.2273" transform="rotate(90 381.978 179.75)" stroke="#494B50" stroke-width="1.5"/>
<path d="M382.728 179.979L436.377 179.979" stroke="#494B50" stroke-width="1.5"/>
<path d="M382.727 185.857L411.13 185.857" stroke="#494B50" stroke-width="1.5"/>
<path d="M382.727 199.572L411.13 199.572" stroke="#494B50" stroke-width="1.5"/>
<path d="M382.727 213.286L411.13 213.286" stroke="#494B50" stroke-width="1.5"/>
<path d="M382.727 227L411.13 227" stroke="#494B50" stroke-width="1.5"/>
<path d="M423.753 239.735L423.753 258.347" stroke="#494B50" stroke-width="1.5"/>
<path d="M400.61 239.735L400.61 258.347" stroke="#494B50" stroke-width="1.5"/>
<path d="M407.974 182.918L436.377 182.918" stroke="#494B50" stroke-width="1.5"/>
<path d="M407.974 196.633L436.377 196.633" stroke="#494B50" stroke-width="1.5"/>
<path d="M407.974 210.347L436.377 210.347" stroke="#494B50" stroke-width="1.5"/>
<path d="M407.974 224.061L436.377 224.061" stroke="#494B50" stroke-width="1.5"/>
<path d="M426.909 255.408L426.909 274.021" stroke="#494B50" stroke-width="1.5"/>
<path d="M404.818 255.408L404.818 274.021" stroke="#494B50" stroke-width="1.5"/>
<path d="M382.727 192.714L411.13 192.714" stroke="#494B50" stroke-width="1.5"/>
<path d="M382.727 206.428L411.13 206.428" stroke="#494B50" stroke-width="1.5"/>
<path d="M382.727 220.143L411.13 220.143" stroke="#494B50" stroke-width="1.5"/>
<path d="M431.117 239.735L431.117 258.347" stroke="#494B50" stroke-width="1.5"/>
<path d="M409.025 239.735L409.025 258.347" stroke="#494B50" stroke-width="1.5"/>
<path d="M382.727 233.857L411.13 233.857" stroke="#494B50" stroke-width="1.5"/>
<path d="M416.39 239.735L416.39 258.347" stroke="#494B50" stroke-width="1.5"/>
<path d="M393.247 239.735L393.247 258.347" stroke="#494B50" stroke-width="1.5"/>
<path d="M385.62 240.224L385.62 258.837" stroke="#494B50" stroke-width="1.5"/>
<path d="M407.974 189.775L436.377 189.775" stroke="#494B50" stroke-width="1.5"/>
<path d="M407.974 203.49L436.377 203.49" stroke="#494B50" stroke-width="1.5"/>
<path d="M407.974 217.204L436.377 217.204" stroke="#494B50" stroke-width="1.5"/>
<path d="M434.272 255.408L434.272 274.021" stroke="#494B50" stroke-width="1.5"/>
<path d="M412.182 255.408L412.182 274.021" stroke="#494B50" stroke-width="1.5"/>
<path d="M407.974 230.918L436.377 230.918" stroke="#494B50" stroke-width="1.5"/>
<path d="M397.454 255.408L397.454 274.021" stroke="#494B50" stroke-width="1.5"/>
<path d="M419.545 255.408L419.545 274.021" stroke="#494B50" stroke-width="1.5"/>
<path d="M389.039 255.408L389.039 274.021" stroke="#494B50" stroke-width="1.5"/>
<path d="M381.675 274.021L435.324 274.021" stroke="#494B50" stroke-width="1.5"/>
<path d="M384.831 239.735L437.429 239.735" stroke="#494B50" stroke-width="1.5"/>
<rect x="519.25" y="179.75" width="94.5" height="11.877" transform="rotate(90 519.25 179.75)" stroke="#494B50" stroke-width="1.5"/>
<rect x="502.25" y="278.75" width="74.5" height="8.5" transform="rotate(90 502.25 278.75)" stroke="#494B50" stroke-width="1.5"/>
<rect x="514.25" y="278.75" width="74.5" height="8.5" transform="rotate(90 514.25 278.75)" stroke="#494B50" stroke-width="1.5"/>
<rect x="485.25" y="278.75" width="74.5" height="7.5" transform="rotate(90 485.25 278.75)" stroke="#494B50" stroke-width="1.5"/>
<path d="M494 316H502" stroke="#494B50" stroke-width="2"/>
<path d="M505 316H514" stroke="#494B50" stroke-width="2"/>
<rect x="491.25" y="278.75" width="74.5" height="2.5" transform="rotate(90 491.25 278.75)" stroke="#494B50" stroke-width="1.5"/>
<rect x="519.25" y="278.75" width="74.5" height="2.5" transform="rotate(90 519.25 278.75)" stroke="#494B50" stroke-width="1.5"/>
<rect x="-0.75" y="0.75" width="33.0574" height="10.2551" transform="matrix(-1 -8.29231e-08 -9.24388e-08 1 501.778 179)" stroke="#494B50" stroke-width="1.5"/>
<rect x="-0.75" y="0.75" width="33.0574" height="9.27551" transform="matrix(-1 -8.17309e-08 -9.39668e-08 1 501.778 264.224)" stroke="#494B50" stroke-width="1.5"/>
<rect x="-0.75" y="0.75" width="33.0574" height="10.2551" transform="matrix(-1 -8.21228e-08 -9.3454e-08 1 501.778 249.531)" stroke="#494B50" stroke-width="1.5"/>
<rect x="-0.75" y="0.75" width="33.0574" height="10.2551" transform="matrix(-1 -8.21228e-08 -9.3454e-08 1 501.778 193.694)" stroke="#494B50" stroke-width="1.5"/>
<rect x="-0.75" y="0.75" width="33.0574" height="36.7041" transform="matrix(-1 -8.21228e-08 -9.3454e-08 1 501.778 208.388)" stroke="#494B50" stroke-width="1.5"/>
<rect x="464.627" y="179.75" width="94.5" height="11.877" transform="rotate(90 464.627 179.75)" stroke="#494B50" stroke-width="1.5"/>
<rect x="118.25" y="133.75" width="40.5" height="96.5001" transform="rotate(90 118.25 133.75)" stroke="#494B50" stroke-width="1.5"/>
<rect x="0.75" y="0.75" width="13.3235" height="12.6687" transform="matrix(3.4084e-08 1 1 -5.60581e-08 100.108 137.941)" stroke="#494B50" stroke-width="1.5"/>
<rect x="0.75" y="0.75" width="13.3235" height="12.6687" transform="matrix(3.4084e-08 1 1 -5.60581e-08 100.108 155.235)" stroke="#494B50" stroke-width="1.5"/>
<rect x="0.75" y="0.75" width="13.3235" height="12.6687" transform="matrix(3.4084e-08 1 1 -5.60581e-08 83.5781 137.941)" stroke="#494B50" stroke-width="1.5"/>
<rect x="0.75" y="0.75" width="13.3235" height="12.6687" transform="matrix(3.4084e-08 1 1 -5.60581e-08 67.0479 137.941)" stroke="#494B50" stroke-width="1.5"/>
<rect x="0.75" y="0.75" width="13.3235" height="12.6687" transform="matrix(3.4084e-08 1 1 -5.60581e-08 50.5176 137.941)" stroke="#494B50" stroke-width="1.5"/>
<rect x="0.75" y="0.75" width="13.3235" height="10.3072" transform="matrix(2.84034e-08 1 1 -6.72697e-08 36.3496 137.941)" stroke="#494B50" stroke-width="1.5"/>
<rect x="0.75" y="0.75" width="13.3235" height="12.6687" transform="matrix(3.4084e-08 1 1 -5.60581e-08 83.5781 155.235)" stroke="#494B50" stroke-width="1.5"/>
<rect x="0.75" y="0.75" width="13.3235" height="12.6687" transform="matrix(3.4084e-08 1 1 -5.60581e-08 67.0479 155.235)" stroke="#494B50" stroke-width="1.5"/>
<rect x="0.75" y="0.75" width="13.3235" height="12.6687" transform="matrix(3.4084e-08 1 1 -5.60581e-08 50.5176 155.235)" stroke="#494B50" stroke-width="1.5"/>
<rect x="0.75" y="0.75" width="13.3235" height="10.3072" transform="matrix(2.84034e-08 1 1 -6.72697e-08 36.3496 155.235)" stroke="#494B50" stroke-width="1.5"/>
<line y1="-0.75" x2="14.1687" y2="-0.75" transform="matrix(-1 0 0 1 36.3496 140.412)" stroke="#494B50" stroke-width="1.5"/>
<line y1="-0.75" x2="14.1687" y2="-0.75" transform="matrix(-1 0 0 1 36.3496 145.353)" stroke="#494B50" stroke-width="1.5"/>
<line y1="-0.75" x2="14.1687" y2="-0.75" transform="matrix(-1 0 0 1 36.3496 149.059)" stroke="#494B50" stroke-width="1.5"/>
<line y1="-0.75" x2="14.1687" y2="-0.75" transform="matrix(-1 0 0 1 36.3496 152.765)" stroke="#494B50" stroke-width="1.5"/>
<line y1="-0.75" x2="14.1687" y2="-0.75" transform="matrix(-1 0 0 1 36.3496 157.706)" stroke="#494B50" stroke-width="1.5"/>
<line y1="-0.75" x2="14.1687" y2="-0.75" transform="matrix(-1 0 0 1 36.3496 161.412)" stroke="#494B50" stroke-width="1.5"/>
<line y1="-0.75" x2="14.1687" y2="-0.75" transform="matrix(-1 0 0 1 36.3496 165.118)" stroke="#494B50" stroke-width="1.5"/>
<line y1="-0.75" x2="14.1687" y2="-0.75" transform="matrix(-1 0 0 1 36.3496 170.059)" stroke="#494B50" stroke-width="1.5"/>
<rect x="474.25" y="278.75" width="74.5602" height="105.5" transform="rotate(90 474.25 278.75)" stroke="#494B50" stroke-width="1.5"/>
<line x1="369.289" y1="287.563" x2="475" y2="287.563" stroke="#494B50" stroke-width="1.5"/>
<line x1="391.205" y1="297.876" x2="449.217" y2="297.876" stroke="#494B50" stroke-width="1.5"/>
<line x1="391.205" y1="309.479" x2="449.217" y2="309.479" stroke="#494B50" stroke-width="1.5"/>
<line x1="391.205" y1="321.081" x2="449.217" y2="321.081" stroke="#494B50" stroke-width="1.5"/>
<line x1="391.205" y1="332.684" x2="449.217" y2="332.684" stroke="#494B50" stroke-width="1.5"/>
<line x1="403.558" y1="288.313" x2="403.558" y2="342.458" stroke="#494B50" stroke-width="1.5"/>
<line x1="415.16" y1="288.313" x2="415.16" y2="342.458" stroke="#494B50" stroke-width="1.5"/>
<line x1="426.762" y1="288.313" x2="426.762" y2="342.458" stroke="#494B50" stroke-width="1.5"/>
<line x1="438.364" y1="288.313" x2="438.364" y2="342.458" stroke="#494B50" stroke-width="1.5"/>
<line x1="448.678" y1="278" x2="448.678" y2="354.06" stroke="#494B50" stroke-width="1.5"/>
<line x1="369.289" y1="342.997" x2="475" y2="342.997" stroke="#494B50" stroke-width="1.5"/>
<line x1="391.955" y1="278" x2="391.955" y2="354.06" stroke="#494B50" stroke-width="1.5"/>
<rect x="232.25" y="277.75" width="23.5" height="7.49999" transform="rotate(90 232.25 277.75)" stroke="#494B50" stroke-width="1.5"/>
<rect x="244.25" y="277.75" width="23.5" height="7.5" transform="rotate(90 244.25 277.75)" stroke="#494B50" stroke-width="1.5"/>
<rect x="306.25" y="313.25" width="81.5" height="7.49999" transform="rotate(-180 306.25 313.25)" stroke="#494B50" stroke-width="1.5"/>
<rect x="281.25" y="330.25" width="31.5" height="12.5" transform="rotate(-180 281.25 330.25)" stroke="#494B50" stroke-width="1.5"/>
<rect x="281.25" y="359.25" width="31.5" height="12.5" transform="rotate(-180 281.25 359.25)" stroke="#494B50" stroke-width="1.5"/>
<rect x="306.25" y="371.25" width="81.5" height="7.49999" transform="rotate(-180 306.25 371.25)" stroke="#494B50" stroke-width="1.5"/>
<rect x="256.25" y="277.75" width="23.5" height="6.49999" transform="rotate(90 256.25 277.75)" stroke="#494B50" stroke-width="1.5"/>
<rect x="269.25" y="277.75" width="23.5" height="7.49999" transform="rotate(90 269.25 277.75)" stroke="#494B50" stroke-width="1.5"/>
<rect x="281.25" y="277.75" width="23.5" height="6.49999" transform="rotate(90 281.25 277.75)" stroke="#494B50" stroke-width="1.5"/>
<rect x="293.848" y="277.75" width="23.5" height="7.0862" transform="rotate(90 293.848 277.75)" stroke="#494B50" stroke-width="1.5"/>
<rect x="306.25" y="277.75" width="23.5" height="7.0862" transform="rotate(90 306.25 277.75)" stroke="#494B50" stroke-width="1.5"/>
<rect x="232.25" y="375.75" width="23.5" height="7.49999" transform="rotate(90 232.25 375.75)" stroke="#494B50" stroke-width="1.5"/>
<rect x="244.25" y="375.75" width="23.5" height="7.5" transform="rotate(90 244.25 375.75)" stroke="#494B50" stroke-width="1.5"/>
<rect x="256.25" y="375.75" width="23.5" height="6.49999" transform="rotate(90 256.25 375.75)" stroke="#494B50" stroke-width="1.5"/>
<rect x="269.25" y="375.75" width="23.5" height="7.49999" transform="rotate(90 269.25 375.75)" stroke="#494B50" stroke-width="1.5"/>
<rect x="281.25" y="375.75" width="23.5" height="6.49999" transform="rotate(90 281.25 375.75)" stroke="#494B50" stroke-width="1.5"/>
<rect x="293.848" y="375.75" width="23.5" height="7.0862" transform="rotate(90 293.848 375.75)" stroke="#494B50" stroke-width="1.5"/>
<rect x="306.25" y="375.75" width="23.5" height="7.0862" transform="rotate(90 306.25 375.75)" stroke="#494B50" stroke-width="1.5"/>
<rect x="0.75" y="0.75" width="41.5" height="19.5" transform="matrix(-4.37114e-08 1 1 4.37114e-08 224 317)" stroke="#494B50" stroke-width="1.5"/>
<rect x="0.75" y="0.75" width="41.5" height="19.5" transform="matrix(-4.37114e-08 1 1 4.37114e-08 286 317)" stroke="#494B50" stroke-width="1.5"/>
<line x1="249" y1="334.25" x2="282" y2="334.25" stroke="#494B50" stroke-width="1.5"/>
<line x1="249" y1="342.25" x2="282" y2="342.25" stroke="#494B50" stroke-width="1.5"/>
<line x1="249" y1="338.25" x2="282" y2="338.25" stroke="#494B50" stroke-width="1.5"/>
<rect x="502.25" y="174.25" width="190.5" height="25.5" transform="rotate(-180 502.25 174.25)" stroke="#494B50" stroke-width="1.5"/>
<rect x="502.25" y="166.85" width="80.3361" height="11.1" transform="rotate(-180 502.25 166.85)" stroke="#494B50" stroke-width="1.5"/>
<rect x="390.515" y="166.85" width="78.7623" height="11.1" transform="rotate(-180 390.515 166.85)" stroke="#494B50" stroke-width="1.5"/>
<path d="M406.962 166.85L406.962 155.75L415.691 155.75L415.691 166.85L406.962 166.85ZM405.462 155.75L405.462 166.85L396.732 166.85L396.732 155.75L405.462 155.75Z" stroke="#494B50" stroke-width="1.5"/>
</g>
</g>
<defs>
<linearGradient id="paint0_linear_6848_23456" x1="32.5" y1="-11.4184" x2="536.941" y2="423.548" gradientUnits="userSpaceOnUse">
<stop stop-color="#80D5F0"/>
<stop offset="1" stop-color="#439AF7"/>
</linearGradient>
<linearGradient id="paint1_linear_6848_23456" x1="68.5417" y1="93.2931" x2="87.3938" y2="150.188" gradientUnits="userSpaceOnUse">
<stop stop-color="#80D5F0"/>
<stop offset="1" stop-color="#439AF7"/>
</linearGradient>
<linearGradient id="paint2_linear_6848_23456" x1="386.824" y1="365.293" x2="404.116" y2="423.278" gradientUnits="userSpaceOnUse">
<stop stop-color="#80D5F0"/>
<stop offset="1" stop-color="#439AF7"/>
</linearGradient>
<linearGradient id="paint3_linear_6848_23456" x1="263.213" y1="211.739" x2="293.128" y2="261.895" gradientUnits="userSpaceOnUse">
<stop stop-color="#80D5F0"/>
<stop offset="1" stop-color="#439AF7"/>
</linearGradient>
<linearGradient id="paint4_linear_6848_23456" x1="87.5139" y1="363.239" x2="116.412" y2="415.151" gradientUnits="userSpaceOnUse">
<stop stop-color="#80D5F0"/>
<stop offset="1" stop-color="#439AF7"/>
</linearGradient>
<linearGradient id="paint5_linear_6848_23456" x1="341.171" y1="35.2388" x2="357.004" y2="99.3261" gradientUnits="userSpaceOnUse">
<stop stop-color="#80D5F0"/>
<stop offset="1" stop-color="#439AF7"/>
</linearGradient>
<linearGradient id="paint6_linear_6848_23456" x1="349.088" y1="97.7388" x2="366.554" y2="160.908" gradientUnits="userSpaceOnUse">
<stop stop-color="#80D5F0"/>
<stop offset="1" stop-color="#439AF7"/>
</linearGradient>
<clipPath id="clip0_6848_23456">
<rect width="540" height="420" rx="10" fill="white"/>
</clipPath>
</defs>
</svg>
