<svg width="25" height="24" viewBox="0 0 25 24" fill="none" xmlns="http://www.w3.org/2000/svg">
<path d="M6.33301 22C5.80257 22 5.29387 21.7893 4.91879 21.4142C4.54372 21.0391 4.33301 20.5304 4.33301 20V4C4.33301 3.46957 4.54372 2.96086 4.91879 2.58579C5.29387 2.21071 5.80257 2 6.33301 2H14.833L20.333 7.5V20C20.333 20.5304 20.1223 21.0391 19.7472 21.4142C19.3721 21.7893 18.8634 22 18.333 22" stroke="#F7F058" stroke-width="2" stroke-linecap="round" stroke-linejoin="round"/>
<path d="M12.333 13H8.33301" stroke="#F7F058" stroke-width="2" stroke-linecap="round" stroke-linejoin="round"/>
<path d="M10.333 9H8.33301" stroke="#F7F058" stroke-width="2" stroke-linecap="round" stroke-linejoin="round"/>
<path d="M14.333 2V8H20.333" stroke="#F7F058" stroke-width="2" stroke-linecap="round" stroke-linejoin="round"/>
<path d="M12.333 23V17" stroke="#F7F058" stroke-width="2" stroke-linecap="round" stroke-linejoin="round"/>
<path d="M9.33301 20L12.333 23L15.333 20" stroke="#F7F058" stroke-width="2" stroke-linecap="round" stroke-linejoin="round"/>
</svg>
