<svg width="400" height="400" viewBox="0 0 400 400" fill="none" xmlns="http://www.w3.org/2000/svg">
<rect width="400" height="400" rx="70" fill="#1A1B1F"/>
<path d="M391.554 137.209C391.75 137.335 391.733 137.626 391.525 137.73C389.895 138.542 388.283 139.395 386.614 140.136C373.8 145.826 361.539 152.452 351.12 161.973C347.558 165.227 344.338 168.921 341.322 172.702C338.461 176.285 337.506 180.673 337.549 185.229C337.557 185.948 337.664 186.666 337.784 187.458C337.898 188.212 338.544 188.781 339.307 188.781H353.274C354.109 188.781 354.791 189.46 354.744 190.294C354.434 195.863 352.468 200.663 349.085 204.686C344.518 210.109 342.656 216.555 340.503 223.027C337.363 232.461 337.152 242.186 337.897 251.837C338.672 261.897 334.949 269.917 328.943 277.399C324.227 283.275 319.66 289.275 314.968 295.176C310.159 301.225 308.366 308.056 308.881 315.736C309.545 325.579 311.853 335.069 314.007 344.651C315.763 352.474 316.34 360.556 317.401 368.527C317.435 368.777 317.435 369.03 317.417 369.327C317.354 370.386 316.195 371.062 315.211 370.668C313.635 370.036 312.2 369.482 310.985 368.614C304.997 364.344 301.311 358.257 298.295 351.717C296.837 348.554 295.424 345.369 294.008 342.224C293.845 341.861 293.542 341.577 293.172 341.431C289.086 339.815 287.894 338.79 286.731 336.02C286.493 335.45 285.952 335.058 285.334 335.052C279.007 334.984 272.714 335.616 266.655 337.715C255.82 341.465 244.967 345.178 234.288 349.325C222.387 353.949 210.069 354.885 197.671 353.391C185.801 351.959 174.067 349.381 162.264 347.379C158.306 346.709 154.297 346.312 150.319 345.711C149.333 345.562 148.352 345.178 147.446 344.738C140.298 341.255 133.236 337.585 126.02 334.25C118.195 330.637 112.151 333.215 109.253 341.236C108.062 344.534 107.355 347.998 106.2 351.308C104.438 356.36 102.595 361.399 100.566 366.346C99.1601 369.778 96.5147 371.574 92.6256 372.144C91.7116 372.278 90.9584 371.487 91.0343 370.567C91.2972 367.375 91.4704 364.291 91.9904 361.269C93.0949 354.866 94.9565 348.569 95.6329 342.129C96.303 335.695 95.9742 329.149 95.8997 322.659C95.8873 321.717 95.0186 320.626 94.2801 319.87C88.9871 314.49 83.6941 309.11 78.2707 303.866C72.5309 298.312 66.9524 292.572 63.1176 285.556C59.6302 279.178 54.1821 278.267 48.1444 279.444C38.427 281.341 28.8276 283.808 19.1785 286.052C16.767 286.613 14.3718 287.24 11.9726 287.841C11.6748 287.915 11.3649 287.776 11.222 287.504C11.0892 287.252 11.1318 286.943 11.3274 286.736C12.4788 285.514 13.5541 284.364 14.8472 283.287C22.1508 277.213 29.6218 271.331 36.8385 265.157C41.1449 261.469 45.1597 257.428 49.1434 253.386C49.9439 252.574 50.4465 251.019 50.3659 249.853C48.3678 220.981 55.0818 193.888 67.0827 167.886C72.1328 156.94 77.3769 146.082 82.672 134.907C82.9339 134.354 83.5066 134.031 84.116 133.978C88.4816 133.598 89.184 129.086 90.9542 125.786C92.1225 123.608 92.9892 121.269 93.9467 118.821C94.3327 117.834 95.5901 117.564 96.3586 118.294C96.9671 118.871 97.5577 119.433 98.1823 120.027C98.774 120.59 99.7069 120.582 100.31 120.031C101.817 118.652 103.362 117.369 104.469 115.782C108.962 109.361 113.38 102.877 117.469 96.2015C119.355 93.1209 121.453 91.187 125.064 90.1767C137.105 86.8082 149.032 83.0491 160.91 79.4556C161.27 79.3465 161.619 79.1321 161.793 78.7979C161.82 78.7468 161.837 78.6977 161.842 78.6477C162.724 71.5444 163.301 70.9493 170.486 69.7716C178.137 68.5195 182.959 64.4286 184.25 56.693C185.534 48.976 185.913 41.1041 186.663 33.2941C187.29 26.7177 187.755 20.1226 188.531 13.5647C189.462 5.67917 196.629 9.31891 198.354 14.6618C200.855 22.416 202.84 30.3313 205.273 38.1103C207.364 44.7921 209.567 51.4554 212.099 57.9823C215.487 66.7282 222.418 70.4348 231.515 70.5898C235.033 70.6518 238.551 70.7758 242.063 70.6208C246.364 70.4348 250.36 71.377 253.804 73.844C263.118 80.5258 272.519 87.1023 281.479 94.2366C288.203 99.5946 294.35 105.682 301.039 111.762C301.424 112.112 301.961 112.227 302.473 112.139C305.731 111.582 308.622 113.248 311.539 115.245C312.151 115.665 312.359 116.472 312.033 117.14C311.123 119.007 310.22 120.857 309.274 122.801C308.886 123.599 309.269 124.555 310.077 124.92C316.764 127.935 321.476 133.234 326.709 137.861C328.564 139.497 330.556 140.991 332.523 142.497C336.228 145.336 340.329 145.925 344.834 144.791C353.546 142.596 362.252 140.371 371.026 138.468C377.832 136.991 384.274 136.175 391.434 137.165C391.476 137.171 391.517 137.186 391.554 137.209ZM207.46 326.499C207.462 326.497 207.465 326.496 207.468 326.496C214.596 326.496 221.724 326.577 228.853 326.447C230.758 326.409 232.855 326.131 234.524 325.288C243.46 320.781 252.451 316.362 261.095 311.341C270.012 306.165 270.763 303.593 268.119 293.508C265.736 284.428 261.337 276.215 256.683 268.182C251.179 258.674 246.885 248.936 246.612 237.68C246.469 231.773 244.769 226.107 241.958 220.808C239.47 216.115 235.616 213.896 230.423 213.828C216.057 213.642 201.99 215.359 188.308 219.989C152.938 231.971 131.394 261.066 130.798 297.395C130.655 306.159 134.453 312.11 142.116 315.581C147.459 318.004 153.025 320.019 158.634 321.742C174.549 326.632 190.979 327.085 207.453 326.503C207.455 326.502 207.458 326.501 207.46 326.499ZM81.2485 232.927C81.2489 232.926 81.2498 232.925 81.2508 232.925C82.6958 232.808 83.713 232.801 84.6993 232.64C97.2586 230.589 108.962 225.996 120.268 220.38C123.848 218.601 127.199 216.295 130.45 213.946C131.691 213.047 132.74 211.479 133.212 210.004C142.687 180.555 152.069 151.076 161.458 121.602C161.561 121.277 161.641 120.945 161.713 120.601C161.884 119.791 161.36 118.975 160.537 118.884C157.106 118.505 154.126 119.633 151.275 121.317C140.298 127.807 130.084 135.344 120.795 144.065C107.181 156.84 95.6701 171.14 88.8444 188.787C83.4101 202.835 81.424 217.44 81.2431 232.926C81.2431 232.929 81.2471 232.93 81.2485 232.927ZM311.224 184.6C311.225 184.601 311.224 184.603 311.223 184.603C310.225 184.603 309.302 184.467 308.428 184.628C303.967 185.421 299.468 186.084 295.075 187.181C285.63 189.543 276.546 192.909 268.076 197.787C263.335 200.52 262.485 202.318 263.434 207.655C263.776 209.582 264.123 211.529 264.737 213.382C268.541 224.93 272.059 236.589 276.384 247.938C280.157 257.837 284.799 267.413 289.223 277.052C289.794 278.29 290.75 279.351 291.808 280.547C292.519 281.35 293.839 281.236 294.355 280.295C299.204 271.442 302.838 262.925 305.127 253.839C310.749 231.531 311.649 208.789 311.45 185.942C311.45 185.559 311.327 185.169 311.221 184.602C311.221 184.6 311.223 184.599 311.224 184.6ZM164.294 198.773C164.294 198.776 164.296 198.779 164.299 198.779C164.948 198.866 165.437 198.989 165.926 198.989C175.966 198.995 185.937 198.301 195.704 195.766C202.344 194.043 208.642 191.545 214.357 187.677C218.813 184.659 220.866 180.518 220.078 175.212C219.563 171.76 218.961 168.252 217.838 164.966C212.316 148.869 203.579 134.346 195.102 119.706C193.806 117.462 191.559 117.53 190.169 119.706C189.456 120.828 188.872 122.067 188.432 123.326C186.347 129.258 184.218 135.177 182.307 141.165C176.4 159.723 170.586 178.318 164.747 196.894C164.567 197.458 164.467 198.053 164.294 198.772C164.294 198.772 164.294 198.773 164.294 198.773ZM226.569 114.33C226.569 114.329 226.567 114.328 226.566 114.329L225.833 115.096C225.725 115.209 225.687 115.373 225.736 115.523C230.032 128.757 234.143 142.057 238.719 155.198C240.431 160.119 243.069 164.756 245.607 169.342C247.921 173.533 251.601 175.07 256.534 174.623C268.734 173.527 278.712 167.158 289.021 162.021C289.472 161.796 289.789 161.362 289.834 160.86C290.232 156.472 288.99 152.867 286.468 149.687C284.737 147.512 282.993 145.28 280.927 143.446C267.275 131.303 251.806 122.148 234.611 115.981C232.061 115.063 229.257 114.865 226.571 114.332C226.57 114.332 226.569 114.331 226.569 114.33ZM103.471 289.55C103.842 289.385 104.104 289.049 104.215 288.658C106.925 279.154 109.638 269.759 112.244 260.328C112.585 259.1 112.679 257.806 112.802 256.371C112.883 255.43 112.112 254.616 111.171 254.689C103.042 255.316 95.6489 256.857 89.4773 262.145C87.1317 264.153 85.1833 266.787 85.7604 269.942C87.169 277.678 90.4764 284.434 97.3766 288.884C99.2491 290.091 101.222 290.549 103.471 289.55Z" fill="white"/>
</svg>
