<svg width="25" height="25" viewBox="0 0 25 25" fill="none" xmlns="http://www.w3.org/2000/svg">
<path d="M6 8.99998V19C6 19.5523 6.44772 20 7 20H17C17.5523 20 18 19.5523 18 19V8.99998M6 8.99998H18M6 8.99998V8.69998M18 8.99998V8.69998M6 8.69998V8.49998C6 5.46241 9.018 2.99649 12.0556 2.99649C15.0931 2.99649 18 5.46241 18 8.49998V8.69998M6 8.69998C6 8.86566 6.13431 8.99998 6.3 8.99998H17.7C17.8657 8.99998 18 8.86566 18 8.69998" stroke="currentColor" stroke-width="1.5"/>
<path d="M8.91441 3.82452L7.43164 2.1543M15.7104 3.82452L17.0943 2.15434" stroke="currentColor" stroke-width="1.5" stroke-linecap="round"/>
<path d="M3 10.5V17.5C3 18.3284 3.67157 19 4.5 19C5.32843 19 6 18.3284 6 17.5V10.5C6 9.67157 5.32843 9 4.5 9C3.67157 9 3 9.67157 3 10.5Z" stroke="currentColor" stroke-width="1.5"/>
<path d="M18 10.4999V17.4999C18 18.3284 18.6716 18.9999 19.5 18.9999C20.3284 18.9999 21 18.3284 21 17.4999V10.4999C21 9.67151 20.3284 8.99994 19.5 8.99994C18.6716 8.99994 18 9.67151 18 10.4999Z" stroke="currentColor" stroke-width="1.5"/>
<path d="M13 20V22.5C13 23.3284 13.6716 24 14.5 24V24C15.3284 24 16 23.3284 16 22.5V20" stroke="currentColor" stroke-width="1.5"/>
<path d="M8 19.9999V22.4999C8 23.3284 8.67157 23.9999 9.5 23.9999V23.9999C10.3284 23.9999 11 23.3284 11 22.4999V19.9999" stroke="currentColor" stroke-width="1.5"/>
<circle cx="9.90668" cy="6.3559" r="0.665466" fill="currentColor"/>
<circle cx="14.3539" cy="6.3559" r="0.665466" fill="currentColor"/>
</svg>
