<svg width="25" height="25" viewBox="0 0 25 25" fill="none" xmlns="http://www.w3.org/2000/svg">
<path d="M15.4998 22.5V18.5C15.6389 17.2473 15.2797 15.9901 14.4998 15C17.4998 15 20.4998 13 20.4998 9.5C20.5798 8.25 20.2298 7.02 19.4998 6C19.7798 4.85 19.7798 3.65 19.4998 2.5C19.4998 2.5 18.4998 2.5 16.4998 4C13.8598 3.5 11.1398 3.5 8.49979 4C6.49979 2.5 5.49979 2.5 5.49979 2.5C5.19979 3.65 5.19979 4.85 5.49979 6C4.77167 7.01588 4.41827 8.25279 4.49979 9.5C4.49979 13 7.49979 15 10.4998 15C10.1098 15.49 9.81979 16.05 9.64979 16.65C9.47979 17.25 9.42979 17.88 9.49979 18.5V22.5" stroke="currentColor" stroke-width="1.5" stroke-linecap="round" stroke-linejoin="round"/>
<path d="M9.5 18.5C4.99 20.5 4.5 16.5 2.5 16.5" stroke="currentColor" stroke-width="1.5" stroke-linecap="round" stroke-linejoin="round"/>
</svg>
