<svg width="25" height="25" viewBox="0 0 25 25" fill="none" xmlns="http://www.w3.org/2000/svg">
<path d="M21.75 18V7C21.75 4.92893 20.0711 3.25 18 3.25H7C4.92893 3.25 3.25 4.92893 3.25 7V18C3.25 20.0711 4.92893 21.75 7 21.75H18C20.0711 21.75 21.75 20.0711 21.75 18Z" stroke="currentColor" stroke-width="1.5"/>
<path d="M7.08203 10.7891C6.80157 10.7891 6.57422 10.5617 6.57422 10.2812V10.2812C6.57422 10.0008 6.80157 9.77344 7.08203 9.77344H7.16406C7.44452 9.77344 7.67188 10.0008 7.67188 10.2812V10.2812C7.67188 10.5617 7.44452 10.7891 7.16406 10.7891H7.08203ZM7.12305 15.5C6.81994 15.5 6.57422 15.2543 6.57422 14.9512V11.9004C6.57422 11.5973 6.81994 11.3516 7.12305 11.3516V11.3516C7.42616 11.3516 7.67188 11.5973 7.67188 11.9004V14.9512C7.67188 15.2543 7.42616 15.5 7.12305 15.5V15.5Z" fill="currentColor"/>
<path d="M8.29422 12.6719C8.29422 12.0885 8.38146 11.599 8.55594 11.2031C8.68615 10.9115 8.86323 10.6497 9.08719 10.418C9.31375 10.1862 9.56115 10.0143 9.82938 9.90234C10.1861 9.7513 10.5976 9.67578 11.0638 9.67578C11.9075 9.67578 12.582 9.9375 13.0872 10.4609C13.595 10.9844 13.8489 11.7122 13.8489 12.6445C13.8489 13.569 13.5976 14.293 13.095 14.8164C12.5924 15.3372 11.9205 15.5977 11.0794 15.5977C10.2278 15.5977 9.55073 15.3385 9.04813 14.8203C8.54552 14.2995 8.29422 13.5833 8.29422 12.6719ZM9.48563 12.6328C9.48563 13.2812 9.63536 13.7734 9.93484 14.1094C10.2343 14.4427 10.6145 14.6094 11.0755 14.6094C11.5364 14.6094 11.914 14.444 12.2083 14.1133C12.5052 13.7799 12.6536 13.2812 12.6536 12.6172C12.6536 11.9609 12.5091 11.4714 12.22 11.1484C11.9335 10.8255 11.552 10.6641 11.0755 10.6641C10.5989 10.6641 10.2148 10.8281 9.92313 11.1562C9.63146 11.4818 9.48563 11.974 9.48563 12.6328Z" fill="currentColor"/>
<path d="M14.3064 14.2163C14.2047 13.9067 14.4487 13.6108 14.7731 13.5793V13.5793C15.0748 13.5499 15.3315 13.767 15.4697 14.0368C15.5365 14.1672 15.619 14.2747 15.7173 14.3594C15.9257 14.5365 16.2056 14.625 16.5572 14.625C16.9296 14.625 17.2095 14.5469 17.397 14.3906C17.5871 14.2318 17.6822 14.0469 17.6822 13.8359C17.6822 13.7005 17.6418 13.5859 17.5611 13.4922C17.483 13.3958 17.3449 13.3125 17.147 13.2422C17.0116 13.1953 16.703 13.112 16.2213 12.9922C15.6015 12.8385 15.1666 12.6497 14.9166 12.4258C14.565 12.1107 14.3892 11.7266 14.3892 11.2734C14.3892 10.9818 14.4713 10.7096 14.6353 10.457C14.802 10.2018 15.0403 10.0078 15.3502 9.875C15.6627 9.74219 16.039 9.67578 16.4791 9.67578C17.1978 9.67578 17.7382 9.83333 18.1002 10.1484C18.3139 10.3332 18.4681 10.5542 18.5628 10.8115C18.6798 11.1293 18.4017 11.4221 18.0634 11.437V11.437C17.752 11.4507 17.5109 11.2055 17.3234 10.9565C17.2861 10.9071 17.2443 10.8643 17.1978 10.8281C17.0364 10.6979 16.7929 10.6328 16.4673 10.6328C16.1314 10.6328 15.8684 10.7018 15.6783 10.8398C15.5559 10.9284 15.4947 11.0469 15.4947 11.1953C15.4947 11.3307 15.552 11.4466 15.6666 11.543C15.8124 11.6654 16.1666 11.793 16.7291 11.9258C17.2916 12.0586 17.7069 12.1966 17.9752 12.3398C18.246 12.4805 18.4569 12.6745 18.608 12.9219C18.7616 13.1667 18.8384 13.4701 18.8384 13.832C18.8384 14.1602 18.7473 14.4674 18.565 14.7539C18.3827 15.0404 18.1249 15.2539 17.7916 15.3945C17.4582 15.5326 17.0429 15.6016 16.5455 15.6016C15.8215 15.6016 15.2655 15.4349 14.8775 15.1016C14.6164 14.8755 14.426 14.5804 14.3064 14.2163Z" fill="currentColor"/>
</svg>
