<svg width="25" height="25" viewBox="0 0 25 25" fill="none" xmlns="http://www.w3.org/2000/svg">
<path d="M8.5 6.50008C10.5 6.5 11.2057 7.64629 13 7.5C14.6628 7.36443 14.9 6.5 16.5 6.5C18.1 6.5 20 7.66667 20.5 8.5C19.6667 8.83333 18 10.1 18 12.5C18 14.9 20 16 21 16.5C20 19.5 17.6 22 16 22C14 22 14 21 12.5 21C11 21 11 22 9 22C7 22 3.5 18 3.5 12.5C3.5 8.1 6.5 6.50015 8.5 6.50008Z" stroke="currentColor" stroke-width="1.5"/>
<path d="M12.5 5V4.5C12.5 2.01472 14.5147 0 17 0V0.5C17 2.98528 14.9853 5 12.5 5Z" fill="currentColor"/>
</svg>
