<svg width="367" height="262" viewBox="0 0 367 262" fill="none" xmlns="http://www.w3.org/2000/svg">
<rect x="0.61474" y="0.61474" width="170.668" height="14.6859" rx="5.53266" transform="matrix(4.10106e-08 1 1 -4.659e-08 284.24 64.3354)" stroke="#EB5757" stroke-width="1.22948"/>
<rect x="0.61474" y="0.61474" width="141.833" height="14.6859" rx="5.53266" transform="matrix(4.10106e-08 1 1 -4.659e-08 306.521 76.5347)" stroke="#EB5757" stroke-width="1.22948"/>
<rect x="0.61474" y="0.61474" width="120.762" height="14.6859" rx="5.53266" transform="matrix(4.10106e-08 1 1 -4.659e-08 328.803 82.0796)" stroke="#EB5757" stroke-width="1.22948"/>
<rect x="0.61474" y="0.61474" width="95.2546" height="14.6859" rx="5.53266" transform="matrix(4.10106e-08 1 1 -4.659e-08 351.085 90.9517)" stroke="#EB5757" stroke-width="1.22948"/>
<rect x="0.61474" y="0.61474" width="211.701" height="14.6859" rx="5.53266" transform="matrix(4.10106e-08 1 1 -4.659e-08 261.958 32.1743)" stroke="#EB5757" stroke-width="1.22948"/>
<rect x="0.61474" y="0.61474" width="249.407" height="14.6859" rx="5.53266" transform="matrix(4.10106e-08 1 1 -4.659e-08 239.677 0.0126953)" stroke="#EB5757" stroke-width="1.22948"/>
<rect x="0.61474" y="0.61474" width="249.407" height="14.6859" rx="5.53266" transform="matrix(4.10106e-08 1 1 -4.659e-08 217.395 11.103)" stroke="#EB5757" stroke-width="1.22948"/>
<rect opacity="0.9" x="0.61474" y="0.61474" width="217.246" height="14.6859" rx="5.53266" transform="matrix(4.10106e-08 1 1 -4.659e-08 195.114 32.1743)" stroke="#EB5757" stroke-width="1.22948"/>
<rect opacity="0.8" x="0.61474" y="0.61474" width="187.303" height="14.6859" rx="5.53266" transform="matrix(4.10106e-08 1 1 -4.659e-08 172.832 47.7002)" stroke="#EB5757" stroke-width="1.22948"/>
<rect opacity="0.7" x="0.61474" y="0.61474" width="157.359" height="14.6859" rx="5.53266" transform="matrix(4.10106e-08 1 1 -4.659e-08 150.551 61.0083)" stroke="#EB5757" stroke-width="1.22948"/>
<rect opacity="0.36" x="0.61474" y="0.61474" width="170.668" height="14.6859" rx="5.53266" transform="matrix(4.10106e-08 1 1 -4.659e-08 128.269 48.8096)" stroke="#EB5757" stroke-width="1.22948"/>
<rect opacity="0.25" x="0.61474" y="0.61474" width="180.649" height="14.6859" rx="5.53266" transform="matrix(4.10106e-08 1 1 -4.659e-08 105.987 41.0459)" stroke="#EB5757" stroke-width="1.22948"/>
<rect opacity="0.18" x="0.61474" y="0.61474" width="154.032" height="14.6859" rx="5.53266" transform="matrix(4.10106e-08 1 1 -4.659e-08 83.7058 44.3735)" stroke="#EB5757" stroke-width="1.22948"/>
<rect opacity="0.15" x="0.61474" y="0.61474" width="119.653" height="14.6859" rx="5.53266" transform="matrix(4.10106e-08 1 1 -4.659e-08 61.4242 48.8096)" stroke="#EB5757" stroke-width="1.22948"/>
<rect opacity="0.1" x="0.61474" y="0.61474" width="63.0933" height="14.6859" rx="5.53266" transform="matrix(4.10106e-08 1 1 -4.659e-08 39.1428 57.6816)" stroke="#EB5757" stroke-width="1.22948"/>
<rect opacity="0.07" x="0.61474" y="0.61474" width="29.8229" height="14.6859" rx="5.53266" transform="matrix(4.10106e-08 1 1 -4.659e-08 17.9222 69.8804)" stroke="#EB5757" stroke-width="1.22948"/>
<rect opacity="0.02" x="0.61474" y="0.61474" width="14.139" height="13.474" rx="5.53266" transform="matrix(4.10106e-08 1 1 -4.659e-08 2.86408e-08 78.0845)" stroke="#EB5757" stroke-width="1.22948"/>
</svg>
