<svg width="172" height="171" viewBox="0 0 172 171" fill="none" xmlns="http://www.w3.org/2000/svg">
<mask id="mask0_2517_40747" style="mask-type:alpha" maskUnits="userSpaceOnUse" x="30" y="32" width="111" height="107">
<path d="M140.592 70.7481C140.649 70.7845 140.644 70.869 140.584 70.8991C140.111 71.1343 139.644 71.3816 139.161 71.5961C135.448 73.2447 131.895 75.1645 128.876 77.923C127.844 78.8659 126.91 79.9362 126.037 81.0317C125.208 82.0698 124.931 83.3413 124.943 84.6613C124.946 84.8649 124.975 85.0685 125.009 85.2919C125.043 85.5191 125.238 85.6903 125.468 85.6903H129.482C129.734 85.6903 129.939 85.8949 129.925 86.1462C129.832 87.7523 129.263 89.1374 128.286 90.2986C126.963 91.87 126.423 93.7378 125.799 95.6127C124.889 98.3461 124.828 101.164 125.044 103.96C125.269 106.875 124.19 109.199 122.449 111.366C121.083 113.069 119.76 114.807 118.4 116.517C117.007 118.27 116.487 120.249 116.636 122.474C116.829 125.326 117.498 128.075 118.122 130.852C118.63 133.118 118.798 135.46 119.105 137.77C119.114 137.835 119.115 137.901 119.111 137.976C119.096 138.295 118.744 138.499 118.447 138.381C118 138.201 117.592 138.042 117.246 137.795C115.511 136.558 114.443 134.794 113.569 132.899C113.147 131.985 112.739 131.064 112.33 130.155C112.28 130.046 112.189 129.96 112.078 129.916C110.904 129.452 110.557 129.155 110.223 128.362C110.15 128.191 109.987 128.072 109.801 128.07C107.972 128.052 106.152 128.235 104.401 128.842C101.261 129.929 98.1163 131.005 95.0218 132.206C91.5731 133.546 88.004 133.817 84.4115 133.384C80.9718 132.969 77.5716 132.222 74.1517 131.642C73.0045 131.448 71.843 131.333 70.6904 131.159C70.4045 131.116 70.1205 131.005 69.8579 130.877C67.7866 129.868 65.7404 128.805 63.6492 127.838C61.3819 126.791 59.6305 127.538 58.7909 129.862C58.4456 130.818 58.2406 131.822 57.9062 132.781C57.3956 134.244 56.8615 135.704 56.2736 137.138C55.8686 138.126 55.1087 138.646 53.9927 138.815C53.7176 138.856 53.4905 138.618 53.5132 138.341C53.5885 137.423 53.6391 136.536 53.7886 135.667C54.1087 133.812 54.6481 131.987 54.8441 130.121C55.0383 128.257 54.943 126.36 54.9214 124.48C54.9178 124.207 54.6661 123.891 54.4521 123.672C52.9184 122.113 51.3846 120.554 49.8131 119.035C48.1499 117.426 46.5335 115.763 45.4222 113.73C44.4117 111.882 42.833 111.618 41.0835 111.959C38.2678 112.509 35.4861 113.223 32.6902 113.873C31.9914 114.036 31.2973 114.218 30.6021 114.392C30.5158 114.413 30.4261 114.373 30.3846 114.294V114.294C30.3462 114.221 30.3585 114.132 30.4152 114.072C30.7488 113.718 31.0604 113.384 31.4351 113.072C33.5514 111.312 35.7163 109.608 37.8074 107.819C39.0553 106.751 40.2187 105.58 41.373 104.409C41.605 104.174 41.7506 103.723 41.7272 103.385C41.1483 95.02 43.0938 87.1701 46.5712 79.6363C48.033 76.4683 49.5509 73.3258 51.0835 70.0914C51.1624 69.925 51.3351 69.8279 51.5186 69.8108C52.7732 69.6937 52.977 68.3916 53.4884 67.4385C53.8232 66.8143 54.0725 66.1446 54.3463 65.4438C54.4625 65.1464 54.8411 65.0651 55.0726 65.2849C55.2386 65.4425 55.4004 65.5963 55.5707 65.7583C55.7489 65.9279 56.03 65.9255 56.2117 65.7597C56.6446 65.3645 57.0867 64.9953 57.4045 64.5399C58.7063 62.6794 59.9866 60.8009 61.1715 58.8667C61.7181 57.9741 62.3258 57.4138 63.3723 57.1211C66.8592 56.1457 70.3131 55.0573 73.7527 54.0167C73.8614 53.9838 73.9693 53.9206 74.0181 53.8182C74.0241 53.8055 74.0281 53.7932 74.0294 53.7807C74.2848 51.7226 74.452 51.5502 76.5341 51.2089C78.7512 50.8462 80.1483 49.6609 80.5222 47.4196C80.8944 45.1837 81.0041 42.9029 81.2217 40.64C81.4033 38.7346 81.5382 36.8237 81.7629 34.9237C81.8967 33.7903 82.2014 33.2281 82.9256 32.7634C83.1406 32.6254 83.4221 32.7229 83.5387 32.9502C83.9262 33.7049 84.3525 34.4463 84.6092 35.2416C85.3339 37.4882 85.9093 39.7816 86.6141 42.0355C87.22 43.9714 87.8584 45.902 88.592 47.7931C89.5737 50.3271 91.5821 51.4011 94.2181 51.446C95.2376 51.464 96.2571 51.4999 97.2748 51.455C98.5209 51.4011 99.6788 51.6741 100.677 52.3889C103.376 54.3248 106.1 56.2303 108.696 58.2974C110.642 59.8479 112.421 61.6092 114.357 63.3688C114.473 63.4742 114.635 63.5085 114.789 63.4827C115.724 63.3269 116.556 63.8029 117.394 64.3759C117.579 64.5022 117.641 64.7455 117.543 64.9467C117.284 65.4778 117.027 66.0042 116.759 66.5566C116.642 66.7969 116.757 67.0849 117 67.1953C118.929 68.0703 120.29 69.6003 121.802 70.937C122.34 71.4111 122.917 71.8439 123.487 72.2803C124.56 73.1028 125.749 73.2734 127.054 72.9448C129.579 72.309 132.102 71.6643 134.644 71.113C136.616 70.685 138.483 70.4484 140.557 70.7353C140.57 70.737 140.582 70.7414 140.592 70.7481V70.7481ZM87.2479 125.593C87.2485 125.592 87.2493 125.592 87.2501 125.592C89.3157 125.592 91.3812 125.615 93.4467 125.577C93.9987 125.567 94.6065 125.486 95.0902 125.242C97.6794 123.936 100.285 122.655 102.789 121.201C105.373 119.701 105.591 118.956 104.825 116.034C104.134 113.403 102.86 111.023 101.511 108.696C99.9162 105.941 98.6719 103.12 98.5928 99.8582C98.5514 98.1467 98.0588 96.5053 97.2442 94.9698C96.5232 93.6103 95.4066 92.9673 93.9016 92.9476C89.7391 92.8937 85.6629 93.3912 81.6982 94.7327C71.4492 98.2042 65.2063 106.634 65.0337 117.16C64.9924 119.699 66.0928 121.423 68.3134 122.429C69.8615 123.131 71.4744 123.715 73.0998 124.214C77.7115 125.631 82.4723 125.762 87.2458 125.594C87.2466 125.594 87.2473 125.593 87.2479 125.593V125.593ZM50.676 98.4812C50.6761 98.4809 50.6764 98.4807 50.6767 98.4807C51.0954 98.4466 51.3901 98.4448 51.6759 98.3981C55.3152 97.8037 58.7063 96.4729 61.9824 94.8458C63.0199 94.3304 63.9909 93.6623 64.933 92.9817C65.2927 92.7213 65.5965 92.2669 65.7332 91.8395C68.4788 83.3071 71.1975 74.7658 73.918 66.2263C73.9462 66.1374 73.9683 66.0467 73.9884 65.9529C74.0407 65.709 73.8821 65.463 73.634 65.4368C72.6471 65.3327 71.7888 65.6583 70.9673 66.1437C67.7866 68.024 64.827 70.2078 62.1352 72.7347C58.1903 76.436 54.8549 80.5792 52.877 85.6921C51.3023 89.7624 50.7268 93.9941 50.6744 98.4808C50.6744 98.4816 50.6756 98.4819 50.676 98.4812V98.4812ZM117.315 84.4791C117.316 84.4794 117.315 84.4799 117.315 84.4799C117.026 84.4798 116.758 84.4404 116.505 84.4871C115.212 84.7169 113.909 84.9091 112.636 85.227C109.899 85.9112 107.267 86.8864 104.812 88.2998C103.439 89.0918 103.192 89.6126 103.467 91.1588C103.566 91.7174 103.667 92.2813 103.845 92.8183C104.947 96.164 105.967 99.5421 107.22 102.83C108.313 105.698 109.658 108.473 110.94 111.266C111.102 111.618 111.372 111.92 111.672 112.259C111.886 112.501 112.284 112.466 112.439 112.183C113.838 109.626 114.887 107.165 115.549 104.54C117.178 98.0767 117.438 91.4875 117.381 84.8678C117.381 84.7568 117.345 84.644 117.314 84.4795C117.314 84.4791 117.315 84.4788 117.315 84.4791V84.4791ZM74.7397 88.5855C74.7397 88.5864 74.7404 88.5872 74.7413 88.5873C74.9293 88.6125 75.0709 88.6482 75.2126 88.6482C78.1218 88.65 81.0113 88.4488 83.8415 87.7143C85.7654 87.215 87.5904 86.4913 89.2465 85.3706C90.5375 84.496 91.1326 83.2964 90.9043 81.7591C90.755 80.7588 90.5806 79.7423 90.2552 78.7905C88.6549 74.1265 86.1232 69.9187 83.6671 65.6767C83.2913 65.0266 82.6404 65.0464 82.2376 65.6767C82.0308 66.0018 81.8618 66.361 81.7341 66.7256C81.13 68.4442 80.5133 70.1593 79.9595 71.8942C78.2477 77.2711 76.5629 82.6588 74.8709 88.0412C74.8188 88.2045 74.79 88.3769 74.7397 88.5851C74.7397 88.5852 74.7397 88.5854 74.7397 88.5855V88.5855ZM92.785 64.1193C92.785 64.1188 92.7844 64.1185 92.7841 64.1189L92.5718 64.341C92.5403 64.3739 92.5295 64.4215 92.5436 64.4648C93.7885 68.2992 94.9796 72.1527 96.3057 75.9601C96.8019 77.3861 97.5661 78.7294 98.3015 80.0584C98.9722 81.2724 100.038 81.7178 101.468 81.5885C105 81.2711 107.889 79.4287 110.873 77.9411C111.009 77.8733 111.105 77.7428 111.118 77.5915C111.231 76.3243 110.871 75.2827 110.142 74.3635C109.64 73.7332 109.135 73.0867 108.536 72.5551C104.58 69.0369 100.098 66.3843 95.1153 64.5974C94.3765 64.3317 93.5639 64.2742 92.7855 64.1198C92.7852 64.1197 92.785 64.1195 92.785 64.1193V64.1193ZM57.1087 114.89C57.2207 114.841 57.2994 114.739 57.3329 114.622C58.1174 111.87 58.903 109.15 59.6575 106.42C59.7546 106.07 59.7827 105.702 59.8175 105.295C59.8417 105.011 59.6093 104.766 59.3257 104.788C56.9784 104.971 54.8435 105.419 53.0604 106.947C52.3808 107.529 51.8162 108.292 51.9834 109.206C52.3915 111.447 53.3499 113.405 55.3494 114.694C55.8901 115.043 56.4598 115.175 57.1087 114.89Z" fill="white"/>
</mask>
<g mask="url(#mask0_2517_40747)">
<path d="M71.5613 119.174C71.4611 120.559 71.0939 121.995 71.3109 123.313C71.8617 126.651 69.3748 126.384 67.5221 126.568C65.5025 126.768 63.8167 128.788 61.5801 127.636C61.6802 127.503 61.7637 127.386 61.8638 127.252C64.4843 125.45 65.903 122.178 69.3748 121.294C70.0424 121.143 70.009 119.14 71.5613 119.174Z" fill="#FEDAA5"/>
<path d="M29.2835 86.5919C29.2835 67.8792 29.2835 49.1664 29.2676 30.4537C29.2676 29.9136 29.3788 29.8024 29.9189 29.8024C67.392 29.8183 104.881 29.8183 142.354 29.8024C142.894 29.8024 143.006 29.9136 143.006 30.4537C142.99 67.9268 142.99 105.416 143.006 142.889C143.006 143.429 142.894 143.54 142.354 143.54C104.881 143.524 67.392 143.524 29.9189 143.54C29.3788 143.54 29.2676 143.429 29.2676 142.889C29.2835 124.113 29.2835 105.352 29.2835 86.5919ZM30.316 91.7546C30.316 108.037 30.3001 124.319 30.3001 140.586C30.6178 141.205 29.4582 142.524 30.9832 142.524C64.2785 142.555 97.5739 142.555 130.869 142.54C131.155 142.54 131.711 142.142 131.679 142.047C131.092 139.458 132.712 139.633 134.412 139.712C136.254 139.807 138.113 139.696 139.971 139.744C140.639 139.76 140.797 139.569 140.797 138.902C140.766 131.372 140.782 123.859 140.782 116.329C140.766 88.1169 140.766 59.9048 140.75 31.6927C140.623 31.5815 140.512 31.3909 140.384 31.3909C136.969 31.3909 133.57 31.3909 130.154 31.4385C129.98 31.4385 129.646 31.9786 129.646 32.2487C129.614 41.8275 129.646 51.3903 129.773 60.9532C129.805 63.2407 128.55 64.1461 126.755 64.6862C126.151 64.8451 125.611 64.9245 125.008 65.0834C122.704 65.0834 120.321 64.3685 119.352 67.7997C118.733 69.9442 116.731 71.6916 115.349 73.6137C114.698 74.0903 114.11 74.6939 113.396 75.0275C110.107 76.616 106.994 74.1379 103.483 74.6304C99.6072 75.1705 97.0608 76.2346 96.9337 80.3171C96.9337 80.5077 98.9062 84.4253 95.2545 82.1795C95.0956 82.0842 94.8734 82.1758 94.6669 82.1758C92.0141 80.4126 88.837 82.2235 86.1207 80.8891C86.0095 80.6826 85.8983 80.4761 85.7712 80.2696C85.7871 79.2053 85.8824 78.141 85.7871 77.0926C85.6441 75.6153 85.8506 74.7733 87.6933 75.091C88.7894 75.2817 90.5685 75.647 90.9657 74.4397C92.4112 70.0713 94.5875 66.0841 96.4619 61.9381C97.5421 59.5394 95.0481 57.2361 94.7463 54.7898C94.4445 52.4388 92.5065 50.4372 93.2531 47.9274C94.3015 44.4644 96.7955 41.8592 98.8129 38.9681C99.0194 38.7616 99.226 38.5551 99.4483 38.3327C101.18 35.7593 103.197 33.5354 106.311 32.614C106.787 32.3599 107.836 32.8206 107.677 31.8198C107.55 30.962 106.644 31.4068 106.136 31.4068C81.7999 31.4227 57.4638 31.4703 33.1118 31.3273C30.2683 31.3115 29.8236 32.2963 30.2842 34.5997C30.2842 53.0106 30.2842 71.4374 30.2842 89.8484C30.3001 90.4838 30.316 91.1192 30.316 91.7546ZM114.523 45.2587C114.492 45.2587 114.46 45.2587 114.412 45.2587C114.412 41.0809 114.412 36.903 114.412 32.7252C114.412 32.2646 114.619 31.6768 113.745 31.6927C112.871 31.7086 113.125 32.3281 113.125 32.757C113.062 40.9061 113.014 49.0552 112.951 57.2043C112.951 58.1098 113.332 58.6975 114.158 59.0152C114.222 59.047 114.508 58.777 114.508 58.6658C114.523 54.1861 114.523 49.7224 114.523 45.2587Z" fill="#FCE8EC"/>
<path d="M140.721 31.7244C140.737 59.9365 140.737 88.1485 140.753 116.361C140.753 123.89 140.753 131.404 140.769 138.934C140.769 139.585 140.61 139.791 139.943 139.775C138.084 139.728 136.242 139.823 134.383 139.744C132.668 139.664 131.047 139.489 131.651 142.079C131.683 142.19 131.127 142.571 130.841 142.571C97.5454 142.587 64.25 142.587 30.9547 142.555C29.4297 142.555 30.5735 141.237 30.2716 140.617C30.4464 140.443 30.6211 140.268 30.78 140.093C32.5114 138.171 34.2429 136.249 35.9585 134.327C42.1061 134.231 48.2695 134.2 54.4171 133.914C55.132 133.882 55.2908 136.185 56.1645 134.247C56.4663 133.58 57.0223 133.04 57.4512 132.436C57.3559 132.881 57.0382 133.453 57.197 133.755C57.6736 134.629 58.0389 133.644 58.2772 133.469C59.8181 132.23 61.1366 133.628 62.4233 133.946C63.2652 134.152 63.8211 135.613 64.4566 136.535C65.0125 137.345 65.4891 138.219 65.9974 139.061C66.0292 138.362 66.0927 137.663 66.1086 136.98C66.1245 136.344 66.0451 135.709 66.1245 135.073C66.3787 133.072 65.9498 131.197 68.5073 129.688C70.5565 128.481 73.6223 126.893 73.0663 123.223C72.828 121.666 73.0663 120.046 73.0981 118.442C74.6866 117.298 76.291 116.138 77.8795 114.995C80.1194 113.072 82.7086 111.833 85.5044 110.976C85.5839 110.976 85.6633 110.976 85.7427 110.976C85.8698 110.928 86.0128 110.864 86.1398 110.817C89.2851 111.134 88.9197 108.545 89.4757 106.75C93.5264 105.209 98.1332 108.18 102.025 105.162C103.105 104.32 104.551 103.875 105.424 102.906C106.886 101.286 108.411 100.062 110.651 99.6812C111.89 99.4747 113.891 100.285 114.241 98.6963C114.606 97.0443 113.955 95.1857 113.748 93.4065C114.511 92.4534 115.257 91.5162 116.02 90.5631C116.655 88.5933 117.942 90.1024 118.895 90.0707C122.088 89.9277 122.596 87.0048 124.09 85.1621C126.838 81.7627 128.49 77.712 129.84 73.6454C131.127 69.817 129.919 65.7663 129.919 61.795C129.935 52.0574 129.919 42.3357 129.935 32.5981C129.935 32.3439 130.062 32.0738 130.126 31.8197C130.317 31.915 130.507 31.9944 130.682 32.0897C130.555 32.1374 130.412 32.185 130.285 32.2327C130.332 32.2803 130.364 32.328 130.412 32.3915C130.491 32.2962 130.587 32.2009 130.666 32.0897C134.05 31.9309 137.385 31.8197 140.721 31.7244Z" fill="#F18928" stroke="#F18928" stroke-width="0.227533"/>
<path d="M30.2559 89.8486C30.2559 71.4377 30.2559 53.0108 30.2559 34.5999C30.3353 34.5999 30.4306 34.584 30.51 34.584C40.1682 34.584 49.8264 34.6793 59.4846 34.5205C62.1215 34.4728 63.9483 35.2036 65.7116 37.1257C67.3954 38.9366 69.524 40.3345 71.462 41.9071C73.1776 43.4162 72.3834 45.6401 72.3357 47.2445C72.2086 51.8671 72.2086 56.5691 70.7154 61.0805C70.3501 62.2084 70.3977 63.4951 70.0165 64.6229C69.2222 67.0057 70.6519 69.6585 68.8251 71.9778C67.3637 73.8363 66.3311 76.0444 65.108 78.0935C64.0278 79.825 62.4551 81.2865 62.2486 83.4786C62.1374 83.5104 62.0262 83.5263 61.915 83.558C59.564 83.0974 56.7524 85.6549 54.8302 82.4302C54.8302 82.4302 54.7032 82.4779 54.6873 82.5096C54.1154 84.3047 52.241 84.3682 51.0178 84.6859C45.6168 86.0997 40.0252 86.0361 34.5131 85.639C30.9548 85.3848 29.827 86.4968 30.4783 89.8327C30.4147 89.8486 30.3353 89.8486 30.2559 89.8486Z" fill="#80C9C1" stroke="#80C9C1" stroke-width="0.227533"/>
<path d="M65.123 78.0774C66.3462 76.0282 67.3787 73.8201 68.8402 71.9616C70.667 69.6423 69.2373 66.9895 70.0316 64.6067C70.4128 63.4789 70.3493 62.2081 70.7305 61.0643C72.2078 56.5688 72.2078 51.8509 72.3508 47.2283C72.3985 45.6081 73.1768 43.4 71.4771 41.8909C73.7964 42.9552 76.9099 41.6368 78.6096 44.8297C80.0392 47.5143 82.1361 44.1466 83.9629 44.782C84.2965 43.7018 85.2178 42.9552 85.2496 41.605C85.2814 40.5407 85.5832 38.2056 86.8699 38.5391C90.8571 39.5876 94.8442 38.3009 98.7679 39.0157C96.7505 41.9068 94.2406 44.512 93.2081 47.9749C92.4615 50.4689 94.3995 52.4863 94.7013 54.8373C95.0031 57.2837 97.4971 59.587 96.4169 61.9857C94.5424 66.1317 92.3661 70.1348 90.9206 74.4873C90.5235 75.6946 88.7443 75.3292 87.6482 75.1386C85.7897 74.8209 85.5991 75.6469 85.742 77.1402C85.8373 78.1886 85.742 79.2529 85.7261 80.3172C83.4863 80.206 81.2465 80.1583 79.0226 79.9518C78.3554 79.8883 77.72 79.4435 77.0687 79.1735C77.3864 78.5381 77.0846 77.5373 78.1648 77.3308C78.276 77.3149 78.4666 76.9178 78.4189 76.8383C77.7994 75.9805 77.1481 75.1545 76.481 74.3444C76.4651 74.3285 76.0838 74.535 75.9409 74.6938C73.0498 78.0297 69.7456 80.1742 65.123 78.0774Z" fill="#95C7DB" stroke="#95C7DB" stroke-width="0.227533"/>
<path d="M98.784 39.0159C94.8604 38.317 90.8732 39.5878 86.886 38.5394C85.5834 38.2058 85.2975 40.5409 85.2657 41.6052C85.218 42.9555 84.3126 43.7021 83.979 44.7823C82.1522 44.1469 80.0554 47.5145 78.6257 44.8299C76.926 41.637 73.8125 42.9555 71.4932 41.8912C69.5552 40.3185 67.4107 38.9206 65.7428 37.1097C63.9795 35.1876 62.1369 34.4569 59.5158 34.5046C49.8258 34.6793 40.1676 34.584 30.5095 34.584C31.0178 33.6944 29.3975 31.7723 31.4467 31.7564C55.4174 31.677 79.4041 31.6929 103.375 31.7564C104.344 31.7564 105.297 32.3442 106.266 32.6619C103.152 33.5673 101.135 35.8071 99.4035 38.3805C99.197 38.587 98.9905 38.7936 98.784 39.0159Z" fill="#87ADD4" stroke="#87ADD4" stroke-width="0.227533"/>
<path d="M95.8906 98.7123C96.0495 97.0761 96.8437 96.2659 98.5752 96.1389C100.386 96.0118 99.2424 94.2962 99.719 93.3748C100.815 91.2303 101.562 88.8634 101.45 86.3536C102.149 86.0994 102.896 85.9406 103.516 85.5593C105.676 84.225 107.217 82.2075 109.997 81.4451C111.522 81.0162 113.078 81.1273 114.508 80.6349C117.129 79.7294 117.002 76.886 118.162 74.9321C119.591 73.7884 120.243 72.2158 121.069 70.6272C121.831 69.1817 120.672 66.4177 123.579 66.2747C124.436 66.227 124.754 65.7981 124.897 65.0674C125.501 64.9086 126.117 64.7619 126.721 64.603C128.151 71.6243 125.183 77.3467 120.036 81.2703C116.478 83.9708 116.589 87.132 116.017 90.5314C115.255 91.4845 114.508 92.4217 113.746 93.3748C112.935 94.9157 111.49 94.1373 110.314 94.2803C109.266 94.4074 108.218 94.1055 107.249 94.9157C103.992 97.6638 100.211 99.0458 95.8906 98.7123Z" fill="#FEDAA5" stroke="#FEDAA5" stroke-width="0.227533"/>
<path d="M118.211 74.906C117.052 76.8599 117.156 79.713 114.535 80.6343C113.106 81.1268 111.542 81.0116 110.017 81.4405C107.237 82.203 105.692 84.2257 103.532 85.5601C102.913 85.9413 102.138 86.1032 101.455 86.3574C99.1829 84.9754 96.9125 83.5513 94.625 82.1693C94.8315 82.1693 95.1016 82.074 95.2445 82.1693C98.771 84.3456 96.8807 80.5014 96.8807 80.3107C97.0078 76.2282 99.5812 75.1639 103.441 74.6238C106.952 74.1314 110.05 76.6095 113.354 75.021C114.068 74.6715 114.656 74.0837 115.308 73.6072C116.277 74.0361 117.258 74.4771 118.211 74.906Z" fill="#FFF1CF" stroke="#FFF1CF" stroke-width="0.227533" stroke-linejoin="bevel"/>
<path d="M89.4705 106.711C88.8976 108.525 89.2795 111.103 86.1288 110.785C86.0608 110.598 85.7742 110.798 85.7309 110.96C85.6514 110.96 85.5317 110.903 85.4521 110.903C84.9747 101.817 85.3649 92.7237 83.8691 83.7011C83.9964 82.2849 84.8876 81.4574 86.0969 80.8687C88.818 82.2212 92.0006 80.4072 94.658 82.1576C96.9336 83.542 99.1635 84.9681 101.455 86.3525C101.566 88.8667 100.864 91.1802 99.7661 93.3443C99.2887 94.2673 100.434 95.9858 98.6203 96.1131C96.8858 96.2245 96.0902 97.052 95.9311 98.691C93.751 101.364 91.6028 104.038 89.4705 106.711Z" fill="#A29EA1" stroke="#A29EA1" stroke-width="0.227533"/>
<path d="M30.2559 89.8485C30.3353 89.8485 30.4147 89.8326 30.4941 89.8326C40.2476 90.1821 50.0011 90.6427 59.7388 89.5308C56.9112 93.1367 54.1154 96.139 48.635 95.6624C42.7098 95.1541 36.6735 95.8531 30.7006 96.0437C30.5577 94.614 30.4306 93.1844 30.2876 91.7547C30.2717 91.1193 30.2559 90.4839 30.2559 89.8485Z" fill="#797AAA" stroke="#797AAA" stroke-width="0.227533"/>
<path d="M116.02 90.5314C116.591 87.132 116.48 83.9708 120.038 81.2703C125.185 77.3467 128.156 71.628 126.71 64.6068C128.505 64.0667 129.681 63.2883 129.649 61.0008C129.522 51.438 129.601 41.8592 129.617 32.2963C129.617 32.0104 129.935 31.4862 130.126 31.4862C133.541 31.4226 136.94 31.4226 140.356 31.4385C140.483 31.4385 140.594 31.6291 140.721 31.7403C137.385 31.8356 134.049 31.9468 130.713 32.0421C130.523 31.9468 130.332 31.8674 130.157 31.7721C130.094 32.0263 129.967 32.2963 129.967 32.5505C129.951 42.2881 129.967 52.0098 129.951 61.7474C129.935 65.7029 131.158 69.7695 129.871 73.5978C128.505 77.6644 126.869 81.7151 124.121 85.1146C122.628 86.9572 122.119 89.896 118.927 90.0231C117.942 90.0707 116.655 88.5616 116.02 90.5314Z" fill="#F8B570"/>
<path d="M86.1411 80.8512C84.9497 81.4389 84.0085 82.3348 83.8656 83.7485C83.2302 84.1774 82.5789 84.6222 81.9435 85.0511C78.7664 84.9558 75.6053 84.8446 72.4282 84.7493C71.7928 84.654 71.1574 84.5428 70.522 84.4475C67.901 82.9384 65.0257 83.685 62.2617 83.4626C62.4682 81.2704 64.0409 79.809 65.1211 78.0775C69.7436 80.1585 73.0319 78.014 75.9548 74.6781C76.0977 74.5192 76.479 74.3127 76.4948 74.3286C77.162 75.1388 77.8133 75.9648 78.4328 76.8226C78.4805 76.902 78.3058 77.2833 78.1787 77.315C77.0985 77.5215 77.4162 78.5223 77.0826 79.1577C77.7339 79.4278 78.3693 79.8726 79.0365 79.9361C81.2604 80.1267 83.5633 80.1567 85.8031 80.2679C85.9143 80.4744 86.0299 80.6446 86.1411 80.8512Z" fill="#87ADD4"/>
<path d="M114.552 45.2402C114.552 49.7225 114.528 54.3278 114.512 58.8101C114.512 58.9377 114.225 59.1929 114.162 59.161C113.348 58.842 112.949 58.2678 112.949 57.3426C113.013 49.1596 113.04 40.9689 113.104 32.7859C113.104 32.3552 112.863 31.7 113.74 31.684C114.602 31.6681 114.437 32.2606 114.453 32.7232C114.453 36.9184 114.44 41.029 114.44 45.2242C114.472 45.2402 114.504 45.2402 114.552 45.2402Z" fill="#DDC4E0"/>
<path d="M118.164 74.9481C117.211 74.5192 116.227 74.0108 115.273 73.5819C116.655 71.6598 118.625 69.9283 119.245 67.7838C120.23 64.3685 122.747 65.0482 125.034 65.0323C124.891 65.763 124.471 66.243 123.613 66.2747C120.706 66.4177 121.913 69.1976 121.151 70.6432C120.341 72.2476 119.594 73.8043 118.164 74.9481Z" fill="#F8C9D1" stroke="#F8C9D1" stroke-width="0.227533"/>
<path d="M106.265 32.6616C105.296 32.3439 104.343 31.7561 103.374 31.7561C79.4036 31.7084 55.417 31.6767 31.4463 31.7561C29.3971 31.7561 31.0015 33.6782 30.509 34.5837C30.4296 34.5837 30.3343 34.5995 30.2549 34.5995C29.7783 32.2962 30.2231 31.3113 33.0665 31.3272C57.4026 31.4702 81.7546 31.4066 106.091 31.4384C106.615 31.4384 107.505 30.9936 107.632 31.8514C107.806 32.8681 106.758 32.4074 106.265 32.6616Z" fill="#95C7DB" stroke="#95C7DB" stroke-width="0.227533"/>
<path d="M30.2717 91.7545C30.4147 93.1842 30.5418 94.6139 30.6848 96.0435C30.6212 97.0125 30.4941 97.9815 30.4941 98.9505C30.4783 112.358 30.4783 125.765 30.4941 139.172C30.4941 139.474 30.6689 139.775 30.7642 140.077C30.5894 140.252 30.4147 140.427 30.2559 140.601C30.2559 124.319 30.2717 108.037 30.2717 91.7545Z" fill="#9B8BC1"/>
<path d="M98.7832 39.0159C98.9897 38.8094 99.1962 38.6029 99.4186 38.3805C99.1962 38.587 98.9897 38.7935 98.7832 39.0159Z" fill="#95C7DB"/>
<path d="M30.7644 140.078C30.6691 139.776 30.4943 139.474 30.4943 139.172C30.4785 125.765 30.4785 112.358 30.4943 98.9508C30.4943 97.9818 30.6214 97.0128 30.685 96.0438C36.6737 95.869 42.6942 95.1542 48.6193 95.6625C54.0997 96.1391 56.8955 93.1368 59.7231 89.5309C59.8025 89.515 59.8978 89.4991 59.9772 89.4673C61.0892 89.0543 61.6134 89.6897 62.5824 90.2616C66.3472 92.4537 70.4456 91.3259 74.0515 89.5785C76.4661 88.4189 78.1181 89.102 78.96 90.897C81.1522 95.6466 80.1991 100.873 80.771 105.877C81.4222 111.5 78.0228 110.15 75.1158 110.166C73.1778 110.182 71.2557 110.197 69.3177 110.15C68.9047 110.134 68.4282 109.959 68.1105 109.689C65.966 107.974 63.4402 110.055 61.2481 108.974C58.8971 107.815 57.3244 110.738 55.164 110.102C54.4969 109.912 54.0044 108.625 53.4325 108.641C50.0013 108.704 46.5384 108.72 43.6314 111.103C42.3765 112.135 40.2637 112.358 40.1684 114.423C40.0096 117.616 40.0413 120.825 40.0572 124.018C40.0731 126.956 40.1049 126.956 41.7887 127.56C41.884 127.592 41.9078 127.833 41.9554 127.976C39.9539 130.089 37.9604 132.198 35.9588 134.295C34.2274 136.233 32.4959 138.155 30.7644 140.078Z" fill="#6E5EA6" stroke="#6E5EA6" stroke-width="0.227533"/>
<path d="M41.9473 127.989C41.8996 127.846 41.8837 127.607 41.7884 127.576C40.1046 126.972 40.0728 126.988 40.0569 124.033C40.041 120.84 40.0252 117.632 40.1681 114.439C40.2634 112.374 42.3762 112.151 43.6311 111.119C46.5381 108.736 50.001 108.704 53.4322 108.656C53.9882 108.641 54.4966 109.927 55.1637 110.118C57.3241 110.753 58.8968 107.83 61.2478 108.99C63.424 110.07 65.9657 107.989 68.1102 109.705C68.4279 109.959 68.9044 110.15 69.3174 110.166C71.2554 110.213 73.1775 110.197 75.1155 110.181C78.0225 110.166 81.4061 111.516 80.7706 105.892C80.1988 100.889 81.1519 95.6624 78.9597 90.9127C78.1337 89.1177 76.4658 88.4346 74.0512 89.5942C70.4453 91.3416 66.3469 92.4694 62.5821 90.2773C61.6131 89.7054 61.0889 89.07 59.9769 89.483C60.6282 87.5133 61.2776 85.5135 61.9289 83.5437C62.0401 83.5119 62.1546 83.4942 62.2658 83.4624C65.0298 83.6848 67.9026 82.9343 70.5236 84.4434C71.159 84.5387 71.7988 84.6516 72.4342 84.7469C72.8631 85.4776 81.1562 85.7227 81.9374 85.0546C82.5728 84.6257 83.2349 84.1662 83.8703 83.7373C85.3635 92.7442 84.9961 101.905 85.4727 110.976C82.6769 111.818 80.0717 113.057 77.8478 114.995C75.1791 114.883 72.4468 115.042 69.8416 114.582C66.1245 113.93 63.2652 115.535 60.39 117.362C59.1986 118.108 57.896 118.299 56.6411 117.933C52.3362 116.71 48.4125 119.331 48.6349 123.684C48.7938 126.607 48.4125 128.338 44.9178 127.353C44.203 127.147 43.3293 127.48 42.535 127.56C42.3444 127.687 42.1379 127.83 41.9473 127.989Z" fill="#797AAA" stroke="#797AAA" stroke-width="0.227533"/>
<path d="M42.5508 127.544C43.345 127.464 44.2187 127.131 44.9336 127.337C48.4442 128.322 48.8095 126.606 48.6507 123.668C48.4283 119.315 52.3361 116.694 56.6568 117.917C57.9118 118.282 59.2143 118.092 60.4057 117.345C63.281 115.534 66.1403 113.914 69.8574 114.565C72.4626 115.026 75.1948 114.867 77.8636 114.978C76.275 116.122 74.6706 117.282 73.0821 118.425C72.5261 118.759 71.986 119.093 71.4301 119.41C69.9686 119.379 69.9845 121.285 69.3332 121.444C66.0291 122.286 64.6789 125.399 62.1849 127.115C61.9307 126.654 61.756 126.527 61.1523 126.86C60.2151 127.369 59.1349 127.829 58.0865 127.877C53.2892 128.084 48.5077 128.147 43.7104 128.195C43.3133 128.211 42.932 127.766 42.5508 127.544Z" fill="#A29EA1" stroke="#A29EA1" stroke-width="0.227533"/>
<path d="M95.8939 98.7122C100.215 99.0617 103.995 97.6638 107.268 94.9156C108.237 94.1055 109.285 94.4073 110.334 94.2802C111.509 94.1372 112.955 94.9156 113.765 93.3748C113.971 95.1539 114.607 97.0125 114.257 98.6645C113.908 100.269 111.906 99.4429 110.667 99.6494C108.427 100.031 106.902 101.238 105.441 102.874C104.551 103.859 103.106 104.304 102.041 105.13C98.1496 108.164 93.5429 105.177 89.4922 106.718C91.6049 104.05 93.7494 101.381 95.8939 98.7122Z" fill="#F8B570"/>
<path d="M42.5515 127.544C42.9417 127.775 43.328 128.209 43.7093 128.193C48.5066 128.13 53.3039 128.067 58.0854 127.877C59.1338 127.829 60.211 127.373 61.1482 126.849C61.7519 126.515 61.9505 126.645 62.2046 127.106C62.1093 127.233 62.0108 127.369 61.9155 127.497C60.4223 129.133 58.945 130.785 57.4518 132.421C57.007 133.025 56.4669 133.565 56.1651 134.232C55.2914 136.17 55.1484 133.866 54.4177 133.898C48.2702 134.2 42.0948 134.21 35.9473 134.306C37.9488 132.193 39.9405 130.084 41.9421 127.987C42.1327 127.828 42.345 127.687 42.5515 127.544Z" fill="#B59259" stroke="#B59259" stroke-width="0.227533"/>
<path d="M57.4503 132.404C58.9435 130.768 60.4208 129.116 61.914 127.48C64.0426 128.576 65.647 126.654 67.5691 126.463C69.3324 126.289 71.6993 126.543 71.1751 123.366C70.9686 122.095 71.318 120.745 71.4134 119.426C71.9693 119.093 72.5094 118.759 73.0654 118.441C73.0495 120.03 72.7954 121.666 73.0336 123.223C73.5896 126.892 70.5238 128.481 68.4746 129.688C65.9171 131.197 66.346 133.072 66.0918 135.073C66.0124 135.693 66.0918 136.344 66.0759 136.979C66.0601 137.678 65.9965 138.377 65.9647 139.06C65.4564 138.218 64.9799 137.345 64.4239 136.535C63.7885 135.597 63.2325 134.152 62.3906 133.945C61.1039 133.628 59.7854 132.246 58.2445 133.469C58.0221 133.644 57.6568 134.628 57.1643 133.755C57.0373 133.437 57.355 132.865 57.4503 132.404Z" fill="#F8B570"/>
<path d="M61.9309 83.5418C61.2796 85.5115 60.6442 87.4972 59.9929 89.4669C59.9135 89.4828 59.8181 89.4987 59.7387 89.5305C50.0011 90.6583 40.2476 90.1818 30.4941 89.8323C29.8428 86.5123 30.9865 85.4003 34.5289 85.6386C40.0411 86.0199 45.6327 86.0834 51.0336 84.6855C52.2568 84.3678 54.1313 84.2884 54.7031 82.5092C54.719 82.4616 54.8461 82.4298 54.8461 82.4298C56.7682 85.6386 59.5958 83.097 61.9309 83.5418Z" fill="#A29EA1" stroke="#A29EA1" stroke-width="0.227533"/>
<path d="M81.9469 85.0508C81.2638 85.7498 72.8764 85.4797 72.4316 84.749C75.6087 84.8443 78.7857 84.9555 81.9469 85.0508Z" fill="#7D89C1" stroke="#7D89C1" stroke-width="0.227533"/>
<path d="M72.4297 84.7496C71.7943 84.6543 71.1588 84.5431 70.5234 84.4478C71.1588 84.5431 71.7943 84.6543 72.4297 84.7496Z" fill="#7D89C1"/>
</g>
</svg>
