<svg width="178" height="47" viewBox="0 0 178 47" fill="none" xmlns="http://www.w3.org/2000/svg">
<mask id="mask0_2517_40950" style="mask-type:alpha" maskUnits="userSpaceOnUse" x="0" y="0" width="177" height="47">
<path d="M40.4864 1.30736C40.7357 1.63346 40.8892 1.88282 40.9467 2.05546C40.9659 2.11301 40.9755 2.18015 40.9755 2.25688C40.9755 2.37197 40.9467 2.49665 40.8892 2.63093C40.8316 2.80357 40.7549 2.9858 40.659 3.17762C40.5631 3.36944 40.4672 3.53249 40.3713 3.66676C40.2754 3.82022 40.1699 4.00245 40.0548 4.21346C39.9397 4.40528 39.8534 4.58751 39.7958 4.76015C39.7191 4.91361 39.6423 5.04788 39.5656 5.16297C39.5081 5.27807 39.4601 5.33561 39.4218 5.33561C39.3834 5.33561 39.2971 5.43152 39.1628 5.62334C39.0285 5.79598 38.8847 6.00699 38.7312 6.25636C38.5777 6.52491 38.4339 6.77427 38.2996 7.00446C38.1653 7.23465 38.0694 7.39769 38.0119 7.49361C37.9543 7.57033 37.8776 7.7142 37.7817 7.9252C37.705 8.11703 37.6186 8.31844 37.5227 8.52944C37.4268 8.75963 37.3213 8.97063 37.2062 9.16245C37.1103 9.35427 37.024 9.48855 36.9473 9.56528C36.8705 9.64201 36.7842 9.79546 36.6883 10.0257C36.6116 10.2558 36.5348 10.4956 36.4581 10.745C36.3814 11.0135 36.3047 11.2437 36.2279 11.4355C36.1512 11.6274 36.0841 11.7329 36.0265 11.752C35.969 11.7712 35.921 11.8096 35.8826 11.8671C35.8635 11.9247 35.8539 11.9822 35.8539 12.0398C35.8539 12.1932 35.6525 12.7303 35.2496 13.6511C34.866 14.5526 34.396 15.5789 33.8397 16.7298C33.5904 17.2477 33.3794 17.7081 33.2067 18.1109C33.0533 18.4946 32.9765 18.7056 32.9765 18.7439C32.9765 18.8015 32.9094 18.9741 32.7751 19.2619C32.66 19.5304 32.5162 19.8277 32.3435 20.1538C32.0558 20.7101 31.7681 21.2952 31.4803 21.909C31.1926 22.5228 30.9528 23.0599 30.761 23.5203C30.5692 23.9807 30.4733 24.2492 30.4733 24.3259C30.4733 24.3643 30.5021 24.4219 30.5596 24.4986C30.6171 24.5753 30.6843 24.6329 30.761 24.6712C30.8953 24.748 30.9624 24.8151 30.9624 24.8726C30.9816 24.911 30.9432 24.959 30.8473 25.0165C30.7514 25.0741 30.7035 25.1316 30.7035 25.1891C30.7035 25.2275 30.7322 25.2659 30.7898 25.3042C30.9241 25.4002 30.9912 25.4865 30.9912 25.5632C30.9912 25.6591 30.8761 25.755 30.6459 25.8509C30.55 25.8893 30.4637 25.9468 30.387 26.0236C30.3102 26.1003 30.2719 26.177 30.2719 26.2538C30.2719 26.3688 30.2239 26.4264 30.128 26.4264C30.0705 26.4264 30.0129 26.4168 29.9554 26.3976C29.917 26.3784 29.8786 26.3688 29.8403 26.3688C29.7444 26.3688 29.6389 26.436 29.5238 26.5703C29.4278 26.6854 29.2744 26.9731 29.0634 27.4335C28.9099 27.7404 28.7661 28.0473 28.6318 28.3542C28.5167 28.6419 28.44 28.8529 28.4016 28.9872C28.3632 29.1215 28.3153 29.2462 28.2577 29.3613C28.2002 29.4764 28.1522 29.5627 28.1139 29.6202C28.0755 29.697 27.9604 29.9655 27.7686 30.4259C27.5768 30.8862 27.3466 31.4329 27.078 32.066C26.8287 32.699 26.5889 33.284 26.3587 33.8211C26.1477 34.3582 25.9942 34.7131 25.8983 34.8857C25.8216 35.0392 25.7545 35.2118 25.6969 35.4036C25.6394 35.5763 25.6106 35.7106 25.6106 35.8065C25.6106 35.9024 25.5914 36.0175 25.5531 36.1517C25.5339 36.286 25.5051 36.4011 25.4667 36.497C25.4092 36.5929 25.3133 36.7848 25.179 37.0725C25.0639 37.3602 24.9296 37.6767 24.7762 38.022C24.5268 38.6358 24.3446 38.9715 24.2295 39.0291H24.2007C24.1815 39.0291 24.1719 39.0099 24.1719 38.9715C24.1719 38.8756 24.2295 38.6454 24.3446 38.281C24.4213 38.0316 24.4597 37.8398 24.4597 37.7055V37.648L24.4309 37.5904C24.3925 37.5904 24.335 37.6863 24.2583 37.8781C24.2199 37.9741 24.1528 38.0796 24.0568 38.1946C23.9801 38.3097 23.9034 38.4152 23.8267 38.5112C23.7307 38.6071 23.6348 38.7126 23.5389 38.8277C23.443 38.9428 23.3663 39.0483 23.3087 39.1442C23.232 39.2784 23.1745 39.3456 23.1361 39.3456C23.1169 39.3456 23.0881 39.3456 23.0498 39.3456C23.0306 39.3456 22.9347 39.2401 22.762 39.0291C22.6086 38.8756 22.5127 38.7126 22.4743 38.5399C22.436 38.444 22.4168 38.3385 22.4168 38.2234C22.4168 38.1467 22.4264 38.0604 22.4455 37.9645V37.7631C22.4455 37.6288 22.4264 37.4753 22.388 37.3027C22.3688 37.13 22.3305 36.967 22.2729 36.8135C22.1578 36.6217 22.1003 36.4587 22.1003 36.3244C22.1003 36.2285 22.1386 36.1517 22.2154 36.0942C22.2537 36.0175 22.2825 35.9312 22.3017 35.8352L22.3305 35.6914L22.3017 35.5763C22.2825 35.5187 22.2729 35.4708 22.2729 35.4324C22.2729 35.3173 22.34 35.231 22.4743 35.1735C22.551 35.1351 22.6086 35.0967 22.647 35.0584C22.6661 35.02 22.6757 34.9816 22.6757 34.9433V34.9145C22.6565 34.8953 22.647 34.8761 22.647 34.857C22.647 34.8186 22.6565 34.7898 22.6757 34.7706C22.7141 34.7323 22.7716 34.6939 22.8484 34.6555C22.9251 34.6364 22.9826 34.5884 23.021 34.5117C23.0786 34.4158 23.1073 34.3199 23.1073 34.2239C23.1073 34.1472 23.1265 34.0609 23.1649 33.965C23.2032 33.8499 23.2512 33.7636 23.3087 33.706C23.3855 33.6101 23.4718 33.3895 23.5677 33.0442C23.6828 32.6798 23.7691 32.3153 23.8267 31.9509C23.8842 31.7015 23.913 31.5097 23.913 31.3754C23.913 31.3178 23.9034 31.2699 23.8842 31.2315V31.2028C23.8842 31.1452 23.913 31.0589 23.9705 30.9438C24.0281 30.8287 24.1144 30.7136 24.2295 30.5985C24.4021 30.4067 24.5652 30.1669 24.7186 29.8792C24.8913 29.5723 25.0255 29.2845 25.1215 29.016C25.179 28.8433 25.2078 28.7091 25.2078 28.6132C25.2078 28.5556 25.1982 28.5077 25.179 28.4693C25.1598 28.4309 25.1502 28.3926 25.1502 28.3542V28.3254C25.1694 28.2871 25.2174 28.2679 25.2941 28.2679C25.3708 28.2679 25.4092 28.2487 25.4092 28.2103C25.4092 28.1912 25.3996 28.172 25.3804 28.1528C25.3612 28.1336 25.3516 28.1048 25.3516 28.0665C25.3516 28.0473 25.3516 28.0185 25.3516 27.9802C25.3708 27.9226 25.4092 27.8651 25.4667 27.8075C25.5435 27.7116 25.5818 27.6253 25.5818 27.5486C25.5818 27.4718 25.5531 27.4047 25.4955 27.3471C25.3996 27.2704 25.2557 27.2129 25.0639 27.1745H24.8913C24.7762 27.1745 24.6419 27.1841 24.4884 27.2033C24.3542 27.2225 24.2583 27.28 24.2007 27.3759C24.1623 27.4335 24.0473 27.4814 23.8554 27.5198C23.7212 27.539 23.5773 27.5486 23.4238 27.5486H23.1936C22.9251 27.5486 22.647 27.5581 22.3592 27.5773C22.0907 27.5965 21.8605 27.6253 21.6687 27.6636C21.496 27.6828 21.2371 27.7116 20.8918 27.75C20.5465 27.7883 20.2012 27.8075 19.856 27.8075C18.7626 27.8651 18.0241 27.9514 17.6404 28.0665C17.3143 28.1816 17.1513 28.3446 17.1513 28.5556C17.1513 28.594 17.1609 28.6323 17.18 28.6707C17.18 28.7091 17.1609 28.7378 17.1225 28.757C17.0841 28.7762 17.0362 28.7858 16.9786 28.7858H16.9499C16.8923 28.7858 16.8444 28.8146 16.806 28.8721C16.7676 28.9297 16.7389 29.016 16.7197 29.1311C16.7005 29.3229 16.6429 29.5243 16.547 29.7353C16.4511 29.9271 16.336 30.0902 16.2018 30.2245C16.0867 30.3204 15.9812 30.3683 15.8852 30.3683H15.7989C15.703 30.3683 15.5783 30.4259 15.4249 30.541C15.2906 30.6561 15.1659 30.7903 15.0508 30.9438C14.9741 31.0781 14.9357 31.1836 14.9357 31.2603V31.3466C14.9357 31.385 14.907 31.4329 14.8494 31.4905C14.7919 31.548 14.7055 31.6152 14.5905 31.6919C14.3411 31.807 14.2164 31.9509 14.2164 32.1235C14.2164 32.181 14.226 32.229 14.2452 32.2674C14.2644 32.3441 14.2644 32.4208 14.2452 32.4975C14.2452 32.5551 14.2164 32.5839 14.1589 32.5839C14.1013 32.5839 14.0534 32.6126 14.015 32.6702C13.9766 32.7086 13.9574 32.7661 13.9574 32.8428C13.9574 32.9196 13.9287 32.9867 13.8711 33.0442C13.8328 33.1018 13.7752 33.1306 13.6985 33.1306C13.6218 33.1306 13.5546 33.1689 13.4971 33.2457C13.4587 33.3032 13.4395 33.3799 13.4395 33.4758C13.4395 33.5718 13.4203 33.6581 13.382 33.7348C13.3436 33.8115 13.2957 33.8499 13.2381 33.8499C13.1806 33.8499 13.1134 33.8691 13.0367 33.9074C12.96 33.9458 12.8832 33.9938 12.8065 34.0513C12.7298 34.128 12.6339 34.2144 12.5188 34.3103C12.4037 34.387 12.2982 34.4637 12.2023 34.5404C12.0872 34.6172 11.9913 34.7131 11.9145 34.8282C11.8378 34.9433 11.7994 35.0392 11.7994 35.1159C11.7994 35.2118 11.7707 35.3173 11.7131 35.4324C11.6556 35.5283 11.5789 35.6051 11.4829 35.6626C11.387 35.7393 11.224 35.9216 10.9938 36.2093C10.7636 36.497 10.5142 36.8231 10.2457 37.1876C9.99632 37.5329 9.77573 37.8494 9.58391 38.1371C9.39209 38.4248 9.29618 38.6071 9.29618 38.6838C9.29618 38.7222 9.27699 38.7509 9.23863 38.7701H9.18108C9.14272 38.7701 9.09476 38.7605 9.03722 38.7413H8.9509C8.81662 38.7413 8.69194 38.8756 8.57684 39.1442C8.5193 39.2784 8.44257 39.4223 8.34666 39.5758C8.25075 39.71 8.14525 39.8155 8.03015 39.8923C7.93424 39.969 7.84792 40.0553 7.77119 40.1512C7.71365 40.2471 7.68487 40.3239 7.68487 40.3814C7.68487 40.4581 7.53142 40.6787 7.2245 41.0432C6.91759 41.3885 6.53394 41.7913 6.07357 42.2517C5.63238 42.712 5.23915 43.1436 4.89387 43.5465C4.52941 43.9493 4.29922 44.2274 4.20331 44.3809C4.06904 44.6303 3.90599 44.8509 3.71417 45.0427C3.52235 45.2537 3.34011 45.3975 3.16748 45.4743C3.09075 45.5126 3.0332 45.5318 2.99484 45.5318C2.91811 45.5318 2.86056 45.5031 2.8222 45.4455C2.80301 45.388 2.76465 45.3592 2.7071 45.3592C2.59201 45.3592 2.40978 45.4839 2.16041 45.7332C1.87268 46.0401 1.67127 46.1936 1.55617 46.1936C1.46026 46.1936 1.41231 46.1073 1.41231 45.9347C1.41231 45.8579 1.40272 45.7908 1.38353 45.7332C1.34517 45.6949 1.29722 45.6757 1.23967 45.6757C1.16294 45.6757 1.08621 45.5606 1.00948 45.3304C0.913572 45.1194 0.846434 44.8988 0.80807 44.6686C0.788888 44.5727 0.779297 44.4864 0.779297 44.4097C0.779297 44.3138 0.798479 44.2274 0.836843 44.1507C1.02866 43.8438 1.45067 43.3067 2.10287 42.5394C2.75506 41.7721 3.40725 41.0336 4.05945 40.3239C4.23209 40.1512 4.37595 39.9978 4.49104 39.8635C4.58696 39.71 4.63491 39.6141 4.63491 39.5758C4.63491 39.5566 4.70205 39.4799 4.83632 39.3456C4.95142 39.1921 5.09528 39.0291 5.26792 38.8564C5.44056 38.6838 5.58443 38.5207 5.69952 38.3673C5.81461 38.1946 5.88175 38.0796 5.90093 38.022C5.90093 37.9261 5.99684 37.7631 6.18867 37.5329C6.39967 37.2835 6.62026 37.0533 6.85045 36.8423C7.08064 36.6313 7.23409 36.5258 7.31082 36.5258C7.34919 36.5258 7.39714 36.497 7.45469 36.4395C7.51223 36.3819 7.5506 36.3148 7.56978 36.2381C7.60815 36.1613 7.6561 36.1038 7.71365 36.0654L7.77119 36.0367L7.85751 36.0654H7.88629C7.90547 36.0654 7.92465 36.0558 7.94383 36.0367V35.9791C7.94383 35.9216 7.93424 35.864 7.91506 35.8065V35.7201C7.91506 35.49 8.20279 35.0584 8.77826 34.4254C9.02763 34.1376 9.2674 33.8787 9.49759 33.6485C9.74696 33.4183 9.92919 33.2744 10.0443 33.2169C10.1402 33.1785 10.2361 33.0922 10.332 32.9579C10.4279 32.8045 10.5047 32.6414 10.5622 32.4688C10.6197 32.2961 10.6869 32.1619 10.7636 32.066C10.8403 31.9509 10.9075 31.8933 10.965 31.8933H11.0226C11.1568 31.8933 11.3103 31.8262 11.4829 31.6919C11.6556 31.5576 11.809 31.3946 11.9433 31.2028C12.0392 31.0493 12.0872 30.915 12.0872 30.7999V30.6848C12.068 30.6273 12.0584 30.5793 12.0584 30.541C12.0584 30.3491 12.1543 30.1957 12.3461 30.0806C12.4612 30.0039 12.5476 29.9175 12.6051 29.8216C12.6818 29.7257 12.7202 29.649 12.7202 29.5915C12.7202 29.5339 12.7586 29.4572 12.8353 29.3613C12.9312 29.2462 13.0367 29.1311 13.1518 29.016C13.382 28.8625 13.4971 28.757 13.4971 28.6995V28.6707C13.4971 28.6323 13.4203 28.594 13.2669 28.5556C13.1518 28.5173 13.0463 28.4981 12.9504 28.4981C12.8353 28.4981 12.749 28.5173 12.6914 28.5556C12.6339 28.594 12.5476 28.6323 12.4325 28.6707C12.3365 28.6899 12.231 28.7091 12.116 28.7283C11.6364 28.805 11.0609 28.9201 10.3896 29.0735C9.71818 29.2078 9.1619 29.3421 8.72071 29.4764C8.20279 29.6298 7.79997 29.7065 7.51223 29.7065C7.26287 29.7065 7.10941 29.649 7.05186 29.5339C7.03268 29.4764 6.97513 29.438 6.87922 29.4188C6.80249 29.3804 6.71617 29.3613 6.62026 29.3613C6.50517 29.3613 6.3613 29.2941 6.18867 29.1599C6.01603 29.0064 5.86257 28.8433 5.72829 28.6707C5.59402 28.4981 5.52688 28.3542 5.52688 28.2391C5.52688 28.2007 5.56525 28.1528 5.64197 28.0952C5.7187 28.0377 5.80502 27.9993 5.90093 27.9802C6.01603 27.9418 6.11194 27.8938 6.18867 27.8363C6.22703 27.7787 6.24621 27.7308 6.24621 27.6924C6.24621 27.6732 6.24621 27.6445 6.24621 27.6061C6.24621 27.5677 6.18867 27.5486 6.07357 27.5486C5.9393 27.5486 5.87216 27.5294 5.87216 27.491C5.87216 27.4718 5.87216 27.4526 5.87216 27.4335C5.87216 27.3951 5.9393 27.3375 6.07357 27.2608C6.22703 27.1841 6.41885 27.117 6.64904 27.0594C6.87922 27.0019 7.14777 26.9347 7.45469 26.858C7.7616 26.7813 8.04933 26.7141 8.31788 26.6566C8.58643 26.599 8.92212 26.5319 9.32495 26.4552C9.72777 26.3593 10.1114 26.2825 10.4759 26.225C11.9529 25.9564 13.1038 25.7454 13.9287 25.592C14.7535 25.4193 15.3481 25.2851 15.7126 25.1891C16.0962 25.0932 16.3552 24.9973 16.4895 24.9014C16.6046 24.8247 16.7197 24.7671 16.8348 24.7288C16.9499 24.6712 17.0266 24.6425 17.0649 24.6425H17.0937C17.1129 24.6425 17.1321 24.6233 17.1513 24.5849C17.1705 24.5274 17.18 24.4506 17.18 24.3547C17.18 24.2588 17.2184 24.1533 17.2951 24.0382C17.391 23.9231 17.5061 23.8176 17.6404 23.7217C17.7747 23.645 17.8706 23.5683 17.9281 23.4915C18.0049 23.3956 18.0432 23.3285 18.0432 23.2901V23.2613C18.0432 23.1654 18.1008 23.0216 18.2159 22.8297C18.3502 22.6379 18.5036 22.4557 18.6763 22.283C18.8489 22.0912 18.9736 21.9953 19.0503 21.9953C19.1654 21.9953 19.2709 21.9282 19.3668 21.7939C19.4819 21.6596 19.5586 21.487 19.597 21.276C19.6162 21.2568 19.6449 21.1993 19.6833 21.1033C19.7409 21.0074 19.7984 20.9019 19.856 20.7868C19.971 20.595 20.1053 20.3936 20.2588 20.1826C20.4314 19.9716 20.7 19.6551 21.0644 19.2331C21.1795 19.0988 21.2754 18.9741 21.3522 18.859C21.4481 18.7248 21.496 18.6384 21.496 18.6001C21.496 18.5425 21.5248 18.5042 21.5823 18.485C21.6591 18.4466 21.7454 18.4274 21.8413 18.4274C22.0523 18.4274 22.1962 18.2548 22.2729 17.9095C22.3113 17.7561 22.4264 17.5451 22.6182 17.2765C22.8292 16.9888 23.0786 16.701 23.3663 16.4133C23.654 16.1256 23.8938 15.8666 24.0856 15.6364C24.2774 15.4062 24.3734 15.2624 24.3734 15.2048C24.3734 15.1473 24.4021 15.0801 24.4597 15.0034C24.5364 14.9267 24.6227 14.8596 24.7186 14.802C24.8145 14.7253 24.9009 14.6486 24.9776 14.5718C25.0543 14.4759 25.0927 14.3992 25.0927 14.3416C25.0927 14.2841 25.1406 14.1978 25.2365 14.0827C25.3516 13.9484 25.4859 13.8237 25.6394 13.7086C25.7928 13.5935 25.9463 13.4497 26.0997 13.277C26.2532 13.1044 26.3683 12.9509 26.445 12.8167C26.5218 12.6632 26.6273 12.5193 26.7615 12.3851C26.8958 12.2508 27.0301 12.1549 27.1644 12.0973C27.2794 12.0398 27.3754 11.9726 27.4521 11.8959C27.548 11.8192 27.596 11.752 27.596 11.6945C27.596 11.4259 28.3345 10.4764 29.8115 8.84595C30.4829 8.09784 31.0008 7.52238 31.3652 7.11955C31.7489 6.69755 32.027 6.38104 32.1997 6.17004C32.3915 5.95903 32.5641 5.76721 32.7176 5.59457C32.9478 5.30684 33.341 4.87524 33.8973 4.29978C34.4728 3.70513 35.029 3.13926 35.5661 2.60216C36.1224 2.04587 36.4773 1.70059 36.6307 1.56632C36.7842 1.47041 37.0623 1.34572 37.4652 1.19227C37.8872 1.01963 38.3092 0.86617 38.7312 0.731895C39.1532 0.578438 39.4409 0.501709 39.5944 0.501709C39.6903 0.501709 39.815 0.578438 39.9684 0.731895C40.1411 0.885352 40.3137 1.07717 40.4864 1.30736ZM27.6823 29.7065C27.7015 29.6874 27.711 29.6586 27.711 29.6202V29.5915C27.6919 29.5531 27.6535 29.5339 27.596 29.5339C27.5576 29.5339 27.5192 29.5531 27.4809 29.5915C27.4425 29.6298 27.4233 29.6682 27.4233 29.7065C27.4233 29.7641 27.4233 29.812 27.4233 29.8504C27.4425 29.8696 27.4617 29.8792 27.4809 29.8792C27.5192 29.8792 27.548 29.8696 27.5672 29.8504C27.6055 29.812 27.6439 29.7641 27.6823 29.7065ZM32.027 12.7016C32.0846 12.6248 32.1229 12.4042 32.1421 12.0398V11.637C32.1421 11.3876 32.1325 11.119 32.1134 10.8313C32.0942 10.697 32.0654 10.6299 32.027 10.6299H31.9983C31.9407 10.6299 31.8448 10.6683 31.7105 10.745C31.6146 10.8217 31.5283 10.908 31.4516 11.0039C31.394 11.0807 31.3652 11.1478 31.3652 11.2054C31.3652 11.2629 31.3269 11.3396 31.2502 11.4355C31.1734 11.5123 31.0775 11.5698 30.9624 11.6082C30.7706 11.7041 30.55 11.8959 30.3006 12.1836C30.0513 12.4522 29.8403 12.7303 29.6676 13.0181C29.5334 13.2291 29.4662 13.3921 29.4662 13.5072V13.5648C29.4854 13.5839 29.495 13.6127 29.495 13.6511C29.495 13.6703 29.4854 13.699 29.4662 13.7374C29.447 13.7566 29.3991 13.7662 29.3223 13.7662C29.1881 13.7662 29.1209 13.8141 29.1209 13.91C29.1209 13.9484 29.1305 13.9868 29.1497 14.0251C29.1689 14.0827 29.1785 14.1306 29.1785 14.169C29.1785 14.2074 29.1593 14.2265 29.1209 14.2265C29.0826 14.2265 29.0346 14.217 28.9771 14.1978H28.8907C28.7373 14.1978 28.5742 14.3225 28.4016 14.5718C28.3057 14.7253 28.181 14.8883 28.0276 15.061C27.8933 15.2144 27.7686 15.3583 27.6535 15.4926C27.5192 15.6077 27.4233 15.7228 27.3658 15.8378C27.3274 15.9146 27.3082 15.9721 27.3082 16.0105V16.068C27.3274 16.1064 27.337 16.1448 27.337 16.1831V16.2119C27.3178 16.2503 27.2794 16.2694 27.2219 16.2694C27.1068 16.2694 26.9246 16.3941 26.6752 16.6435C26.445 16.8929 26.2244 17.171 26.0134 17.4779C25.8024 17.7657 25.6969 17.9767 25.6969 18.1109C25.6969 18.2836 25.6298 18.4274 25.4955 18.5425C25.3804 18.6384 25.1215 18.7727 24.7186 18.9454C24.6419 18.9837 24.5748 19.0509 24.5172 19.1468C24.4789 19.2427 24.4597 19.3386 24.4597 19.4345C24.4405 19.588 24.3925 19.7414 24.3158 19.8949C24.2583 20.0291 24.1719 20.1442 24.0568 20.2401C23.9993 20.2977 23.9418 20.3265 23.8842 20.3265C23.8458 20.3265 23.8171 20.3169 23.7979 20.2977C23.7787 20.2785 23.7595 20.2689 23.7403 20.2689C23.7212 20.2689 23.7116 20.2881 23.7116 20.3265L23.7403 20.4416V20.4991C23.7403 20.5567 23.7116 20.6334 23.654 20.7293C23.6157 20.8252 23.5389 20.9211 23.4238 21.017L23.1649 21.2472C23.1649 21.228 23.2032 21.1705 23.28 21.0746C23.3567 20.9595 23.3951 20.8732 23.3951 20.8156C23.3951 20.7773 23.3759 20.7581 23.3375 20.7581H23.3087C23.2128 20.7581 23.0881 20.8348 22.9347 20.9883C22.858 21.065 22.8196 21.1417 22.8196 21.2184C22.8196 21.276 22.858 21.3239 22.9347 21.3623C22.9922 21.4199 23.021 21.487 23.021 21.5637C23.021 21.5829 23.0114 21.6213 22.9922 21.6788C22.9731 21.7364 22.9059 21.7939 22.7908 21.8514C22.7333 21.8898 22.6757 21.909 22.6182 21.909C22.5606 21.909 22.5127 21.8994 22.4743 21.8802H22.4168C22.3784 21.8802 22.3209 21.909 22.2441 21.9665C22.1674 22.0049 22.1003 22.072 22.0427 22.168C21.966 22.283 21.9276 22.3694 21.9276 22.4269C21.9276 22.5036 21.9756 22.542 22.0715 22.542C22.1099 22.542 22.129 22.5612 22.129 22.5996C22.129 22.6571 22.0523 22.7722 21.8989 22.9448C21.8029 23.0599 21.6974 23.1942 21.5823 23.3477C21.4864 23.5011 21.4097 23.6354 21.3522 23.7505C21.2754 23.8464 21.1795 23.9423 21.0644 24.0382C20.9685 24.1149 20.863 24.1629 20.7479 24.1821C20.6328 24.2013 20.5273 24.2396 20.4314 24.2972C20.3547 24.3547 20.3067 24.4219 20.2876 24.4986C20.2684 24.5178 20.2588 24.537 20.2588 24.5561C20.2588 24.6137 20.3355 24.652 20.489 24.6712H20.6616C20.8534 24.6712 21.1412 24.652 21.5248 24.6137C21.9084 24.5945 22.4168 24.5753 23.0498 24.5561C23.702 24.5178 24.335 24.489 24.9488 24.4698C25.4476 24.4506 25.8408 24.441 26.1285 24.441C26.4163 24.4219 26.6273 24.4027 26.7615 24.3835C26.8958 24.3451 26.9725 24.2972 26.9917 24.2396C27.0301 24.1821 27.0493 24.1054 27.0493 24.0094C27.0493 23.8944 27.0589 23.7984 27.078 23.7217C27.1164 23.645 27.1644 23.6066 27.2219 23.6066C27.2986 23.6066 27.3849 23.5011 27.4809 23.2901C27.5768 23.0599 27.6439 22.8106 27.6823 22.542C27.6823 22.4653 27.6919 22.379 27.711 22.283C27.7494 22.168 27.7878 22.072 27.8261 21.9953C27.8453 21.9186 27.8741 21.8131 27.9125 21.6788C27.9508 21.5254 27.9892 21.3719 28.0276 21.2184C28.0851 20.9307 28.181 20.7868 28.3153 20.7868C28.3345 20.7868 28.3632 20.7964 28.4016 20.8156L28.4879 20.8444C28.5647 20.8444 28.6414 20.806 28.7181 20.7293C28.814 20.6526 28.8812 20.5375 28.9195 20.384C28.9579 20.3073 28.9771 20.2401 28.9771 20.1826C28.9771 20.1059 28.9579 20.0387 28.9195 19.9812V19.8661C28.9195 19.8277 28.9195 19.7798 28.9195 19.7222C28.9387 19.6647 28.9675 19.6167 29.0058 19.5784C29.0634 19.5592 29.1113 19.492 29.1497 19.377C29.1881 19.2619 29.2073 19.1468 29.2073 19.0317C29.2073 18.9166 29.236 18.7919 29.2936 18.6576C29.3703 18.5042 29.4566 18.3795 29.5525 18.2836C29.6676 18.1877 29.7539 18.0822 29.8115 17.9671C29.8882 17.852 29.9266 17.7561 29.9266 17.6793C29.9266 17.6026 29.9745 17.4779 30.0705 17.3053C30.1855 17.1326 30.3198 16.96 30.4733 16.7874C30.6843 16.5764 30.8281 16.3749 30.9049 16.1831C30.9432 16.0488 30.9624 15.8858 30.9624 15.694V15.2912C30.9624 14.9267 31.0583 14.6773 31.2502 14.543C31.3461 14.4663 31.4132 14.3992 31.4516 14.3416C31.4899 14.3033 31.5091 14.2649 31.5091 14.2265C31.5091 14.2074 31.4995 14.1882 31.4803 14.169C31.4612 14.1498 31.4516 14.121 31.4516 14.0827C31.4516 14.0635 31.4516 14.0347 31.4516 13.9964C31.4707 13.9388 31.5091 13.8717 31.5667 13.7949C31.6242 13.7182 31.6818 13.6223 31.7393 13.5072C31.7968 13.3921 31.8352 13.277 31.8544 13.1619C31.8736 13.0468 31.8928 12.9509 31.9119 12.8742C31.9503 12.7783 31.9887 12.7207 32.027 12.7016Z" fill="white"/>
<path d="M53.4343 36.5258V35.8928L53.1466 36.3819C53.0123 36.6505 52.8876 36.8039 52.7725 36.8423C52.6766 36.8615 52.5903 36.8711 52.5136 36.8711C52.3601 36.8711 52.1491 36.8135 51.8806 36.6984C51.5737 36.5833 51.3626 36.4395 51.2476 36.2668C51.1516 36.0942 51.1037 35.8065 51.1037 35.4036V35.2886C51.1037 34.9241 51.1996 34.7419 51.3914 34.7419C51.5065 34.7419 51.5737 34.6843 51.5928 34.5692C51.6312 34.4541 51.6504 34.3199 51.6504 34.1664C51.6504 33.9938 51.6408 33.7923 51.6216 33.5622C51.6024 33.3512 51.5928 33.1689 51.5928 33.0155C51.5928 32.5551 51.66 32.2961 51.7942 32.2386C51.871 32.2002 51.9093 32.1619 51.9093 32.1235C51.9285 32.066 51.9381 32.018 51.9381 31.9796C51.9381 31.9413 51.9285 31.9029 51.9093 31.8645C51.871 31.7686 51.8518 31.6535 51.8518 31.5193V31.3466C51.871 31.1164 51.9189 30.9054 51.9957 30.7136C52.0916 30.5218 52.1875 30.4259 52.2834 30.4259C52.4177 30.4259 52.4848 30.3587 52.4848 30.2245C52.4848 30.1669 52.4656 30.0902 52.4273 29.9943V29.6778C52.4464 29.5627 52.4752 29.4859 52.5136 29.4476C52.5711 29.4092 52.6191 29.3325 52.6574 29.2174C52.6958 29.1023 52.715 28.9776 52.715 28.8433C52.715 28.7091 52.7342 28.5652 52.7725 28.4117C52.8301 28.2391 52.8972 28.0952 52.9739 27.9802C53.0507 27.8651 53.1562 27.6636 53.2905 27.3759C53.4247 27.069 53.559 26.7429 53.6933 26.3976C53.8276 26.0523 53.9522 25.7454 54.0673 25.4769C54.1824 25.2083 54.2592 25.0453 54.2975 24.9877C54.3551 24.9302 54.403 24.8439 54.4414 24.7288C54.4989 24.6137 54.5373 24.4986 54.5565 24.3835C54.5948 24.2876 54.614 24.2109 54.614 24.1533C54.614 24.0958 54.5948 24.0574 54.5565 24.0382C54.4989 23.9999 54.3647 23.9807 54.1537 23.9807C53.8276 23.9807 53.5686 24.1245 53.3768 24.4123C53.2809 24.5465 53.1658 24.6616 53.0315 24.7575C52.9164 24.8343 52.8109 24.8726 52.715 24.8726C52.6191 24.8726 52.5136 24.911 52.3985 24.9877C52.2834 25.0645 52.1971 25.1508 52.1395 25.2467C52.0628 25.3618 51.8326 25.5824 51.449 25.9085C51.0653 26.2346 50.6241 26.5894 50.1254 26.9731C49.6075 27.3567 49.1279 27.7212 48.6867 28.0665C48.2455 28.4117 47.9386 28.6515 47.766 28.7858C47.5358 28.9584 47.3056 29.0831 47.0754 29.1599C46.8452 29.2366 46.6438 29.2749 46.4712 29.2749H46.3561C46.1835 29.2558 46.0971 29.1694 46.0971 29.016C46.0971 28.9009 46.078 28.8433 46.0396 28.8433C46.0012 28.8433 45.9437 28.8817 45.867 28.9584C45.771 29.0352 45.6655 29.0927 45.5505 29.1311C45.4545 29.1503 45.3682 29.1599 45.2915 29.1599H45.1764C45.0613 29.1407 45.0038 29.0927 45.0038 29.016C45.0038 28.9776 44.927 28.9105 44.7736 28.8146C44.6201 28.6995 44.4379 28.5844 44.2269 28.4693C43.8816 28.3158 43.661 28.1912 43.5651 28.0952C43.4884 27.9993 43.45 27.8842 43.45 27.75L43.4788 27.6061C43.4788 27.4526 43.4692 27.3184 43.45 27.2033C43.4308 27.069 43.3925 26.9635 43.3349 26.8868C43.2774 26.8292 43.2486 26.7813 43.2486 26.7429C43.2486 26.6854 43.2966 26.6566 43.3925 26.6566C43.4308 26.6566 43.45 26.6374 43.45 26.599C43.45 26.5223 43.3925 26.3976 43.2774 26.225C43.2006 26.0907 43.1143 25.9852 43.0184 25.9085C42.9417 25.8126 42.8745 25.7646 42.817 25.7646C42.7594 25.7646 42.6731 25.7262 42.558 25.6495C42.4621 25.5728 42.3566 25.4769 42.2415 25.3618C42.1264 25.2467 42.0018 25.1316 41.8675 25.0165C41.7332 24.9014 41.6181 24.8247 41.5222 24.7863C41.3687 24.7096 41.292 24.6425 41.292 24.5849C41.292 24.5274 41.292 24.489 41.292 24.4698C41.292 24.3547 41.3208 24.2013 41.3783 24.0094C41.4551 23.8176 41.4934 23.6833 41.4934 23.6066V23.5491C41.4742 23.4532 41.3975 23.386 41.2632 23.3477C41.1481 23.3093 41.0235 23.1846 40.8892 22.9736C40.7549 22.7626 40.6494 22.5516 40.5727 22.3406C40.5151 22.1104 40.4864 21.9186 40.4864 21.7651V21.65C40.5055 21.5925 40.5151 21.5541 40.5151 21.5349C40.5151 21.4966 40.5055 21.4774 40.4864 21.4774C40.448 21.4774 40.4 21.5062 40.3425 21.5637C40.285 21.6404 40.2082 21.7843 40.1123 21.9953C40.0356 22.2063 39.9684 22.4461 39.9109 22.7146C39.8342 22.9832 39.7478 23.2422 39.6519 23.4915C39.556 23.7409 39.4601 23.9327 39.3642 24.067C39.2875 24.2013 39.2203 24.3259 39.1628 24.441C39.1244 24.5561 39.1052 24.6425 39.1052 24.7C39.1052 24.7575 39.0765 24.863 39.0189 25.0165C38.9806 25.1508 38.923 25.3042 38.8463 25.4769C38.7696 25.6495 38.6641 25.8989 38.5298 26.225C38.4147 26.5511 38.2996 26.8772 38.1845 27.2033C38.0694 27.5486 37.9255 27.9322 37.7529 28.3542C37.5994 28.7762 37.446 29.1407 37.2925 29.4476C37.1583 29.7545 37.0144 30.0998 36.8609 30.4834C36.7075 30.8671 36.5924 31.1932 36.5157 31.4617C36.4389 31.7303 36.343 31.9988 36.2279 32.2674C36.132 32.5359 36.0457 32.7469 35.969 32.9004C35.8347 33.1689 35.6716 33.5046 35.4798 33.9074C35.3072 34.3103 35.1729 34.6651 35.077 34.972C35.0578 35.0488 35.0099 35.1159 34.9331 35.1735C34.8564 35.231 34.7893 35.2598 34.7317 35.2598C34.655 35.2598 34.5783 35.2886 34.5015 35.3461C34.444 35.4036 34.396 35.4708 34.3577 35.5475C34.3001 35.701 34.1946 35.7777 34.0412 35.7777C34.0028 35.7777 33.9548 35.7681 33.8973 35.7489H33.811C33.7534 35.7489 33.6959 35.7585 33.6383 35.7777C33.5424 35.7969 33.4849 35.8448 33.4657 35.9216C33.4273 35.9791 33.3794 36.0175 33.3218 36.0367C33.2835 36.0558 33.2451 36.0654 33.2067 36.0654H33.0916C32.9765 36.0079 32.8423 35.8448 32.6888 35.5763C32.5162 35.3077 32.3819 35.0392 32.286 34.7706C32.1901 34.5021 32.1421 34.3103 32.1421 34.1952V34.1376C32.1805 34.0801 32.2093 34.0225 32.2284 33.965C32.2284 33.8883 32.2284 33.8211 32.2284 33.7636C32.2476 33.7252 32.2764 33.6772 32.3148 33.6197C32.3531 33.5622 32.4107 33.5142 32.4874 33.4758C32.545 33.4375 32.5929 33.3512 32.6313 33.2169C32.6696 33.0634 32.6888 32.9004 32.6888 32.7277C32.6888 32.5743 32.7176 32.4208 32.7751 32.2674C32.8327 32.1139 32.8998 31.9988 32.9765 31.9221C33.0533 31.8645 33.1204 31.759 33.178 31.6056C33.2355 31.4329 33.2739 31.2411 33.2931 31.0301C33.3122 30.8383 33.341 30.6752 33.3794 30.541C33.4369 30.3875 33.4849 30.3012 33.5232 30.282C33.5808 30.2628 33.6287 30.1765 33.6671 30.0231C33.7055 29.8504 33.7247 29.649 33.7247 29.4188C33.7247 29.0927 33.763 28.8338 33.8397 28.6419C33.9165 28.4501 34.0891 28.2103 34.3577 27.9226C34.6262 27.6349 34.7797 27.4431 34.818 27.3471C34.8564 27.2512 34.8756 27.1841 34.8756 27.1457C34.8756 27.069 34.8468 27.0019 34.7893 26.9443C34.7317 26.8676 34.7029 26.7909 34.7029 26.7141V26.6566C34.7029 26.5799 34.7413 26.4648 34.818 26.3113C34.8948 26.2154 34.9619 26.1291 35.0194 26.0523C35.0962 25.9756 35.1537 25.9373 35.1921 25.9373C35.2305 25.9373 35.2592 25.9181 35.2784 25.8797C35.3168 25.8222 35.336 25.755 35.336 25.6783C35.336 25.6016 35.3455 25.544 35.3647 25.5057C35.4031 25.4481 35.4415 25.4193 35.4798 25.4193C35.5374 25.4193 35.5853 25.2946 35.6237 25.0453C35.6812 24.7959 35.7292 24.489 35.7676 24.1245C35.8251 23.6258 35.8826 23.2805 35.9402 23.0887C36.0169 22.8969 36.1224 22.7914 36.2567 22.7722C36.3334 22.7338 36.391 22.6955 36.4293 22.6571C36.4677 22.6187 36.4869 22.59 36.4869 22.5708C36.4869 22.5516 36.4773 22.5324 36.4581 22.5132C36.4389 22.4941 36.4293 22.4653 36.4293 22.4269C36.4293 22.3502 36.4677 22.2255 36.5444 22.0529C36.6212 21.8227 36.7363 21.5829 36.8897 21.3335C37.0432 21.0842 37.1966 20.8732 37.3501 20.7005C37.5227 20.5087 37.609 20.3073 37.609 20.0963V19.9812C37.5899 19.9428 37.5803 19.9045 37.5803 19.8661C37.5803 19.6551 37.7433 19.4057 38.0694 19.118C38.2229 18.9645 38.3763 18.8399 38.5298 18.7439C38.6832 18.648 38.7887 18.6001 38.8463 18.6001C38.9038 18.6001 38.9614 18.5809 39.0189 18.5425C39.0957 18.5042 39.1532 18.4562 39.1916 18.3987C39.2299 18.3411 39.2491 18.3028 39.2491 18.2836H39.2203C39.2012 18.2836 39.1628 18.3028 39.1052 18.3411C39.0477 18.3795 38.9997 18.3987 38.9614 18.3987C38.9422 18.3987 38.9326 18.3891 38.9326 18.3699C38.9326 18.3507 38.9518 18.3123 38.9902 18.2548C39.0285 18.1973 39.0669 18.1685 39.1052 18.1685C39.1436 18.1493 39.1724 18.1397 39.1916 18.1397C39.2299 18.1397 39.2683 18.1493 39.3067 18.1685C39.3258 18.1877 39.345 18.1973 39.3642 18.1973C39.4218 18.1973 39.4889 18.1685 39.5656 18.1109C39.6615 18.0534 39.767 17.9575 39.8821 17.8232C40.189 17.4779 40.5151 17.3053 40.8604 17.3053C41.0906 17.3053 41.34 17.3916 41.6085 17.5642C41.8195 17.7177 42.0689 18.0342 42.3566 18.5138C42.6444 18.9933 42.9033 19.5016 43.1335 20.0387C43.3637 20.5758 43.498 21.017 43.5363 21.3623C43.5555 21.5733 43.5843 21.8035 43.6226 22.0529C43.661 22.283 43.709 22.4653 43.7665 22.5996C43.8049 22.753 43.8432 22.9161 43.8816 23.0887C43.92 23.2613 43.9392 23.4052 43.9392 23.5203C43.9392 23.6162 43.9967 23.7793 44.1118 24.0094C44.2461 24.2204 44.3995 24.441 44.5722 24.6712C44.7448 24.9014 44.8887 25.1124 45.0038 25.3042C45.1189 25.4769 45.1764 25.5824 45.1764 25.6207C45.1764 25.7358 45.2435 25.7934 45.3778 25.7934C45.4545 25.7934 45.5696 25.7646 45.7231 25.7071C46.0684 25.5728 46.5096 25.3138 47.0467 24.9302C47.3728 24.6808 47.6893 24.4506 47.9962 24.2396C48.3223 24.0094 48.562 23.8464 48.7155 23.7505C49.0224 23.5587 49.454 23.2709 50.0103 22.8873C50.5666 22.5036 51.0174 22.1775 51.3626 21.909C52.3985 21.1417 52.9931 20.7581 53.1466 20.7581C53.2041 20.7581 53.3 20.7101 53.4343 20.6142C53.5686 20.4991 53.7125 20.3648 53.8659 20.2114C54.0386 20.0579 54.2592 19.8949 54.5277 19.7222C54.7963 19.5304 55.0648 19.3674 55.3334 19.2331C55.7554 19.0029 56.2541 18.696 56.8296 18.3123C57.4242 17.9287 57.8846 17.6122 58.2107 17.3628C58.2682 17.3053 58.3162 17.2765 58.3545 17.2765C58.3929 17.2765 58.4217 17.2765 58.4409 17.2765C58.4792 17.2765 58.508 17.2861 58.5272 17.3053L58.5847 17.3341C58.6231 17.3341 58.6423 17.2957 58.6423 17.219C58.6423 17.0655 59.2081 16.96 60.3399 16.9025C60.5317 16.9025 60.7044 16.9504 60.8578 17.0463C61.0113 17.1422 61.1839 17.3436 61.3757 17.6506L61.9224 18.3987L61.6059 19.2043C61.5292 19.4153 61.4237 19.6263 61.2894 19.8373C61.1743 20.0483 61.0688 20.2018 60.9729 20.2977C60.8578 20.3936 60.7619 20.4991 60.6852 20.6142C60.6276 20.7293 60.5989 20.8252 60.5989 20.9019C60.5989 20.9787 60.5605 21.1033 60.4838 21.276C60.4262 21.4294 60.3495 21.5829 60.2536 21.7364C60.1577 21.8898 60.0713 22.0529 59.9946 22.2255C59.9371 22.3981 59.8987 22.542 59.8795 22.6571C59.8795 22.7722 59.8507 22.8873 59.7932 23.0024C59.7548 23.0983 59.7069 23.1654 59.6493 23.2038C59.5534 23.2613 59.3808 23.5107 59.1314 23.9519C58.8821 24.3739 58.6039 24.863 58.297 25.4193C58.0093 25.9756 57.7503 26.4839 57.5201 26.9443C57.3091 27.4047 57.2036 27.6828 57.2036 27.7787C57.2036 27.8363 57.1652 27.961 57.0885 28.1528C57.031 28.3254 56.9638 28.5173 56.8871 28.7283C56.6761 29.1886 56.4363 29.7353 56.1678 30.3683C55.9184 31.0013 55.6978 31.5864 55.506 32.1235C55.3142 32.6414 55.2183 32.9387 55.2183 33.0155C55.2183 33.073 55.1895 33.2073 55.1319 33.4183C55.0744 33.6101 54.9977 33.8211 54.9018 34.0513C54.6908 34.5309 54.5373 34.8953 54.4414 35.1447C54.3455 35.3749 54.2783 35.5571 54.24 35.6914C54.2016 35.8065 54.1824 35.9312 54.1824 36.0654C54.1632 36.1422 54.1153 36.2477 54.0386 36.3819C53.981 36.497 53.9043 36.6121 53.8084 36.7272L53.4631 37.1588L53.4343 36.5258Z" fill="white"/>
<path d="M78.0642 33.5334C77.834 33.3991 77.5942 33.2552 77.3449 33.1018C77.1147 32.9483 76.9229 32.8141 76.7694 32.699C76.616 32.6031 76.5009 32.5359 76.4241 32.4975C76.3474 32.4592 76.2995 32.44 76.2803 32.44C76.2419 32.44 76.2227 32.4496 76.2227 32.4688C76.2227 32.5071 76.2131 32.5263 76.1939 32.5263C76.1556 32.5263 76.1076 32.4975 76.0501 32.44C75.935 32.3441 75.7911 32.2002 75.6185 32.0084C75.4458 31.8166 75.2732 31.6152 75.1006 31.4042C74.9279 31.1932 74.7841 30.9917 74.669 30.7999C74.5347 30.5697 74.3908 30.3683 74.2374 30.1957C74.1031 30.0231 73.988 29.908 73.8921 29.8504C73.8154 29.7929 73.7386 29.7065 73.6619 29.5915C73.6044 29.4764 73.5756 29.3613 73.5756 29.2462C73.5756 28.6707 73.1344 28.0857 72.252 27.491C72.0602 27.3759 71.8971 27.2704 71.7629 27.1745C71.6286 27.0594 71.5615 26.9827 71.5615 26.9443C71.5615 26.9059 71.5135 26.858 71.4176 26.8004C71.3409 26.7237 71.2354 26.6566 71.1011 26.599C70.9668 26.5607 70.8709 26.5223 70.8134 26.4839C70.7558 26.4264 70.727 26.388 70.727 26.3688V26.2825C70.727 26.2442 70.7174 26.177 70.6983 26.0811C70.6599 25.9468 70.5928 25.7934 70.4968 25.6207C70.4009 25.4481 70.3338 25.3234 70.2954 25.2467C70.2763 25.1508 70.2667 25.0836 70.2667 25.0453C70.2667 25.0261 70.2763 25.0165 70.2954 25.0165C70.3338 25.0165 70.3818 24.9781 70.4393 24.9014C70.4968 24.8055 70.5352 24.7 70.5544 24.5849C70.5736 24.489 70.5832 24.3931 70.5832 24.2972C70.5832 24.1821 70.5736 24.067 70.5544 23.9519C70.516 23.7217 70.4489 23.5107 70.353 23.3189C70.2763 23.1271 70.1995 23.0312 70.1228 23.0312C70.0653 23.0312 70.0365 23.0216 70.0365 23.0024C70.0365 22.964 70.0365 22.9352 70.0365 22.9161V22.8585C70.0557 22.8202 70.0653 22.7818 70.0653 22.7434V22.7146C70.0461 22.6955 70.0077 22.6859 69.9502 22.6859C69.8734 22.6859 69.8351 22.6667 69.8351 22.6283C69.8351 22.5708 69.8734 22.5036 69.9502 22.4269C70.0077 22.3694 70.0365 22.3118 70.0365 22.2543C70.0365 22.2159 70.0269 22.1775 70.0077 22.1392C69.9885 22.0241 69.9118 21.8802 69.7775 21.7076C69.6624 21.5733 69.5569 21.4678 69.461 21.3911C69.3651 21.2952 69.2884 21.2472 69.2308 21.2472C69.1925 21.2472 69.1061 21.3527 68.9719 21.5637C68.8376 21.7747 68.6937 22.0433 68.5403 22.3694C68.3676 22.6955 68.195 23.0216 68.0224 23.3477C67.8497 23.6738 67.7154 23.9231 67.6195 24.0958C67.5236 24.2876 67.4373 24.4698 67.3606 24.6425C67.303 24.8151 67.2742 24.9494 67.2742 25.0453C67.2742 25.122 67.2263 25.2371 67.1304 25.3906C67.0536 25.544 66.9482 25.6879 66.8139 25.8222C66.6796 25.9564 66.5741 26.0811 66.4974 26.1962C66.4398 26.3113 66.411 26.3976 66.411 26.4552V26.5415C66.411 26.599 66.3919 26.6662 66.3535 26.7429C66.2768 26.8388 66.1809 26.9347 66.0658 27.0306C65.9507 27.1265 65.8548 27.232 65.778 27.3471C65.7013 27.4622 65.6629 27.5677 65.6629 27.6636C65.6629 27.7404 65.6342 27.8363 65.5766 27.9514C65.5383 28.0473 65.4807 28.1336 65.404 28.2103C65.3273 28.3062 65.145 28.6036 64.8573 29.1023C64.5887 29.601 64.2914 30.1765 63.9653 30.8287C62.987 32.7469 62.3636 33.706 62.0951 33.706C62.0375 33.706 61.9992 33.6677 61.98 33.5909C61.9416 33.5526 61.8841 33.5334 61.8073 33.5334C61.7306 33.5142 61.6731 33.5046 61.6347 33.5046C61.5388 33.5046 61.4429 33.5142 61.347 33.5334C61.251 33.5526 61.1647 33.5622 61.088 33.5622C60.9921 33.5622 60.9154 33.543 60.8578 33.5046C60.7235 33.4279 60.5605 33.2457 60.3687 32.9579C60.2536 32.7661 60.1481 32.5839 60.0522 32.4112C59.9563 32.2386 59.9083 32.1235 59.9083 32.066C59.9083 31.9509 59.985 31.7303 60.1385 31.4042C60.2728 31.0781 60.4358 30.7328 60.6276 30.3683C60.8003 29.9847 60.9633 29.6586 61.1168 29.39C61.2894 29.1023 61.4045 28.9584 61.4621 28.9584C61.5196 28.9584 61.5771 28.8913 61.6347 28.757C61.7114 28.6036 61.769 28.4117 61.8073 28.1816C61.8457 27.9706 61.9032 27.75 61.98 27.5198C62.0759 27.2896 62.1718 27.0978 62.2677 26.9443C62.3636 26.81 62.4403 26.6758 62.4979 26.5415C62.5746 26.388 62.613 26.2729 62.613 26.1962C62.613 26.1195 62.6418 26.0236 62.6993 25.9085C62.776 25.7742 62.8624 25.6495 62.9583 25.5344C63.0734 25.4385 63.1597 25.3426 63.2172 25.2467C63.2939 25.1316 63.3323 25.0453 63.3323 24.9877C63.3323 24.9302 63.3899 24.7863 63.505 24.5561C63.62 24.3068 63.7735 24.0286 63.9653 23.7217C64.138 23.4148 64.2818 23.1462 64.3969 22.9161C64.512 22.6859 64.5696 22.542 64.5696 22.4845C64.5696 22.4461 64.5792 22.4077 64.5983 22.3694C64.6367 22.331 64.6751 22.3118 64.7134 22.3118C64.7518 22.3118 64.8093 22.2543 64.8861 22.1392C64.9628 22.0241 65.0299 21.8802 65.0875 21.7076C65.145 21.5349 65.2313 21.3527 65.3464 21.1609C65.4807 20.9499 65.6054 20.7773 65.7205 20.643C65.8548 20.5087 65.9411 20.3936 65.9795 20.2977C66.037 20.2018 66.0658 20.1442 66.0658 20.1251V20.0963C66.0466 20.0771 66.037 20.0579 66.037 20.0387C66.037 19.9812 66.0658 19.9045 66.1233 19.8085C66.2 19.6551 66.3055 19.4729 66.4398 19.2619C66.5741 19.0509 66.67 18.8782 66.7276 18.7439C66.8043 18.5905 66.8427 18.4946 66.8427 18.4562V18.4274C66.8235 18.4083 66.8139 18.3891 66.8139 18.3699C66.8139 18.3507 66.8331 18.3219 66.8714 18.2836C66.929 18.226 67.0153 18.1685 67.1304 18.1109C67.2455 18.0534 67.3606 17.9575 67.4757 17.8232C67.6099 17.6889 67.725 17.5451 67.8209 17.3916C67.9936 17.0655 68.195 16.9025 68.4252 16.9025H68.4539C68.5499 16.9025 68.7033 16.912 68.9143 16.9312C69.1253 16.9504 69.3459 16.96 69.5761 16.96C69.8638 16.9792 70.094 17.0271 70.2667 17.1039C70.4393 17.1806 70.6119 17.3149 70.7846 17.5067C70.8997 17.6601 71.0052 17.8328 71.1011 18.0246C71.2162 18.2164 71.2833 18.3795 71.3025 18.5138C71.3409 18.6672 71.3792 18.8399 71.4176 19.0317C71.4751 19.2235 71.5327 19.3961 71.5902 19.5496C71.6286 19.703 71.667 19.8757 71.7053 20.0675C71.7437 20.2401 71.7629 20.3744 71.7629 20.4703C71.7629 20.5662 71.7725 20.6622 71.7916 20.7581C71.8108 20.8348 71.8396 20.8923 71.878 20.9307C71.9547 21.0266 72.0506 21.2376 72.1657 21.5637C72.2808 21.8898 72.3671 22.1967 72.4247 22.4845C72.5014 22.7722 72.5397 22.9736 72.5397 23.0887V23.175C72.5397 23.2709 72.5877 23.4244 72.6836 23.6354C72.7987 23.8848 72.9618 24.1725 73.1728 24.4986C73.3838 24.8055 73.5564 25.0932 73.6907 25.3618C73.825 25.6112 73.8921 25.7646 73.8921 25.8222C73.8921 25.8797 73.9305 25.9756 74.0072 26.1099C74.0839 26.2442 74.1702 26.3784 74.2661 26.5127C74.3812 26.647 74.5155 26.8388 74.669 27.0882C74.8224 27.3375 74.9663 27.5869 75.1006 27.8363C75.7336 28.9872 76.4817 29.8216 77.3449 30.3396C77.7477 30.5697 77.9779 30.6944 78.0354 30.7136C78.093 30.7136 78.1313 30.7136 78.1505 30.7136C78.1697 30.7136 78.1793 30.704 78.1793 30.6848C78.1793 30.6657 78.1601 30.6177 78.1218 30.541C78.1026 30.5218 78.093 30.493 78.093 30.4546C78.093 30.4163 78.1026 30.3683 78.1218 30.3108C78.1601 30.2149 78.2273 30.1094 78.3232 29.9943C78.4191 29.8984 78.4862 29.7737 78.5246 29.6202C78.5821 29.4476 78.6109 29.2845 78.6109 29.1311V28.9872C78.6109 28.9105 78.6205 28.8242 78.6397 28.7283C78.6972 28.594 78.7644 28.4885 78.8411 28.4117C78.9178 28.3542 78.9754 28.2775 79.0137 28.1816C79.0713 28.0857 79.1 28.0089 79.1 27.9514C79.1 27.8938 79.1192 27.8267 79.1576 27.75C79.2151 27.6732 79.2823 27.6157 79.359 27.5773C79.4741 27.5006 79.5796 27.3951 79.6755 27.2608C79.7714 27.1074 79.829 26.9827 79.8482 26.8868C79.8865 26.7909 79.9057 26.7237 79.9057 26.6854C79.9057 26.6086 79.8769 26.5607 79.8194 26.5415C79.8002 26.5223 79.7906 26.4935 79.7906 26.4552C79.7906 26.3976 79.8098 26.3113 79.8482 26.1962C79.9249 26.0044 80.04 25.7742 80.1934 25.5057C80.3469 25.2179 80.5195 24.8822 80.7113 24.4986C80.9223 24.1149 81.1046 23.7505 81.258 23.4052C81.6225 22.6955 81.9198 22.2926 82.15 22.1967C82.2651 22.1584 82.361 22.0912 82.4377 21.9953C82.5337 21.8802 82.6008 21.7555 82.6392 21.6213C82.6775 21.487 82.7447 21.3144 82.8406 21.1033C82.9365 20.8732 83.042 20.6622 83.1571 20.4703C83.2722 20.2977 83.3681 20.1346 83.4448 19.9812C83.5407 19.8085 83.5887 19.6935 83.5887 19.6359C83.5887 19.5975 83.6079 19.5496 83.6462 19.492C83.6846 19.4153 83.7421 19.3578 83.8189 19.3194C83.8764 19.281 83.9531 19.1947 84.049 19.0604C84.1641 18.9262 84.2696 18.7823 84.3655 18.6288C84.4615 18.4754 84.5861 18.3123 84.7396 18.1397C84.9122 17.9671 85.0657 17.8232 85.2 17.7081C85.3343 17.593 85.4589 17.4587 85.574 17.3053C85.6891 17.1518 85.7658 17.008 85.8042 16.8737C85.8426 16.7586 85.9289 16.5955 86.0632 16.3845C86.1974 16.1735 86.3605 15.9625 86.5523 15.7515C86.8017 15.483 87.0127 15.3007 87.1853 15.2048C87.3772 15.1089 87.6073 15.061 87.8759 15.061H88.0773C88.2499 15.061 88.3842 15.0801 88.4801 15.1185C88.5952 15.1569 88.6719 15.2336 88.7103 15.3487C88.7295 15.4446 88.7774 15.5309 88.8542 15.6077C88.9501 15.6844 89.046 15.7419 89.1419 15.7803C89.3721 15.8378 89.4872 15.9721 89.4872 16.1831C89.4872 16.4517 89.2858 16.8641 88.8829 17.4204C88.7103 17.6889 88.5569 17.9575 88.4226 18.226C88.2883 18.4946 88.2116 18.7152 88.1924 18.8878C88.1157 19.2331 87.9526 19.588 87.7032 19.9524C87.4731 20.2977 87.2429 20.5183 87.0127 20.6142C86.9168 20.6526 86.8017 20.7581 86.6674 20.9307C86.5523 21.1033 86.4564 21.2952 86.3797 21.5062C86.2838 21.7364 86.1879 21.9282 86.0919 22.0816C86.0152 22.2351 85.9577 22.3118 85.9193 22.3118C85.8809 22.3118 85.833 22.3694 85.7754 22.4845C85.7179 22.5804 85.6795 22.6955 85.6603 22.8297C85.622 22.9832 85.5644 23.1175 85.4877 23.2326C85.411 23.3477 85.3343 23.4244 85.2575 23.4628C85.1808 23.5011 85.0753 23.6258 84.941 23.8368C84.8259 24.0286 84.7012 24.2588 84.567 24.5274C84.4519 24.8151 84.3368 25.0645 84.2217 25.2755C84.1066 25.4673 84.0299 25.5824 83.9915 25.6207C83.934 25.6591 83.7709 25.9277 83.5023 26.4264C83.2338 26.9251 82.9269 27.5294 82.5816 28.2391C82.2363 28.9297 81.9198 29.5915 81.6321 30.2245C81.3444 30.8383 81.1334 31.2987 80.9991 31.6056C80.7305 32.3345 80.5099 32.8716 80.3373 33.2169C80.1838 33.5622 80.0783 33.7444 80.0208 33.7636C79.9824 33.7828 79.9537 33.7923 79.9345 33.7923C79.8769 33.7923 79.8194 33.7156 79.7618 33.5622C79.7426 33.5046 79.7043 33.4758 79.6467 33.4758C79.5892 33.4758 79.4837 33.5334 79.3302 33.6485C79.3111 33.6868 79.2919 33.7156 79.2727 33.7348C79.1576 33.8307 79.0713 33.8883 79.0137 33.9074C78.9754 33.9266 78.937 33.9362 78.8986 33.9362C78.8603 33.9362 78.8027 33.917 78.726 33.8787C78.6109 33.8403 78.4383 33.754 78.2081 33.6197C78.1697 33.5813 78.1218 33.5526 78.0642 33.5334Z" fill="white"/>
<path d="M85.1137 36.2956C85.1137 36.2573 85.0849 36.2285 85.0273 36.2093C84.9698 36.1901 84.8931 36.1709 84.7971 36.1517C84.7204 36.1517 84.6341 36.1422 84.5382 36.123C84.4231 36.0846 84.3272 36.0462 84.2505 36.0079C84.1737 35.9503 84.1354 35.8928 84.1354 35.8352V35.7777C84.1354 35.701 84.1929 35.5763 84.308 35.4036C84.4231 35.2118 84.4806 35.068 84.4806 34.972C84.4806 34.8953 84.4615 34.8474 84.4231 34.8282C84.308 34.7515 84.2505 34.6268 84.2505 34.4541V34.3678C84.2505 34.1568 84.3368 33.9842 84.5094 33.8499C84.5861 33.7732 84.6533 33.6868 84.7108 33.5909C84.7492 33.4758 84.7684 33.3799 84.7684 33.3032C84.7684 33.2073 84.7971 33.1114 84.8547 33.0155C84.8931 32.9196 84.9506 32.8332 85.0273 32.7565C85.1041 32.699 85.1904 32.5839 85.2863 32.4112C85.3822 32.2386 85.4589 32.0468 85.5165 31.8358C85.574 31.6439 85.6508 31.4809 85.7467 31.3466C85.8234 31.2123 85.8905 31.1452 85.9481 31.1452C86.0632 31.1452 86.1399 31.0877 86.1783 30.9726C86.2166 30.8383 86.2358 30.6944 86.2358 30.541V30.3683C86.2358 30.33 86.2646 30.2916 86.3221 30.2532C86.3797 30.1957 86.4564 30.1381 86.5523 30.0806C86.6674 30.0231 86.7633 29.9463 86.84 29.8504C86.8976 29.7353 86.9264 29.6298 86.9264 29.5339C86.9264 29.438 86.9551 29.3613 87.0127 29.3037C87.051 29.227 87.099 29.1886 87.1566 29.1886C87.4059 29.1886 87.8567 28.594 88.5089 27.4047C88.5856 27.2704 88.6624 27.1553 88.7391 27.0594C88.8158 26.9635 88.8734 26.9059 88.9117 26.8868C88.9501 26.8676 88.9789 26.81 88.998 26.7141C89.0364 26.6182 89.0556 26.5127 89.0556 26.3976C89.0556 26.2825 89.1035 26.1291 89.1995 25.9373C89.3145 25.7454 89.4488 25.5728 89.6023 25.4193C89.7557 25.2467 89.8804 25.0836 89.9763 24.9302C90.0914 24.7767 90.149 24.6616 90.149 24.5849C90.149 24.5274 90.1682 24.4698 90.2065 24.4123C90.2449 24.3547 90.2832 24.3259 90.3216 24.3259C90.3792 24.3259 90.4463 24.2876 90.523 24.2109C90.5997 24.1149 90.6669 24.0094 90.7244 23.8944C90.782 23.7601 90.8491 23.6546 90.9258 23.5778C91.0218 23.4819 91.0985 23.434 91.156 23.434C91.2328 23.434 91.2807 23.4244 91.2999 23.4052C91.3191 23.386 91.3287 23.3668 91.3287 23.3477C91.3287 23.3285 91.3191 23.2997 91.2999 23.2613V23.175C91.2999 23.0599 91.3574 22.8777 91.4725 22.6283C91.6068 22.3022 91.7986 22.0049 92.048 21.7364C92.1439 21.6213 92.2398 21.4966 92.3357 21.3623C92.4508 21.2088 92.5371 21.065 92.5947 20.9307C92.6522 20.7964 92.7577 20.6142 92.9112 20.384C93.0647 20.1346 93.2373 19.8853 93.4291 19.6359C93.6018 19.4057 93.736 19.2139 93.8319 19.0604C93.9279 18.8878 93.9758 18.7823 93.9758 18.7439V18.7152C93.9758 18.6768 94.0334 18.6193 94.1485 18.5425C94.2827 18.4466 94.465 18.3411 94.6951 18.226C94.9253 18.1109 95.1076 18.0054 95.2418 17.9095C95.3761 17.8136 95.4432 17.7465 95.4432 17.7081C95.4241 17.6697 95.4145 17.6314 95.4145 17.593C95.4145 17.5355 95.4432 17.4587 95.5008 17.3628C95.5967 17.2285 95.7118 17.1039 95.8461 16.9888C95.9995 16.8737 96.1338 16.8161 96.2489 16.8161C96.3448 16.8161 96.4215 16.8353 96.4791 16.8737C96.5558 16.8929 96.5942 16.9216 96.5942 16.96C96.5942 16.9984 96.6229 17.0271 96.6805 17.0463C96.738 17.0463 96.7764 17.0463 96.7956 17.0463C96.8723 17.0463 96.949 17.0367 97.0258 17.0175L97.1696 16.9888C97.3806 16.9888 97.5053 17.1039 97.5437 17.3341C97.5629 17.4491 97.6108 17.5355 97.6876 17.593C97.7643 17.6506 97.8698 17.6793 98.0041 17.6793C98.1383 17.6793 98.2342 17.6793 98.2918 17.6793C98.5028 17.6793 98.7713 17.6601 99.0974 17.6218C99.5195 17.5834 100.105 17.5163 100.853 17.4204C102.368 17.2477 104.162 17.1039 106.233 16.9888C108.324 16.8737 109.878 16.8161 110.894 16.8161C111.911 16.797 112.544 16.7874 112.794 16.7874C114.06 16.7874 114.904 16.8257 115.326 16.9025C115.575 16.9792 115.709 17.0655 115.728 17.1614C115.767 17.2381 115.786 17.2957 115.786 17.3341C115.786 17.43 115.709 17.5163 115.556 17.593C115.479 17.6122 115.441 17.6314 115.441 17.6506C115.441 17.6697 115.479 17.6793 115.556 17.6793C115.613 17.6985 115.661 17.7465 115.7 17.8232C115.757 17.8807 115.786 17.9575 115.786 18.0534C115.786 18.1877 115.738 18.2836 115.642 18.3411C115.565 18.3987 115.421 18.437 115.21 18.4562C115.038 18.4754 114.904 18.5138 114.808 18.5713C114.712 18.6097 114.664 18.648 114.664 18.6864V18.7152C114.664 18.8494 114.539 18.9454 114.29 19.0029C114.04 19.0604 113.791 19.0892 113.542 19.0892C113.369 19.0892 113.187 19.0796 112.995 19.0604L112.707 19.0317L112.448 19.0604C112.276 19.0604 112.16 19.0796 112.103 19.118C112.026 19.1755 111.863 19.2235 111.614 19.2619C111.364 19.3002 111.125 19.3194 110.894 19.3194C110.683 19.3194 110.511 19.3194 110.377 19.3194H110.031C109.82 19.3002 109.705 19.2715 109.686 19.2331C109.686 19.1947 109.667 19.1755 109.628 19.1755C109.609 19.1755 109.58 19.2043 109.542 19.2619C109.504 19.3194 109.302 19.377 108.938 19.4345C108.593 19.492 108.151 19.54 107.614 19.5784C107.096 19.5975 106.492 19.6359 105.802 19.6935C105.111 19.751 104.497 19.8085 103.96 19.8661C103.116 19.962 102.445 20.0291 101.946 20.0675C101.466 20.1059 101.131 20.1251 100.939 20.1251C100.747 20.1251 100.603 20.1251 100.507 20.1251H100.306C100.21 20.1059 100.133 20.0675 100.076 20.01C99.9798 19.9332 99.9127 19.8949 99.8743 19.8949C99.8551 19.8949 99.8456 19.9045 99.8456 19.9236C99.8456 19.962 99.8551 20.0004 99.8743 20.0387C99.8743 20.3457 99.2125 20.5183 97.889 20.5567H97.8314C97.5437 20.5567 97.3135 20.5854 97.1409 20.643C96.9682 20.7005 96.786 20.854 96.5942 21.1033C96.4024 21.3527 96.1242 21.7747 95.7598 22.3694C95.7406 22.4077 95.7118 22.4461 95.6734 22.4845C95.5775 22.6571 95.4816 22.801 95.3857 22.9161C95.2898 23.0312 95.2226 23.0887 95.1843 23.0887C95.1267 23.0887 95.05 23.1654 94.9541 23.3189C94.8774 23.4532 94.8006 23.6066 94.7239 23.7793C94.6664 23.9519 94.6376 24.0862 94.6376 24.1821C94.6376 24.2396 94.8102 24.2684 95.1555 24.2684C95.4432 24.2684 95.8461 24.2492 96.364 24.2109C97.1696 24.1533 98.1096 24.1149 99.1838 24.0958C100.277 24.0766 101.16 24.067 101.831 24.067C102.521 24.067 103.193 24.0766 103.845 24.0958C105.149 24.1341 105.993 24.1821 106.377 24.2396C106.665 24.278 106.828 24.3164 106.866 24.3547C106.905 24.3931 106.924 24.4219 106.924 24.441C106.924 24.4794 106.885 24.5274 106.809 24.5849C106.732 24.6425 106.674 24.7096 106.636 24.7863C106.617 24.8439 106.607 24.8918 106.607 24.9302V25.0165C106.607 25.0741 106.569 25.1412 106.492 25.2179C106.435 25.2946 106.339 25.3714 106.204 25.4481C106.089 25.5057 105.993 25.5632 105.917 25.6207C105.859 25.6783 105.83 25.7262 105.83 25.7646V25.7934L105.859 25.8222C105.859 25.8605 105.811 25.8989 105.715 25.9373C105.6 25.9756 105.447 26.014 105.255 26.0523C105.082 26.0907 104.938 26.1099 104.823 26.1099C104.651 26.1099 104.555 26.0619 104.536 25.966C104.516 25.8893 104.488 25.8509 104.449 25.8509C104.392 25.8509 104.325 25.9085 104.248 26.0236C104.171 26.1003 104.018 26.177 103.787 26.2538C103.557 26.3113 103.327 26.3593 103.097 26.3976C102.867 26.4168 102.675 26.4264 102.521 26.4264H102.291C102.08 26.4264 101.975 26.388 101.975 26.3113C101.975 26.2346 101.927 26.1866 101.831 26.1674C101.735 26.1483 101.649 26.1387 101.572 26.1387H101.457C101.342 26.1578 101.265 26.2154 101.227 26.3113C101.207 26.3688 101.092 26.4264 100.881 26.4839C100.69 26.5415 100.335 26.599 99.8168 26.6566C99.2989 26.6949 98.5508 26.7525 97.5725 26.8292C96.8627 26.8868 96.1434 26.9539 95.4145 27.0306C94.6855 27.1074 94.1197 27.1745 93.7169 27.232C93.314 27.2896 92.9975 27.3567 92.7673 27.4335C92.5563 27.491 92.3645 27.5869 92.1919 27.7212C92.0384 27.8363 91.8466 28.0185 91.6164 28.2679C91.4054 28.4981 91.2232 28.7091 91.0697 28.9009C90.9354 29.0735 90.8683 29.179 90.8683 29.2174C90.8491 29.3325 90.6477 29.649 90.2641 30.1669C89.8996 30.6848 89.4872 31.2315 89.0268 31.807C88.835 32.0372 88.6432 32.277 88.4513 32.5263C88.2787 32.7757 88.154 32.9771 88.0773 33.1306C87.9622 33.3416 87.9047 33.4854 87.9047 33.5622V33.5909C87.9238 33.6293 88.0677 33.6485 88.3363 33.6485C88.4705 33.6485 88.6719 33.6389 88.9405 33.6197C89.209 33.5813 89.468 33.5334 89.7174 33.4758C89.9859 33.4183 90.5326 33.3224 91.3574 33.1881C92.1823 33.0538 93.0934 32.9004 94.0909 32.7277C95.0884 32.5743 96.0379 32.4304 96.9395 32.2961C97.8602 32.1427 98.522 32.0276 98.9248 31.9509C102.665 31.337 105.054 30.9726 106.089 30.8575C107.144 30.7424 107.854 30.6848 108.219 30.6848C108.775 30.6848 109.091 30.752 109.168 30.8862C109.245 30.963 109.283 31.0205 109.283 31.0589C109.283 31.1164 109.216 31.1452 109.082 31.1452C108.928 31.1452 108.852 31.1644 108.852 31.2028C108.852 31.2219 108.919 31.2987 109.053 31.4329C109.206 31.5864 109.283 31.7015 109.283 31.7782C109.302 31.8549 109.312 31.9029 109.312 31.9221C109.312 31.9988 109.264 32.0372 109.168 32.0372C109.13 32.0372 109.053 32.0755 108.938 32.1523C108.842 32.2098 108.746 32.2865 108.65 32.3825C108.362 32.6126 107.749 32.8045 106.809 32.9579C105.869 33.0922 105.351 33.2457 105.255 33.4183C105.236 33.5334 105.121 33.5909 104.91 33.5909C104.814 33.5909 104.699 33.5813 104.564 33.5622C104.43 33.5238 104.305 33.5046 104.19 33.5046C104.114 33.5046 104.046 33.5142 103.989 33.5334C103.835 33.5718 103.701 33.6485 103.586 33.7636C103.356 33.9746 102.876 34.0993 102.147 34.1376C101.84 34.1376 101.553 34.1664 101.284 34.2239C101.035 34.2623 100.872 34.3199 100.795 34.3966C100.718 34.4541 100.536 34.5021 100.248 34.5404C99.9798 34.5788 99.6729 34.6076 99.3276 34.6268C98.9632 34.6268 98.6371 34.6555 98.3493 34.7131C98.0808 34.7515 97.9081 34.7994 97.8314 34.857C97.7547 34.9145 97.63 34.972 97.4574 35.0296C97.3039 35.068 97.1409 35.1063 96.9682 35.1447C96.7764 35.1639 96.4887 35.2118 96.105 35.2886C95.7214 35.3653 95.3282 35.442 94.9253 35.5187C94.369 35.653 94.0238 35.7201 93.8895 35.7201C93.7552 35.7201 93.6785 35.7201 93.6593 35.7201C93.5058 35.7201 93.4099 35.6818 93.3716 35.6051C93.314 35.5283 93.2565 35.49 93.1989 35.49C93.1414 35.4708 93.0647 35.5091 92.9688 35.6051C92.892 35.6626 92.8153 35.7106 92.7386 35.7489C92.681 35.7681 92.6331 35.7777 92.5947 35.7777H92.5371C92.4988 35.7777 92.4125 35.7969 92.2782 35.8352C92.1631 35.8736 92.0384 35.9216 91.9041 35.9791C91.7315 36.075 91.5685 36.123 91.415 36.123C91.2999 36.123 91.1944 36.0942 91.0985 36.0367C91.0026 35.9599 90.8971 35.9216 90.782 35.9216C90.6669 35.9216 90.5422 35.9599 90.4079 36.0367C90.312 36.1134 90.1202 36.1709 89.8325 36.2093C89.5447 36.2477 89.2282 36.2764 88.8829 36.2956C88.5569 36.2956 88.154 36.3052 87.6745 36.3244C87.2141 36.3436 86.8017 36.3628 86.4372 36.3819H85.5165C85.2671 36.3628 85.1328 36.334 85.1137 36.2956ZM88.4513 31.8645L88.4801 31.7782L88.4513 31.7494C88.4513 31.7111 88.4226 31.6919 88.365 31.6919C88.3075 31.6919 88.2595 31.7111 88.2212 31.7494C88.1828 31.7686 88.1636 31.807 88.1636 31.8645C88.1636 31.9221 88.1732 31.97 88.1924 32.0084C88.2116 32.0276 88.2308 32.0372 88.2499 32.0372C88.2691 32.0372 88.2979 32.0276 88.3363 32.0084C88.3746 31.97 88.413 31.9221 88.4513 31.8645Z" fill="white"/>
<path d="M114.347 33.9938C114.29 33.9554 114.155 33.9266 113.944 33.9074C113.753 33.8883 113.57 33.8787 113.398 33.8787C113.244 33.8787 113.072 33.8883 112.88 33.9074H112.391C112.122 33.9074 111.93 33.8978 111.815 33.8787C111.623 33.8403 111.527 33.7732 111.527 33.6772C111.527 33.5046 111.336 33.3991 110.952 33.3607C110.722 33.3416 110.568 33.3032 110.492 33.2457C110.415 33.1881 110.377 33.1018 110.377 32.9867V32.8716C110.377 32.6798 110.319 32.5839 110.204 32.5839C110.185 32.5839 110.156 32.5935 110.118 32.6126H110.031C110.031 32.5743 110.098 32.5071 110.233 32.4112C110.367 32.2961 110.453 32.1906 110.492 32.0947C110.53 31.9988 110.549 31.9125 110.549 31.8358C110.549 31.759 110.54 31.6727 110.52 31.5768C110.482 31.4425 110.463 31.337 110.463 31.2603C110.463 31.2028 110.472 31.1644 110.492 31.1452C110.549 31.0877 110.693 31.0589 110.923 31.0589C111.134 31.0589 111.297 31.0109 111.412 30.915C111.527 30.7999 111.652 30.5793 111.786 30.2532C111.921 29.9463 112.055 29.7353 112.189 29.6202C112.304 29.4859 112.487 29.3996 112.736 29.3613C113.139 29.3037 113.465 29.0639 113.714 28.6419C113.829 28.4693 113.954 28.3254 114.088 28.2103C114.223 28.0952 114.328 28.0281 114.405 28.0089C114.482 28.0089 114.645 27.9418 114.894 27.8075C115.143 27.6732 115.412 27.5102 115.7 27.3184C116.007 27.1074 116.323 26.9059 116.649 26.7141C116.994 26.5223 117.282 26.3784 117.512 26.2825C117.723 26.1866 117.992 26.0428 118.318 25.8509C118.644 25.6399 118.941 25.4193 119.21 25.1891C119.478 24.9781 119.718 24.8055 119.929 24.6712C120.159 24.5178 120.294 24.441 120.332 24.441C120.447 24.441 120.639 24.3835 120.908 24.2684C121.195 24.1341 121.473 23.9903 121.742 23.8368C122.011 23.6833 122.183 23.5587 122.26 23.4628C122.317 23.386 122.423 23.3093 122.576 23.2326C122.73 23.1367 122.893 23.0503 123.066 22.9736C123.219 22.8969 123.43 22.7818 123.699 22.6283C123.986 22.4749 124.255 22.3118 124.504 22.1392C124.773 21.9474 125.06 21.7651 125.367 21.5925C125.674 21.4007 125.943 21.2568 126.173 21.1609C126.403 21.065 126.653 20.9307 126.921 20.7581C127.19 20.5662 127.42 20.384 127.612 20.2114C127.784 20.0387 127.947 19.8949 128.101 19.7798C128.274 19.6647 128.389 19.6071 128.446 19.6071C128.6 19.588 128.859 19.492 129.223 19.3194C129.587 19.1468 129.923 18.9645 130.23 18.7727C130.556 18.5617 130.748 18.3987 130.806 18.2836C130.844 18.1877 130.911 18.1109 131.007 18.0534C131.103 17.9958 131.218 17.9671 131.352 17.9671C131.506 17.9671 131.707 17.8999 131.956 17.7657C132.206 17.6122 132.398 17.4587 132.532 17.3053C132.685 17.1518 132.762 17.0271 132.762 16.9312V16.8737C132.705 16.797 132.618 16.749 132.503 16.7298C132.388 16.7106 132.292 16.701 132.215 16.701L132.014 16.7298C131.861 16.7682 131.784 16.8161 131.784 16.8737C131.784 16.9312 131.448 16.9792 130.777 17.0175C130.125 17.0367 129.319 17.0463 128.36 17.0463C127.382 17.0655 126.509 17.0847 125.741 17.1039C124.974 17.123 124.495 17.1518 124.303 17.1902C124.169 17.2094 124.063 17.219 123.986 17.219C123.814 17.219 123.727 17.171 123.727 17.0751C123.727 16.96 123.478 16.9025 122.979 16.9025C122.787 16.9025 122.567 16.912 122.317 16.9312H121.742C120.725 16.9312 120.217 16.8065 120.217 16.5572C120.217 16.538 120.227 16.5092 120.246 16.4709V16.4133C120.246 16.2982 120.112 16.2023 119.843 16.1256C119.517 16.0488 119.296 15.905 119.181 15.694C119.066 15.483 119.009 15.3007 119.009 15.1473C119.009 15.0706 119.018 14.9938 119.037 14.9171C119.095 14.6869 119.267 14.5718 119.555 14.5718C119.728 14.591 119.881 14.6006 120.016 14.6006C120.303 14.6006 120.447 14.5622 120.447 14.4855C120.447 14.4471 120.438 14.4184 120.418 14.3992C120.399 14.38 120.39 14.3512 120.39 14.3129C120.39 14.2745 120.428 14.2361 120.505 14.1978C120.62 14.1402 120.86 14.1019 121.224 14.0827C121.608 14.0635 122.164 14.0539 122.893 14.0539H123.44C124.456 14.0539 124.965 14.1019 124.965 14.1978C124.965 14.2553 124.984 14.3033 125.022 14.3416C125.06 14.38 125.108 14.3992 125.166 14.3992C125.204 14.3992 125.243 14.3704 125.281 14.3129C125.319 14.2553 125.339 14.1882 125.339 14.1115C125.339 14.0347 125.387 13.9772 125.483 13.9388C125.598 13.9004 125.799 13.8813 126.087 13.8813C126.394 13.8621 126.835 13.8525 127.41 13.8525C128.005 13.8525 128.456 13.8621 128.763 13.8813C129.089 13.8813 129.319 13.91 129.453 13.9676C129.587 14.0059 129.683 14.0731 129.741 14.169C129.856 14.3225 129.923 14.3992 129.942 14.3992C129.981 14.3992 130 14.3225 130 14.169C130 14.0731 130.029 13.9964 130.086 13.9388C130.144 13.8813 130.22 13.8429 130.316 13.8237C130.527 13.8045 130.748 13.7949 130.978 13.7949C131.208 13.7949 131.448 13.8045 131.698 13.8237C132.196 13.8237 132.637 13.8333 133.021 13.8525C133.424 13.8717 133.664 13.9004 133.74 13.9388H133.999C134.095 13.9388 134.201 13.91 134.316 13.8525C134.45 13.7758 134.565 13.7374 134.661 13.7374C134.757 13.7374 134.834 13.7662 134.891 13.8237C135.045 13.9196 135.352 14.0059 135.812 14.0827C136.272 14.1594 136.647 14.2074 136.934 14.2265C137.241 14.2265 137.443 14.2265 137.538 14.2265C137.903 14.2265 138.181 14.1978 138.373 14.1402C138.565 14.0827 138.728 14.0539 138.862 14.0539C138.996 14.0539 139.083 14.0923 139.121 14.169C139.159 14.2265 139.236 14.2841 139.351 14.3416C139.466 14.3992 139.591 14.4471 139.725 14.4855C139.917 14.5239 140.023 14.5622 140.042 14.6006C140.08 14.639 140.099 14.6773 140.099 14.7157C140.099 14.7732 140.08 14.8308 140.042 14.8883C140.003 14.9651 139.984 15.0418 139.984 15.1185C139.984 15.2528 140.032 15.3967 140.128 15.5501C140.243 15.7419 140.301 15.9338 140.301 16.1256C140.301 16.7586 139.649 17.2957 138.344 17.7369C138.191 17.7944 138.066 17.852 137.97 17.9095C137.893 17.9671 137.855 18.0342 137.855 18.1109V18.1973C137.855 18.2548 137.836 18.2836 137.797 18.2836C137.778 18.2836 137.749 18.274 137.711 18.2548C137.673 18.2356 137.634 18.226 137.596 18.226H137.567C137.548 18.2452 137.538 18.274 137.538 18.3123C137.538 18.3699 137.51 18.4178 137.452 18.4562C137.395 18.4946 137.327 18.5138 137.251 18.5138C137.174 18.5138 137.107 18.5329 137.049 18.5713C137.011 18.6097 136.992 18.648 136.992 18.6864C136.992 18.7439 136.963 18.7919 136.905 18.8303C136.867 18.8494 136.819 18.859 136.762 18.859H136.647C136.455 18.859 136.205 18.9454 135.898 19.118C135.553 19.329 135.217 19.588 134.891 19.8949C134.719 20.0675 134.546 20.2114 134.373 20.3265C134.22 20.4224 134.105 20.4703 134.028 20.4703C133.971 20.4703 133.903 20.4991 133.827 20.5567C133.75 20.595 133.683 20.643 133.625 20.7005C133.587 20.7773 133.481 20.8732 133.309 20.9883C133.136 21.1033 132.944 21.2184 132.733 21.3335C132.522 21.4486 132.35 21.5349 132.215 21.5925C132.1 21.6309 132.024 21.65 131.985 21.65C131.966 21.65 131.956 21.6404 131.956 21.6213V21.5925C131.937 21.5925 131.918 21.6021 131.899 21.6213C131.841 21.6596 131.774 21.7364 131.698 21.8514C131.621 21.9474 131.563 22.0145 131.525 22.0529C131.506 22.072 131.487 22.0816 131.467 22.0816C131.448 22.0816 131.439 22.072 131.439 22.0529C131.439 22.0337 131.429 22.0241 131.41 22.0241C131.391 22.0241 131.362 22.0337 131.323 22.0529C131.247 22.0912 131.151 22.168 131.036 22.283C130.921 22.379 130.786 22.4653 130.633 22.542C130.499 22.5996 130.384 22.6283 130.288 22.6283C130.173 22.6283 130.009 22.6955 129.798 22.8297C129.607 22.9448 129.415 23.0887 129.223 23.2613C129.031 23.434 128.801 23.597 128.532 23.7505C128.264 23.9039 128.034 24.0094 127.842 24.067C127.631 24.1245 127.449 24.2013 127.295 24.2972C127.142 24.3739 127.046 24.4506 127.007 24.5274C126.969 24.6041 126.912 24.6712 126.835 24.7288C126.777 24.7671 126.72 24.7863 126.662 24.7863C126.585 24.7863 126.518 24.8055 126.461 24.8439C126.422 24.8822 126.403 24.9206 126.403 24.959C126.403 25.0165 126.374 25.0645 126.317 25.1028C126.279 25.122 126.231 25.1316 126.173 25.1316C126.116 25.1316 126 25.1796 125.828 25.2755C125.674 25.3522 125.511 25.4577 125.339 25.592C125.166 25.7071 125.022 25.7934 124.907 25.8509C124.792 25.9085 124.706 25.9373 124.648 25.9373H124.562C124.504 25.9373 124.399 25.9756 124.245 26.0523C124.073 26.1674 123.862 26.3113 123.612 26.4839C123.037 26.9059 122.596 27.117 122.289 27.117C121.943 27.117 121.665 27.2704 121.454 27.5773C121.358 27.7116 121.243 27.8267 121.109 27.9226C120.994 28.0185 120.888 28.0761 120.792 28.0952C120.697 28.0952 120.601 28.124 120.505 28.1816C120.428 28.2199 120.37 28.2679 120.332 28.3254C120.294 28.383 120.236 28.4405 120.159 28.4981C120.102 28.5364 120.035 28.5652 119.958 28.5844C119.881 28.6036 119.785 28.6515 119.67 28.7283C119.555 28.7858 119.45 28.8625 119.354 28.9584C119.239 29.0543 119.104 29.1311 118.951 29.1886C118.817 29.2462 118.692 29.2749 118.577 29.2749C118.481 29.2749 118.356 29.3229 118.203 29.4188C118.069 29.4955 117.954 29.5915 117.858 29.7065C117.762 29.8408 117.647 29.9559 117.512 30.0518C117.397 30.1477 117.282 30.2053 117.167 30.2245C117.071 30.2245 116.946 30.2628 116.793 30.3396C116.64 30.4163 116.496 30.493 116.361 30.5697C116.17 30.704 116.074 30.7903 116.074 30.8287H116.131C116.227 30.8287 116.429 30.8095 116.735 30.7712C116.966 30.7328 117.225 30.704 117.512 30.6848C117.8 30.6465 118.049 30.6177 118.26 30.5985C118.452 30.5793 118.682 30.5506 118.951 30.5122C119.239 30.4738 119.488 30.4451 119.699 30.4259C119.91 30.3875 120.255 30.3587 120.735 30.3396C121.234 30.3012 121.752 30.2724 122.289 30.2532C122.826 30.2341 123.344 30.2149 123.842 30.1957C124.341 30.1573 124.696 30.119 124.907 30.0806C125.214 30.0422 125.789 29.9943 126.633 29.9367C127.477 29.8792 128.36 29.8312 129.281 29.7929C130.201 29.7545 130.921 29.7353 131.439 29.7353C131.65 29.7353 131.966 29.7545 132.388 29.7929C132.829 29.812 133.261 29.8408 133.683 29.8792C134.508 29.9559 135.179 29.9943 135.697 29.9943C136.368 29.9943 136.79 29.9367 136.963 29.8216C137.04 29.7833 137.116 29.7641 137.193 29.7641C137.327 29.7641 137.481 29.8216 137.654 29.9367C137.807 30.0326 137.96 30.0902 138.114 30.1094C138.267 30.1286 138.402 30.1381 138.517 30.1381C138.709 30.1381 138.948 30.1286 139.236 30.1094C139.562 30.0902 139.812 30.0806 139.984 30.0806C140.138 30.0806 140.234 30.0998 140.272 30.1381C140.329 30.1573 140.358 30.1957 140.358 30.2532V30.3396C140.358 30.493 140.493 30.6177 140.761 30.7136C140.915 30.7328 141.03 30.7903 141.106 30.8862C141.183 30.9822 141.221 31.126 141.221 31.3178V31.4617C141.221 31.7111 141.174 31.9029 141.078 32.0372C141.02 32.1523 140.924 32.2098 140.79 32.2098C140.732 32.2098 140.675 32.2002 140.617 32.181C140.56 32.1619 140.512 32.1523 140.473 32.1523C140.435 32.1523 140.416 32.1715 140.416 32.2098L140.445 32.2674C140.464 32.2865 140.473 32.3057 140.473 32.3249C140.473 32.4208 140.282 32.4975 139.898 32.5551C139.188 32.6702 138.411 32.7757 137.567 32.8716C136.723 32.9483 136.138 32.9963 135.812 33.0155C135.659 33.0155 135.515 33.0251 135.38 33.0442C135.246 33.0442 135.15 33.0442 135.093 33.0442H134.834C134.719 33.0251 134.604 32.9963 134.489 32.9579C134.354 32.9387 134.191 32.9291 133.999 32.9291C133.808 32.9291 133.635 32.9483 133.481 32.9867C133.328 33.0251 133.175 33.0442 133.021 33.0442C132.829 33.0442 132.637 33.0155 132.446 32.9579C132.235 32.8812 132.081 32.8524 131.985 32.8716C131.909 32.8716 131.861 32.91 131.841 32.9867C131.803 33.0826 131.755 33.1306 131.698 33.1306C131.64 33.1306 131.573 33.0922 131.496 33.0155C131.4 32.9387 131.314 32.9004 131.237 32.9004C131.18 32.9004 131.103 32.9387 131.007 33.0155C130.93 33.073 130.777 33.121 130.547 33.1593C130.336 33.1785 130.125 33.1881 129.914 33.1881H129.597C129.271 33.1881 128.974 33.1977 128.705 33.2169C128.437 33.2361 128.274 33.2648 128.216 33.3032C128.158 33.3224 128.11 33.332 128.072 33.332H128.015C127.938 33.3128 127.88 33.2744 127.842 33.2169C127.804 33.1402 127.756 33.1018 127.698 33.1018C127.66 33.1018 127.631 33.1018 127.612 33.1018C127.535 33.1018 127.439 33.1402 127.324 33.2169C127.209 33.2744 127.046 33.3128 126.835 33.332C126.643 33.3512 126.47 33.3607 126.317 33.3607H126.087C125.837 33.3607 125.607 33.3703 125.396 33.3895C125.204 33.3895 125.08 33.4087 125.022 33.4471C124.907 33.5046 124.754 33.5334 124.562 33.5334C124.389 33.5334 124.255 33.5334 124.159 33.5334C123.967 33.5334 123.785 33.5238 123.612 33.5046C123.344 33.4662 123.152 33.4087 123.037 33.332C122.979 33.2744 122.903 33.2457 122.807 33.2457C122.672 33.2457 122.5 33.3128 122.289 33.4471C122.02 33.6197 121.79 33.706 121.598 33.706C121.406 33.706 121.262 33.6293 121.167 33.4758C121.128 33.4183 121.099 33.3895 121.08 33.3895C121.061 33.3895 121.042 33.4375 121.023 33.5334V33.5622C121.023 33.6389 120.869 33.6772 120.562 33.6772C120.332 33.6772 120.035 33.6581 119.67 33.6197C119.402 33.6005 119.162 33.5909 118.951 33.5909C118.491 33.5909 118.203 33.6389 118.088 33.7348C117.934 33.8499 117.685 33.917 117.34 33.9362C116.994 33.9554 116.716 33.965 116.505 33.965C116.198 33.965 115.882 33.9458 115.556 33.9074L115.412 33.8787L115.21 33.9074C115.057 33.9266 114.932 33.9554 114.836 33.9938C114.721 34.0321 114.616 34.0513 114.52 34.0513C114.443 34.0513 114.386 34.0321 114.347 33.9938ZM109.657 32.0372C109.696 31.9796 109.734 31.9413 109.772 31.9221C109.811 31.8837 109.839 31.8645 109.859 31.8645C109.897 31.8645 109.926 31.8741 109.945 31.8933C110.003 31.9317 110.031 31.9892 110.031 32.066C110.012 32.1235 109.983 32.181 109.945 32.2386C109.887 32.2961 109.811 32.3249 109.715 32.3249C109.676 32.3249 109.657 32.3057 109.657 32.2674C109.657 32.2098 109.657 32.1715 109.657 32.1523V32.0372Z" fill="white"/>
<path d="M141.998 35.2598C141.922 35.2214 141.807 35.183 141.653 35.1447C141.48 35.1063 141.308 35.0871 141.135 35.0871C140.982 35.0871 140.847 35.0775 140.732 35.0584C140.617 35.02 140.56 34.972 140.56 34.9145C140.56 34.857 140.579 34.8186 140.617 34.7994C140.656 34.761 140.694 34.7419 140.732 34.7419C140.79 34.7419 140.838 34.7131 140.876 34.6555C140.915 34.598 140.934 34.5309 140.934 34.4541C140.934 34.3966 140.915 34.339 140.876 34.2815C140.819 34.2239 140.771 34.1952 140.732 34.1952C140.656 34.1952 140.617 34.176 140.617 34.1376C140.617 34.0801 140.656 34.0129 140.732 33.9362C140.828 33.8019 141.135 33.6772 141.653 33.5622C142.171 33.4471 143.034 33.3128 144.243 33.1593C144.569 33.121 144.809 33.0826 144.962 33.0442C145.115 33.0059 145.202 32.9675 145.221 32.9291C145.259 32.8716 145.278 32.8236 145.278 32.7853C145.278 32.7277 145.269 32.6702 145.25 32.6126V32.4688C145.25 32.3729 145.259 32.277 145.278 32.181C145.298 32.0084 145.326 31.8549 145.365 31.7207C145.422 31.5672 145.48 31.385 145.537 31.174C145.595 30.963 145.643 30.7616 145.681 30.5697C145.701 30.3779 145.739 30.2149 145.796 30.0806C145.873 29.9463 145.94 29.8792 145.998 29.8792C146.151 29.8792 146.295 29.7257 146.429 29.4188C146.583 29.0927 146.698 28.6803 146.775 28.1816C146.813 27.9514 146.88 27.7308 146.976 27.5198C147.072 27.2896 147.187 27.1074 147.321 26.9731C147.436 26.8388 147.532 26.7045 147.609 26.5703C147.686 26.436 147.724 26.3497 147.724 26.3113C147.724 26.1387 147.782 25.9468 147.897 25.7358C148.012 25.5057 148.137 25.3042 148.271 25.1316C148.405 24.959 148.539 24.8535 148.674 24.8151C148.866 24.7575 148.961 24.6616 148.961 24.5274L148.933 24.441V24.1533C148.971 24.0574 149.038 23.9615 149.134 23.8656C149.211 23.7697 149.278 23.6738 149.336 23.5778C149.393 23.4628 149.431 23.3668 149.451 23.2901C149.47 22.9065 149.508 22.6571 149.566 22.542C149.623 22.4269 149.729 22.3502 149.882 22.3118C149.997 22.2735 150.122 22.1488 150.256 21.9378C150.41 21.7076 150.525 21.4966 150.602 21.3048C150.697 21.1129 150.745 20.9883 150.745 20.9307C150.745 20.8732 150.736 20.8348 150.717 20.8156V20.7868C150.717 20.7485 150.774 20.6622 150.889 20.5279C151.004 20.3744 151.158 20.1922 151.35 19.9812C151.791 19.4633 152.011 19.0604 152.011 18.7727C152.011 18.5809 151.925 18.437 151.752 18.3411C151.599 18.2836 151.465 18.2548 151.35 18.2548C151.235 18.2548 151.148 18.2548 151.091 18.2548C150.995 18.2548 150.899 18.2644 150.803 18.2836C150.669 18.3028 150.602 18.3507 150.602 18.4274C150.602 18.5042 150.534 18.5521 150.4 18.5713C150.285 18.5713 150.18 18.5713 150.084 18.5713H149.796C149.623 18.5521 149.508 18.5042 149.451 18.4274C149.412 18.3699 149.364 18.3411 149.307 18.3411C149.211 18.3411 149.105 18.3795 148.99 18.4562C148.856 18.5521 148.75 18.6001 148.674 18.6001C148.578 18.6001 148.492 18.5521 148.415 18.4562C148.357 18.3987 148.271 18.3507 148.156 18.3123C148.06 18.2548 147.964 18.226 147.868 18.226C147.791 18.226 147.715 18.2164 147.638 18.1973C147.58 18.1589 147.552 18.1109 147.552 18.0534C147.552 18.015 147.523 17.9767 147.465 17.9383C147.427 17.8999 147.369 17.8807 147.293 17.8807C147.139 17.8807 147.053 17.8328 147.034 17.7369C147.014 17.641 147.005 17.5738 147.005 17.5355C147.005 17.4396 147.024 17.3341 147.062 17.219C147.139 17.0463 147.254 16.9312 147.408 16.8737C147.6 16.8353 147.695 16.7874 147.695 16.7298C147.695 16.6915 147.628 16.6243 147.494 16.5284C147.398 16.4709 147.341 16.4133 147.321 16.3558C147.302 16.2982 147.293 16.2599 147.293 16.2407C147.293 16.2215 147.302 16.2119 147.321 16.2119C147.398 16.1735 147.753 16.1352 148.386 16.0968C149.019 16.0393 149.796 15.9817 150.717 15.9242C151.637 15.8666 152.635 15.8091 153.709 15.7515C154.783 15.6748 155.685 15.6077 156.414 15.5501C157.756 15.4542 158.946 15.4062 159.982 15.4062H160.845C162.053 15.4254 162.792 15.5117 163.06 15.6652C163.156 15.7228 163.214 15.7707 163.233 15.8091L163.262 15.8666C163.262 15.8858 163.252 15.8954 163.233 15.8954C163.175 15.8954 163.137 15.9338 163.118 16.0105C163.099 16.068 163.089 16.116 163.089 16.1543C163.089 16.2119 163.099 16.2694 163.118 16.327C163.137 16.3845 163.147 16.4325 163.147 16.4709C163.147 16.5668 163.118 16.6435 163.06 16.701C163.003 16.7778 162.878 16.8353 162.686 16.8737C162.456 16.9312 162.341 16.9888 162.341 17.0463C162.341 17.0847 162.379 17.123 162.456 17.1614C162.552 17.219 162.6 17.2669 162.6 17.3053C162.6 17.3436 162.542 17.3628 162.427 17.3628C162.255 17.382 161.967 17.4108 161.564 17.4491C161.18 17.4683 160.797 17.4875 160.413 17.5067C160.145 17.5259 160.01 17.5738 160.01 17.6506C160.01 17.6697 160.02 17.6889 160.039 17.7081C160.058 17.7273 160.068 17.7465 160.068 17.7657C160.068 17.8232 160.001 17.852 159.867 17.852C159.751 17.852 159.588 17.8328 159.377 17.7944C159.186 17.7561 159.023 17.7369 158.888 17.7369C158.677 17.7369 158.543 17.7848 158.485 17.8807C158.447 17.9575 158.389 17.9958 158.313 17.9958C158.236 17.9958 158.121 17.9575 157.967 17.8807C157.872 17.8232 157.756 17.7848 157.622 17.7657C157.507 17.7465 157.411 17.7369 157.334 17.7369C157.258 17.7369 157.181 17.7465 157.104 17.7657C156.97 17.7848 156.826 17.804 156.673 17.8232C156.519 17.8424 156.395 17.852 156.299 17.852C156.107 17.8903 155.944 18.1109 155.809 18.5138C155.733 18.7056 155.618 18.9358 155.464 19.2043C155.311 19.4729 155.148 19.7222 154.975 19.9524C154.802 20.1826 154.649 20.4128 154.515 20.643C154.38 20.8732 154.294 21.0554 154.256 21.1897C154.237 21.3048 154.189 21.4199 154.112 21.5349C154.054 21.6309 153.987 21.6884 153.91 21.7076C153.853 21.7459 153.786 21.8227 153.709 21.9378C153.652 22.0529 153.604 22.1871 153.565 22.3406C153.527 22.4941 153.479 22.6379 153.421 22.7722C153.364 22.9065 153.297 22.9928 153.22 23.0312C153.162 23.0887 153.028 23.2901 152.817 23.6354C152.625 23.9807 152.414 24.3931 152.184 24.8726C151.935 25.3714 151.666 25.8893 151.378 26.4264C151.11 26.9635 150.88 27.4047 150.688 27.75C149.94 29.0735 149.336 30.2341 148.875 31.2315C148.415 32.229 148.185 32.8332 148.185 33.0442V33.1018C148.223 33.121 148.405 33.1497 148.731 33.1881C149.077 33.2265 149.451 33.2648 149.853 33.3032C150.256 33.3224 150.592 33.332 150.861 33.332C150.976 33.332 151.158 33.332 151.407 33.332C151.676 33.3128 151.963 33.3032 152.27 33.3032C152.558 33.3032 152.817 33.3128 153.047 33.332C153.297 33.3512 153.45 33.3799 153.508 33.4183C153.584 33.4567 153.68 33.495 153.795 33.5334C153.93 33.5718 154.064 33.6005 154.198 33.6197C154.563 33.6581 154.745 33.7348 154.745 33.8499C154.745 33.8883 154.697 33.9458 154.601 34.0225C154.543 34.0993 154.467 34.1376 154.371 34.1376C154.275 34.1376 154.15 34.0993 153.997 34.0225C153.863 33.9458 153.747 33.9074 153.652 33.9074C153.556 33.9074 153.479 33.9362 153.421 33.9938C153.383 34.0321 153.364 34.0705 153.364 34.1088C153.364 34.1664 153.45 34.2239 153.623 34.2815C153.872 34.3774 153.997 34.5213 153.997 34.7131V34.7419C153.997 34.972 153.863 35.1351 153.594 35.231C153.479 35.2694 153.335 35.2981 153.162 35.3173C152.99 35.3173 152.846 35.3173 152.731 35.3173H152.385C152.059 35.2981 151.378 35.2886 150.343 35.2886C149.326 35.2694 148.204 35.2694 146.976 35.2886C145.768 35.2886 144.713 35.2981 143.811 35.3173C142.929 35.3173 142.449 35.3269 142.372 35.3461H142.2C142.142 35.3461 142.075 35.3173 141.998 35.2598Z" fill="white"/>
<path d="M176.411 13.7374C176.469 13.8333 176.497 13.9868 176.497 14.1978C176.497 14.3704 176.469 14.6486 176.411 15.0322C176.354 15.3967 176.152 16.1064 175.807 17.1614C175.653 17.641 175.5 18.1301 175.347 18.6288C175.193 19.1276 175.068 19.5304 174.972 19.8373C174.877 20.1251 174.761 20.4512 174.627 20.8156C174.512 21.1801 174.397 21.4966 174.282 21.7651C174.186 22.0145 174.1 22.2543 174.023 22.4845C173.985 22.6763 173.965 22.8202 173.965 22.9161V23.1175C173.965 23.1942 173.956 23.2805 173.937 23.3764C173.917 23.4532 173.869 23.5299 173.793 23.6066C173.735 23.6833 173.658 23.8656 173.563 24.1533C173.467 24.441 173.371 24.7767 173.275 25.1604C173.141 25.7167 173.073 26.1003 173.073 26.3113V26.3976C173.073 26.5703 173.121 26.7141 173.217 26.8292C173.294 26.9251 173.352 27.0115 173.39 27.0882C173.409 27.1457 173.419 27.1841 173.419 27.2033V27.2896C173.419 27.3088 173.428 27.3471 173.447 27.4047C173.486 27.4622 173.553 27.5198 173.649 27.5773C173.802 27.7116 173.879 27.8267 173.879 27.9226C173.879 28.0569 173.706 28.1528 173.361 28.2103C173.227 28.2295 173.131 28.2679 173.073 28.3254C173.016 28.3638 172.987 28.4022 172.987 28.4405V28.5268C172.987 28.5652 172.958 28.6228 172.901 28.6995C172.843 28.757 172.757 28.805 172.642 28.8433C172.469 28.9009 172.325 29.0543 172.21 29.3037C172.114 29.5531 171.999 29.9943 171.865 30.6273C171.692 31.337 171.52 32.0084 171.347 32.6414C171.174 33.2552 170.906 34.1088 170.541 35.2022C170.35 35.7777 170.196 36.1326 170.081 36.2668C170.062 36.3052 170.043 36.3244 170.023 36.3244C169.985 36.3244 169.966 36.2573 169.966 36.123V35.6338C169.966 35.4996 169.956 35.4324 169.937 35.4324C169.86 35.4324 169.726 35.6626 169.534 36.123C169.381 36.5258 169.208 36.7464 169.016 36.7848H168.959C168.767 36.7848 168.518 36.6313 168.211 36.3244C167.827 35.9599 167.635 35.6434 167.635 35.3749C167.635 35.2598 167.674 35.1543 167.75 35.0584C167.827 34.9433 167.894 34.7035 167.952 34.339C168.009 33.9554 168.048 33.5526 168.067 33.1306C168.086 32.9196 168.096 32.7277 168.096 32.5551C168.096 32.3825 168.086 32.2386 168.067 32.1235C168.048 32.0084 168.038 31.9125 168.038 31.8358C168.038 31.759 168.048 31.6919 168.067 31.6344C168.105 31.5576 168.201 31.5001 168.355 31.4617C168.508 31.4042 168.604 31.3274 168.642 31.2315C168.662 31.1932 168.671 31.1548 168.671 31.1164C168.671 31.0205 168.642 30.8862 168.585 30.7136C168.546 30.541 168.498 30.3875 168.441 30.2532C168.383 30.0998 168.345 30.0039 168.326 29.9655C168.307 29.9463 168.249 29.9367 168.153 29.9367C168.038 29.9367 167.798 29.9655 167.434 30.0231C167.089 30.0614 166.599 30.1477 165.966 30.282L163.751 30.7136L163.06 31.6344C162.849 31.9029 162.638 32.1523 162.427 32.3825C162.236 32.5935 162.082 32.7469 161.967 32.8428C161.871 32.9196 161.794 32.9963 161.737 33.073C161.679 33.1306 161.65 33.1881 161.65 33.2457V33.2744C161.65 33.3512 161.612 33.4662 161.535 33.6197C161.478 33.754 161.401 33.8691 161.305 33.965C161.228 34.0417 161.161 34.0801 161.104 34.0801H161.017C160.998 34.0801 160.96 34.0993 160.902 34.1376C160.845 34.176 160.797 34.2335 160.758 34.3103C160.701 34.387 160.672 34.4541 160.672 34.5117V34.5692C160.672 34.5884 160.682 34.598 160.701 34.598C160.701 34.6364 160.605 34.7515 160.413 34.9433C160.241 35.1351 159.991 35.3941 159.665 35.7201C158.955 36.4299 158.543 36.7848 158.428 36.7848C158.409 36.7848 158.399 36.7752 158.399 36.756C158.399 36.6984 158.447 36.5833 158.543 36.4107C158.581 36.334 158.6 36.286 158.6 36.2668H158.572C158.533 36.2668 158.418 36.3628 158.226 36.5546C157.939 36.8231 157.651 36.9574 157.363 36.9574H157.219C157.008 36.9574 156.874 36.919 156.817 36.8423C156.759 36.7464 156.73 36.545 156.73 36.2381C156.711 35.7969 156.634 35.5475 156.5 35.49C156.481 35.49 156.471 35.4804 156.471 35.4612C156.471 35.3845 156.538 35.2406 156.673 35.0296C156.788 34.8186 156.98 34.5404 157.248 34.1952C157.517 33.8499 157.737 33.543 157.91 33.2744C158.083 33.0059 158.169 32.8428 158.169 32.7853C158.169 32.7086 158.255 32.6031 158.428 32.4688C158.581 32.3345 158.744 32.2098 158.917 32.0947C159.07 32.018 159.195 31.9796 159.291 31.9796H159.406C159.425 31.9796 159.445 31.9796 159.464 31.9796C159.502 31.9604 159.54 31.9221 159.579 31.8645L159.608 31.7782C159.608 31.759 159.598 31.7303 159.579 31.6919C159.56 31.6535 159.521 31.6248 159.464 31.6056C159.425 31.5864 159.387 31.5384 159.349 31.4617C159.329 31.3658 159.32 31.2603 159.32 31.1452V31.0589C159.32 30.963 159.301 30.8575 159.262 30.7424C159.224 30.6081 159.157 30.4834 159.061 30.3683C158.946 30.1957 158.888 30.0614 158.888 29.9655V29.8792C158.888 29.8216 158.975 29.7065 159.147 29.5339C159.262 29.4188 159.339 29.3325 159.377 29.2749V29.2174C159.377 29.179 159.358 29.1599 159.32 29.1599H159.262C159.224 29.1599 159.186 29.1503 159.147 29.1311C159.109 29.1119 159.08 29.0735 159.061 29.016C159.061 28.9776 159.128 28.9297 159.262 28.8721C159.377 28.8146 159.531 28.7762 159.723 28.757C160.375 28.6803 160.883 28.5173 161.248 28.2679C161.631 27.9993 162.13 27.4622 162.744 26.6566C163.108 26.1962 163.434 25.8126 163.722 25.5057C164.029 25.1987 164.24 25.0261 164.355 24.9877C164.489 24.9686 164.557 24.9302 164.557 24.8726C164.557 24.8343 164.547 24.8055 164.528 24.7863V24.7288C164.528 24.6329 164.614 24.441 164.787 24.1533C164.959 23.8656 165.218 23.5011 165.564 23.0599C165.909 22.6187 166.206 22.2351 166.456 21.909C166.724 21.5829 166.878 21.3911 166.916 21.3335C169.774 17.4396 171.366 15.4926 171.692 15.4926H171.807C171.884 15.4926 171.923 15.4734 171.923 15.435C171.923 15.3967 171.913 15.3583 171.894 15.3199C171.875 15.2816 171.865 15.2432 171.865 15.2048C171.865 15.1473 171.894 15.061 171.951 14.9459C172.009 14.8116 172.105 14.6581 172.239 14.4855C172.469 14.1978 172.699 13.9484 172.93 13.7374C173.16 13.5264 173.342 13.4017 173.476 13.3633C173.515 13.3442 173.543 13.3346 173.563 13.3346C173.582 13.3346 173.591 13.3538 173.591 13.3921C173.591 13.4305 173.582 13.4784 173.563 13.536C173.543 13.5743 173.534 13.6031 173.534 13.6223C173.534 13.6415 173.543 13.6511 173.563 13.6511C173.582 13.6511 173.611 13.6415 173.649 13.6223C173.706 13.5648 173.735 13.5072 173.735 13.4497V13.3633C173.735 13.325 173.726 13.277 173.706 13.2195C173.687 13.1811 173.678 13.1428 173.678 13.1044C173.678 13.066 173.687 13.0181 173.706 12.9605C173.745 12.8838 173.812 12.8167 173.908 12.7591C174.042 12.644 174.138 12.5865 174.196 12.5865C174.253 12.5865 174.282 12.6248 174.282 12.7016C174.282 12.7399 174.301 12.7687 174.339 12.7879H174.368C174.407 12.7879 174.435 12.7783 174.455 12.7591C174.512 12.7207 174.589 12.7016 174.685 12.7016C174.781 12.7016 174.925 12.7399 175.116 12.8167C175.327 12.8742 175.567 12.9989 175.836 13.1907C176.104 13.3633 176.296 13.5456 176.411 13.7374ZM170.196 22.1392C170.023 22.0625 169.899 22.0241 169.822 22.0241C169.803 22.0241 169.784 22.0337 169.765 22.0529C169.745 22.0529 169.736 22.0625 169.736 22.0816C169.736 22.1008 169.812 22.1584 169.966 22.2543C170.081 22.3118 170.177 22.3502 170.254 22.3694H170.426V22.3406C170.426 22.3214 170.407 22.2926 170.369 22.2543C170.35 22.2159 170.292 22.1775 170.196 22.1392ZM169.88 25.1028C169.976 24.9877 170.091 24.7767 170.225 24.4698C170.359 24.1437 170.465 23.8176 170.541 23.4915C170.618 23.223 170.656 23.0216 170.656 22.8873V22.801C170.656 22.7434 170.637 22.7051 170.599 22.6859C170.561 22.6667 170.513 22.6571 170.455 22.6571C170.398 22.6763 170.369 22.6955 170.369 22.7146V22.7434C170.369 22.7818 170.378 22.8106 170.398 22.8297L170.426 22.8585C170.426 22.9736 169.947 23.1654 168.988 23.434C168.93 23.4532 168.882 23.4915 168.844 23.5491C168.825 23.6066 168.815 23.6642 168.815 23.7217C168.815 23.8368 168.767 23.9807 168.671 24.1533C168.575 24.3259 168.46 24.4794 168.326 24.6137C168.211 24.7288 168.105 24.7863 168.009 24.7863H167.894C167.779 24.7863 167.674 24.8343 167.578 24.9302C167.52 25.0069 167.491 25.0836 167.491 25.1604C167.491 25.2179 167.501 25.2755 167.52 25.333V25.3618C167.52 25.4385 167.482 25.5728 167.405 25.7646C167.328 25.9373 167.204 26.1387 167.031 26.3688C166.858 26.6182 166.715 26.8292 166.599 27.0019C166.484 27.1745 166.427 27.28 166.427 27.3184H166.571C166.647 27.3184 166.791 27.3184 167.002 27.3184C167.232 27.2992 167.568 27.2512 168.009 27.1745L169.592 26.9443V26.1962C169.592 25.966 169.621 25.755 169.678 25.5632C169.736 25.3522 169.803 25.1987 169.88 25.1028Z" fill="white"/>
</mask>
<g mask="url(#mask0_2517_40950)">
<path d="M-3.16558 30.7536C-3.16558 0.328943 -3.16558 -30.0957 -3.19141 -60.5204C-3.19141 -61.3986 -3.01061 -61.5793 -2.13248 -61.5793C58.7944 -61.5535 119.747 -61.5535 180.674 -61.5793C181.552 -61.5793 181.733 -61.3986 181.733 -60.5204C181.707 0.406424 181.707 61.3591 181.733 122.286C181.733 123.164 181.552 123.345 180.674 123.345C119.747 123.319 58.7944 123.319 -2.13248 123.345C-3.01061 123.345 -3.19141 123.164 -3.19141 122.286C-3.16558 91.7579 -3.16558 61.2558 -3.16558 30.7536ZM-1.4868 39.1475C-1.4868 65.6206 -1.51263 92.0937 -1.51263 118.541C-0.996077 119.548 -2.88148 121.692 -0.402046 121.692C53.7322 121.744 107.866 121.744 162.001 121.718C162.466 121.718 163.37 121.072 163.318 120.917C162.362 116.707 164.997 116.991 167.76 117.12C170.756 117.275 173.778 117.095 176.8 117.172C177.885 117.198 178.143 116.888 178.143 115.803C178.091 103.561 178.117 91.3447 178.117 79.1025C178.091 33.233 178.091 -12.6364 178.065 -58.5059C177.859 -58.6867 177.678 -58.9966 177.471 -58.9966C171.918 -58.9966 166.391 -58.9966 160.838 -58.9191C160.554 -58.9191 160.012 -58.041 160.012 -57.6019C159.96 -42.028 160.012 -26.4799 160.219 -10.9318C160.27 -7.21266 158.23 -5.7405 155.311 -4.86237C154.33 -4.6041 153.452 -4.47496 152.47 -4.21669C148.725 -4.21669 144.851 -5.37891 143.276 0.19981C142.269 3.68651 139.014 6.52753 136.767 9.65264C135.708 10.4275 134.753 11.4089 133.591 11.9513C128.244 14.534 123.182 10.5049 117.474 11.3056C111.172 12.1837 107.032 13.9139 106.826 20.5515C106.826 20.8615 110.033 27.2309 104.095 23.5796C103.837 23.4246 103.476 23.5736 103.14 23.5736C98.8268 20.7068 93.6614 23.6511 89.2449 21.4816C89.0641 21.1458 88.8833 20.8101 88.6767 20.4743C88.7025 18.7439 88.8575 17.0135 88.7025 15.3088C88.4701 12.9069 88.8058 11.538 91.8018 12.0546C93.5839 12.3645 96.4766 12.9585 97.1222 10.9957C99.4725 3.89313 103.011 -2.58956 106.059 -9.33051C107.815 -13.2304 103.76 -16.9754 103.269 -20.9528C102.778 -24.7753 99.6275 -28.0295 100.841 -32.1103C102.546 -37.7407 106.601 -41.9763 109.881 -46.6769C110.217 -47.0127 110.552 -47.3484 110.914 -47.71C113.729 -51.8941 117.009 -55.5099 122.072 -57.0079C122.846 -57.4211 124.551 -56.6721 124.293 -58.2993C124.086 -59.6939 122.614 -58.9708 121.787 -58.9708C82.2198 -58.945 42.6522 -58.8675 3.05883 -59.0999C-1.56428 -59.1257 -2.28745 -57.5244 -1.53845 -53.7795C-1.53845 -23.8455 -1.53845 6.11428 -1.53845 36.0482C-1.51262 37.0813 -1.4868 38.1144 -1.4868 39.1475ZM135.424 -36.4493C135.373 -36.4493 135.321 -36.4493 135.243 -36.4493C135.243 -43.2419 135.243 -50.0345 135.243 -56.8271C135.243 -57.5761 135.579 -58.5317 134.159 -58.5059C132.738 -58.4801 133.151 -57.4728 133.151 -56.7754C133.048 -43.526 132.971 -30.2765 132.867 -17.0271C132.867 -15.5549 133.487 -14.5993 134.83 -14.0827C134.934 -14.0311 135.398 -14.4702 135.398 -14.6509C135.424 -21.9343 135.424 -29.1918 135.424 -36.4493Z" fill="#FCE8EC"/>
<path d="M178.017 -58.4546C178.043 -12.5851 178.043 33.2843 178.069 79.1538C178.069 91.396 178.069 103.612 178.095 115.855C178.095 116.913 177.837 117.249 176.752 117.223C173.73 117.146 170.734 117.301 167.712 117.172C164.923 117.043 162.289 116.759 163.27 120.968C163.322 121.149 162.418 121.769 161.953 121.769C107.819 121.795 53.6844 121.795 -0.449853 121.743C-2.92928 121.743 -1.06971 119.6 -1.56043 118.592C-1.27633 118.308 -0.992228 118.024 -0.733954 117.74C2.08123 114.615 4.89642 111.49 7.68578 108.365C17.681 108.21 27.702 108.158 37.6972 107.693C38.8594 107.641 39.1177 111.386 40.5382 108.235C41.0289 107.151 41.9329 106.273 42.6302 105.291C42.4753 106.014 41.9587 106.944 42.217 107.435C42.9918 108.855 43.5859 107.254 43.9733 106.97C46.4785 104.955 48.6222 107.228 50.7142 107.745C52.0831 108.08 52.987 110.457 54.0201 111.955C54.9241 113.272 55.6989 114.692 56.5254 116.061C56.577 114.925 56.6804 113.788 56.7062 112.678C56.732 111.645 56.6029 110.612 56.732 109.578C57.1452 106.324 56.4479 103.277 60.6061 100.823C63.9379 98.8601 68.9225 96.2774 68.0186 90.3112C67.6312 87.7802 68.0186 85.1458 68.0702 82.5372C70.653 80.6776 73.2615 78.7922 75.8443 76.9327C79.4859 73.8075 83.6958 71.793 88.2414 70.3983C88.3706 70.3983 88.4997 70.3983 88.6288 70.3983C88.8355 70.3208 89.0679 70.2175 89.2745 70.1401C94.3884 70.6566 93.7943 66.4467 94.6983 63.5282C101.284 61.023 108.774 65.8527 115.102 60.9455C116.858 59.5766 119.208 58.8535 120.629 57.278C123.005 54.6436 125.485 52.6549 129.126 52.035C131.141 51.6993 134.395 53.0165 134.963 50.4337C135.557 47.7477 134.498 44.7259 134.163 41.8332C135.402 40.2836 136.616 38.7597 137.856 37.2101C138.889 34.0075 140.981 36.4611 142.531 36.4095C147.722 36.177 148.548 31.4248 150.976 28.4288C155.444 22.9017 158.13 16.3157 160.326 9.70392C162.418 3.47952 160.455 -3.10647 160.455 -9.56332C160.481 -25.3955 160.455 -41.2019 160.481 -57.0341C160.481 -57.4473 160.687 -57.8864 160.791 -58.2996C161.101 -58.1447 161.41 -58.0155 161.695 -57.8606C161.488 -57.7831 161.255 -57.7056 161.049 -57.6281C161.126 -57.5506 161.178 -57.4731 161.255 -57.3698C161.385 -57.5248 161.54 -57.6798 161.669 -57.8606C167.17 -58.1188 172.594 -58.2996 178.017 -58.4546Z" fill="#F18928" stroke="#F18928" stroke-width="0.191525"/>
<path d="M-1.58594 36.048C-1.58594 6.11406 -1.58594 -23.8457 -1.58594 -53.7797C-1.4568 -53.7797 -1.30184 -53.8055 -1.1727 -53.8055C14.5304 -53.8055 30.2334 -53.6505 45.9365 -53.9088C50.2238 -53.9863 53.194 -52.7982 56.0608 -49.6731C58.7985 -46.7288 62.2594 -44.456 65.4103 -41.8991C68.1997 -39.4455 66.9083 -35.8296 66.8308 -33.2211C66.6242 -25.7053 66.6242 -18.0604 64.1964 -10.7254C63.6024 -8.89165 63.6799 -6.79963 63.06 -4.96589C61.7687 -1.09178 64.0931 3.2214 61.123 6.9922C58.7469 10.014 57.0681 13.604 55.0794 16.9357C53.3231 19.7509 50.7662 22.1271 50.4304 25.6912C50.2497 25.7429 50.0689 25.7687 49.8881 25.8204C46.0656 25.0714 41.4942 29.2296 38.369 23.9866C38.369 23.9866 38.1624 24.0641 38.1366 24.1158C37.2068 27.0343 34.1592 27.1376 32.1705 27.6541C23.3892 29.9528 14.2979 29.8494 5.33581 29.2038C-0.449532 28.7905 -2.28328 30.5984 -1.22435 36.0222C-1.32766 36.048 -1.4568 36.048 -1.58594 36.048Z" fill="#80C9C1" stroke="#80C9C1" stroke-width="0.191525"/>
<path d="M55.1055 16.9102C57.0942 13.5784 58.773 9.98844 61.1491 6.96663C64.1192 3.19583 61.7948 -1.11735 63.0861 -4.99146C63.706 -6.8252 63.6027 -8.89139 64.2225 -10.751C66.6245 -18.0601 66.6245 -25.7309 66.8569 -33.2466C66.9344 -35.881 68.2 -39.471 65.4364 -41.9246C69.2072 -40.1942 74.2694 -42.3379 77.0329 -37.1466C79.3574 -32.7817 82.7666 -38.2572 85.7368 -37.2241C86.2791 -38.9803 87.7771 -40.1942 87.8288 -42.3895C87.8804 -44.12 88.3712 -47.9166 90.4632 -47.3742C96.9459 -45.6696 103.429 -47.7616 109.808 -46.5994C106.528 -41.8988 102.447 -37.6631 100.768 -32.0327C99.5544 -27.9778 102.705 -24.6978 103.196 -20.8753C103.687 -16.8979 107.742 -13.1529 105.985 -9.25298C102.938 -2.51202 99.3995 3.99648 97.0492 11.0732C96.4035 13.0361 93.5108 12.442 91.7287 12.1321C88.7069 11.6156 88.397 12.9586 88.6294 15.3864C88.7844 17.091 88.6294 18.8214 88.6036 20.5518C84.9619 20.3711 81.3203 20.2936 77.7044 19.9578C76.6197 19.8545 75.5866 19.1313 74.5277 18.6923C75.0442 17.6592 74.5535 16.0321 76.3098 15.6963C76.4906 15.6705 76.8005 15.0248 76.723 14.8956C75.7157 13.501 74.6568 12.1579 73.5721 10.8407C73.5462 10.8149 72.9264 11.1507 72.6939 11.4089C67.9933 16.8327 62.6212 20.3194 55.1055 16.9102Z" fill="#95C7DB" stroke="#95C7DB" stroke-width="0.191525"/>
<path d="M105.133 50.4604C105.391 47.8002 106.682 46.483 109.498 46.2764C112.442 46.0697 110.582 43.2804 111.357 41.7824C113.139 38.2957 114.353 34.4474 114.172 30.3667C115.309 29.9534 116.523 29.6952 117.53 29.0753C121.042 26.9058 123.548 23.6257 128.068 22.386C130.547 21.6887 133.078 21.8695 135.403 21.0688C139.664 19.5967 139.457 14.9736 141.343 11.7968C143.667 9.93722 144.726 7.3803 146.069 4.79756C147.309 2.44727 145.424 -2.04669 150.15 -2.27914C151.545 -2.35662 152.061 -3.05396 152.294 -4.24202C153.275 -4.5003 154.278 -4.7388 155.259 -4.99707C157.584 6.41864 152.759 15.7226 144.39 22.1019C138.605 26.4926 138.786 31.6322 137.856 37.1593C136.616 38.7089 135.403 40.2328 134.163 41.7824C132.846 44.2877 130.495 43.0221 128.584 43.2546C126.879 43.4612 125.175 42.9705 123.599 44.2877C118.305 48.7558 112.158 51.0028 105.133 50.4604Z" fill="#FEDAA5" stroke="#FEDAA5" stroke-width="0.191525"/>
<path d="M141.421 11.7534C139.536 14.9301 139.706 19.5689 135.444 21.0669C133.12 21.8676 130.578 21.6803 128.098 22.3776C123.578 23.6173 121.067 26.906 117.554 29.0755C116.547 29.6954 115.287 29.9587 114.176 30.3719C110.483 28.125 106.791 25.8095 103.072 23.5626C103.408 23.5626 103.847 23.4076 104.08 23.5626C109.813 27.1009 106.74 20.8507 106.74 20.5408C106.946 13.9031 111.13 12.1727 117.406 11.2946C123.114 10.4939 128.151 14.523 133.523 11.9402C134.685 11.372 135.641 10.4164 136.7 9.6416C138.275 10.3389 139.871 11.056 141.421 11.7534Z" fill="#FFF1CF" stroke="#FFF1CF" stroke-width="0.191525" stroke-linejoin="bevel"/>
<path d="M94.6891 63.4649C93.7577 66.4144 94.3786 70.6057 89.2559 70.0883C89.1453 69.7842 88.6794 70.1093 88.6091 70.3729C88.4797 70.3729 88.2851 70.2808 88.1557 70.2808C87.3796 55.5077 88.014 40.7231 85.582 26.0535C85.789 23.7509 87.2379 22.4055 89.2042 21.4482C93.6283 23.6474 98.8028 20.6979 103.123 23.5439C106.823 25.7948 110.449 28.1134 114.174 30.3643C114.355 34.4522 113.214 38.2135 111.429 41.7322C110.652 43.2328 112.515 46.027 109.566 46.234C106.746 46.4151 105.452 47.7604 105.193 50.4253C101.649 54.7718 98.156 59.1184 94.6891 63.4649Z" fill="#A29EA1" stroke="#A29EA1" stroke-width="0.191525"/>
<path d="M-1.58594 36.0483C-1.4568 36.0483 -1.32766 36.0225 -1.19853 36.0225C14.6595 36.5907 30.5175 37.3397 46.3497 35.5317C41.7524 41.3946 37.2068 46.2759 28.2964 45.5011C18.6627 44.6746 8.84833 45.811 -0.86277 46.121C-1.09522 43.7965 -1.30184 41.472 -1.53428 39.1476C-1.56011 38.1145 -1.58594 37.0814 -1.58594 36.0483Z" fill="#797AAA" stroke="#797AAA" stroke-width="0.191525"/>
<path d="M137.855 37.1589C138.785 31.6319 138.604 26.4922 144.39 22.1015C152.758 15.7222 157.588 6.42431 155.237 -4.9914C158.156 -5.86953 160.067 -7.13507 160.015 -10.8542C159.809 -26.4023 159.938 -41.9762 159.964 -57.5243C159.964 -57.9892 160.48 -58.8415 160.79 -58.8415C166.343 -58.9448 171.87 -58.9448 177.423 -58.919C177.63 -58.919 177.81 -58.6091 178.017 -58.4283C172.593 -58.2733 167.17 -58.0925 161.746 -57.9376C161.436 -58.0925 161.126 -58.2217 160.842 -58.3766C160.739 -57.9634 160.532 -57.5243 160.532 -57.1111C160.506 -41.2789 160.532 -25.4725 160.506 -9.64033C160.48 -3.20931 162.469 3.40251 160.377 9.62691C158.156 16.2387 155.496 22.8247 151.027 28.3518C148.6 31.3478 147.773 36.1258 142.582 36.3324C140.981 36.4099 138.889 33.9563 137.855 37.1589Z" fill="#F8B570"/>
<path d="M89.2821 21.4192C87.345 22.3749 85.8147 23.8314 85.5823 26.13C84.5492 26.8274 83.4903 27.5505 82.4572 28.2479C77.2917 28.0929 72.152 27.9121 66.9866 27.7572C65.9535 27.6022 64.9204 27.4214 63.8873 27.2664C59.6258 24.8128 54.951 26.0267 50.457 25.6651C50.7928 22.101 53.3497 19.7248 55.106 16.9097C62.6217 20.293 67.968 16.8063 72.7202 11.3826C72.9527 11.1243 73.5726 10.7886 73.5984 10.8144C74.6831 12.1316 75.7421 13.4746 76.7493 14.8693C76.8268 14.9984 76.5427 15.6183 76.3361 15.6699C74.5798 16.0057 75.0964 17.6328 74.554 18.6659C75.6129 19.105 76.646 19.8282 77.7308 19.9315C81.3466 20.2414 85.0908 20.2901 88.7325 20.4709C88.9133 20.8066 89.1013 21.0835 89.2821 21.4192Z" fill="#87ADD4"/>
<path d="M141.343 11.8221C139.793 11.1248 138.192 10.2983 136.643 9.60095C138.89 6.47584 142.092 3.66065 143.099 0.173952C144.701 -5.37894 148.794 -4.2739 152.513 -4.29973C152.28 -3.11167 151.597 -2.3313 150.202 -2.27965C145.476 -2.0472 147.438 2.47259 146.199 4.82288C144.882 7.43145 143.668 9.96255 141.343 11.8221Z" fill="#F8C9D1" stroke="#F8C9D1" stroke-width="0.191525"/>
<path d="M-0.760313 117.714C-0.915278 117.224 -1.19938 116.733 -1.19938 116.242C-1.22521 94.4439 -1.22521 72.6456 -1.19938 50.8472C-1.19938 49.2718 -0.99276 47.6963 -0.88945 46.1208C8.84748 45.8367 18.6361 44.6745 28.2697 45.501C37.1801 46.2758 41.7258 41.3944 46.323 35.5316C46.4522 35.5058 46.6071 35.4799 46.7363 35.4283C48.5442 34.7568 49.3965 35.7899 50.972 36.7197C57.0931 40.2838 63.7565 38.4501 69.6194 35.6091C73.5451 33.7237 76.2312 34.8343 77.6 37.7528C81.1642 45.4751 79.6146 53.9724 80.5443 62.108C81.6033 71.2509 76.0762 69.0556 71.3498 69.0814C68.1989 69.1072 65.0737 69.133 61.9228 69.0556C61.2513 69.0297 60.4765 68.7456 59.9599 68.3066C56.4732 65.5172 52.3667 68.9006 48.8025 67.1443C44.98 65.2589 42.4231 70.0112 38.9106 68.9781C37.8258 68.6682 37.0252 66.5761 36.0954 66.602C30.5167 66.7053 24.8863 66.7311 20.1599 70.6052C18.1195 72.284 14.6845 72.6456 14.5295 76.0031C14.2712 81.1944 14.3229 86.4116 14.3487 91.6029C14.3745 96.381 14.4262 96.381 17.1639 97.3624C17.3189 97.414 17.3575 97.8061 17.435 98.0385C14.1807 101.474 10.9395 104.904 7.68525 108.313C4.87006 111.464 2.05487 114.589 -0.760313 117.714Z" fill="#6E5EA6" stroke="#6E5EA6" stroke-width="0.191525"/>
<path d="M17.4218 98.0597C17.3443 97.8272 17.3185 97.4398 17.1636 97.3882C14.4258 96.4067 14.3742 96.4326 14.3484 91.6287C14.3225 86.4373 14.2967 81.2202 14.5292 76.0289C14.6841 72.6714 18.1192 72.3098 20.1595 70.631C24.8859 66.7569 30.5163 66.7052 36.095 66.6277C36.999 66.6019 37.8255 68.6939 38.9102 69.0039C42.4228 70.037 44.9797 65.2847 48.8021 67.1701C52.3405 68.9264 56.4729 65.543 59.9596 68.3324C60.4761 68.7456 61.2509 69.0555 61.9224 69.0813C65.0734 69.1588 68.1985 69.133 71.3494 69.1072C76.0759 69.0814 81.5771 71.2767 80.544 62.1338C79.6142 53.9982 81.1638 45.5009 77.5997 37.7785C76.2566 34.86 73.5448 33.7495 69.619 35.6349C63.7562 38.4759 57.0927 40.3096 50.9716 36.7454C49.3961 35.8157 48.5438 34.7826 46.7359 35.4541C47.7948 32.2515 48.8506 29 49.9095 25.7974C50.0903 25.7458 50.2766 25.7169 50.4573 25.6653C54.9513 26.0269 59.622 24.8067 63.8836 27.2603C64.9167 27.4153 65.9568 27.5987 66.9899 27.7537C67.6873 28.9417 81.1708 29.3403 82.441 28.2541C83.474 27.5567 84.5505 26.8096 85.5836 26.1122C88.0114 40.7564 87.4141 55.6511 88.1889 70.3985C83.6433 71.7674 79.4076 73.7819 75.7917 76.9329C71.4527 76.7521 67.0104 77.0103 62.7747 76.2614C56.7311 75.2024 52.0822 77.811 47.4074 80.7811C45.4704 81.995 43.3525 82.305 41.3122 81.7109C34.3129 79.7222 27.9336 83.9838 28.2952 91.0605C28.5534 95.8127 27.9336 98.6279 22.2515 97.0266C21.0893 96.6908 19.6688 97.2332 18.3774 97.3623C18.0675 97.569 17.7318 97.8014 17.4218 98.0597Z" fill="#797AAA" stroke="#797AAA" stroke-width="0.191525"/>
<path d="M105.133 50.4597C112.158 51.0279 118.305 48.7551 123.625 44.287C125.201 42.9698 126.906 43.4605 128.61 43.2539C130.521 43.0214 132.872 44.287 134.189 41.7817C134.525 44.6744 135.558 47.6962 134.99 50.3823C134.421 52.9908 131.167 51.6478 129.153 51.9836C125.511 52.6034 123.031 54.5663 120.655 57.2265C119.209 58.8278 116.859 59.551 115.128 60.894C108.801 65.827 101.311 60.9715 94.7246 63.4767C98.1597 59.1377 101.646 54.7987 105.133 50.4597Z" fill="#F8B570"/>
<path d="M49.9126 25.795C48.8536 28.9976 47.8205 32.226 46.7616 35.4286C46.6325 35.4544 46.4775 35.4802 46.3484 35.5319C30.5162 37.3656 14.6582 36.5908 -1.19987 36.0226C-2.25879 30.6247 -0.399221 28.8168 5.36029 29.2042C14.3224 29.824 23.4136 29.9274 32.195 27.6545C34.1837 27.138 37.2313 27.0089 38.1611 24.1162C38.1869 24.0387 38.3935 23.9871 38.3935 23.9871C41.5187 29.2042 46.1159 25.0718 49.9126 25.795Z" fill="#A29EA1" stroke="#A29EA1" stroke-width="0.191525"/>
<path d="M82.4569 28.2485C81.3464 29.3849 67.7095 28.9459 66.9863 27.7578C72.1518 27.9128 77.3173 28.0936 82.4569 28.2485Z" fill="#7D89C1" stroke="#7D89C1" stroke-width="0.191525"/>
<path d="M66.986 27.7573C65.9529 27.6024 64.9198 27.4216 63.8867 27.2666C64.9198 27.4216 65.9529 27.6024 66.986 27.7573Z" fill="#7D89C1"/>
</g>
</svg>
