<svg width="95" height="80" viewBox="0 0 95 80" fill="none" xmlns="http://www.w3.org/2000/svg">
<path d="M78.3788 40C78.3788 56.566 64.9449 69.9999 48.3789 69.9999C31.8129 69.9999 18.3789 56.566 18.3789 40C18.3789 23.434 31.8129 10 48.3789 10C64.9449 10 78.3788 23.434 78.3788 40Z" fill="url(#paint0_linear_6611_22717)"/>
<mask id="path-2-outside-1_6611_22717" maskUnits="userSpaceOnUse" x="32.375" y="16.5" width="33" height="47" fill="black">
<rect fill="white" x="32.375" y="16.5" width="33" height="47"/>
<path fill-rule="evenodd" clip-rule="evenodd" d="M46.875 21.4167C46.875 20.9104 47.2854 20.5 47.7917 20.5H50.4583C50.9646 20.5 51.375 20.9104 51.375 21.4167V25.5833C51.375 25.598 51.3747 25.6127 51.374 25.6272C52.1843 25.7389 52.9602 25.9166 53.7017 26.1606C55.0781 26.6104 56.2971 27.2671 57.3586 28.1307C58.4202 28.9854 59.2838 30.0334 59.9496 31.2749C60.4776 32.2465 60.8569 33.3283 61.0874 34.5203C61.1916 35.0591 60.7627 35.5391 60.2138 35.5391H56.1308C55.6741 35.5391 55.2951 35.2002 55.1775 34.7588C55.0563 34.3041 54.8883 33.8849 54.6733 33.5015C54.3404 32.8987 53.9131 32.3859 53.3913 31.9631C52.8695 31.5403 52.2668 31.2164 51.5831 30.9915C50.9084 30.7666 50.1752 30.6542 49.3835 30.6542C47.9531 30.6542 46.7071 31.0095 45.6456 31.7202C44.584 32.4219 43.7609 33.4475 43.1761 34.7969C42.5914 36.1374 42.299 37.7657 42.299 39.6819C42.299 41.652 42.5914 43.3073 43.1761 44.6478C43.7699 45.9882 44.5975 47.0003 45.6591 47.684C46.7206 48.3677 47.9486 48.7096 49.343 48.7096C50.1257 48.7096 50.8499 48.6061 51.5156 48.3992C52.1903 48.1923 52.7886 47.8909 53.3104 47.4951C53.8321 47.0902 54.264 46.5999 54.6058 46.0242C54.8337 45.6501 55.0161 45.2419 55.1529 44.7995C55.2842 44.3752 55.658 44.0555 56.1022 44.0575L60.2159 44.0763C60.764 44.0788 61.1906 44.5599 61.0718 45.095C60.8698 46.0045 60.5452 46.89 60.098 47.7515C59.4952 48.921 58.6811 49.969 57.6555 50.8956C56.639 51.8132 55.4245 52.5419 54.0121 53.0817C53.1194 53.4193 52.152 53.6496 51.1101 53.7724C51.2739 53.938 51.375 54.1657 51.375 54.417V58.5837C51.375 59.09 50.9646 59.5004 50.4583 59.5004H47.7917C47.2854 59.5004 46.875 59.09 46.875 58.5837V54.417C46.875 54.1478 46.9911 53.9057 47.1759 53.738C45.5309 53.5087 44.0177 52.9976 42.6364 52.2046C40.7022 51.089 39.1728 49.4742 38.0483 47.3601C36.9328 45.246 36.375 42.6866 36.375 39.6819C36.375 36.6681 36.9418 34.1042 38.0753 31.9901C39.2088 29.876 40.7472 28.2657 42.6903 27.1591C43.9798 26.4189 45.3762 25.9243 46.8795 25.6752C46.8765 25.645 46.875 25.6143 46.875 25.5833V21.4167Z"/>
</mask>
<path d="M51.374 25.6272L47.7114 25.4545L47.5535 28.8021L50.8735 29.2596L51.374 25.6272ZM53.7017 26.1606L52.5559 29.6436L52.5627 29.6458L53.7017 26.1606ZM57.3586 28.1307L55.0447 30.975L55.0519 30.9809L55.0593 30.9868L57.3586 28.1307ZM59.9496 31.2749L56.7182 33.0077L56.723 33.0167L56.7279 33.0258L59.9496 31.2749ZM61.0874 34.5203L57.4874 35.2164L57.4874 35.2164L61.0874 34.5203ZM55.1775 34.7588L51.6344 35.7028L55.1775 34.7588ZM54.6733 33.5015L51.4635 35.274L51.4692 35.2843L51.4749 35.2945L54.6733 33.5015ZM53.3913 31.9631L51.0828 34.8119L51.0829 34.8119L53.3913 31.9631ZM51.5831 30.9915L50.4236 34.47L50.4305 34.4723L50.4373 34.4746L51.5831 30.9915ZM45.6456 31.7202L47.6675 34.779L47.6765 34.7731L47.6854 34.7671L45.6456 31.7202ZM43.1761 34.7969L46.5369 36.263L46.5405 36.2548L43.1761 34.7969ZM43.1761 44.6478L39.8153 46.1139L39.8195 46.1233L39.8236 46.1328L43.1761 44.6478ZM51.5156 48.3992L50.4406 44.8936L50.4273 44.8977L51.5156 48.3992ZM53.3104 47.4951L55.5264 50.4163L55.5423 50.4042L55.558 50.392L53.3104 47.4951ZM54.6058 46.0242L51.4747 44.1162L51.4637 44.1341L51.453 44.1522L54.6058 46.0242ZM55.1529 44.7995L51.6499 43.7162L51.6499 43.7163L55.1529 44.7995ZM56.1022 44.0575L56.119 40.3909H56.119L56.1022 44.0575ZM60.2159 44.0763L60.1992 47.7429H60.1992L60.2159 44.0763ZM61.0718 45.095L57.4923 44.2999V44.2999L61.0718 45.095ZM60.098 47.7515L56.8436 46.0622L56.8387 46.0717L60.098 47.7515ZM57.6555 50.8956L60.1124 53.6174L60.1137 53.6163L57.6555 50.8956ZM54.0121 53.0817L55.3092 56.5113L55.321 56.5068L54.0121 53.0817ZM51.1101 53.7724L50.6807 50.131L43.2211 51.0106L48.5032 56.3509L51.1101 53.7724ZM47.1759 53.738L49.6398 56.4534L55.4427 51.1881L47.682 50.1064L47.1759 53.738ZM42.6364 52.2046L40.8045 55.3808L40.8108 55.3845L42.6364 52.2046ZM38.0483 47.3601L34.8054 49.0713L34.8111 49.082L38.0483 47.3601ZM38.0753 31.9901L41.3068 33.7227L41.3068 33.7227L38.0753 31.9901ZM42.6903 27.1591L44.5048 30.3454L44.5159 30.3391L42.6903 27.1591ZM46.8795 25.6752L47.4788 29.2926L50.8685 28.7311L50.5282 25.312L46.8795 25.6752ZM47.7917 16.8333C45.2604 16.8333 43.2083 18.8854 43.2083 21.4167H50.5417C50.5417 22.9355 49.3104 24.1667 47.7917 24.1667V16.8333ZM50.4583 16.8333H47.7917V24.1667H50.4583V16.8333ZM55.0417 21.4167C55.0417 18.8854 52.9896 16.8333 50.4583 16.8333V24.1667C48.9395 24.1667 47.7083 22.9355 47.7083 21.4167H55.0417ZM55.0417 25.5833V21.4167H47.7083V25.5833H55.0417ZM55.0366 25.7999C55.04 25.7278 55.0417 25.6556 55.0417 25.5833H47.7083C47.7083 25.5405 47.7093 25.4976 47.7114 25.4545L55.0366 25.7999ZM50.8735 29.2596C51.4751 29.3424 52.0343 29.472 52.5559 29.6436L54.8474 22.6775C53.886 22.3612 52.8935 22.1353 51.8745 21.9949L50.8735 29.2596ZM52.5627 29.6458C53.5366 29.9641 54.3521 30.4115 55.0447 30.975L59.6726 25.2865C58.2421 24.1226 56.6196 23.2566 54.8407 22.6753L52.5627 29.6458ZM55.0593 30.9868C55.725 31.5228 56.2767 32.1844 56.7182 33.0077L63.181 29.5421C62.291 27.8824 61.1154 26.4479 59.658 25.2746L55.0593 30.9868ZM56.7279 33.0258C57.0599 33.6366 57.3213 34.3575 57.4874 35.2164L64.6873 33.8241C64.3924 32.2991 63.8953 30.8564 63.1712 29.524L56.7279 33.0258ZM57.4874 35.2164C57.1173 33.3025 58.6564 31.8724 60.2138 31.8724V39.2058C62.869 39.2058 65.2658 36.8157 64.6873 33.8241L57.4874 35.2164ZM60.2138 31.8724H56.1308V39.2058H60.2138V31.8724ZM56.1308 31.8724C57.5958 31.8724 58.4813 32.9168 58.7206 33.8149L51.6344 35.7028C52.1089 37.4836 53.7524 39.2058 56.1308 39.2058V31.8724ZM58.7206 33.8149C58.526 33.0846 58.2467 32.3775 57.8716 31.7085L51.4749 35.2945C51.5298 35.3923 51.5867 35.5236 51.6344 35.7028L58.7206 33.8149ZM57.883 31.7289C57.3278 30.7234 56.5979 29.8421 55.6998 29.1144L51.0829 34.8119C51.2283 34.9298 51.3531 35.074 51.4635 35.274L57.883 31.7289ZM55.6998 29.1144C54.808 28.3917 53.8049 27.8624 52.7288 27.5085L50.4373 34.4746C50.7287 34.5704 50.931 34.6889 51.0828 34.8119L55.6998 29.1144ZM52.7426 27.513C51.6543 27.1502 50.5251 26.9875 49.3835 26.9875V34.3208C49.8253 34.3208 50.1625 34.383 50.4236 34.47L52.7426 27.513ZM49.3835 26.9875C47.3169 26.9875 45.3416 27.5112 43.6057 28.6733L47.6854 34.7671C48.0727 34.5079 48.5893 34.3208 49.3835 34.3208V26.9875ZM43.6237 28.6614C41.8808 29.8135 40.6342 31.4412 39.8118 33.339L46.5405 36.2548C46.8876 35.4538 47.2873 35.0304 47.6675 34.779L43.6237 28.6614ZM39.8153 33.3308C38.9767 35.2533 38.6323 37.4104 38.6323 39.6819H45.9657C45.9657 38.1209 46.2061 37.0214 46.5369 36.263L39.8153 33.3308ZM38.6323 39.6819C38.6323 41.9911 38.9718 44.1802 39.8153 46.1139L46.5369 43.1816C46.211 42.4344 45.9657 41.3129 45.9657 39.6819H38.6323ZM39.8236 46.1328C40.6595 48.0198 41.9181 49.6359 43.6737 50.7666L47.6445 44.6014C47.277 44.3646 46.8802 43.9565 46.5286 43.1628L39.8236 46.1328ZM43.6737 50.7666C45.3881 51.8708 47.3206 52.3762 49.343 52.3762V45.0429C48.5766 45.0429 48.0531 44.8645 47.6445 44.6014L43.6737 50.7666ZM49.343 52.3762C50.4501 52.3762 51.5456 52.2296 52.6039 51.9006L50.4273 44.8977C50.1542 44.9826 49.8013 45.0429 49.343 45.0429V52.3762ZM52.5906 51.9047C53.645 51.5814 54.6358 51.0919 55.5264 50.4163L51.0943 44.5739C50.9413 44.6899 50.7356 44.8032 50.4406 44.8937L52.5906 51.9047ZM55.558 50.392C56.4482 49.7013 57.1853 48.8617 57.7586 47.8962L51.453 44.1522C51.3426 44.3382 51.216 44.4791 51.0627 44.5981L55.558 50.392ZM57.7369 47.9322C58.1311 47.2853 58.4348 46.598 58.6559 45.8828L51.6499 43.7163C51.5975 43.8859 51.5364 44.0149 51.4747 44.1162L57.7369 47.9322ZM58.6559 45.8828C58.3899 46.743 57.5093 47.7306 56.0855 47.7241L56.119 40.3909C53.8067 40.3803 52.1784 42.0073 51.6499 43.7162L58.6559 45.8828ZM56.0855 47.7241L60.1992 47.7429L60.2327 40.4097L56.119 40.3909L56.0855 47.7241ZM60.1992 47.7429C58.6738 47.736 57.0481 46.3 57.4923 44.2999L64.6512 45.89C65.3331 42.8199 62.8542 40.4216 60.2327 40.4097L60.1992 47.7429ZM57.4923 44.2999C57.3622 44.8858 57.1502 45.4716 56.8436 46.0622L63.3523 49.4407C63.9401 48.3084 64.3773 47.1232 64.6512 45.89L57.4923 44.2999ZM56.8387 46.0717C56.4483 46.8293 55.9122 47.5291 55.1974 48.175L60.1137 53.6163C61.45 52.4089 62.5422 51.0127 63.3573 49.4312L56.8387 46.0717ZM55.1987 48.1738C54.5513 48.7581 53.7367 49.2616 52.7031 49.6566L55.321 56.5068C57.1122 55.8223 58.7266 54.8683 60.1124 53.6174L55.1987 48.1738ZM52.715 49.6521C52.1279 49.8742 51.4549 50.0397 50.6807 50.131L51.5395 57.4139C52.8491 57.2594 54.1108 56.9645 55.3091 56.5113L52.715 49.6521ZM55.0417 54.417C55.0417 53.1616 54.5321 52.0181 53.717 51.194L48.5032 56.3509C48.0156 55.858 47.7083 55.1698 47.7083 54.417H55.0417ZM55.0417 58.5837V54.417H47.7083V58.5837H55.0417ZM50.4583 63.167C52.9896 63.167 55.0417 61.115 55.0417 58.5837H47.7083C47.7083 57.0649 48.9396 55.8337 50.4583 55.8337V63.167ZM47.7917 63.167H50.4583V55.8337H47.7917V63.167ZM43.2083 58.5837C43.2083 61.115 45.2604 63.167 47.7917 63.167V55.8337C49.3104 55.8337 50.5417 57.0649 50.5417 58.5837H43.2083ZM43.2083 54.417V58.5837H50.5417V54.417H43.2083ZM44.712 51.0225C43.7935 51.8559 43.2083 53.0707 43.2083 54.417H50.5417C50.5417 55.2249 50.1886 55.9554 49.6398 56.4534L44.712 51.0225ZM47.682 50.1064C46.4814 49.9391 45.419 49.5741 44.4619 49.0247L40.8108 55.3845C42.6164 56.421 44.5803 57.0783 46.6697 57.3695L47.682 50.1064ZM44.4682 49.0283C43.173 48.2813 42.1116 47.1912 41.2855 45.6382L34.8111 49.082C36.2341 51.7573 38.2314 53.8968 40.8045 55.3808L44.4682 49.0283ZM41.2912 45.649C40.5165 44.1807 40.0417 42.2403 40.0417 39.6819H32.7083C32.7083 43.1329 33.3491 46.3113 34.8054 49.0713L41.2912 45.649ZM40.0417 39.6819C40.0417 37.1208 40.523 35.1845 41.3068 33.7227L34.8438 30.2575C33.3605 33.0239 32.7083 36.2155 32.7083 39.6819H40.0417ZM41.3068 33.7227C42.1389 32.1708 43.2052 31.0854 44.5047 30.3454L40.8759 23.9729C38.2891 25.4459 36.2787 27.5812 34.8438 30.2575L41.3068 33.7227ZM44.5159 30.3391C45.4164 29.8221 46.3961 29.472 47.4788 29.2926L46.2803 22.0579C44.3563 22.3766 42.5432 23.0157 40.8648 23.9792L44.5159 30.3391ZM43.2083 25.5833C43.2083 25.7359 43.2159 25.8877 43.2309 26.0384L50.5282 25.312C50.5372 25.4023 50.5417 25.4928 50.5417 25.5833H43.2083ZM43.2083 21.4167V25.5833H50.5417V21.4167H43.2083Z" fill="#F2B90C" mask="url(#path-2-outside-1_6611_22717)"/>
<mask id="path-4-outside-2_6611_22717" maskUnits="userSpaceOnUse" x="34.375" y="18.5" width="29" height="43" fill="black">
<rect fill="white" x="34.375" y="18.5" width="29" height="43"/>
<path fill-rule="evenodd" clip-rule="evenodd" d="M46.875 21.4167C46.875 20.9104 47.2854 20.5 47.7917 20.5H50.4583C50.9646 20.5 51.375 20.9104 51.375 21.4167V25.5833C51.375 25.598 51.3747 25.6127 51.374 25.6272C52.1843 25.7389 52.9602 25.9166 53.7017 26.1606C55.0781 26.6104 56.2971 27.2671 57.3586 28.1307C58.4202 28.9854 59.2838 30.0334 59.9496 31.2749C60.4776 32.2465 60.8569 33.3283 61.0874 34.5203C61.1916 35.0591 60.7627 35.5391 60.2138 35.5391H56.1308C55.6741 35.5391 55.2951 35.2002 55.1775 34.7588C55.0563 34.3041 54.8883 33.8849 54.6733 33.5015C54.3404 32.8987 53.9131 32.3859 53.3913 31.9631C52.8695 31.5403 52.2668 31.2164 51.5831 30.9915C50.9084 30.7666 50.1752 30.6542 49.3835 30.6542C47.9531 30.6542 46.7071 31.0095 45.6456 31.7202C44.584 32.4219 43.7609 33.4475 43.1761 34.7969C42.5914 36.1374 42.299 37.7657 42.299 39.6819C42.299 41.652 42.5914 43.3073 43.1761 44.6478C43.7699 45.9882 44.5975 47.0003 45.6591 47.684C46.7206 48.3677 47.9486 48.7096 49.343 48.7096C50.1257 48.7096 50.8499 48.6061 51.5156 48.3992C52.1903 48.1923 52.7886 47.8909 53.3104 47.4951C53.8321 47.0902 54.264 46.5999 54.6058 46.0242C54.8337 45.6501 55.0161 45.2419 55.1529 44.7995C55.2842 44.3752 55.658 44.0555 56.1022 44.0575L60.2159 44.0763C60.764 44.0788 61.1906 44.5599 61.0718 45.095C60.8698 46.0045 60.5452 46.89 60.098 47.7515C59.4952 48.921 58.6811 49.969 57.6555 50.8956C56.639 51.8132 55.4245 52.5419 54.0121 53.0817C53.1955 53.3905 52.3165 53.6095 51.375 53.7387V58.5835C51.375 59.0897 50.9646 59.5001 50.4583 59.5001H47.7917C47.2854 59.5001 46.875 59.0897 46.875 58.5834V53.6927C45.3459 53.445 43.9331 52.949 42.6364 52.2046C40.7022 51.089 39.1728 49.4742 38.0483 47.3601C36.9328 45.246 36.375 42.6866 36.375 39.6819C36.375 36.6681 36.9418 34.1042 38.0753 31.9901C39.2088 29.876 40.7472 28.2657 42.6903 27.1591C43.9798 26.4189 45.3762 25.9243 46.8795 25.6752C46.8765 25.645 46.875 25.6143 46.875 25.5833V21.4167Z"/>
</mask>
<path fill-rule="evenodd" clip-rule="evenodd" d="M46.875 21.4167C46.875 20.9104 47.2854 20.5 47.7917 20.5H50.4583C50.9646 20.5 51.375 20.9104 51.375 21.4167V25.5833C51.375 25.598 51.3747 25.6127 51.374 25.6272C52.1843 25.7389 52.9602 25.9166 53.7017 26.1606C55.0781 26.6104 56.2971 27.2671 57.3586 28.1307C58.4202 28.9854 59.2838 30.0334 59.9496 31.2749C60.4776 32.2465 60.8569 33.3283 61.0874 34.5203C61.1916 35.0591 60.7627 35.5391 60.2138 35.5391H56.1308C55.6741 35.5391 55.2951 35.2002 55.1775 34.7588C55.0563 34.3041 54.8883 33.8849 54.6733 33.5015C54.3404 32.8987 53.9131 32.3859 53.3913 31.9631C52.8695 31.5403 52.2668 31.2164 51.5831 30.9915C50.9084 30.7666 50.1752 30.6542 49.3835 30.6542C47.9531 30.6542 46.7071 31.0095 45.6456 31.7202C44.584 32.4219 43.7609 33.4475 43.1761 34.7969C42.5914 36.1374 42.299 37.7657 42.299 39.6819C42.299 41.652 42.5914 43.3073 43.1761 44.6478C43.7699 45.9882 44.5975 47.0003 45.6591 47.684C46.7206 48.3677 47.9486 48.7096 49.343 48.7096C50.1257 48.7096 50.8499 48.6061 51.5156 48.3992C52.1903 48.1923 52.7886 47.8909 53.3104 47.4951C53.8321 47.0902 54.264 46.5999 54.6058 46.0242C54.8337 45.6501 55.0161 45.2419 55.1529 44.7995C55.2842 44.3752 55.658 44.0555 56.1022 44.0575L60.2159 44.0763C60.764 44.0788 61.1906 44.5599 61.0718 45.095C60.8698 46.0045 60.5452 46.89 60.098 47.7515C59.4952 48.921 58.6811 49.969 57.6555 50.8956C56.639 51.8132 55.4245 52.5419 54.0121 53.0817C53.1955 53.3905 52.3165 53.6095 51.375 53.7387V58.5835C51.375 59.0897 50.9646 59.5001 50.4583 59.5001H47.7917C47.2854 59.5001 46.875 59.0897 46.875 58.5834V53.6927C45.3459 53.445 43.9331 52.949 42.6364 52.2046C40.7022 51.089 39.1728 49.4742 38.0483 47.3601C36.9328 45.246 36.375 42.6866 36.375 39.6819C36.375 36.6681 36.9418 34.1042 38.0753 31.9901C39.2088 29.876 40.7472 28.2657 42.6903 27.1591C43.9798 26.4189 45.3762 25.9243 46.8795 25.6752C46.8765 25.645 46.875 25.6143 46.875 25.5833V21.4167Z" fill="white"/>
<path d="M51.374 25.6272L49.5427 25.5409L49.4637 27.2147L51.1237 27.4434L51.374 25.6272ZM53.7017 26.1606L53.1288 27.9021L53.1322 27.9032L53.7017 26.1606ZM57.3586 28.1307L56.2016 29.5529L56.209 29.5588L57.3586 28.1307ZM59.9496 31.2749L58.3338 32.1413L58.3387 32.1503L59.9496 31.2749ZM61.0874 34.5203L59.2874 34.8683V34.8684L61.0874 34.5203ZM55.1775 34.7588L53.406 35.2308V35.2308L55.1775 34.7588ZM54.6733 33.5015L53.0684 34.3878L53.0741 34.398L54.6733 33.5015ZM53.3913 31.9631L52.2371 33.3875L52.2371 33.3875L53.3913 31.9631ZM51.5831 30.9915L51.0033 32.7308L51.0102 32.7331L51.5831 30.9915ZM45.6456 31.7202L46.6566 33.2496L46.6655 33.2437L45.6456 31.7202ZM43.1761 34.7969L44.8565 35.53L44.8583 35.5259L43.1761 34.7969ZM43.1761 44.6478L41.4957 45.3808L41.4999 45.3903L43.1761 44.6478ZM51.5156 48.3992L50.9781 46.6464L50.9715 46.6485L51.5156 48.3992ZM53.3104 47.4951L54.4184 48.9557L54.4263 48.9496L54.4342 48.9436L53.3104 47.4951ZM54.6058 46.0242L53.0402 45.0702L53.0348 45.0792L53.0294 45.0882L54.6058 46.0242ZM55.1529 44.7995L53.4014 44.2579L53.4014 44.2579L55.1529 44.7995ZM56.1022 44.0575L56.1106 42.2242H56.1106L56.1022 44.0575ZM60.2159 44.0763L60.2076 45.9096L60.2159 44.0763ZM61.0718 45.095L59.282 44.6975V44.6975L61.0718 45.095ZM60.098 47.7515L58.4708 46.9068L58.4684 46.9116L60.098 47.7515ZM57.6555 50.8956L58.884 52.2565L58.8846 52.256L57.6555 50.8956ZM54.0121 53.0817L54.6606 54.7965L54.6665 54.7942L54.0121 53.0817ZM51.375 53.7387L51.1259 51.9223L49.5417 52.1396V53.7387H51.375ZM46.875 53.6927H48.7083V52.1324L47.1681 51.8829L46.875 53.6927ZM42.6364 52.2046L41.7204 53.7927L41.7236 53.7945L42.6364 52.2046ZM38.0483 47.3601L36.4268 48.2157L36.4297 48.2211L38.0483 47.3601ZM38.0753 31.9901L39.691 32.8564L39.691 32.8564L38.0753 31.9901ZM42.6903 27.1591L43.5975 28.7523L43.6031 28.7491L42.6903 27.1591ZM46.8795 25.6752L47.1792 27.4839L48.874 27.2032L48.7039 25.4936L46.8795 25.6752ZM47.7917 18.6667C46.2729 18.6667 45.0417 19.8979 45.0417 21.4167H48.7083C48.7083 21.9229 48.2979 22.3333 47.7917 22.3333V18.6667ZM50.4583 18.6667H47.7917V22.3333H50.4583V18.6667ZM53.2083 21.4167C53.2083 19.8979 51.9771 18.6667 50.4583 18.6667V22.3333C49.9521 22.3333 49.5417 21.9229 49.5417 21.4167H53.2083ZM53.2083 25.5833V21.4167H49.5417V25.5833H53.2083ZM53.2053 25.7136C53.2073 25.6702 53.2083 25.6268 53.2083 25.5833H49.5417C49.5417 25.5693 49.542 25.5551 49.5427 25.5409L53.2053 25.7136ZM51.1237 27.4434C51.8297 27.5407 52.4972 27.6943 53.1288 27.9021L54.2746 24.419C53.4231 24.1389 52.5389 23.9371 51.6242 23.811L51.1237 27.4434ZM53.1322 27.9032C54.3073 28.2872 55.3246 28.8393 56.2017 29.5529L58.5156 26.7086C57.2696 25.6949 55.8489 24.9335 54.2712 24.4179L53.1322 27.9032ZM56.209 29.5588C57.0726 30.2541 57.7803 31.1089 58.3339 32.1413L61.5653 30.4085C60.7874 28.9579 59.7678 27.7166 58.5083 26.7027L56.209 29.5588ZM58.3387 32.1503C58.7687 32.9416 59.0891 33.8429 59.2874 34.8683L62.8873 34.1722C62.6246 32.8137 62.1864 31.5514 61.5604 30.3995L58.3387 32.1503ZM59.2874 34.8684C59.1544 34.1808 59.7095 33.7058 60.2138 33.7058V37.3724C61.8158 37.3724 63.2287 35.9374 62.8873 34.1722L59.2874 34.8684ZM60.2138 33.7058H56.1308V37.3724H60.2138V33.7058ZM56.1308 33.7058C56.635 33.7058 56.8882 34.0585 56.949 34.2869L53.406 35.2308C53.702 36.3419 54.7132 37.3724 56.1308 37.3724V33.7058ZM56.949 34.2869C56.7912 33.6943 56.5675 33.1312 56.2725 32.605L53.0741 34.398C53.209 34.6386 53.3215 34.9138 53.406 35.2308L56.949 34.2869ZM56.2782 32.6152C55.8341 31.8111 55.2555 31.114 54.5456 30.5387L52.2371 33.3875C52.5707 33.6579 52.8468 33.9864 53.0684 34.3877L56.2782 32.6152ZM54.5456 30.5387C53.8388 29.966 53.0358 29.5394 52.156 29.25L51.0102 32.7331C51.4978 32.8934 51.9003 33.1146 52.2371 33.3875L54.5456 30.5387ZM52.1628 29.2523C51.2813 28.9584 50.3501 28.8208 49.3835 28.8208V32.4875C50.0002 32.4875 50.5354 32.5748 51.0033 32.7308L52.1628 29.2523ZM49.3835 28.8208C47.635 28.8208 46.0244 29.2604 44.6257 30.1968L46.6655 33.2437C47.3899 32.7587 48.2712 32.4875 49.3835 32.4875V28.8208ZM44.6346 30.1908C43.2324 31.1177 42.1975 32.4443 41.4939 34.068L44.8583 35.5259C45.3242 34.4507 45.9356 33.7261 46.6565 33.2496L44.6346 30.1908ZM41.4957 34.0639C40.784 35.6953 40.4657 37.588 40.4657 39.6819H44.1323C44.1323 37.9433 44.3987 36.5794 44.8565 35.53L41.4957 34.0639ZM40.4657 39.6819C40.4657 41.8216 40.7816 43.7438 41.4957 45.3808L44.8565 43.9147C44.4012 42.8709 44.1323 41.4825 44.1323 39.6819H40.4657ZM41.4999 45.3903C42.2147 47.004 43.2578 48.3181 44.6664 49.2253L46.6518 46.1427C45.9372 45.6825 45.3251 44.9724 44.8524 43.9053L41.4999 45.3903ZM44.6664 49.2253C46.0544 50.1193 47.6346 50.5429 49.343 50.5429V46.8762C48.2626 46.8762 47.3869 46.6161 46.6518 46.1427L44.6664 49.2253ZM49.343 50.5429C50.2879 50.5429 51.1977 50.4178 52.0598 50.1499L50.9715 46.6485C50.5021 46.7944 49.9635 46.8762 49.343 46.8762V50.5429ZM52.0531 50.1519C52.9177 49.8868 53.7122 49.4914 54.4184 48.9557L52.2023 46.0345C51.8649 46.2904 51.463 46.4977 50.9781 46.6464L52.0531 50.1519ZM54.4342 48.9436C55.1402 48.3958 55.7246 47.7308 56.1822 46.9602L53.0294 45.0882C52.8033 45.4691 52.5241 45.7847 52.1865 46.0466L54.4342 48.9436ZM56.1714 46.9782C56.4824 46.4677 56.7254 45.9199 56.9044 45.3412L53.4014 44.2579C53.3068 44.5639 53.1851 44.8325 53.0402 45.0702L56.1714 46.9782ZM56.9044 45.3412C56.837 45.5591 56.5837 45.8931 56.0939 45.8908L56.1106 42.2242C54.7324 42.2179 53.7313 43.1912 53.4014 44.2579L56.9044 45.3412ZM56.0939 45.8908L60.2076 45.9096L60.2243 42.243L56.1106 42.2242L56.0939 45.8908ZM60.2076 45.9096C59.7189 45.9074 59.1194 45.4299 59.282 44.6975L62.8615 45.4925C63.2619 43.6899 61.8091 42.2502 60.2243 42.243L60.2076 45.9096ZM59.282 44.6975C59.116 45.4451 58.8477 46.1808 58.4708 46.9068L61.7252 48.5961C62.2426 47.5992 62.6235 46.5639 62.8615 45.4925L59.282 44.6975ZM58.4684 46.9116C57.9718 47.8751 57.2966 48.7491 56.4265 49.5353L58.8846 52.256C60.0655 51.189 61.0187 49.9668 61.7276 48.5913L58.4684 46.9116ZM56.4271 49.5347C55.5951 50.2857 54.5806 50.9018 53.3576 51.3692L54.6665 54.7942C56.2683 54.1821 57.6828 53.3408 58.884 52.2565L56.4271 49.5347ZM53.3635 51.3669C52.6866 51.6229 51.9427 51.8103 51.1259 51.9223L51.6241 55.555C52.6902 55.4088 53.7043 55.1582 54.6606 54.7965L53.3635 51.3669ZM53.2083 58.5835V53.7387H49.5417V58.5835H53.2083ZM50.4583 61.3334C51.9771 61.3334 53.2083 60.1022 53.2083 58.5835H49.5417C49.5417 58.0772 49.9521 57.6668 50.4583 57.6668V61.3334ZM47.7917 61.3334H50.4583V57.6668H47.7917V61.3334ZM45.0417 58.5834C45.0417 60.1022 46.2729 61.3334 47.7917 61.3334V57.6668C48.2979 57.6668 48.7083 58.0772 48.7083 58.5834H45.0417ZM45.0417 53.6927V58.5834H48.7083V53.6927H45.0417ZM47.1681 51.8829C45.8492 51.6693 44.6473 51.2451 43.5491 50.6146L41.7236 53.7945C43.2188 54.6529 44.8427 55.2207 46.5819 55.5024L47.1681 51.8829ZM43.5523 50.6164C41.9376 49.6852 40.6422 48.3327 39.6669 46.4992L36.4297 48.2211C37.7035 50.6157 39.4668 52.4929 41.7204 53.7927L43.5523 50.6164ZM39.6697 46.5045C38.7246 44.7134 38.2083 42.4634 38.2083 39.6819H34.5417C34.5417 42.9097 35.1409 45.7787 36.4268 48.2157L39.6697 46.5045ZM38.2083 39.6819C38.2083 36.8945 38.7324 34.6444 39.691 32.8564L36.4595 31.1238C35.1511 33.5641 34.5417 36.4418 34.5417 39.6819H38.2083ZM39.691 32.8564C40.6738 31.0234 41.9762 29.6755 43.5975 28.7523L41.7831 25.566C39.5181 26.8558 37.7438 28.7286 36.4595 31.1238L39.691 32.8564ZM43.6031 28.7491C44.6981 28.1205 45.8861 27.6981 47.1792 27.4839L46.5799 23.8665C44.8663 24.1504 43.2615 24.7173 41.7776 25.5692L43.6031 28.7491ZM45.0417 25.5833C45.0417 25.6751 45.0462 25.7664 45.0552 25.8568L48.7039 25.4936C48.7069 25.5236 48.7083 25.5536 48.7083 25.5833H45.0417ZM45.0417 21.4167V25.5833H48.7083V21.4167H45.0417Z" fill="#E1B511" mask="url(#path-4-outside-2_6611_22717)"/>
<defs>
<linearGradient id="paint0_linear_6611_22717" x1="33.3774" y1="14.0155" x2="63.3804" y2="65.9844" gradientUnits="userSpaceOnUse">
<stop stop-color="#FFDA1C"/>
<stop offset="1" stop-color="#FEB705"/>
</linearGradient>
</defs>
</svg>
