<svg width="121" height="80" viewBox="0 0 121 80" fill="none" xmlns="http://www.w3.org/2000/svg">
<path d="M80.1469 66.4844C94.7728 66.4844 106.63 54.6258 106.63 39.9995C106.63 25.3733 94.7728 13.5146 80.1469 13.5146C65.5207 13.5146 53.6641 25.3733 53.6641 39.9995C53.6641 54.6258 65.5207 66.4844 80.1469 66.4844Z" fill="#F79E1B"/>
<path d="M40.4204 66.4844C55.0463 66.4844 66.9032 54.6258 66.9032 39.9995C66.9032 25.3733 55.0463 13.5146 40.4204 13.5146C25.7941 13.5146 13.9375 25.3733 13.9375 39.9995C13.9375 54.6258 25.7941 66.4844 40.4204 66.4844Z" fill="#EB001B"/>
<path fill-rule="evenodd" clip-rule="evenodd" d="M60.2836 22.4827C56.1638 27.1514 53.6641 33.2838 53.6641 39.9996C53.6641 46.7154 56.1638 52.8478 60.2836 57.5165C64.4034 52.8478 66.9032 46.7154 66.9032 39.9996C66.9032 33.2838 64.4034 27.1514 60.2836 22.4827Z" fill="#FF5A00"/>
</svg>
