<svg width="121" height="80" viewBox="0 0 121 80" fill="none" xmlns="http://www.w3.org/2000/svg">
<g clip-path="url(#clip0_6611_22747)">
<path d="M80.464 27.3839V48.2357C80.464 48.4007 80.3993 48.5614 80.2846 48.6771C80.1697 48.795 80.0141 48.8614 79.8516 48.8614H75.7701C75.6076 48.8614 75.452 48.795 75.337 48.6771C75.2223 48.5614 75.1579 48.4007 75.1579 48.2357V27.3839C75.1579 27.2189 75.2223 27.0581 75.337 26.9424C75.452 26.8245 75.6076 26.7581 75.7701 26.7581H79.8516L80.464 27.3839ZM113.117 26.966H108.423L107.811 27.3839L104.137 39.6858L100.056 27.3839C100.056 27.176 99.8515 26.966 99.4436 26.966H96.1781L95.5659 27.3839L91.4844 39.6858L87.8109 27.3839C87.8109 27.176 87.6067 26.966 87.1985 26.966H82.7088C82.5048 26.966 82.3006 26.9659 82.3006 27.1759C82.3006 27.3838 82.0966 27.5917 82.3006 27.5917L89.2393 48.6536C89.2393 48.8614 89.4436 49.0694 89.8516 49.0694H93.525L94.1374 48.6536L98.2189 36.3494L102.301 48.6536C102.301 48.8614 102.505 49.0694 102.913 49.0694H106.586L107.199 48.6536L114.137 27.5917V27.1759L113.117 26.966ZM120.056 26.966H115.974C115.812 26.966 115.656 27.0325 115.541 27.1503C115.426 27.2682 115.362 27.4267 115.362 27.5917V48.4435C115.362 48.6107 115.426 48.7693 115.541 48.8872C115.656 49.0029 115.812 49.0694 115.974 49.0694H120.056C120.218 49.0694 120.374 49.0029 120.489 48.8872C120.604 48.7693 120.668 48.6107 120.668 48.4435V27.5917C120.668 27.4267 120.604 27.2682 120.489 27.1503C120.374 27.0325 120.218 26.966 120.056 26.966ZM72.7088 48.2357C72.9128 48.4436 72.7088 48.8614 72.3006 48.8614H66.5863L65.7701 47.8178C63.9608 49.0607 61.8269 49.7143 59.6476 49.695C56.6707 49.695 53.8158 48.4865 51.7107 46.3372C49.6057 44.1858 48.4231 41.2694 48.4231 38.2266C48.4231 35.1859 49.6057 32.2674 51.7107 30.1182C53.8158 27.9668 56.6707 26.7581 59.6476 26.7581C62.6244 26.7581 65.4796 27.9668 67.5844 30.1182C69.6894 32.2674 70.872 35.1859 70.872 38.2266C70.8905 40.453 70.2503 42.6343 69.0353 44.4814L72.7088 48.2357ZM62.5046 43.6479L60.2598 40.9372C60.228 40.8558 60.2137 40.7679 60.2172 40.6801C60.221 40.5922 60.2429 40.5066 60.2814 40.4273C60.32 40.348 60.3743 40.2793 60.4408 40.2236C60.5076 40.1679 60.5848 40.1273 60.668 40.1037H65.3619C65.5941 39.4308 65.7316 38.7301 65.7701 38.0187C65.7972 37.1958 65.6657 36.3773 65.3829 35.608C65.1002 34.8387 64.6718 34.1338 64.1221 33.5338C63.5724 32.9317 62.9124 32.4495 62.1795 32.1087C61.4469 31.7702 60.6558 31.5817 59.8516 31.5538C59.0476 31.5817 58.2564 31.7702 57.5238 32.1087C56.7909 32.4495 56.1309 32.9317 55.5812 33.5338C55.0316 34.1338 54.6031 34.8387 54.3204 35.608C54.0374 36.3773 53.9061 37.1958 53.9332 38.0187C53.9061 38.8394 54.0374 39.6579 54.3204 40.4294C54.6031 41.1986 55.0316 41.9037 55.5812 42.5037C56.1309 43.1037 56.7909 43.5879 57.5238 43.9265C58.2564 44.2672 59.0476 44.4557 59.8516 44.4814L62.5046 43.6479ZM35.5659 48.2357C35.7701 49.0693 35.3619 49.4871 35.1579 49.4871C34.9537 49.4871 34.5454 49.0692 34.1374 48.4435C33.9404 48.18 33.8021 47.8758 33.7315 47.5522C33.661 47.2286 33.6604 46.8922 33.7292 46.5665C33.9332 46.3586 34.1374 46.1508 34.5454 46.3586C34.9537 46.5686 35.3619 47.61 35.5659 48.2357ZM31.4844 50.1129C32.3006 50.9465 32.7088 51.78 32.0966 52.4058C31.9766 52.6222 31.796 52.7979 31.5779 52.9093C31.3598 53.0207 31.1139 53.0636 30.872 53.0314L29.4435 52.6157C29.2412 52.4892 29.068 52.3221 28.9353 52.1229C28.8025 51.9236 28.7139 51.6964 28.6749 51.4586C28.6362 51.2207 28.6484 50.9786 28.7105 50.745C28.7728 50.5136 28.8836 50.2972 29.0353 50.1129L30.0558 49.695C30.3084 49.6243 30.5753 49.6265 30.8273 49.6994C31.0791 49.7722 31.3065 49.9158 31.4844 50.1129ZM30.0558 57.4114C34.672 57.5228 39.0642 59.4663 42.3006 62.8327C42.7088 63.2484 43.321 62.8327 42.9128 62.207C39.8328 58.1592 35.4008 55.4121 30.464 54.4907C28.484 54.0899 26.6153 53.2479 24.9924 52.0222C23.3692 50.7965 22.0318 49.2172 21.0762 47.4022C20.668 46.7765 20.464 46.9843 20.464 47.61C20.436 48.795 20.5044 49.9821 20.668 51.1542H20.0558C17.5128 51.1542 15.0271 50.3851 12.9126 48.9408C10.7983 47.4965 9.1505 45.4457 8.17723 43.0458C7.20418 40.6458 6.94955 38.0037 7.44565 35.4559C7.94165 32.9081 9.16629 30.566 10.9644 28.7296C12.7625 26.891 15.0534 25.6417 17.5473 25.1338C20.0414 24.6281 22.6267 24.8874 24.976 25.8817C27.3252 26.8759 29.3332 28.5602 30.7461 30.7202C32.1589 32.8801 32.9128 35.4194 32.9128 38.0187V39.478C31.56 39.2702 30.1842 39.2702 28.8313 39.478C28.4231 39.478 28.4231 39.6859 28.8313 39.8959C30.8699 40.2002 32.7537 41.1815 34.192 42.69C35.6303 44.1964 36.5433 46.1464 36.7905 48.2357C36.7905 48.4436 36.9945 48.4436 36.9945 48.2357C38.8798 45.1779 39.8711 41.6336 39.8515 38.0187C39.8515 34.0587 38.7027 30.1888 36.5499 26.8974C34.397 23.606 31.3372 21.0389 27.7572 19.5239C24.1774 18.0089 20.2381 17.6126 16.4377 18.384C12.6372 19.1575 9.14629 21.0647 6.40629 23.8632C3.66633 26.6639 1.80039 30.2295 1.04443 34.1123C0.288474 37.9951 0.676453 42.0215 2.15932 45.6793C3.64218 49.3371 6.15332 52.4636 9.37513 54.6621C12.597 56.8628 16.3848 58.0371 20.2598 58.0371C23.117 57.8271 25.9741 57.4114 30.0558 57.4114Z" fill="#FF8C00"/>
</g>
<defs>
<clipPath id="clip0_6611_22747">
<rect width="120" height="80" fill="white" transform="translate(0.714844)"/>
</clipPath>
</defs>
</svg>
