<svg width="121" height="80" viewBox="0 0 121 80" fill="none" xmlns="http://www.w3.org/2000/svg">
<mask id="mask0_6611_22737" style="mask-type:luminance" maskUnits="userSpaceOnUse" x="4" y="21" width="113" height="38">
<path d="M62.6871 33.4899C62.6233 38.5192 67.1692 41.3259 70.5937 42.9945C74.1122 44.7068 75.294 45.8046 75.2805 47.3356C75.2537 49.679 72.4738 50.7131 69.8718 50.7534C65.3327 50.8239 62.6938 49.5279 60.5954 48.5476L58.9604 56.199C61.0655 57.1693 64.9634 58.0153 69.0056 58.0522C78.4935 58.0522 84.7013 53.3687 84.7349 46.1068C84.7718 36.8908 71.987 36.3805 72.0743 32.2611C72.1045 31.0121 73.2963 29.6793 75.9084 29.3402C77.201 29.1689 80.7698 29.038 84.8155 30.9013L86.4035 23.4984C84.2279 22.706 81.4312 21.9473 77.9497 21.9473C69.0191 21.9473 62.7375 26.6946 62.6871 33.4899ZM101.663 22.5852C99.9303 22.5852 98.4698 23.5957 97.8185 25.1468L84.2648 57.5084H93.746L95.6329 52.2944H107.219L108.314 57.5084H116.67L109.378 22.5852H101.663ZM102.989 32.0193L105.725 45.1332H98.2314L102.989 32.0193ZM51.1915 22.5852L43.718 57.5084H52.7527L60.2228 22.5852H51.1915ZM37.8258 22.5852L28.4219 46.3552L24.618 26.144C24.1715 23.8878 22.4089 22.5852 20.4515 22.5852H5.07817L4.86328 23.5991C8.0192 24.284 11.6049 25.3886 13.7771 26.5704C15.1066 27.2922 15.486 27.9234 15.9224 29.639L23.1273 57.5084H32.6756L47.3137 22.5852H37.8258Z" fill="white"/>
</mask>
<g mask="url(#mask0_6611_22737)">
<path d="M-6.84375 26.2591L103.319 -14.3112L128.381 53.7413L18.2189 94.3115" fill="url(#paint0_linear_6611_22737)"/>
</g>
<defs>
<linearGradient id="paint0_linear_6611_22737" x1="14.9924" y1="56.9547" x2="109.222" y2="22.2515" gradientUnits="userSpaceOnUse">
<stop stop-color="#222357"/>
<stop offset="1" stop-color="#254AA5"/>
</linearGradient>
</defs>
</svg>
