<svg width="111" height="80" viewBox="0 0 111 80" fill="none" xmlns="http://www.w3.org/2000/svg">
<path d="M35.1477 19.156V60.8438H24.9556L11.8516 19.156H35.1477Z" fill="#8B3FFD"/>
<path d="M63.349 11.7993C47.6425 11.7993 35.1484 24.4761 35.1484 39.9999C35.1484 55.7116 47.821 68.2005 63.349 68.2005C78.8772 68.2005 91.5496 55.5236 91.5496 39.9999C91.5496 24.4761 78.8772 11.7993 63.349 11.7993ZM63.349 50.5282C57.6376 50.5282 52.8185 45.7071 52.8185 39.9999C52.8185 34.2926 57.6376 29.4716 63.349 29.4716C69.0606 29.4716 73.8795 34.2926 73.8795 39.9999C73.7014 45.7071 69.0606 50.5282 63.349 50.5282Z" fill="#8B3FFD"/>
</svg>
