<svg width="24" height="24" viewBox="0 0 24 24" fill="none" xmlns="http://www.w3.org/2000/svg">
<path d="M5.75977 8.6399V18.2399C5.75977 18.7701 6.18957 19.1999 6.71977 19.1999H16.3198C16.85 19.1999 17.2798 18.7701 17.2798 18.2399V8.6399M5.75977 8.6399H17.2798M5.75977 8.6399V8.3519M17.2798 8.6399V8.3519M5.75977 8.3519V8.1599C5.75977 5.24384 8.65704 2.87655 11.5731 2.87655C14.4892 2.87655 17.2798 5.24384 17.2798 8.1599V8.3519M5.75977 8.3519C5.75977 8.51096 5.88871 8.6399 6.04777 8.6399H16.9918C17.1508 8.6399 17.2798 8.51096 17.2798 8.3519" stroke="#794E22" stroke-width="1.44"/>
<path d="M8.55773 3.67129L7.13428 2.06787M15.0819 3.67129L16.4105 2.06791" stroke="#794E22" stroke-width="1.44" stroke-linecap="round"/>
<path d="M2.87988 10.0798V16.7998C2.87988 17.5951 3.52459 18.2398 4.31988 18.2398C5.11517 18.2398 5.75988 17.5951 5.75988 16.7998V10.0798C5.75988 9.28448 5.11517 8.63977 4.31988 8.63977C3.52459 8.63977 2.87988 9.28448 2.87988 10.0798Z" stroke="#794E22" stroke-width="1.44"/>
<path d="M17.2798 10.0798V16.7998C17.2798 17.5951 17.9245 18.2398 18.7198 18.2398C19.5151 18.2398 20.1598 17.5951 20.1598 16.7998V10.0798C20.1598 9.28448 19.5151 8.63977 18.7198 8.63977C17.9245 8.63977 17.2798 9.28448 17.2798 10.0798Z" stroke="#794E22" stroke-width="1.44"/>
<path d="M12.48 19.1998V21.5998C12.48 22.3951 13.1247 23.0398 13.92 23.0398V23.0398C14.7153 23.0398 15.36 22.3951 15.36 21.5998V19.1998" stroke="#794E22" stroke-width="1.44"/>
<path d="M7.67993 19.1998V21.5998C7.67993 22.3951 8.32464 23.0398 9.11993 23.0398V23.0398C9.91522 23.0398 10.5599 22.3951 10.5599 21.5998V19.1998" stroke="#794E22" stroke-width="1.44"/>
<circle cx="9.51043" cy="6.1014" r="0.638848" fill="#794E22"/>
<circle cx="13.7792" cy="6.1014" r="0.638848" fill="#794E22"/>
</svg>
