<svg width="24" height="24" viewBox="0 0 24 24" fill="none" xmlns="http://www.w3.org/2000/svg">
<path d="M20.8801 17.28V6.72C20.8801 4.73177 19.2683 3.12 17.2801 3.12H6.72009C4.73186 3.12 3.12009 4.73177 3.12009 6.72V17.28C3.12009 19.2682 4.73186 20.88 6.72009 20.88H17.2801C19.2683 20.88 20.8801 19.2682 20.8801 17.28Z" stroke="#794E22" stroke-width="1.44"/>
<path d="M6.79878 10.3577C6.52954 10.3577 6.31128 10.1394 6.31128 9.87016C6.31128 9.60092 6.52954 9.38266 6.79878 9.38266H6.87753C7.14677 9.38266 7.36503 9.60092 7.36503 9.87016C7.36503 10.1394 7.14677 10.3577 6.87753 10.3577H6.79878ZM6.83815 14.8802C6.54717 14.8802 6.31128 14.6443 6.31128 14.3533V11.4245C6.31128 11.1336 6.54717 10.8977 6.83815 10.8977C7.12914 10.8977 7.36503 11.1335 7.36503 11.4245V14.3533C7.36503 14.6443 7.12914 14.8802 6.83815 14.8802Z" fill="#794E22"/>
<path d="M7.96248 12.1652C7.96248 11.6052 8.04623 11.1352 8.21373 10.7552C8.33873 10.4752 8.50873 10.2239 8.72373 10.0014C8.94123 9.77891 9.17873 9.61391 9.43623 9.50641C9.77873 9.36141 10.1737 9.28891 10.6212 9.28891C11.4312 9.28891 12.0787 9.54016 12.5637 10.0427C13.0512 10.5452 13.295 11.2439 13.295 12.1389C13.295 13.0264 13.0537 13.7214 12.5712 14.2239C12.0887 14.7239 11.4437 14.9739 10.6362 14.9739C9.81873 14.9739 9.16873 14.7252 8.68623 14.2277C8.20373 13.7277 7.96248 13.0402 7.96248 12.1652ZM9.10623 12.1277C9.10623 12.7502 9.24998 13.2227 9.53748 13.5452C9.82498 13.8652 10.19 14.0252 10.6325 14.0252C11.075 14.0252 11.4375 13.8664 11.72 13.5489C12.005 13.2289 12.1475 12.7502 12.1475 12.1127C12.1475 11.4827 12.0087 11.0127 11.7312 10.7027C11.4562 10.3927 11.09 10.2377 10.6325 10.2377C10.175 10.2377 9.80623 10.3952 9.52623 10.7102C9.24623 11.0227 9.10623 11.4952 9.10623 12.1277Z" fill="#794E22"/>
<path d="M13.7342 13.6478C13.6365 13.3506 13.8708 13.0665 14.1822 13.0363C14.4718 13.0081 14.7183 13.2165 14.8509 13.4755C14.915 13.6007 14.9943 13.7039 15.0887 13.7852C15.2887 13.9552 15.5574 14.0402 15.8949 14.0402C16.2524 14.0402 16.5212 13.9652 16.7012 13.8152C16.8837 13.6627 16.9749 13.4852 16.9749 13.2827C16.9749 13.1527 16.9362 13.0427 16.8587 12.9527C16.7837 12.8602 16.6512 12.7802 16.4612 12.7127C16.3312 12.6677 16.0349 12.5877 15.5724 12.4727C14.9774 12.3252 14.5599 12.1439 14.3199 11.9289C13.9824 11.6264 13.8137 11.2577 13.8137 10.8227C13.8137 10.5427 13.8924 10.2814 14.0499 10.0389C14.2099 9.79391 14.4387 9.60766 14.7362 9.48016C15.0362 9.35266 15.3974 9.28891 15.8199 9.28891C16.5099 9.28891 17.0287 9.44016 17.3762 9.74266C17.5814 9.92002 17.7294 10.1322 17.8204 10.3792C17.9327 10.6843 17.6657 10.9654 17.3409 10.9797C17.042 10.9928 16.8105 10.7575 16.6305 10.5184C16.5947 10.4709 16.5545 10.4298 16.5099 10.3952C16.3549 10.2702 16.1212 10.2077 15.8087 10.2077C15.4862 10.2077 15.2337 10.2739 15.0512 10.4064C14.9337 10.4914 14.8749 10.6052 14.8749 10.7477C14.8749 10.8777 14.9299 10.9889 15.0399 11.0814C15.1799 11.1989 15.5199 11.3214 16.0599 11.4489C16.5999 11.5764 16.9987 11.7089 17.2562 11.8464C17.5162 11.9814 17.7187 12.1677 17.8637 12.4052C18.0112 12.6402 18.0849 12.9314 18.0849 13.2789C18.0849 13.5939 17.9974 13.8889 17.8224 14.1639C17.6474 14.4389 17.3999 14.6439 17.0799 14.7789C16.7599 14.9114 16.3612 14.9777 15.8837 14.9777C15.1887 14.9777 14.6549 14.8177 14.2824 14.4977C14.0317 14.2806 13.849 13.9973 13.7342 13.6478Z" fill="#794E22"/>
</svg>
