<svg width="24" height="24" viewBox="0 0 24 24" fill="none" xmlns="http://www.w3.org/2000/svg">
<path d="M3.25708 21.2719V11.7163C3.25708 6.80198 7.24095 2.81812 12.1553 2.81812V2.81812C17.0697 2.81812 21.0535 6.80198 21.0535 11.7163V21.2719" stroke="#794E22" stroke-width="1.44" stroke-linecap="round"/>
<path d="M17.25 19.5C17.25 19.5839 17.2124 19.7317 17.0022 19.9388C16.7893 20.1485 16.4428 20.3719 15.9542 20.5755C14.9802 20.9813 13.5826 21.25 12 21.25C10.4174 21.25 9.01984 20.9813 8.04582 20.5755C7.55717 20.3719 7.2107 20.1485 6.99785 19.9388C6.78764 19.7317 6.75 19.5839 6.75 19.5C6.75 19.4161 6.78764 19.2683 6.99785 19.0612C7.2107 18.8515 7.55717 18.6281 8.04582 18.4245C9.01984 18.0187 10.4174 17.75 12 17.75C13.5826 17.75 14.9802 18.0187 15.9542 18.4245C16.4428 18.6281 16.7893 18.8515 17.0022 19.0612C17.2124 19.2683 17.25 19.4161 17.25 19.5Z" stroke="#794E22" stroke-width="1.5"/>
<ellipse cx="14.9831" cy="13.4353" rx="4.19625" ry="2.98301" transform="rotate(90 14.9831 13.4353)" stroke="#794E22" stroke-width="1.44"/>
<ellipse cx="14.7285" cy="15.3712" rx="1.44" ry="0.96" transform="rotate(90 14.7285 15.3712)" fill="#794E22"/>
<ellipse cx="15.6815" cy="5.95671" rx="1.41306" ry="0.835109" transform="rotate(34.2287 15.6815 5.95671)" fill="#794E22"/>
<ellipse cx="9.01699" cy="13.4353" rx="4.19625" ry="2.98301" transform="rotate(90 9.01699 13.4353)" stroke="#794E22" stroke-width="1.44"/>
<ellipse cx="9.27145" cy="15.3726" rx="1.44" ry="0.96" transform="rotate(90 9.27145 15.3726)" fill="#794E22"/>
<ellipse cx="11.9599" cy="16.44" rx="1.44" ry="0.96" transform="rotate(90 11.9599 16.44)" fill="#794E22"/>
</svg>
