<svg width="24" height="24" viewBox="0 0 24 24" fill="none" xmlns="http://www.w3.org/2000/svg">
<path d="M8.16011 6.24006C10.0801 6.23999 10.7576 7.34043 12.4801 7.19999C14.0764 7.06984 14.3041 6.23999 15.8401 6.23999C17.3761 6.23999 19.2001 7.35999 19.6801 8.15999C18.8801 8.47999 17.2801 9.69599 17.2801 12C17.2801 14.304 19.2001 15.36 20.1601 15.84C19.2001 18.72 16.8961 21.12 15.3601 21.12C13.4401 21.12 13.4401 20.16 12.0001 20.16C10.5601 20.16 10.5601 21.12 8.64011 21.12C6.72011 21.12 3.36011 17.28 3.36011 12C3.36011 7.77599 6.24011 6.24014 8.16011 6.24006Z" stroke="#794E22" stroke-width="1.44"/>
<path d="M12 4.8V4.32C12 1.93413 13.9341 0 16.32 0V0.480001C16.32 2.86587 14.3859 4.8 12 4.8Z" fill="#794E22"/>
</svg>
