<svg width="195" height="55" viewBox="0 0 195 55" fill="none" xmlns="http://www.w3.org/2000/svg">
<path d="M23.6708 22.4125H19.3953V32.0535C19.3953 33.6995 20.3454 34.0522 21.8893 34.0522C22.4832 34.0522 23.077 33.9346 23.6708 33.9346V38.9902C22.3644 38.9902 21.058 39.2254 19.8704 39.2254C13.9322 39.2254 12.3883 37.4618 12.3883 31.7007V22.4125H8.82544V17.8272H12.3883V11.4783H19.3953V17.8272H23.6708V22.4125ZM29.8464 30.1723C29.9652 33.1116 31.6279 34.9928 34.597 34.9928C36.2596 34.9928 37.9223 34.1698 38.6349 32.6413H45.1668C43.9792 37.5794 39.3475 39.6957 34.597 39.6957C27.59 39.6957 22.8394 35.5806 22.8394 28.4087C22.8394 21.9422 28.065 17.2393 34.3594 17.2393C42.079 17.2393 45.8794 23.0004 45.5231 30.1723H29.8464ZM38.5161 26.2924C38.3974 23.941 36.7347 21.9422 34.3594 21.9422C31.8654 21.9422 30.2027 23.7058 29.8464 26.2924H38.5161ZM60.9623 25.587C60.9623 23.8234 59.2996 22.5301 57.5182 22.5301C53.599 22.5301 53.0052 25.8221 53.0052 28.7614C53.0052 31.4656 54.1928 34.2873 57.1619 34.2873C59.6559 34.2873 60.8435 32.8765 61.1998 30.6426H67.9693C67.3755 36.4036 62.9813 39.6957 57.2806 39.6957C50.8675 39.6957 45.9982 35.3455 45.9982 28.879C45.9982 22.1774 50.2736 17.3569 57.2806 17.3569C62.625 17.3569 67.3755 20.1786 67.8505 25.7045H60.9623V25.587ZM68.2068 11.4783H75.2138V20.7665H75.3326C76.4014 18.6502 79.2518 17.2393 81.8645 17.2393C88.9903 17.2393 89.5841 22.4125 89.5841 25.4694V39.1078H82.5771V28.879C82.5771 25.9397 82.9334 23.0004 79.0142 23.0004C76.4014 23.0004 75.2138 25.2342 75.2138 27.5857V39.1078H68.2068V11.4783ZM90.1779 17.8272H96.9474V21.5895H97.0662C98.135 18.8853 100.51 17.4745 103.479 17.4745C104.073 17.4745 104.548 17.4745 105.142 17.592V23.941C104.192 23.7058 103.361 23.5882 102.41 23.5882C98.9664 23.5882 97.1849 25.9397 97.1849 28.6439V39.1078H90.1779V17.8272ZM105.142 24.4112C105.261 21.5895 106.567 19.8259 108.467 18.7678C110.368 17.7096 112.862 17.2393 115.237 17.2393C120.344 17.2393 125.213 18.2975 125.213 24.2937V33.5819C125.213 35.3455 125.213 37.3442 126.044 38.9902H119.037C118.8 38.2848 118.681 37.6969 118.681 36.9915C116.781 38.9902 114.168 39.6957 111.555 39.6957C107.517 39.6957 104.192 37.6969 104.192 33.2292C104.192 26.2924 111.793 26.8803 116.662 25.8221C117.85 25.587 118.562 25.1167 118.562 23.8234C118.562 22.1774 116.662 21.5895 115.118 21.5895C113.218 21.5895 111.912 22.4125 111.555 24.2937H105.142V24.4112ZM114.168 35.4631C117.493 35.4631 118.681 33.5819 118.443 29.2317C117.493 29.8196 115.593 29.9371 114.168 30.4074C112.624 30.7602 111.318 31.4656 111.318 33.1116C111.318 34.7576 112.624 35.4631 114.168 35.4631ZM147.897 39.1078H141.246V36.6388H141.127C140.5 37.5967 139.637 38.3803 138.618 38.9153C137.6 39.4503 136.46 39.7189 135.308 39.6957C128.538 39.6957 125.688 33.9346 125.688 28.056C125.688 22.5301 128.657 17.3569 134.714 17.3569C137.327 17.3569 139.346 18.2975 140.771 20.2962H140.89V11.4783H147.897V39.1078ZM132.695 28.2911C132.695 31.2304 133.764 34.4049 136.97 34.4049C140.415 34.4049 141.127 31.2304 141.127 28.5263C141.127 25.4694 140.058 22.6477 136.97 22.6477C133.764 22.5301 132.695 25.587 132.695 28.2911ZM148.965 24.4112C149.084 21.5895 150.391 19.8259 152.291 18.7678C154.191 17.7096 156.685 17.2393 159.06 17.2393C164.167 17.2393 169.036 18.2975 169.036 24.2937V33.5819C169.036 35.3455 169.036 37.3442 169.868 38.9902H162.861C162.623 38.2848 162.504 37.6969 162.504 36.9915C160.604 38.9902 157.873 39.6957 155.379 39.6957C151.341 39.6957 148.015 37.6969 148.015 33.2292C148.015 26.2924 155.616 26.8803 160.485 25.8221C161.673 25.587 162.386 25.1167 162.386 23.8234C162.386 22.1774 160.485 21.5895 158.942 21.5895C157.041 21.5895 155.735 22.4125 155.379 24.2937H148.965V24.4112ZM157.991 35.4631C161.317 35.4631 162.504 33.5819 162.267 29.2317C161.317 29.8196 159.417 29.9371 157.991 30.4074C156.448 30.7602 155.141 31.4656 155.141 33.1116C155.022 34.7576 156.448 35.4631 157.991 35.4631ZM170.105 17.8272H176.875V21.5895H176.994C178.062 18.8853 180.438 17.4745 183.407 17.4745C184.001 17.4745 185.188 17.4745 185.782 17.592V23.941C184.832 23.7058 183.407 23.5882 182.457 23.5882C179.012 23.5882 177.231 25.9397 177.231 28.6439V39.1078H170.224V17.8272H170.105Z" fill="white"/>
<path d="M180.149 32.171H187.156V39.1078H180.149V32.171Z" fill="#E6248A"/>
</svg>
