<svg width="65" height="64" viewBox="0 0 65 64" fill="none" xmlns="http://www.w3.org/2000/svg">
<path d="M13.6667 26.6663H11.0001C9.58559 26.6663 8.22904 26.1044 7.22885 25.1042C6.22865 24.1041 5.66675 22.7475 5.66675 21.333V10.6663C5.66675 9.25185 6.22865 7.8953 7.22885 6.8951C8.22904 5.89491 9.58559 5.33301 11.0001 5.33301H53.6667C55.0812 5.33301 56.4378 5.89491 57.438 6.8951C58.4382 7.8953 59.0001 9.25185 59.0001 10.6663V21.333C59.0001 22.7475 58.4382 24.1041 57.438 25.1042C56.4378 26.1044 55.0812 26.6663 53.6667 26.6663H51.0001" stroke="#F18928" stroke-width="4" stroke-linecap="round" stroke-linejoin="round"/>
<path d="M13.6667 37.333H11.0001C9.58559 37.333 8.22904 37.8949 7.22885 38.8951C6.22865 39.8953 5.66675 41.2519 5.66675 42.6663V53.333C5.66675 54.7475 6.22865 56.1041 7.22885 57.1042C8.22904 58.1044 9.58559 58.6663 11.0001 58.6663H53.6667C55.0812 58.6663 56.4378 58.1044 57.438 57.1042C58.4382 56.1041 59.0001 54.7475 59.0001 53.333V42.6663C59.0001 41.2519 58.4382 39.8953 57.438 38.8951C56.4378 37.8949 55.0812 37.333 53.6667 37.333H51.0001" stroke="#F18928" stroke-width="4" stroke-linecap="round" stroke-linejoin="round"/>
<path d="M16.3334 16H16.36" stroke="#F18928" stroke-width="4" stroke-linecap="round" stroke-linejoin="round"/>
<path d="M16.3334 48H16.36" stroke="#F18928" stroke-width="4" stroke-linecap="round" stroke-linejoin="round"/>
<path d="M32.3334 44.5C39.2369 44.5 44.8334 38.9036 44.8334 32C44.8334 25.0964 39.2369 19.5 32.3334 19.5C25.4298 19.5 19.8334 25.0964 19.8334 32C19.8334 38.9036 25.4298 44.5 32.3334 44.5Z" stroke="#F18928" stroke-width="3" stroke-linecap="round" stroke-linejoin="round"/>
<path d="M19.8334 32H44.8334" stroke="#F18928" stroke-width="3" stroke-linecap="round" stroke-linejoin="round"/>
<path d="M32.3334 19.5C35.46 22.9229 37.2368 27.365 37.3334 32C37.2368 36.635 35.46 41.0771 32.3334 44.5C29.2068 41.0771 27.4299 36.635 27.3334 32C27.4299 27.365 29.2068 22.9229 32.3334 19.5V19.5Z" stroke="#F18928" stroke-width="3" stroke-linecap="round" stroke-linejoin="round"/>
</svg>
